<svg width="213" height="150" xmlns="http://www.w3.org/2000/svg" xmlns:xlink="http://www.w3.org/1999/xlink"><defs><ellipse id="a" cx="104.874" cy="74.957" rx="74.874" ry="74.957"/></defs><g fill="none" fill-rule="evenodd"><ellipse fill="#36305E" cx="9.527" cy="121.538" rx="9.527" ry="9.538"/><ellipse fill="#36305E" cx="207.008" cy="94.012" rx="3.008" ry="3.012"/><ellipse fill="#36305E" cx="35.008" cy="8.012" rx="3.008" ry="3.012"/><ellipse fill="#36305E" cx="206.516" cy="5.522" rx="5.516" ry="5.522"/><mask id="b" fill="#fff"><use xlink:href="#a"/></mask><use fill="#36305E" xlink:href="#a"/><path d="M102.25 90.88c-2.88-2.16-3.96-4.5-3.96-6.84 0-12.15 18.9-12.69 18.9-25.2 0-5.94-4.77-11.07-13.59-11.07-8.73 0-13.41 3.51-17.19 8.82l-2.07-1.89c3.96-5.67 10.08-9.63 19.26-9.63 10.53 0 16.74 6.48 16.74 13.77 0 13.95-19.35 15.21-19.35 25.2 0 1.35.99 3.42 2.97 4.77l-1.71 2.07zm-.27 15.93c-1.62 0-2.97-1.35-2.97-2.97 0-1.53 1.35-2.88 2.97-2.88s2.97 1.35 2.97 2.88c0 1.62-1.35 2.97-2.97 2.97z" fill="#3BF2DC" mask="url(#b)"/></g></svg>