<svg width="800" height="326" fill="none" xmlns="http://www.w3.org/2000/svg"><path fill-rule="evenodd" clip-rule="evenodd" d="M774 90l24 8.123L778.917 112 774 90z" stroke="#9A66FE" stroke-width="2.981" stroke-linecap="round" stroke-linejoin="round"/><path fill-rule="evenodd" clip-rule="evenodd" d="M453 59.835l22.096-12.4-2.457 23.467L453 59.835z" stroke="#F8B100" stroke-width="2.981" stroke-linecap="round" stroke-linejoin="round"/><path fill-rule="evenodd" clip-rule="evenodd" d="M198.524 42.44s-15.973 8.864-26.254 2.928c-7.881-4.55-10.764-14.312-6.439-21.803 4.326-7.492 14.221-9.876 22.102-5.326 10.382 5.994 10.591 24.2 10.591 24.2z" stroke="#9A66FE" stroke-width="2.981"/><path fill-rule="evenodd" clip-rule="evenodd" d="M198.631 42.821s15.973-8.864 26.254-2.928c7.882 4.55 10.764 14.312 6.439 21.803-4.326 7.492-14.221 9.877-22.102 5.326-10.382-5.994-10.591-24.2-10.591-24.2z" stroke="#4C5EFF" stroke-width="2.981"/><path fill-rule="evenodd" clip-rule="evenodd" d="M135.962 162c0 2.76-2.231 5-4.981 5-2.749 0-4.981-2.24-4.981-5s2.232-5 4.981-5c2.75 0 4.981 2.24 4.981 5z" stroke="#F8B100" stroke-width="2.898" stroke-linejoin="round"/><path fill-rule="evenodd" clip-rule="evenodd" d="M346.496 7c0 2.76-2.231 5-4.981 5-2.749 0-4.981-2.24-4.981-5s2.232-5 4.981-5c2.75 0 4.981 2.24 4.981 5z" stroke="#9A66FE" stroke-width="2.898" stroke-linejoin="round"/><path d="M631.494 57.913l-5.579 5.03 16.469 9.679 1.462-7.45" stroke="#9A66FE" stroke-width="3" stroke-linejoin="round"/><path d="M658.968 53.4c.876-1.545 3.056-1.603 4.033-.108l2.939 4.497a2.43 2.43 0 01.084 2.527l-5.611 9.895c-.876 1.544-3.056 1.602-4.033.107l-2.939-4.497a2.43 2.43 0 01-.084-2.527l5.611-9.895zM634.153 39.072c.875-1.544-.166-3.495-1.926-3.609l-5.295-.343a2.343 2.343 0 00-2.191 1.19l-5.612 9.894c-.876 1.544.165 3.495 1.926 3.609l5.295.343a2.343 2.343 0 002.191-1.189l5.612-9.895z" stroke="#4C5EFF" stroke-width="3" stroke-linejoin="round"/><path d="M630.619 74.385l-4.644 8.022M638.774 79.201l.387 3.754M622.461 69.569l-3.865 1.254" stroke="#4C5EFF" stroke-width="3" stroke-linecap="round" stroke-linejoin="round"/><path d="M647.899 23.387l7.237 4.179a2.387 2.387 0 01.874 3.261l-4.775 8.272a2.388 2.388 0 01-3.262.874l-11.374-6.566" stroke="#9A66FE" stroke-width="3"/><path d="M630.63 57.41l14.231 8.426c1.736 1.028 3.927.864 5.327-.578 13.616-14.024 24.688-45.424 16.058-50.557-8.854-5.265-33.815 19.338-37.781 38.139-.385 1.826.567 3.624 2.165 4.57z" stroke="#4C5EFF" stroke-width="3" stroke-linejoin="round"/><path d="M102.685 293.3c8.454-6.765 14.642-8.258 24.631-6.6M160.218 277.884l3.079-.825M66.704 302.941l3.079-.825" stroke="#9A66FE" stroke-width="3" stroke-linecap="round" stroke-linejoin="round"/><ellipse cx="142.71" cy="282.575" rx="15.938" ry="16" transform="rotate(-15 142.71 282.575)" stroke="#4C5EFF" stroke-width="3"/><ellipse cx="87.29" cy="297.425" rx="15.938" ry="16" transform="rotate(-15 87.29 297.425)" stroke="#4C5EFF" stroke-width="3"/><path fill-rule="evenodd" clip-rule="evenodd" d="M62 101h18V83H62v18z" stroke="#4C5EFF" stroke-width="3" stroke-linecap="round" stroke-linejoin="round"/><path fill-rule="evenodd" clip-rule="evenodd" d="M765 236v0c-4.969 0-9-4.031-9-9s4.031-9 9-9 9 4.031 9 9-4.031 9-9 9z" stroke="#F8B100" stroke-width="3" stroke-linecap="round" stroke-linejoin="round"/><path fill-rule="evenodd" clip-rule="evenodd" d="M20 226.8H2l9-16.8 9 16.8z" stroke="#38C0B8" stroke-width="3" stroke-linecap="round" stroke-linejoin="round"/><path d="M673.463 157.032c.369-.8 1.505-.8 1.874 0l2.037 4.416c.151.326.46.551.816.593l4.83.573c.874.103 1.226 1.185.579 1.783l-3.571 3.302a1.033 1.033 0 00-.311.959l.948 4.77c.171.864-.748 1.532-1.517 1.102l-4.244-2.376a1.033 1.033 0 00-1.008 0l-4.244 2.376c-.769.43-1.688-.238-1.517-1.102l.948-4.77a1.033 1.033 0 00-.311-.959l-3.571-3.302c-.647-.598-.295-1.68.579-1.783l4.83-.573c.356-.042.665-.267.816-.593l2.037-4.416z" stroke="#38C0B8" stroke-width="3"/><path fill-rule="evenodd" clip-rule="evenodd" d="M644.408 324l21.682-10.785-10.841-21.774L644.408 324z" stroke="#4C5EFF" stroke-width="3" stroke-linecap="round" stroke-linejoin="round"/><path fill-rule="evenodd" clip-rule="evenodd" d="M638 299.753l11.387 9.296L644.409 324 638 299.753zM671.737 297.004l10.227 4.602-15.985 11.663 5.758-16.265zM655.354 291.419l16.227 5.289-5.114-13.738-11.113 8.449zM652.422 277.8l14.106 5.112-10.902 8.149-3.204-13.261z" stroke="#4C5EFF" stroke-width="3" stroke-linecap="round" stroke-linejoin="round"/><path fill-rule="evenodd" clip-rule="evenodd" d="M671.477 296.332L686 289.051l-19.637-6.457 5.114 13.738z" stroke="#4C5EFF" stroke-width="3" stroke-linecap="round" stroke-linejoin="round"/><path fill-rule="evenodd" clip-rule="evenodd" d="M679.181 276l-12.818 6.594L686 289.051 679.181 276z" stroke="#4C5EFF" stroke-width="3" stroke-linecap="round" stroke-linejoin="round"/><path fill-rule="evenodd" clip-rule="evenodd" d="M652.387 277.649L679.182 276l-12.925 6.685-13.87-5.036zM655.25 291.043L638 299.354l14.386-21.706 2.864 13.395zM681.931 301.568l-10.917-4.976L686 289.051l-4.069 12.517z" stroke="#4C5EFF" stroke-width="3" stroke-linecap="round" stroke-linejoin="round"/></svg>