<svg width="740" height="296" fill="none" xmlns="http://www.w3.org/2000/svg"><path fill-rule="evenodd" clip-rule="evenodd" d="M2 250l24 8.123L6.917 272 2 250z" stroke="#9A66FE" stroke-width="2.981" stroke-linecap="round" stroke-linejoin="round"/><path fill-rule="evenodd" clip-rule="evenodd" d="M602 280.835l22.096-12.4-2.457 23.467L602 280.835z" stroke="#F8B100" stroke-width="2.981" stroke-linecap="round" stroke-linejoin="round"/><path fill-rule="evenodd" clip-rule="evenodd" d="M131.962 266c0 2.76-2.231 5-4.981 5-2.749 0-4.981-2.24-4.981-5s2.232-5 4.981-5c2.75 0 4.981 2.24 4.981 5z" stroke="#38C0B8" stroke-width="2.898" stroke-linejoin="round"/><path fill-rule="evenodd" clip-rule="evenodd" d="M36.962 98c0 2.76-2.231 5-4.98 5-2.75 0-4.982-2.24-4.982-5s2.232-5 4.981-5c2.75 0 4.981 2.24 4.981 5z" stroke="#4C5EFF" stroke-width="2.898" stroke-linejoin="round"/><path fill-rule="evenodd" clip-rule="evenodd" d="M285.272 53L298 65.728 310.728 53 298 40.272 285.272 53zM729 219v0c-4.969 0-9-4.031-9-9s4.031-9 9-9 9 4.031 9 9-4.031 9-9 9z" stroke="#4C5EFF" stroke-width="3" stroke-linecap="round" stroke-linejoin="round"/><path fill-rule="evenodd" clip-rule="evenodd" d="M738 105.8h-18l9-16.8 9 16.8z" stroke="#38C0B8" stroke-width="3" stroke-linecap="round" stroke-linejoin="round"/><path d="M432.463 3.032c.369-.8 1.505-.8 1.874 0l2.037 4.416c.151.326.46.55.816.593l4.83.573c.874.103 1.226 1.185.579 1.783l-3.571 3.302a1.033 1.033 0 00-.311.959l.948 4.77c.171.864-.748 1.532-1.517 1.102l-4.244-2.376a1.032 1.032 0 00-1.008 0l-4.244 2.376c-.769.43-1.688-.238-1.517-1.102l.948-4.77a1.033 1.033 0 00-.311-.96l-3.571-3.301c-.647-.598-.295-1.68.579-1.783l4.83-.573c.356-.042.665-.267.816-.593l2.037-4.416z" stroke="#38C0B8" stroke-width="3"/><path fill-rule="evenodd" clip-rule="evenodd" d="M123.689 27.302l-5.382-5.383a6.089 6.089 0 010-8.613v0a6.09 6.09 0 018.612 0l5.383 5.383-8.613 8.613z" stroke="#F8B100" stroke-width="3"/><path d="M123.505 27.117l24.59 24.59c.261.262.61.419.979.442l6.897.436c.914.058 1.672-.7 1.614-1.614l-.435-6.897a1.524 1.524 0 00-.443-.98l-24.59-24.59-8.612 8.613z" stroke="#F8B100" stroke-width="3"/><rect x="654.934" y="137" width="16.24" height="64.96" rx="2.03" transform="rotate(45 654.934 137)" stroke="#9A66FE" stroke-width="3"/><path d="M649.191 142.742l4.307 4.306M643.451 148.483l2.871 2.871M637.709 154.226l4.306 4.306M631.967 159.967l2.871 2.871M626.225 165.709l4.306 4.306M614.742 177.192l4.306 4.307M620.482 171.45l2.871 2.871" stroke="#9A66FE" stroke-width="3" stroke-linecap="round" stroke-linejoin="round"/><path d="M626.611 43.617l4.432-16.538-17.387-4.659-4.431 16.538" stroke="#38C0B8" stroke-width="3" stroke-linecap="round" stroke-linejoin="round"/><path d="M626.619 43.587l1.318-4.917-17.387-4.659-1.325 4.947" stroke="#38C0B8" stroke-width="3"/><path d="M604.5 66.775L585 33l15.588-9 15 25.98" stroke="#4C5EFF" stroke-width="3" stroke-linecap="round" stroke-linejoin="round"/><path stroke="#4C5EFF" stroke-width="3" d="M597 53.785l-6-10.393 15.589-9 6 10.393z"/><path fill-rule="evenodd" clip-rule="evenodd" d="M604.5 66.775a9 9 0 0012.294 3.294l33.775-19.5-9-15.589-33.775 19.5a9 9 0 00-3.294 12.295v0z" stroke="#F8B100" stroke-width="3" stroke-linecap="round" stroke-linejoin="round"/><path stroke="#F8B100" stroke-width="3" d="M620.784 46.98l10.392-6 9 15.589-10.392 6z"/><circle cx="612.294" cy="62.275" r="3" transform="rotate(-30 612.294 62.275)" stroke="#F8B100" stroke-width="3"/><path d="M103.689 162.975l4.145-8.581 7.065 3.242 5.689-10.557" stroke="#38C0B8" stroke-width="3" stroke-linecap="round" stroke-linejoin="round"/><path d="M105.344 171.967l20.305-3.741M106.586 178.711l14.665-2.702" stroke="#F8B100" stroke-width="3" stroke-linecap="round" stroke-linejoin="round"/><path fill-rule="evenodd" clip-rule="evenodd" d="M133.702 183.012l-30.615 5.64c-2.136.393-4.167-.906-4.535-2.901l-7.364-39.979c-.368-1.995 1.067-3.933 3.203-4.326l30.616-5.64c2.137-.393 4.168.906 4.536 2.901l7.364 39.979c.368 1.995-1.067 3.933-3.205 4.326z" stroke="#4C5EFF" stroke-width="3" stroke-linecap="round" stroke-linejoin="round"/><path d="M115.521 146.851l5.988-1.103 1.1 5.971" stroke="#38C0B8" stroke-width="3" stroke-linecap="round" stroke-linejoin="round"/></svg>