<svg width="301" height="188" fill="none" xmlns="http://www.w3.org/2000/svg"><path fill-rule="evenodd" clip-rule="evenodd" d="M234 164l24 8.123L238.917 186 234 164z" stroke="#9A66FE" stroke-width="2.981" stroke-linecap="round" stroke-linejoin="round"/><path fill-rule="evenodd" clip-rule="evenodd" d="M11.962 84c0 2.76-2.231 5-4.98 5C4.231 89 2 86.76 2 84s2.232-5 4.981-5c2.75 0 4.981 2.24 4.981 5z" stroke="#38C0B8" stroke-width="2.898" stroke-linejoin="round"/><path fill-rule="evenodd" clip-rule="evenodd" d="M113.962 95c0 2.76-2.231 5-4.981 5-2.749 0-4.981-2.24-4.981-5s2.232-5 4.981-5c2.75 0 4.981 2.24 4.981 5z" stroke="#4C5EFF" stroke-width="2.898" stroke-linejoin="round"/><path fill-rule="evenodd" clip-rule="evenodd" d="M163 37v0c-4.969 0-9-4.03-9-9s4.031-9 9-9 9 4.03 9 9-4.031 9-9 9z" stroke="#4C5EFF" stroke-width="3" stroke-linecap="round" stroke-linejoin="round"/><path d="M254.463 5.032c.369-.8 1.505-.8 1.874 0l2.037 4.416c.151.326.46.55.816.593l4.83.573c.874.103 1.226 1.185.579 1.783l-3.571 3.302a1.033 1.033 0 00-.311.959l.948 4.77c.171.864-.748 1.532-1.517 1.102l-4.244-2.376a1.032 1.032 0 00-1.008 0l-4.244 2.376c-.769.43-1.688-.238-1.517-1.102l.948-4.77a1.033 1.033 0 00-.311-.96l-3.571-3.301c-.647-.598-.295-1.68.579-1.783l4.83-.573c.356-.042.665-.267.816-.593l2.037-4.416z" stroke="#38C0B8" stroke-width="3"/><path fill-rule="evenodd" clip-rule="evenodd" d="M35.69 21.302l-5.383-5.383a6.09 6.09 0 010-8.613v0a6.09 6.09 0 018.612 0l5.383 5.383-8.612 8.613z" stroke="#F8B100" stroke-width="3"/><path d="M35.505 21.117l24.59 24.59c.261.262.61.419.98.442l6.896.436c.914.058 1.672-.7 1.614-1.614l-.435-6.897a1.52 1.52 0 00-.443-.98l-24.59-24.59-8.612 8.613z" stroke="#F8B100" stroke-width="3"/><rect x="177.934" y="115" width="16.24" height="64.96" rx="2.03" transform="rotate(45 177.934 115)" stroke="#9A66FE" stroke-width="3"/><path d="M172.191 120.742l4.307 4.306M166.451 126.483l2.871 2.871M160.709 132.226l4.306 4.306M154.967 137.967l2.871 2.871M149.225 143.709l4.306 4.306M137.742 155.192l4.306 4.307M143.482 149.45l2.871 2.871" stroke="#9A66FE" stroke-width="3" stroke-linecap="round" stroke-linejoin="round"/><path d="M274.611 92.617l4.432-16.538-17.387-4.659-4.431 16.538" stroke="#38C0B8" stroke-width="3" stroke-linecap="round" stroke-linejoin="round"/><path d="M274.619 92.587l1.318-4.917-17.387-4.659-1.325 4.947" stroke="#38C0B8" stroke-width="3"/><path d="M252.5 115.775L233 82l15.588-9 15 25.98" stroke="#4C5EFF" stroke-width="3" stroke-linecap="round" stroke-linejoin="round"/><path stroke="#4C5EFF" stroke-width="3" d="M245 102.785l-6-10.392 15.588-9 6 10.392z"/><path fill-rule="evenodd" clip-rule="evenodd" d="M252.5 115.775a9 9 0 0012.294 3.294l33.775-19.5-9-15.588-33.775 19.499a9.002 9.002 0 00-3.294 12.295v0z" stroke="#F8B100" stroke-width="3" stroke-linecap="round" stroke-linejoin="round"/><path stroke="#F8B100" stroke-width="3" d="M268.784 95.98l10.393-6 9 15.59-10.393 6z"/><circle cx="260.294" cy="111.275" r="3" transform="rotate(-30 260.294 111.275)" stroke="#F8B100" stroke-width="3"/><path d="M19.689 151.975l4.145-8.581 7.065 3.241 5.69-10.556" stroke="#38C0B8" stroke-width="3" stroke-linecap="round" stroke-linejoin="round"/><path d="M21.344 160.967l20.305-3.741M22.586 167.71l14.665-2.701" stroke="#F8B100" stroke-width="3" stroke-linecap="round" stroke-linejoin="round"/><path fill-rule="evenodd" clip-rule="evenodd" d="M49.702 172.012l-30.615 5.64c-2.136.393-4.167-.906-4.535-2.901l-7.364-39.979c-.367-1.995 1.067-3.933 3.203-4.326l30.616-5.64c2.137-.393 4.168.906 4.536 2.901l7.364 39.979c.368 1.995-1.067 3.933-3.205 4.326z" stroke="#4C5EFF" stroke-width="3" stroke-linecap="round" stroke-linejoin="round"/><path d="M31.521 135.851l5.988-1.103 1.1 5.971" stroke="#38C0B8" stroke-width="3" stroke-linecap="round" stroke-linejoin="round"/></svg>