<svg id="Layer_1" data-name="Layer 1" xmlns="http://www.w3.org/2000/svg" viewBox="0 0 108 14"><defs><style>.cls-1{fill:#fff}.cls-3{fill:#e6772f}.cls-5{fill:#1a1919}.cls-7{fill:#006}.cls-11{fill:#fffffe}</style><mask id="mask" x="61.74" y="7.86" width="18.29" height="6.14" maskUnits="userSpaceOnUse"><path class="cls-1" d="M61.74 14h17.35a1 1 0 001-.95V7.86S73.57 12.1 61.74 14z" id="mask0"/></mask></defs><rect x="56.05" y=".12" width="23.87" height="13.76" rx=".83" ry=".83" stroke="#e6772f" stroke-width=".24" fill="#fff"/><path class="cls-3" d="M61.74 14h17.35a1 1 0 001-.95V7.86S73.57 12.1 61.74 14z"/><path class="cls-5" d="M60.34 7a1.14 1.14 0 01-.78.21h-.16V5.39h.16a1.15 1.15 0 01.78.21.93.93 0 01.31.68.91.91 0 01-.31.72zm-.67-2h-.83v2.7h.83a1.63 1.63 0 001-.31 1.34 1.34 0 00.53-1 1.4 1.4 0 00-1.53-1.46zM61.5 4.93h.57v2.7h-.57zM63.46 6c-.34-.11-.44-.19-.44-.34s.18-.29.42-.29a.61.61 0 01.46.21l.3-.36a1.33 1.33 0 00-.86-.3.84.84 0 00-.91.78c0 .37.19.56.72.74a2.22 2.22 0 01.39.15.31.31 0 01.17.28.4.4 0 01-.44.38.67.67 0 01-.62-.36l-.37.33a1.17 1.17 0 001 .52.92.92 0 001-.89c.02-.47-.17-.67-.82-.85zM64.48 6.28A1.45 1.45 0 0066 7.69a1.53 1.53 0 00.71-.16v-.62a.9.9 0 01-.68.3.91.91 0 01-1-.93.93.93 0 011-.93 1 1 0 01.71.3V5a1.62 1.62 0 00-.7-.16 1.48 1.48 0 00-1.56 1.44zM71.35 6.74l-.78-1.81H70l1.18 2.77h.31l1.26-2.77h-.62zM73 7.63h1.61v-.46h-1v-.73h1V6h-1v-.6h1v-.47H73zM75.73 6.17h-.16v-.82h.17c.36 0 .55.14.55.41s-.19.41-.56.41zm1.15-.44c0-.51-.38-.8-1-.8H75v2.7h.57V6.54h.07l.79 1.09h.7l-.92-1.14a.73.73 0 00.67-.76z"/><path class="cls-3" d="M70 6.29a1.53 1.53 0 01-3 0 1.53 1.53 0 013 0z"/><rect x="83.89" width="24.11" height="14" rx=".95" ry=".95" fill="#0072ce"/><path class="cls-1" d="M104.24 8.09h-.85a.34.34 0 00-.19 0 .15.15 0 00-.07.14.14.14 0 00.1.14.5.5 0 00.18 0h.26a.76.76 0 01.53.15.1.1 0 010 .05zm0 1.24a.74.74 0 01-.63.24h-.91v-.4h.9a.26.26 0 00.19-.05.17.17 0 00.06-.12.18.18 0 00-.06-.13.3.3 0 00-.17 0c-.43 0-1 0-1-.58 0-.27.18-.56.67-.56h.93v-.42h-.86a1 1 0 00-.59.16v-.16h-1.28a.91.91 0 00-.56.16v-.16h-2.26v.16a1.23 1.23 0 00-.67-.16h-1.47v.16a1.05 1.05 0 00-.66-.16h-1.68l-.39.4-.36-.4h-2.52v2.63h2.47l.4-.4.37.4h1.53v-.61h.15a1.66 1.66 0 00.65-.1v.71h1.25v-.68h.06c.08 0 .09 0 .09.08v.6h3.82a1.17 1.17 0 00.63-.16v.16h1.21a1.64 1.64 0 00.69-.12zm-1.86-.75a.51.51 0 01.14.4c0 .4-.27.59-.74.59h-.91v-.4h.91a.26.26 0 00.19-.05A.17.17 0 00102 9a.14.14 0 000-.12.26.26 0 00-.17-.05c-.43 0-1 0-1-.58 0-.27.18-.56.67-.56h.93v.4h-.85a.34.34 0 00-.19 0 .15.15 0 00-.07.14.14.14 0 00.1.14.47.47 0 00.18 0h.25a.77.77 0 01.53.21zm-4.22-.12a.41.41 0 01-.23 0h-.57v-.38h.58a.51.51 0 01.22 0 .18.18 0 01.1.17.2.2 0 01-.1.21zm.28.24a.41.41 0 01.23.16.48.48 0 01.08.34v.37h-.47v-.23A.52.52 0 0098.2 9c-.06-.07-.17-.09-.34-.09h-.5v.69h-.47V7.69H98a1.16 1.16 0 01.56.09.43.43 0 01.24.42.52.52 0 01-.36.5zm.59-1h1.56v.39H99.5v.34h1.07v.39H99.5v.37h1.09v.39H99zm-3.15.87h-.6v-.49h.6c.17 0 .29.06.29.23s-.11.25-.29.25zm-1.07.84l-.72-.77.72-.74zM93 9.18h-1.19v-.37h1v-.39h-1v-.34H93l.51.55zm3.71-.87c0 .52-.4.63-.81.63h-.58v.63h-.91L93.79 9l-.6.62h-1.85V7.69h1.88l.58.62.59-.62h1.49c.38 0 .79.1.79.62zM89.11 5.51l-.32-.75-.31.75zm7-.3a.41.41 0 01-.23 0h-.57v-.38h.58a.51.51 0 01.22 0 .16.16 0 01.1.16.19.19 0 01-.05.22zm4 .3l-.32-.75-.33.75zm-7.55.82h-.48V4.85l-.58 1.48h-.41l-.68-1.48v1.48h-1l-.18-.42h-1l-.18.42h-.51l.84-1.89h.69L90 6.23V4.44h.76l.61 1.28.56-1.28h.78v1.89zm1.91 0H93V4.44h1.56v.39h-1.08v.34h1.06v.39h-1.06v.38h1.09zM96.77 5a.53.53 0 01-.33.5.52.52 0 01.23.16.51.51 0 01.08.35v.37h-.47v-.29a.52.52 0 00-.08-.37c-.07-.07-.17-.08-.34-.08h-.5v.69h-.47V4.44H96a1.16 1.16 0 01.56.09.44.44 0 01.21.47zm.75 1.38H97V4.44h.48zm5.53 0h-.66l-.89-1.42v1.37h-1l-.18-.42h-1l-.18.42h-.55a1 1 0 01-.59-.21.91.91 0 01-.25-.72 1 1 0 01.25-.74 1 1 0 01.71-.22h.45v.4h-.44a.45.45 0 00-.36.12.6.6 0 00-.14.42.64.64 0 00.13.45.48.48 0 00.33.09h.21l.66-1.48h.7l.75 1.78V4.44h.71l.82 1.31V4.44h.48zm-15.44.32h.8l.18-.42H89l.18.42h1.58v-.32l.14.32h.81l.14-.33v.33h3.91V6h.08c.05 0 .07 0 .07.09v.6h2v-.15a1.67 1.67 0 00.75.16h.85l.18-.42h.4l.18.42h1.64v-.4l.24.4h1.32V4.07h-1.3v.31l-.17-.31h-1.34v.31l-.16-.31h-1.8a1.7 1.7 0 00-.78.15v-.15h-1.26v.15a.75.75 0 00-.52-.15H91.6l-.3.68-.3-.68h-1.45v.31l-.15-.31h-1.22l-.57 1.25V6.7z"/><rect class="cls-7" x="27.96" width="24.11" height="14" rx=".95" ry=".95"/><path d="M41.5 7.11a4.71 4.71 0 01-9.41 0 4.71 4.71 0 019.41 0z" fill="#c00"/><path d="M43.11 2.56A4.77 4.77 0 0040 3.74a5.44 5.44 0 00-.48.48h1a4.29 4.29 0 01.36.48h-1.76a4 4 0 00-.28.48h2.21a3 3 0 01.2.49h-2.61a3.36 3.36 0 00-.13.48h2.88a4.56 4.56 0 01-.14 2.41h-2.61c.06.16.13.33.2.48h2.21a3.72 3.72 0 01-.27.48h-1.66a4 4 0 00.35.49h1a4.25 4.25 0 01-.47.48 4.77 4.77 0 003.16 1.18 4.63 4.63 0 004.7-4.56 4.63 4.63 0 00-4.75-4.55z" fill="#f90"/><path class="cls-7" d="M35.69 7.61h-.11c-.29 0-.44.1-.44.29a.17.17 0 00.19.19c.2-.01.35-.2.36-.48zm.37.84h-.42v-.2a.63.63 0 01-.53.23.47.47 0 01-.46-.48c0-.46.33-.73.89-.73h.21a.32.32 0 000-.12c0-.13-.09-.17-.32-.17a1.59 1.59 0 00-.55.08l.08-.42a2.14 2.14 0 01.61-.1c.44 0 .67.19.67.55a3.39 3.39 0 010 .37c-.07.26-.16.85-.18.99zM34.43 8.45h-.51l.3-1.78-.66 1.78h-.35V6.68l-.3 1.77h-.48l.4-2.31h.73v1.29L34 6.14h.82zM43.74 7.61h-.12c-.28 0-.43.1-.43.29a.17.17 0 00.18.19c.21-.01.36-.2.37-.48zm.37.84h-.42v-.2a.64.64 0 01-.54.23.46.46 0 01-.45-.48c0-.46.32-.73.89-.73h.21a.32.32 0 000-.12c0-.13-.09-.17-.33-.17a1.52 1.52 0 00-.54.08l.07-.42a2.25 2.25 0 01.61-.1c.44 0 .67.19.67.55a2 2 0 010 .37c-.06.26-.16.85-.17.99zM38.33 8.42a1.29 1.29 0 01-.36.06.37.37 0 01-.41-.41c0-.08 0-.3.07-.5l.22-1.28h.51l-.06.28h.31l-.07.43h-.31c-.06.36-.14.8-.14.86s0 .14.17.14a.28.28 0 00.14 0zM39.89 8.41a1.81 1.81 0 01-.52.07.76.76 0 01-.86-.84c0-.64.37-1.11.88-1.11a.64.64 0 01.69.68 2.15 2.15 0 01-.06.46H39c0 .27.14.39.44.39a1.31 1.31 0 00.56-.12zm-.28-1.12s0-.33-.24-.33-.28.12-.33.33zM36.37 7.16a.55.55 0 00.39.53c.21.09.24.12.24.21s-.09.17-.29.17a1.48 1.48 0 01-.46-.07s-.07.42-.07.44a3 3 0 00.53.05c.54 0 .79-.2.79-.63a.52.52 0 00-.36-.52c-.22-.1-.24-.12-.24-.2S37 7 37.15 7h.36l.08-.43a2.35 2.35 0 00-.45 0c-.57-.04-.77.25-.77.59zM42.38 6.58a1 1 0 01.45.12l.08-.5a1.43 1.43 0 00-.56-.2 1 1 0 00-.83.43c-.3-.09-.42.1-.57.29h-.13a1.23 1.23 0 000-.19h-.47c-.07.58-.18 1.17-.27 1.75v.13h.51c.08-.54.13-.88.16-1.11l.19-.11c0-.1.12-.14.3-.13a1.58 1.58 0 000 .38.89.89 0 00.9 1 1.65 1.65 0 00.45-.07l.09-.52a1 1 0 01-.48.15c-.29 0-.47-.22-.47-.57 0-.5.27-.85.65-.85zM46.7 6.14l-.11.67a.64.64 0 00-.49-.31.8.8 0 00-.65.47L45 6.85a2.07 2.07 0 000-.28h-.47c-.06.58-.18 1.17-.27 1.75v.13h.51c.07-.43.12-.8.16-1.08s.26-.29.44-.28a1.58 1.58 0 00-.12.61c0 .47.24.78.61.78a.59.59 0 00.47-.21v.18h.48l.39-2.31zM46.06 8c-.17 0-.26-.12-.26-.37S46 7 46.2 7s.27.13.27.37-.17.63-.41.63z"/><path class="cls-1" d="M34.58 8.31h-.51l.29-1.77-.65 1.77h-.35V6.55L33 8.31h-.48L32.93 6h.74v1.43L34.18 6H35zM35.84 7.47h-.11c-.29 0-.44.09-.44.28a.17.17 0 00.18.19c.21 0 .36-.19.37-.47zm.37.84h-.42v-.19a.66.66 0 01-.54.22.47.47 0 01-.46-.51c0-.46.33-.72.89-.72h.21a.32.32 0 000-.12c0-.12-.09-.17-.33-.17a2.2 2.2 0 00-.54.08l.07-.42a2.26 2.26 0 01.62-.1c.43 0 .67.19.67.55a3.15 3.15 0 010 .37c-.06.29-.15.87-.17 1.01zM43.06 6.06l-.06.51a1 1 0 00-.46-.13c-.38 0-.65.36-.65.87 0 .35.18.56.48.56a1 1 0 00.43-.12l-.09.53a1.55 1.55 0 01-.45.06.88.88 0 01-.89-1c0-.83.47-1.41 1.15-1.41a2.08 2.08 0 01.54.13zM43.89 7.47h-.12c-.29 0-.43.09-.43.28a.17.17 0 00.18.19c.21 0 .36-.19.37-.47zm.37.84h-.42v-.19a.65.65 0 01-.53.22.47.47 0 01-.47-.51c0-.46.33-.72.9-.72H44A1 1 0 0044 7c0-.12-.09-.17-.33-.17a2.12 2.12 0 00-.54.08l.07-.42a2.2 2.2 0 01.61-.1c.44 0 .67.19.67.55a1.87 1.87 0 010 .37c-.11.28-.21.86-.22 1zM38.48 8.28a1 1 0 01-.37.06.36.36 0 01-.4-.41c0-.08 0-.3.07-.5L38 6.15h.51l-.06.28h.26l-.07.45h-.26c-.06.36-.14.81-.14.87s0 .14.17.14h.14z"/><path class="cls-1" d="M40 8.27a1.86 1.86 0 01-.52.07.76.76 0 01-.87-.83c0-.65.38-1.12.89-1.12a.64.64 0 01.69.68 1.72 1.72 0 01-.07.46h-1c0 .28.15.39.44.39a1.24 1.24 0 00.53-.12zm-.29-1.12s.06-.33-.23-.33-.28.12-.33.33zM36.52 7a.55.55 0 00.39.52c.2.1.24.12.24.21s-.1.17-.3.17a1.31 1.31 0 01-.46-.08s-.06.42-.07.44a2.37 2.37 0 00.54.05c.54 0 .78-.19.78-.62a.52.52 0 00-.36-.53C37.07 7.1 37 7.08 37 7s.09-.16.25-.16h.37l.07-.43h-.44c-.54-.02-.73.27-.73.59zM47 8.31h-.48v-.17a.61.61 0 01-.47.2c-.37 0-.62-.31-.62-.77 0-.63.38-1.16.83-1.16a.58.58 0 01.49.26l.1-.67h.5zm-.75-.43c.24 0 .4-.26.4-.64s-.09-.36-.27-.36-.39.26-.39.63.01.37.22.37zM44.72 6.43c-.07.58-.18 1.17-.27 1.76v.12h.51c.18-1.15.22-1.37.51-1.34a1.78 1.78 0 01.2-.55c-.22 0-.34.08-.49.3a2.85 2.85 0 000-.29zM40.51 6.43c-.06.58-.17 1.17-.26 1.76v.12h.51c.19-1.15.23-1.37.52-1.34a1.81 1.81 0 01.19-.55c-.21 0-.33.08-.49.3a1.43 1.43 0 000-.29z"/><rect width="24.11" height="14" rx=".95" ry=".95" fill="#26337a"/><path class="cls-11" d="M10 9.23l.74-4.45h1.19l-.74 4.45zM15.49 4.89a3.06 3.06 0 00-1.07-.19c-1.17 0-2 .6-2 1.47 0 .64.59 1 1 1.21s.61.35.61.55-.37.43-.71.43a2.38 2.38 0 01-1.11-.23l-.15-.07-.17 1a3.69 3.69 0 001.32.23c1.25 0 2.05-.59 2.06-1.52 0-.5-.31-.89-1-1.21-.42-.2-.67-.34-.67-.55s.22-.38.68-.38a2.1 2.1 0 01.89.17h.1zM17.06 7.65l.48-1.24.15-.43.08.38s.23 1.07.28 1.29zm1.47-2.87h-.92a.58.58 0 00-.62.37l-1.76 4.08h1.24s.21-.55.25-.67h1.52c0 .16.14.67.14.67h1.1zM9 4.78l-1.16 3-.12-.58a3.45 3.45 0 00-1.64-1.87l1.06 3.89H8.4l1.86-4.44z"/><path d="M6.77 4.78H4.86v.09A3.93 3.93 0 017.72 7.2l-.41-2c-.07-.33-.31-.41-.54-.42z" fill="#ec982d"/></svg>