<svg width="66" height="67" fill="none" xmlns="http://www.w3.org/2000/svg"><path fill-rule="evenodd" clip-rule="evenodd" d="M2 26.6h24v-24H2v24zM52.4 65v0c-6.626 0-12-5.374-12-12s5.374-12 12-12 12 5.374 12 12-5.374 12-12 12zM26 65H2l12-22.4L26 65z" stroke="#fff" stroke-width="3" stroke-linecap="round" stroke-linejoin="round"/><path d="M50.175 2.355a.688.688 0 011.25 0l3.502 7.593c.1.217.306.367.544.395l8.303.984c.583.07.817.79.386 1.189l-6.139 5.677a.688.688 0 00-.207.64l1.63 8.2a.688.688 0 01-1.012.735l-7.296-4.084a.688.688 0 00-.672 0l-7.297 4.084a.688.688 0 01-1.011-.734l1.63-8.202a.688.688 0 00-.208-.639l-6.14-5.677a.688.688 0 01.387-1.189l8.304-.984a.688.688 0 00.544-.395l3.502-7.593z" stroke="#fff" stroke-width="3"/></svg>