<svg width="154" height="32" fill="none" xmlns="http://www.w3.org/2000/svg"><path fill-rule="evenodd" clip-rule="evenodd" d="M2 28h24V4H2v24zM140.4 28v0c-6.626 0-12-5.374-12-12s5.374-12 12-12 12 5.374 12 12-5.374 12-12 12zM112.4 27.4h-24l12-22.4 12 22.4z" stroke="#8D9096" stroke-width="3" stroke-linecap="round" stroke-linejoin="round"/><path d="M56.575 2.355a.688.688 0 011.25 0l3.502 7.593c.1.217.306.367.544.395l8.303.984c.584.07.818.79.387 1.189l-6.14 5.677a.688.688 0 00-.207.64l1.63 8.2a.688.688 0 01-1.011.735l-7.297-4.084a.688.688 0 00-.672 0l-7.296 4.084a.688.688 0 01-1.012-.734l1.63-8.202a.688.688 0 00-.208-.639l-6.139-5.677a.688.688 0 01.386-1.189l8.304-.984a.688.688 0 00.544-.395l3.502-7.593z" stroke="#8D9096" stroke-width="3"/></svg>