<svg width="62" height="66" fill="none" xmlns="http://www.w3.org/2000/svg"><path d="M60 37.43H39.974c-1.09 0-1.974.884-1.974 1.974v11.807c0 1.09.884 1.974 1.974 1.974H60" stroke="#8A86FF" stroke-width="1.6" stroke-linecap="round" stroke-linejoin="round"/><path d="M28 24.2a8 8 0 10-16 0" stroke="#8A86FF" stroke-width="1.6"/><circle cx="42" cy="9" stroke="#8A86FF" stroke-width="1.6" r="8"/><path clip-rule="evenodd" d="M57.082 65H4.916C2.754 65 1 63.089 1 60.732V28.898c0-2.357 1.754-4.267 3.916-4.267h52.166c2.164 0 3.918 1.91 3.918 4.267v31.834C61 63.09 59.246 65 57.082 65z" stroke="#3BF2DC" stroke-width="1.6" stroke-linecap="round" stroke-linejoin="round"/><circle cx="46" cy="45.354" fill="#8A86FF" r="2"/></svg>