<svg width="86" height="70" fill="none" xmlns="http://www.w3.org/2000/svg"><path clip-rule="evenodd" d="M16.872 34.983L29.54 47.3l-7.601 17.263-5.066-29.581z" stroke="#8A86FF" stroke-width="1.62" stroke-linecap="round" stroke-linejoin="round"/><path clip-rule="evenodd" d="M57.408 35.041l11.784 6.6-20.043 12.448 8.259-19.048z" stroke="#3BF2DC" stroke-width="1.62" stroke-linecap="round" stroke-linejoin="round"/><path clip-rule="evenodd" d="M38.492 26.968l18.916 8.073-4.65-16.922-14.266 8.85zM57.408 35.041l18.233-7.085-22.883-9.837 4.65 16.922z" stroke="#8A86FF" stroke-width="1.62" stroke-linecap="round" stroke-linejoin="round"/><path clip-rule="evenodd" d="M36.507 10.7l32.362.965-16.111 6.454-16.25-7.418zM38.492 26.968l-21.62 8.015L36.507 10.7l1.985 16.267zM69.192 41.64l-11.785-6.599 18.234-7.085-6.45 13.685z" stroke="#8A86FF" stroke-width="1.62" stroke-linecap="round" stroke-linejoin="round"/><path d="M1 39.667H.19c0 .448.363.81.81.81v-.81zm9 0v.81a.81.81 0 00.81-.81H10zm-4.5-4.665c1.694 0 3.06-1.38 3.06-3.072H6.94c0 .806-.648 1.452-1.44 1.452v1.62zm3.06-3.072a3.066 3.066 0 00-3.06-3.073v1.62c.792 0 1.44.646 1.44 1.453h1.62zM5.5 28.857a3.066 3.066 0 00-3.06 3.073h1.62c0-.807.649-1.452 1.44-1.452v-1.62zM2.44 31.93a3.066 3.066 0 003.06 3.072v-1.62c-.792 0-1.44-.646-1.44-1.452H2.44zm3.06 3.535c-.853 0-2.08.208-3.116.625-.518.209-1.039.49-1.443.865-.41.38-.751.91-.751 1.581h1.62c0-.08.034-.209.233-.394.205-.19.527-.38.946-.549.84-.338 1.862-.508 2.51-.508v-1.62zM.19 38.536v1.131h1.62v-1.13H.19zM1 40.477h9v-1.62H1v1.62zm9.81-.81v-1.13H9.19v1.13h1.62zm0-1.13c0-.672-.341-1.202-.75-1.582-.405-.375-.926-.656-1.444-.865-1.035-.417-2.263-.625-3.116-.625v1.62c.65 0 1.671.17 2.51.508.42.169.742.36.947.55.2.184.233.313.233.393h1.62zM75.2 11h-.81c0 .447.362.81.81.81V11zm9 0v.81a.81.81 0 00.81-.81h-.81zm-4.5-4.666c1.694 0 3.06-1.38 3.06-3.072h-1.62c0 .806-.649 1.452-1.44 1.452v1.62zm3.06-3.072A3.066 3.066 0 0079.7.19v1.62c.791 0 1.44.646 1.44 1.452h1.62zM79.7.19a3.066 3.066 0 00-3.06 3.072h1.62c0-.806.648-1.452 1.44-1.452V.19zm-3.06 3.072a3.066 3.066 0 003.06 3.072v-1.62c-.792 0-1.44-.646-1.44-1.452h-1.62zm3.06 3.535c-.853 0-2.08.209-3.116.626-.518.208-1.039.49-1.443.864-.41.38-.751.91-.751 1.582h1.62c0-.08.034-.21.233-.394.205-.19.527-.38.946-.55.84-.337 1.862-.508 2.511-.508v-1.62zM74.39 9.87v1.13h1.62V9.87h-1.62zm.81 1.94h9v-1.62h-9v1.62zm9.81-.81V9.87h-1.62v1.13h1.62zm0-1.13c0-.672-.341-1.202-.75-1.582-.405-.375-.926-.656-1.444-.864-1.035-.417-2.263-.626-3.116-.626v1.62c.65 0 1.671.17 2.51.509.42.168.742.359.947.549.2.185.233.314.233.394h1.62z" fill="#3BF2DC"/><path d="M52.585 68.387h-.81c0 .447.363.81.81.81v-.81zm9 0v.81a.81.81 0 00.81-.81h-.81zm-4.5-4.667c1.695 0 3.06-1.38 3.06-3.072h-1.62c0 .806-.648 1.452-1.44 1.452v1.62zm3.06-3.072a3.065 3.065 0 00-3.06-3.071v1.62c.792 0 1.44.645 1.44 1.451h1.62zm-3.06-3.071a3.065 3.065 0 00-3.059 3.071h1.62c0-.806.649-1.451 1.44-1.451v-1.62zm-3.059 3.071a3.066 3.066 0 003.06 3.072V62.1c-.791 0-1.44-.646-1.44-1.452h-1.62zm3.06 3.536c-.853 0-2.081.208-3.116.625-.519.209-1.04.49-1.444.865-.41.38-.75.91-.75 1.582h1.62c0-.08.033-.21.232-.395.205-.19.528-.38.947-.549.839-.338 1.861-.508 2.51-.508v-1.62zm-5.31 3.072v1.13h1.62v-1.13h-1.62zm.81 1.94h9v-1.62h-9v1.62zm9.81-.81v-1.13h-1.62v1.13h1.62zm0-1.13c0-.672-.342-1.202-.751-1.582-.405-.375-.925-.656-1.444-.865-1.035-.417-2.263-.625-3.115-.625v1.62c.649 0 1.671.17 2.51.508.42.169.742.36.947.55.199.184.232.313.232.394h1.62z" fill="#8A86FF"/><path clip-rule="evenodd" d="M36.507 10.7l16.25 7.419-14.265 8.849L36.507 10.7zM68.869 11.665l-16.111 6.454 22.883 9.836-6.772-16.29zM21.937 64.564L49.15 54.088l-10.657-27.12-16.555 37.596z" stroke="#3BF2DC" stroke-width="1.62" stroke-linecap="round" stroke-linejoin="round"/></svg>