<svg width="84" height="66" fill="none" xmlns="http://www.w3.org/2000/svg"><path clip-rule="evenodd" d="M71.966 39.433a5.977 5.977 0 01-7.673 3.542 5.967 5.967 0 01-3.546-7.664 5.978 5.978 0 017.674-3.544 5.971 5.971 0 013.545 7.666z" stroke="#8A86FF" stroke-width="1.6" stroke-linecap="round" stroke-linejoin="round"/><path clip-rule="evenodd" d="M61.197 35.681v0a5.978 5.978 0 00-7.673 3.542 5.969 5.969 0 003.545 7.667 5.977 5.977 0 007.674-3.543 5.967 5.967 0 00-3.546-7.666z" stroke="#8A86FF" stroke-width="1.6" stroke-linecap="round" stroke-linejoin="round"/><path d="M9.903 34.457h23.495M9.903 40.484h18.17M9.903 46.512h21.804M50.756 11.694H74.25M50.756 17.721h18.17M50.756 23.748H72.56M28.039 10.912c0 7.522-6.12 13.62-13.666 13.62h-4.41" stroke="#8A86FF" stroke-width="1.6" stroke-linecap="round" stroke-linejoin="round"/><path d="M42 52.502V5.005A4.012 4.012 0 0146.017 1H78.98a4.013 4.013 0 014.02 4.005v47.497c0 2.211-1.8 4.003-4.02 4.003H53.365M30.634 56.505H5.019A4.01 4.01 0 011 52.502V5.005A4.012 4.012 0 015.019 1H37.98A4.012 4.012 0 0142 5.005v59.213M42 65c0-5.711 4.115-8.495 11.315-8.495M42 65c0-5.711-4.114-8.495-11.316-8.495" stroke="#3BF2DC" stroke-width="1.6" stroke-linecap="round" stroke-linejoin="round"/></svg>