<svg width="375" height="263" fill="none" xmlns="http://www.w3.org/2000/svg"><path fill-rule="evenodd" clip-rule="evenodd" d="M52.455 225.206a5.415 5.415 0 00-4.777 2.863l-16.444 30.754c-.965 1.804.343 3.985 2.389 3.985h307.402c2.046 0 3.353-2.181 2.389-3.985l-16.444-30.754a5.417 5.417 0 00-4.777-2.863H52.455z" fill="#7070E1"/><path fill-rule="evenodd" clip-rule="evenodd" d="M133.989 244.489a2.708 2.708 0 00-2.607 1.973l-4.614 16.345h121.515l-4.614-16.346a2.71 2.71 0 00-2.607-1.972H133.989z" fill="#F1F1FF"/><path fill-rule="evenodd" clip-rule="evenodd" d="M140.471 250.411a2.709 2.709 0 00-2.622 2.028l-2.69 10.368h104.833l-2.705-10.371a2.708 2.708 0 00-2.621-2.025h-94.195z" fill="#30404C"/><rect width="375" height="205.911" rx="2.708" fill="#F1F1FF"/><rect x="62.911" y="32.513" width="250.178" height="140.887" rx="2.708" fill="#D3D3FF"/><rect x="73.73" y="43.35" width="64.911" height="119.212" rx="2.708" fill="#fff"/><rect x="149.459" y="43.35" width="152.811" height="119.212" rx="2.708" fill="#fff"/><rect x="87.253" y="59.606" width="37.865" height="4.058" rx="2.029" fill="#3255D5"/><rect x="87.253" y="89.409" width="37.865" height="4.058" rx="2.029" fill="#3BF1DB"/><rect x="87.253" y="119.212" width="37.865" height="4.058" rx="2.029" fill="#7070E1"/><rect x="87.253" y="69.089" width="27.046" height="4.058" rx="2.029" fill="#3255D5"/><rect x="87.253" y="98.892" width="27.046" height="4.058" rx="2.029" fill="#3BF1DB"/><rect x="87.253" y="128.7" width="27.046" height="4.058" rx="2.029" fill="#7070E1"/><path fill-rule="evenodd" clip-rule="evenodd" d="M273.872 102.955c0 5.987-4.843 10.838-10.819 10.838-5.975 0-10.818-4.851-10.818-10.838 0-5.986 4.843-10.837 10.818-10.837 5.976 0 10.819 4.851 10.819 10.837z" fill="#7070E1"/><path fill-rule="evenodd" clip-rule="evenodd" d="M177.858 112.44a2.708 2.708 0 002.708 2.708h17.573a2.709 2.709 0 002.708-2.708V94.826a2.709 2.709 0 00-2.708-2.708h-17.573a2.708 2.708 0 00-2.708 2.709v17.613z" fill="#3BF1DB"/><path fill-rule="evenodd" clip-rule="evenodd" d="M216.49 115.148c-2.114 0-3.413-2.314-2.312-4.119l10.051-16.475c1.056-1.73 3.568-1.73 4.624 0l10.051 16.475c1.101 1.805-.198 4.119-2.312 4.119H216.49z" fill="#96F"/><path fill-rule="evenodd" clip-rule="evenodd" d="M290.1 59.606a4.06 4.06 0 004.056-4.064 4.06 4.06 0 00-4.056-4.064 4.06 4.06 0 00-4.057 4.064 4.06 4.06 0 004.057 4.064z" fill="#F8B100"/><path opacity=".8" fill-rule="evenodd" clip-rule="evenodd" d="M276.576 59.606a4.06 4.06 0 004.057-4.064 4.06 4.06 0 00-4.057-4.064 4.06 4.06 0 00-4.056 4.064 4.06 4.06 0 004.056 4.064z" fill="#F8B100"/><path opacity=".6" fill-rule="evenodd" clip-rule="evenodd" d="M263.053 59.606a4.06 4.06 0 004.057-4.064 4.06 4.06 0 00-4.057-4.064 4.061 4.061 0 00-4.057 4.064 4.06 4.06 0 004.057 4.064z" fill="#F8B100"/><path fill-rule="evenodd" clip-rule="evenodd" d="M181.322 249.108h13.053v-37.353h-13.053v37.353z" fill="#F2CEAA"/><path fill-rule="evenodd" clip-rule="evenodd" d="M228.824 263h-82.032c1.024-3.179 2.802-6.441 5.131-8.729 3.795-3.741 9.037-6.172 14.82-6.172h42.13c9.338 0 17.24 6.357 19.951 14.833" fill="#F8B100"/><path fill-rule="evenodd" clip-rule="evenodd" d="M152.51 189.1c0-19.602 15.803-35.491 35.298-35.491 19.494 0 35.298 15.889 35.298 35.491v45.939H152.51V189.1z" fill="#30404C"/><path d="M152.55 189.1c0-19.602 15.803-35.491 35.298-35.491s35.299 15.889 35.299 35.491" stroke="#3BF1DB" stroke-width="5.714"/><mask id="a" maskUnits="userSpaceOnUse" x="142" y="185" width="14" height="28"><path fill-rule="evenodd" clip-rule="evenodd" d="M142.073 185.949h13.346v26.837h-13.346v-26.837z" fill="#fff"/></mask><g mask="url(#a)"><path fill-rule="evenodd" clip-rule="evenodd" d="M155.419 212.786c-7.37 0-13.346-6.007-13.346-13.418s5.976-13.419 13.346-13.419" fill="#3BF1DB"/></g><mask id="b" maskUnits="userSpaceOnUse" x="220" y="185" width="14" height="28"><path fill-rule="evenodd" clip-rule="evenodd" d="M220.223 185.949h13.345v26.837h-13.345v-26.837z" fill="#fff"/></mask><g mask="url(#b)"><path fill-rule="evenodd" clip-rule="evenodd" d="M220.223 185.949c7.37 0 13.346 6.008 13.346 13.419 0 7.411-5.976 13.418-13.346 13.418" fill="#3BF1DB"/></g></svg>