<svg width="58" height="66" fill="none" xmlns="http://www.w3.org/2000/svg"><path clip-rule="evenodd" d="M1 65h56V1H1v64z" stroke="#4C5EFF" stroke-width="2" stroke-linecap="round" stroke-linejoin="round"/><path clip-rule="evenodd" d="M22 13.5a4.5 4.5 0 11-9 0 4.5 4.5 0 019 0z" stroke="#231F20" stroke-width="2" stroke-linecap="round" stroke-linejoin="round"/><path d="M28 16.53h12.017M28 11.705L30.209 10l2.073 1.705L34.45 10l2.113 1.705L38.69 10l2.156 1.705L42.93 10l2.196 1.705" stroke="#9A66FE" stroke-width="2" stroke-linecap="round" stroke-linejoin="round"/><path clip-rule="evenodd" d="M22 32.5a4.5 4.5 0 11-9 0 4.5 4.5 0 019 0z" stroke="#231F20" stroke-width="2" stroke-linecap="round" stroke-linejoin="round"/><path d="M28 35.53h12.017M28 30.704L30.209 29l2.073 1.704L34.45 29l2.113 1.704L38.69 29l2.156 1.704L42.93 29l2.196 1.704" stroke="#9A66FE" stroke-width="2" stroke-linecap="round" stroke-linejoin="round"/><path clip-rule="evenodd" d="M22 51.5a4.5 4.5 0 11-9.001 0 4.5 4.5 0 019.001 0z" stroke="#231F20" stroke-width="2" stroke-linecap="round" stroke-linejoin="round"/><path d="M28 54.53h12.017M28 49.704L30.209 48l2.073 1.704L34.45 48l2.113 1.704L38.69 48l2.156 1.704L42.93 48l2.196 1.704" stroke="#9A66FE" stroke-width="2" stroke-linecap="round" stroke-linejoin="round"/></svg>