<svg width="154" height="194" fill="none" xmlns="http://www.w3.org/2000/svg"><path d="M129.598 103.23V50.936H57v100.041h72.598v-38.652M102.375 121.421H75.15M111.449 114.599H75.15M102.375 135.063H75.15M111.449 128.24H75.15" stroke="#8A86FF" stroke-width="2" stroke-linecap="round" stroke-linejoin="round"/><path fill-rule="evenodd" clip-rule="evenodd" d="M116.747 125.74l-5.779 2.46 1.831-6.041 34.967-39.056a2.648 2.648 0 013.757-.202 2.69 2.69 0 01.19 3.783l-34.966 39.056z" stroke="#8A86FF" stroke-width="2" stroke-linejoin="round"/><path d="M81.955 99.82h-1a1 1 0 001 1v-1zm22.687 0v1a1 1 0 001-1h-1zM93.299 88.314c3.688 0 6.672-2.992 6.672-6.684h-2a4.676 4.676 0 01-4.672 4.684v2zm6.672-6.684c0-3.69-2.984-6.683-6.672-6.683v2a4.676 4.676 0 014.672 4.683h2zM93.3 74.947c-3.687 0-6.672 2.992-6.672 6.683h2a4.676 4.676 0 014.672-4.683v-2zm-6.672 6.683c0 3.692 2.985 6.684 6.672 6.684v-2a4.677 4.677 0 01-4.672-4.684h-2zm6.67 8.663c-2.017 0-4.98.5-7.463 1.497-1.242.499-2.427 1.147-3.318 1.97-.898.831-1.56 1.907-1.56 3.218h2c0-.578.28-1.159.918-1.75.645-.596 1.586-1.133 2.706-1.582 2.242-.9 4.95-1.353 6.718-1.353v-2zm-12.342 6.685v2.842h2v-2.842h-2zm1 3.842h22.687v-2H81.955v2zm23.687-1v-2.842h-2v2.842h2zm0-2.842c0-1.311-.663-2.387-1.561-3.217-.891-.824-2.076-1.472-3.319-1.971-2.483-.998-5.446-1.498-7.464-1.498v2c1.768 0 4.477.453 6.719 1.354 1.12.45 2.061.986 2.706 1.583.638.59.919 1.17.919 1.75h2z" fill="#4C5EFF"/><path fill-rule="evenodd" clip-rule="evenodd" d="M1.271 128.974L14 141.707l12.728-12.733-12.728-12.733-12.728 12.733zM98 193v0c-4.97 0-9-4.032-9-9.004 0-4.971 4.03-9.003 9-9.003 4.969 0 9 4.032 9 9.003 0 4.972-4.031 9.004-9 9.004zM93.425 26.612l-12.73-12.73L98.94 8.365l-5.516 18.247z" stroke="#C8C7D2" stroke-width="2" stroke-linecap="round" stroke-linejoin="round"/><path d="M11.463 37.957c.369-.8 1.506-.8 1.874 0l2.037 4.418c.15.326.46.55.816.593l4.83.573c.875.103 1.226 1.184.58 1.783l-3.572 3.304a1.032 1.032 0 00-.311.959l.948 4.773c.171.864-.748 1.532-1.517 1.101l-4.244-2.376a1.032 1.032 0 00-1.008 0l-4.244 2.376c-.768.43-1.688-.237-1.517-1.101l.948-4.773a1.032 1.032 0 00-.311-.96L3.2 45.325c-.646-.599-.295-1.68.58-1.783l4.83-.573c.356-.043.665-.267.816-.593l2.037-4.418z" stroke="#C8C7D2" stroke-width="2"/></svg>