<svg width="112" height="91" fill="none" xmlns="http://www.w3.org/2000/svg"><path d="M36.134 81.348a5.689 5.689 0 001.307 3.006 6.084 6.084 0 001.541 1.23 3.8 3.8 0 00.592.271c.202.076.409.141.618.197a5.87 5.87 0 001.275.194 7.481 7.481 0 00-.939-4.403 8.686 8.686 0 00-.294-.469 6.12 6.12 0 00-.858-1.054 5.3 5.3 0 00-.447-.39c-.041-.032-.084-.063-.126-.094a4.296 4.296 0 01-.107-.079 4.78 4.78 0 00-1.24-.69c-.13-.05-.263-.09-.397-.13a14.546 14.546 0 01-.137-.04 4.743 4.743 0 00-.545-.132 6.667 6.667 0 00-.243 2.583z" fill="#3BF2DC"/><path d="M35.475 90.48h.04l.126-.002.057-.001a7.37 7.37 0 00.736-.056c.489-.062.97-.174 1.435-.34.232-.079.458-.187.672-.298a6.12 6.12 0 00.61-.367c.387-.264.73-.564 1.03-.892a5.935 5.935 0 001.285-2.269 7.082 7.082 0 00-1.235-.37 6.381 6.381 0 00-.642-.092c-.149-.014-.3-.022-.45-.03a6.584 6.584 0 00-1.528.074 7.145 7.145 0 00-.832.189 7.437 7.437 0 00-2.918 1.502 6.603 6.603 0 00-1.666 2.027c.21.122.427.234.648.336.221.102.454.177.687.251a7.892 7.892 0 001.799.333c.048.003.097.005.146.005zm-12.56-14.874c.019.225.06.442.11.664a5.835 5.835 0 00.779 1.838 6.299 6.299 0 001.35 1.396l.13.095.137.086a6.223 6.223 0 00.863.441 7.298 7.298 0 00.787-3.13 7.781 7.781 0 00-.005-.657 6.931 6.931 0 00-.185-1.293c-.217-.83-.536-1.594-.993-2.204a4.938 4.938 0 00-.258-.319l-.102-.12a4.75 4.75 0 00-1.297-1.068 6.54 6.54 0 00-1.146 2.308 5.839 5.839 0 00-.17 1.963z" fill="#3BF2DC"/><path d="M22.828 78.372c-.44-.098-.9-.155-1.378-.167a9.472 9.472 0 00-1.399.077c-.453.063-.897.17-1.324.314a6.8 6.8 0 00-2.301 1.313 7.914 7.914 0 001.626 1.45c.201.136.422.248.64.357.883.428 1.834.704 2.842.698.5.004.978-.049 1.43-.15.226-.052.445-.115.658-.19a6.029 6.029 0 002.656-1.94 6.379 6.379 0 00-.76-.594l-.136-.087-.133-.09a6.347 6.347 0 00-1.776-.816l-.01-.003a8.355 8.355 0 00-.635-.172zm-9.809-15.423a5.657 5.657 0 00-.354 1.285 5.9 5.9 0 00-.063.678 4.05 4.05 0 00.022.667 5.964 5.964 0 00.539 1.874c.095.194.21.376.328.556.24.358.515.691.82.992a7.44 7.44 0 002.25-3.818l.018-.07a6.398 6.398 0 00-.006-3.06 4.725 4.725 0 00-.409-1.049 4.7 4.7 0 00-.588-.948 6.672 6.672 0 00-1.914 1.752 6.029 6.029 0 00-.512.843c-.046.097-.09.196-.131.297z" fill="#3BF2DC"/><path d="M11.13 65.784a7.524 7.524 0 00-2.314-.79 7.193 7.193 0 00-1.006-.114 6.724 6.724 0 00-2.61.399c.152.457.348.904.584 1.33.254.415.547.808.875 1.17.64.732 1.482 1.295 2.4 1.665.23.093.46.17.69.232a5.983 5.983 0 002.07.156 6.069 6.069 0 002.484-.826 6.31 6.31 0 00-.671-1.094 7.978 7.978 0 00-.416-.495 6.606 6.606 0 00-1.64-1.372 9.655 9.655 0 00-.447-.26zM7.726 48.742a4.5 4.5 0 00-.377.567 5.789 5.789 0 00-.654 1.88 6.167 6.167 0 00-.045.326 6.203 6.203 0 00.267 2.233c.073.202.156.4.25.594a7.384 7.384 0 002.224-1.348 7.225 7.225 0 001.643-2.02c.197-.38.381-.767.508-1.15a5.12 5.12 0 00.244-1.145l.015-.191c.01-.125.021-.251.024-.376.006-.188 0-.375-.016-.561a5.172 5.172 0 00-.229-1.094 6.571 6.571 0 00-2.408.946 5.839 5.839 0 00-1.446 1.34z" fill="#3BF2DC"/><path d="M0 47.87v.05a7.728 7.728 0 00.24 1.841c.06.235.126.469.222.694.185.454.413.89.683 1.296.272.407.575.787.955 1.12a6.026 6.026 0 002.426 1.356c.513.14 1.04.206 1.563.207h.01c.356 0 .71-.031 1.06-.09a6.241 6.241 0 00-.1-.633 6.318 6.318 0 00-.748-2.127 6.237 6.237 0 00-.517-.849 7.12 7.12 0 00-1.033-1.147 7.145 7.145 0 00-.965-.773 7.332 7.332 0 00-1.197-.65A6.876 6.876 0 00.007 47.6c-.004.09-.007.179-.007.269zm10.167-15.534a5.776 5.776 0 00-2.374 1.136c-.37.286-.663.617-.925.972-.26.355-.48.738-.655 1.136a3.803 3.803 0 00-.21.613 6.214 6.214 0 00-.135.631 5.79 5.79 0 00-.068 1.281 7.6 7.6 0 003.767-1.02 6.99 6.99 0 00.937-.651l.124-.1c.342-.28.64-.58.893-.893a5.241 5.241 0 00.493-.73 4.851 4.851 0 00.682-1.843 4.64 4.64 0 00.078-.552 6.746 6.746 0 00-2.607.02z" fill="#3BF2DC"/><path d="M5.823 34.25a9.31 9.31 0 00-.478-1.298 7.359 7.359 0 00-1.59-2.241 6.684 6.684 0 00-2.2-1.444c-.1.22-.192.445-.272.674A7.773 7.773 0 00.95 32.46a7.423 7.423 0 00.167 1.088c.11.477.271.942.484 1.385a5.974 5.974 0 001.792 2.129c.72.528 1.53.871 2.398 1.044a6.85 6.85 0 00.247-1.26 6.227 6.227 0 00.012-1.069 6.465 6.465 0 00-.228-1.526zm8.759-15.565a5.751 5.751 0 00-.652.176c-.865.29-1.65.764-2.235 1.401-.3.314-.566.659-.793 1.025a6.33 6.33 0 00-.507 1.182 7.436 7.436 0 003.537.435 7.362 7.362 0 001.607-.352 6.228 6.228 0 001.017-.456l.124-.066a5.29 5.29 0 00.966-.678c.143-.128.276-.262.4-.402a4.73 4.73 0 00.943-1.386 6.641 6.641 0 00-2.426-.906 5.972 5.972 0 00-1.316-.059c-.22.017-.45.04-.665.086z" fill="#3BF2DC"/><path d="M11.54 20.174c.233-.844.365-1.727.294-2.677a7.468 7.468 0 00-.097-.769 7.126 7.126 0 00-.567-1.886 6.723 6.723 0 00-1.541-2.145 7.927 7.927 0 00-.917 1.127 6.508 6.508 0 00-.376.624c-.107.22-.205.443-.291.671a7.284 7.284 0 00-.38 1.408 4.8 4.8 0 00-.062.733c-.005.247.004.494.026.741a6.131 6.131 0 00.409 1.72 5.902 5.902 0 00.478.905 6.086 6.086 0 001.868 1.839c.26-.343.482-.709.667-1.096.202-.378.366-.776.49-1.195zM26.264 7.637c-.42-.123-.863-.2-1.324-.224-.931-.062-1.797.15-2.594.51a4.518 4.518 0 00-1.1.686 6.341 6.341 0 00-.914.906 7.507 7.507 0 004.119 1.858c.215.024.439.048.659.056a6.085 6.085 0 001.83-.199l.011-.003c.194-.046.38-.101.562-.167.362-.13.7-.3 1.012-.505l.117-.079.117-.076a4.611 4.611 0 00.656-.525 6.7 6.7 0 00-1.947-1.72 6.152 6.152 0 00-.589-.298 5.545 5.545 0 00-.615-.22z" fill="#3BF2DC"/><path d="M23.148.134a7.913 7.913 0 00-.967.508l-.155.098-.148.107a7.854 7.854 0 00-1.552 1.54 6.769 6.769 0 00-.96 1.979 5.397 5.397 0 00-.163.705 6.249 6.249 0 00-.063.708c-.015.466.025.92.114 1.356a5.975 5.975 0 001.072 2.374 6.354 6.354 0 001.485-1.23l.121-.137c.104-.115.208-.23.304-.355.542-.679.946-1.505 1.24-2.392a7.35 7.35 0 00.339-2.053 7.2 7.2 0 00.005-.262v-.005a6.607 6.607 0 00-.672-2.941zm51.41 84.22a5.692 5.692 0 001.307-3.006c.094-.869 0-1.746-.244-2.583a4.738 4.738 0 00-.545.132l-.137.04c-.133.04-.267.08-.397.13a4.78 4.78 0 00-1.24.69l-.107.079a5.315 5.315 0 00-.574.485 6.114 6.114 0 00-.862 1.061 6.883 6.883 0 00-.586 1.036 7.484 7.484 0 00-.642 3.828 5.83 5.83 0 001.276-.195 6.4 6.4 0 00.618-.196 3.88 3.88 0 00.591-.27 6.08 6.08 0 001.541-1.23z" fill="#3BF2DC"/><path d="M76.481 90.48h.041c.05 0 .098-.002.146-.005a7.893 7.893 0 001.8-.332c.232-.075.465-.15.686-.252.222-.102.438-.214.648-.336a6.603 6.603 0 00-1.666-2.027 7.438 7.438 0 00-2.918-1.502 7.15 7.15 0 00-.832-.188 6.583 6.583 0 00-1.528-.074c-.15.007-.301.015-.45.029-.216.02-.43.05-.642.092-.423.08-.834.214-1.235.37.26.841.684 1.61 1.285 2.269.3.328.643.628 1.03.892.193.132.396.254.61.367.214.111.44.22.672.298.464.166.946.278 1.435.34.244.031.49.05.736.056l.057.001.125.002zm12.04-12.947c.196-.398.35-.82.452-1.263a4.914 4.914 0 00.127-1.334 5.827 5.827 0 00-.188-1.293 6.54 6.54 0 00-1.146-2.308 4.772 4.772 0 00-1.399 1.189 4.706 4.706 0 00-.258.318c-.456.61-.776 1.373-.992 2.204a6.907 6.907 0 00-.186 1.293 7.781 7.781 0 00-.004.657 7.3 7.3 0 00.787 3.13 6.362 6.362 0 00.862-.44l.137-.087.13-.095a6.29 6.29 0 001.35-1.396c.124-.18.23-.377.328-.575z" fill="#3BF2DC"/><path d="M91.262 78.218a9.465 9.465 0 00-.711-.013 7.13 7.13 0 00-1.379.167 8.28 8.28 0 00-.632.172l-.013.004a6.35 6.35 0 00-1.776.815l-.133.09-.135.087a6.437 6.437 0 00-.76.594 6.114 6.114 0 002.655 1.94 5.7 5.7 0 00.659.19c.451.102.93.154 1.429.15 1.009.006 1.96-.27 2.842-.698a5.61 5.61 0 001.227-.792 7.916 7.916 0 001.04-1.015 6.8 6.8 0 00-2.302-1.313 7.266 7.266 0 00-2.011-.378zm8.133-13.306a5.856 5.856 0 00-.064-.678 5.647 5.647 0 00-.485-1.583 6.072 6.072 0 00-.512-.843 6.674 6.674 0 00-1.913-1.752c-.234.293-.431.61-.589.948a4.725 4.725 0 00-.408 1.05 6.398 6.398 0 00-.006 3.059l.016.064a7.291 7.291 0 00.653 1.76c.405.77.947 1.478 1.599 2.064.305-.3.58-.634.82-.992.118-.18.233-.362.328-.556a5.97 5.97 0 00.539-1.874 4.06 4.06 0 00.022-.667z" fill="#3BF2DC"/><path d="M102.838 65.058a7.524 7.524 0 00-1.973.726 9.73 9.73 0 00-.446.262l-.142.086a6.617 6.617 0 00-1.498 1.285 8.048 8.048 0 00-.416.495c-.26.34-.485.707-.672 1.094a6.069 6.069 0 002.485.826 5.982 5.982 0 002.071-.156c.229-.062.459-.14.689-.232.918-.37 1.759-.933 2.4-1.665a7.85 7.85 0 00.875-1.17c.235-.426.432-.873.585-1.33a6.729 6.729 0 00-2.611-.4 7.172 7.172 0 00-1.006.114c-.114.02-.228.041-.341.065zm2.318-14.513a5.756 5.756 0 00-.509-1.236 4.519 4.519 0 00-.378-.567 5.8 5.8 0 00-1.445-1.34 6.571 6.571 0 00-2.409-.945 5.216 5.216 0 00-.228 1.094c-.017.186-.023.373-.017.561.003.125.014.251.024.377l.016.19a5.1 5.1 0 00.244 1.144c.126.384.311.771.508 1.15.41.761.976 1.445 1.642 2.021a7.392 7.392 0 002.225 1.348c.093-.194.177-.392.25-.594a6.153 6.153 0 00.267-2.233 5.976 5.976 0 00-.19-.97z" fill="#3BF2DC"/><path d="M107.237 49.588l-.115.105a7.148 7.148 0 00-.918 1.042 6.721 6.721 0 00-.516.85 6.317 6.317 0 00-.749 2.127c-.044.208-.077.42-.099.632.863.145 1.766.12 2.633-.117a6.028 6.028 0 002.426-1.356 5.6 5.6 0 00.954-1.12c.27-.407.499-.842.683-1.296a4.78 4.78 0 00.223-.694 7.85 7.85 0 00.145-.714 7.24 7.24 0 00.087-1.446 6.878 6.878 0 00-2.592.563 7.31 7.31 0 00-1.752 1.063c-.142.114-.273.235-.41.36zm-2.104-15.144a4.802 4.802 0 00-.925-.972 5.775 5.775 0 00-2.374-1.136 6.744 6.744 0 00-2.607-.02c.015.186.04.37.078.552a4.722 4.722 0 00.682 1.843 4.932 4.932 0 00.493.73 6.173 6.173 0 001.016.992 6.906 6.906 0 00.938.653 7.6 7.6 0 003.767 1.02 6.187 6.187 0 00-.203-1.913 3.69 3.69 0 00-.21-.612 6.082 6.082 0 00-.655-1.137z" fill="#3BF2DC"/><path d="M108.246 30.711a7.35 7.35 0 00-1.59 2.24 9.163 9.163 0 00-.478 1.3c-.119.435-.191.87-.217 1.302l-.011.222a6.272 6.272 0 00.012 1.07c.039.428.13.847.247 1.26a6 6 0 002.398-1.043 6.025 6.025 0 001.793-2.13 6.75 6.75 0 00.483-1.385 7.072 7.072 0 00.167-1.088 7.758 7.758 0 00-.333-2.518 7.708 7.708 0 00-.272-.674 6.685 6.685 0 00-2.199 1.444zm-7.939-10.449c-.586-.637-1.37-1.11-2.236-1.401a4.947 4.947 0 00-1.318-.262 5.972 5.972 0 00-1.315.06 6.64 6.64 0 00-2.426.905 4.738 4.738 0 00.943 1.386c.124.14.258.274.4.402a5.264 5.264 0 001.09.744 6.228 6.228 0 001.018.456 7.068 7.068 0 001.606.352 7.787 7.787 0 00.973.053 7.44 7.44 0 002.565-.488 6.34 6.34 0 00-.508-1.182 6.255 6.255 0 00-.792-1.025z" fill="#3BF2DC"/><path d="M100.249 16.794a7.435 7.435 0 00-.085.703c-.072.95.061 1.833.293 2.677.123.419.288.817.49 1.195.184.387.407.753.666 1.096a6.094 6.094 0 001.869-1.84 5.977 5.977 0 00.478-.905 6.105 6.105 0 00.409-1.719 7.06 7.06 0 00.026-.741 4.924 4.924 0 00-.062-.733 7.522 7.522 0 00-.672-2.08 6.574 6.574 0 00-.375-.623 7.962 7.962 0 00-.917-1.127 6.707 6.707 0 00-1.541 2.145 7.11 7.11 0 00-.568 1.89l-.011.062zM89.655 7.923c-.797-.36-1.663-.572-2.594-.51a5.79 5.79 0 00-1.94.444c-.202.09-.398.189-.588.298a6.694 6.694 0 00-1.947 1.72 4.736 4.736 0 00.655.525l.118.076.116.08a4.996 4.996 0 001.574.671l.012.003a6.08 6.08 0 001.83.199 8.802 8.802 0 001.3-.158 7.512 7.512 0 003.478-1.756A6.346 6.346 0 0090.23 8.23a4.523 4.523 0 00-.576-.306z" fill="#3BF2DC"/><path d="M88.851.134a6.605 6.605 0 00-.671 2.932v.023c0 .084.001.169.005.253a7.357 7.357 0 00.339 2.052c.293.888.697 1.714 1.24 2.393.095.124.199.24.303.355l.121.136a6.313 6.313 0 001.485 1.23c.52-.7.895-1.5 1.073-2.373.088-.436.128-.89.114-1.356a6.225 6.225 0 00-.064-.708 5.413 5.413 0 00-.162-.706 6.763 6.763 0 00-.96-1.979 7.507 7.507 0 00-.467-.56A7.874 7.874 0 0090.12.847L89.973.74 89.82.642a7.864 7.864 0 00-.968-.508zm-31.639 89.63l2.286-2.273c.67-.666.67-1.745 0-2.41l-2.286-2.273a1.721 1.721 0 00-2.424 0l-2.286 2.273a1.697 1.697 0 000 2.41l2.286 2.273c.67.665 1.755.665 2.424 0z" fill="#3BF2DC"/><path d="M28.55 22.997v24.05c0 7.72 3.225 14.69 8.407 19.654a27.44 27.44 0 0019.045 7.64 27.44 27.44 0 0018.935-7.534c5.246-4.971 8.515-11.986 8.515-19.76v-24.05a3.253 3.253 0 00-3.262-3.243H31.813a3.253 3.253 0 00-3.262 3.243z" fill="#DEFFFB"/><path d="M67.336 28.792c1.652 0 3.004 1.344 3.004 2.986l-.005 5.336h-2.17v-6.16h-28.69v19.567h20.31v4.512H47.814v-2.35h-7.509c-1.652 0-3.003-1.344-3.003-2.987V31.78c0-1.643 1.351-2.987 3.003-2.987h27.032z" fill="#2C2B4C"/><path fill-rule="evenodd" clip-rule="evenodd" d="M74.681 41.812c0-.789-.648-1.434-1.441-1.434h-8.65c-.793 0-1.442.645-1.442 1.434v13.92c0 .79.65 1.434 1.442 1.434h8.65c.793 0 1.441-.645 1.441-1.433V41.812zm-2.054 12.29h-7.424v-11.68h7.424v11.682z" fill="#2C2B4C"/><path d="M45.957 37.093v4.033c0 1.65.966 2.762 2.909 2.762 1.953 0 2.909-1.111 2.909-2.762v-4.033h-1.198v4.003c0 1.06-.594 1.75-1.711 1.75s-1.711-.69-1.711-1.75v-4.003h-1.198zm10.709 4.063l1.883 2.612h1.409l-2.517-3.433 2.366-3.242h-1.42l-1.72 2.441-1.732-2.441h-1.409l2.355 3.252-2.506 3.423h1.41l1.882-2.612z" fill="#2C2B4C"/></svg>