<svg width="196" height="123" viewBox="0 0 196 123" fill="none" xmlns="http://www.w3.org/2000/svg">
<path d="M86.9773 68.0154L46.1772 91.4408" stroke="#3BF2DC" stroke-width="4" stroke-linecap="round" stroke-linejoin="round"/>
<path d="M53.1837 107.795L47.8039 111.145" stroke="#8A86FF" stroke-width="4" stroke-linecap="round" stroke-linejoin="round"/>
<path d="M7.49326 117.653L2.11346 121.002" stroke="#FF9E99" stroke-width="4" stroke-linecap="round" stroke-linejoin="round"/>
<path d="M99.0328 46.5717L93.653 49.9211" stroke="#8A86FF" stroke-width="4" stroke-linecap="round" stroke-linejoin="round"/>
<path d="M118.052 68.5995L108.245 74.2303" stroke="#FF9E99" stroke-width="4" stroke-linecap="round" stroke-linejoin="round"/>
<path d="M35.2943 74.7205L6.27197 91.3491" stroke="#8A86FF" stroke-width="4" stroke-linecap="round" stroke-linejoin="round"/>
<path d="M136.645 31.9644L128.303 34.4797L140.824 52.6743L146.036 45.6103" stroke="#3BF2DC" stroke-width="4" stroke-linejoin="round"/>
<path d="M167.691 40.6156C169.392 39.4193 171.738 40.4448 172.03 42.5122L172.887 48.5744C173.036 49.6266 172.583 50.6754 171.718 51.2843L160.996 58.8266C159.295 60.023 156.948 58.9974 156.656 56.9301L155.799 50.8678C155.651 49.8157 156.103 48.7669 156.969 48.158L167.691 40.6156Z" stroke="#FF9E99" stroke-width="4" stroke-linejoin="round"/>
<path d="M148.695 13.8825C150.396 12.6861 150.261 10.1051 148.445 9.10947L143.121 6.1899C142.197 5.6832 141.067 5.74771 140.201 6.35656L129.479 13.8989C127.779 15.0953 127.914 17.6763 129.73 18.672L135.054 21.5916C135.978 22.0983 137.108 22.0337 137.974 21.4249L148.695 13.8825Z" stroke="#FF9E99" stroke-width="4" stroke-linejoin="round"/>
<path d="M170.918 3.95177L176.438 11.8406C177.324 13.1058 177.012 14.8437 175.742 15.7223L166.742 21.9505C165.453 22.8426 163.677 22.5044 162.806 21.201L155.49 10.2502" stroke="#3BF2DC" stroke-width="4"/>
<path d="M135.541 31.9178C126.282 18.1118 186.948 -5.05651 193.376 4.14424C199.804 13.345 154.663 60.1957 145.719 46.0694L135.541 31.9178Z" stroke="#8A86FF" stroke-width="4"/>
</svg>
