<svg width="191" height="24" viewBox="0 0 191 24" fill="none" xmlns="http://www.w3.org/2000/svg">
<path fill-rule="evenodd" clip-rule="evenodd" d="M7.48408 20.6363C12.7884 20.6363 16.174 16.9984 16.174 12.2982V12.2376C16.174 7.53865 12.7884 3.84013 7.48408 3.84013H2.57052V20.6363H7.48408V20.6363ZM0.203613 1.62707H7.48408C14.0767 1.62707 18.6307 6.20476 18.6307 12.177V12.2376C18.6307 18.2111 14.0767 22.8494 7.48408 22.8494H0.203613V1.62707V1.62707Z" fill="#1B212D"/>
<path fill-rule="evenodd" clip-rule="evenodd" d="M25.1094 1.62669H40.2708V3.80943H27.4763V11.0549H38.9226V13.2376H27.4763V20.6663H40.4206V22.849H25.1094V1.62669Z" fill="#1B212D"/>
<path fill-rule="evenodd" clip-rule="evenodd" d="M45.3027 19.7568L46.7708 17.9985C48.9579 19.9993 51.0552 20.9997 53.9626 20.9997C56.7789 20.9997 58.6365 19.484 58.6365 17.3922V17.3315C58.6365 15.361 57.5879 14.2393 53.1824 13.2995C48.3587 12.2372 46.1416 10.6608 46.1416 7.17448V7.11385C46.1416 3.77912 49.0478 1.32354 53.0338 1.32354C56.0898 1.32354 58.277 2.20269 60.4042 3.93069L59.026 5.77996C57.0785 4.17322 55.1311 3.47596 52.9739 3.47596C50.2462 3.47596 48.5085 4.99175 48.5085 6.90164V6.96227C48.5085 8.96312 49.5883 10.0848 54.2023 11.0852C58.8762 12.1172 61.0334 13.8452 61.0334 17.089V17.1496C61.0334 20.7875 58.0373 23.1522 53.8727 23.1522C50.5471 23.1522 47.8194 22.0305 45.3027 19.7568" fill="#1B212D"/>
<path fill-rule="evenodd" clip-rule="evenodd" d="M67.4954 22.8493H69.8623V1.62695H67.4954V22.8493Z" fill="#1B212D"/>
<path fill-rule="evenodd" clip-rule="evenodd" d="M76.4893 12.2987V12.2381C76.4893 6.41621 80.7137 1.26253 87.0055 1.26253C90.5421 1.26253 92.7293 2.29326 94.8265 4.08189L93.2985 5.90084C91.6806 4.476 89.883 3.47558 86.9169 3.47558C82.2717 3.47558 78.946 7.44821 78.946 12.1775V12.2381C78.946 17.3008 82.1518 21.06 87.2464 21.06C89.6433 21.06 91.8604 20.1202 93.2985 18.9379V13.6629H86.9169V11.5105H95.5755V19.9686C93.6281 21.7269 90.6919 23.2137 87.1553 23.2137C80.5639 23.2137 76.4893 18.3619 76.4893 12.2987" fill="#1B212D"/>
<path fill-rule="evenodd" clip-rule="evenodd" d="M102.615 1.62669H104.831L118.046 18.6351V1.62669H120.353V22.849H118.465L104.922 5.44648V22.849H102.615V1.62669Z" fill="#1B212D"/>
<path fill-rule="evenodd" clip-rule="evenodd" d="M127.723 1.62669H132.339V18.6048H142.796V22.849H127.723V1.62669Z" fill="#1B212D"/>
<path fill-rule="evenodd" clip-rule="evenodd" d="M159.843 13.9659L157.057 7.08417L154.271 13.9659H159.843ZM154.99 1.47448H159.245L168.234 22.8496H163.409L161.491 18.0888H152.623L150.704 22.8496H146L154.99 1.47448Z" fill="#1B212D"/>
<path fill-rule="evenodd" clip-rule="evenodd" d="M182.783 18.7564C184.822 18.7564 186.05 18.0288 186.05 16.4524V16.3917C186.05 14.9669 185.002 14.0877 182.635 14.0877H177.3V18.7564H182.783ZM181.556 10.2061C183.592 10.2061 184.882 9.53912 184.882 7.96269V7.90206C184.882 6.50754 183.802 5.71933 181.854 5.71933H177.3V10.2061H181.556ZM172.806 1.62669H182.545C184.94 1.62669 186.828 2.29364 188.028 3.50627C188.986 4.47638 189.466 5.65869 189.466 7.11385V7.17448C189.466 9.57069 188.207 10.9033 186.709 11.7534C189.136 12.6932 190.634 14.1181 190.634 16.9677V17.0284C190.634 20.9088 187.518 22.849 182.783 22.849H172.806V1.62669Z" fill="#1B212D"/>
</svg>
