<svg width="66" height="66" fill="none" xmlns="http://www.w3.org/2000/svg"><circle cx="33" cy="33" r="32" stroke="#B3B3B3" stroke-width="2"/><path d="M43.582 34.565c0 7.038-6.846 12.743-15.291 12.743-1.787 0-3.503-.256-5.097-.725-1.008-.297-5.154 2.457-6.053 1.999-.794-.404 1.646-4.005.956-4.519C14.969 41.73 13 38.339 13 34.565c0-7.037 6.846-12.742 15.291-12.742s15.29 5.705 15.29 12.742z" stroke="#B3B3B3" stroke-width="1.911"/><path d="M42.626 38.46c.736-.1 1.45-.253 2.138-.455.814-.24 4.164 1.985 4.89 1.616.641-.327-1.33-3.236-.772-3.652C51.409 34.084 53 31.345 53 28.295 53 22.61 47.469 18 40.645 18c-3.88 0-7.343 1.49-9.608 3.823" stroke="#B3B3B3" stroke-width="1.911"/></svg>