<svg width="66" height="66" fill="none" xmlns="http://www.w3.org/2000/svg"><circle cx="33" cy="33" r="32" stroke="#B3B3B3" stroke-width="2"/><path d="M26.297 38.875l-3.615 12.368 4.098-.895L29.976 53l2.701-12.434M40.184 38.875l3.613 12.368-4.098-.895L36.503 53l-2.701-12.434" stroke="#B3B3B3" stroke-width="2" stroke-linecap="round" stroke-linejoin="round"/><path fill-rule="evenodd" clip-rule="evenodd" d="M48.058 27.617l-3.334-3.884.463-5.143-4.932-1.146L37.672 13l-4.643 2.04L28.384 13l-2.583 4.444-4.931 1.132.462 5.143L18 27.617l3.332 3.885-.463 5.157 4.932 1.145 2.583 4.443 4.645-2.053 4.643 2.041 2.583-4.444 4.931-1.146-.462-5.143 3.334-3.884z" stroke="#B3B3B3" stroke-width="2" stroke-linecap="round" stroke-linejoin="round"/><path d="M28.5 27.5l3.115 3.5 6.885-6" stroke="#B3B3B3" stroke-width="2" stroke-linecap="round" stroke-linejoin="round"/></svg>