<svg version="1.1" id="Layer_1" xmlns="http://www.w3.org/2000/svg" x="0" y="0" viewBox="0 0 64 64" xml:space="preserve"><style>.st0{fill:none;stroke:#b3b3b3;stroke-width:1.6;stroke-linecap:round;stroke-linejoin:round}</style><path class="st0" d="M20.5 29.3h9.7M20.5 32.5h11.7M46.8 41.9H17.6c-1.2 0-2.2-1-2.2-2.1V23.9c0-1.2 1-2.1 2.2-2.1h29.2c1.2 0 2.2 1 2.2 2.1v15.9c0 1.2-1 2.1-2.2 2.1zM15.4 37.4h33"/><path d="M32 62.7C49 62.7 62.7 49 62.7 32S49 1.3 32 1.3 1.3 15 1.3 32 15 62.7 32 62.7z" fill="none" stroke="#b3b3b3" stroke-width="1.92"/></svg>