<svg width="66" height="66" fill="none" xmlns="http://www.w3.org/2000/svg"><path d="M30 21h13M30 24h10" stroke="#B3B3B3" stroke-width="1.667" stroke-linecap="round" stroke-linejoin="round"/><path fill-rule="evenodd" clip-rule="evenodd" d="M26 22.5a1.5 1.5 0 11-2.999.001A1.5 1.5 0 0126 22.5z" stroke="#B3B3B3" stroke-width="1.667" stroke-linecap="round" stroke-linejoin="round"/><path fill-rule="evenodd" clip-rule="evenodd" d="M19.962 53h26.076A3.965 3.965 0 0050 49.032V16.968A3.965 3.965 0 0046.038 13H19.962A3.965 3.965 0 0016 16.968v32.064A3.965 3.965 0 0019.962 53z" stroke="#B3B3B3" stroke-width="1.667" stroke-linecap="round" stroke-linejoin="round"/><path d="M30 32h13M30 35h10" stroke="#B3B3B3" stroke-width="1.667" stroke-linecap="round" stroke-linejoin="round"/><path fill-rule="evenodd" clip-rule="evenodd" d="M26 33.5a1.5 1.5 0 11-2.999.001A1.5 1.5 0 0126 33.5z" stroke="#B3B3B3" stroke-width="1.667" stroke-linecap="round" stroke-linejoin="round"/><path d="M30 43h13M30 46h10" stroke="#B3B3B3" stroke-width="1.667" stroke-linecap="round" stroke-linejoin="round"/><path fill-rule="evenodd" clip-rule="evenodd" d="M26 44.5a1.5 1.5 0 11-2.999.001A1.5 1.5 0 0126 44.5z" stroke="#B3B3B3" stroke-width="1.667" stroke-linecap="round" stroke-linejoin="round"/><path fill-rule="evenodd" clip-rule="evenodd" d="M33 65c17.673 0 32-14.327 32-32C65 15.327 50.673 1 33 1 15.327 1 1 15.327 1 33c0 17.673 14.327 32 32 32z" stroke="#B3B3B3" stroke-width="2"/></svg>