<svg width="64" height="64" fill="none" xmlns="http://www.w3.org/2000/svg"><path fill-rule="evenodd" clip-rule="evenodd" d="M32.726 17.442s6.59 5.322 14.634 5.322c0 0 .223 19.513-14.634 27.053a2.604 2.604 0 01-1.452 0c-14.857-7.54-14.633-27.053-14.633-27.053 8.042 0 14.633-5.322 14.633-5.322.49-.21.976-.222 1.452 0z" stroke="#B3B3B3" stroke-width="1.6" stroke-linecap="round" stroke-linejoin="round"/><path d="M37.76 28.8l-7.928 7.68-3.592-3.479" stroke="#B3B3B3" stroke-width="1.6" stroke-linecap="round" stroke-linejoin="round"/><path fill-rule="evenodd" clip-rule="evenodd" d="M32 62.72c16.967 0 30.72-13.754 30.72-30.72S48.967 1.28 32 1.28C15.034 1.28 1.28 15.034 1.28 32S15.034 62.72 32 62.72z" stroke="#B3B3B3" stroke-width="1.92"/></svg>