<svg width="173" height="84" fill="none" xmlns="http://www.w3.org/2000/svg"><path d="M77.445 57.044L48 74.044" stroke="#8A86FF" stroke-width="2.761" stroke-linecap="round" stroke-linejoin="round"/><path d="M81.732 78.044l-1.732 1M89.732 35.044l-1.732 1" stroke="#3BF2DC" stroke-width="2.761" stroke-linecap="round" stroke-linejoin="round"/><path d="M117.078 61.044L110 65.132" stroke="#fff" stroke-width="2.761" stroke-linecap="round" stroke-linejoin="round"/><path d="M22.934 69.044L2 81.132" stroke="#FF9E99" stroke-width="2.761" stroke-linecap="round" stroke-linejoin="round"/><path d="M130.497 23.013l-6.02 1.825 9.036 13.204 3.761-5.126" stroke="#FF9E99" stroke-width="2" stroke-linejoin="round"/><path d="M152.932 29.27c1.214-.86 2.887-.127 3.095 1.355l.627 4.456a2.039 2.039 0 01-.836 1.945l-7.779 5.502c-1.214.86-2.887.126-3.095-1.355l-.626-4.456a2.037 2.037 0 01.836-1.945l7.778-5.503zM139.223 9.869c1.214-.859 1.12-2.708-.174-3.422l-3.892-2.146a1.963 1.963 0 00-2.085.12l-7.778 5.503c-1.214.859-1.12 2.708.174 3.422l3.892 2.146a1.963 1.963 0 002.085-.12l7.778-5.503z" stroke="#3BF2DC" stroke-width="2" stroke-linejoin="round"/><path d="M155.232 2.684l3.998 5.745a2 2 0 01-.499 2.784l-6.531 4.545a2 2 0 01-2.808-.535l-5.295-7.968" stroke="#FF9E99" stroke-width="2"/><path d="M129.7 22.979c-6.682-10.02 37.1-26.833 41.739-20.156C176.078 9.5 143.5 43.5 137.045 33.248l-7.345-10.27z" stroke="#8A86FF" stroke-width="2"/></svg>