<svg width="133" height="112" fill="none" xmlns="http://www.w3.org/2000/svg"><g opacity=".6" stroke="#6462B7" stroke-linecap="round"><path d="M20.015 11.165V1.433M10.283 20.898H.551M12.004 12.886L8.563 9.445"/></g><g opacity=".6" stroke="#6462B7"><path d="M28.613 25.211l-1.393 10.56c6.764 5.024 14.975 6.106 21.896 2.887l1.393-10.56" stroke-linecap="round" stroke-linejoin="round"/><path d="M20.92 20.195l20.458-4.456 18.11 9.743-20.183 5.371-18.384-10.658z" stroke-linejoin="round"/><path d="M59.381 25.367l-1.435 10.885" stroke-linecap="round"/></g><g opacity=".6" stroke="#6462B7"><path d="M16.297 94.314l2.393 10.378c8.094 2.338 16.164.477 21.52-4.962l-2.392-10.38" stroke-linecap="round" stroke-linejoin="round"/><path d="M7.335 92.308L24.937 80.97l20.376 2.785-17.025 12.098-20.953-3.546z" stroke-linejoin="round"/><path d="M45.172 83.686l2.467 10.698" stroke-linecap="round"/></g><g opacity=".6" stroke="#6462B7"><path clip-rule="evenodd" d="M85.93 65.499a6 6 0 004.114 7.42l31.653 9.077 4.024-14.032-31.653-9.077a6 6 0 00-7.422 4.114l-.716 2.498z" stroke-linecap="round" stroke-linejoin="round"/><path d="M107.01 62.599l9.355 2.682-4.024 14.033-9.355-2.683z"/><circle cx="93.305" cy="66.262" transform="rotate(16 93.305 66.262)" r="2.433"/><path d="M112.255 64.103L124.4 57.37l-7.078-12.768-12.144 6.732" stroke-linecap="round" stroke-linejoin="round"/><path d="M112.277 64.09l3.611-2-7.078-12.769-3.632 2.014"/><path d="M86.288 64.25l8.718-30.404 14.033 4.023-6.706 23.388" stroke-linecap="round" stroke-linejoin="round"/><path d="M89.641 52.556l2.683-9.355 14.032 4.024-2.682 9.355z"/></g></svg>