<svg width="147" height="91" fill="none" xmlns="http://www.w3.org/2000/svg"><g opacity=".6"><path clip-rule="evenodd" d="M1 50.889h56V12H1v38.889z" stroke="#726FC5" stroke-linejoin="round"/><path d="M13.923 50.889h-.5a.5.5 0 00.5.5v-.5zm25.846 0v.5a.5.5 0 00.5-.5h-.5zM26.846 38.35c3.812 0 6.962-2.886 6.962-6.524h-1c0 3.02-2.635 5.524-5.962 5.524v1zm6.962-6.524c0-3.637-3.15-6.524-6.962-6.524v1c3.327 0 5.962 2.504 5.962 5.524h1zm-6.962-6.524c-3.812 0-6.962 2.887-6.962 6.524h1c0-3.02 2.634-5.524 5.962-5.524v-1zm-6.962 6.524c0 3.638 3.15 6.524 6.962 6.524v-1c-3.328 0-5.962-2.504-5.962-5.524h-1zm6.961 9.525c-2.214 0-5.504.515-8.253 1.542-1.374.514-2.645 1.167-3.582 1.973-.939.808-1.587 1.812-1.587 3.011h1c0-.804.428-1.555 1.239-2.253.812-.699 1.963-1.302 3.28-1.794 2.634-.984 5.805-1.479 7.903-1.479v-1zm-13.422 6.526v3.012h1v-3.012h-1zm.5 3.512H39.77v-1H13.923v1zm26.346-.5v-3.012h-1v3.012h1zm0-3.012c0-1.199-.648-2.203-1.586-3.01-.937-.807-2.209-1.46-3.583-1.974-2.75-1.027-6.04-1.542-8.255-1.542v1c2.1 0 5.27.495 7.905 1.48 1.318.491 2.468 1.094 3.28 1.793.811.698 1.24 1.45 1.24 2.253h1zM18.23 89.778h-.5a.5.5 0 00.5.5v-.5zm25.847 0v.5a.5.5 0 00.5-.5h-.5zM31.153 77.239c3.812 0 6.962-2.886 6.962-6.525h-1c0 3.021-2.635 5.525-5.962 5.525v1zm6.962-6.525c0-3.636-3.15-6.523-6.962-6.523v1c3.327 0 5.962 2.504 5.962 5.523h1zm-6.962-6.523c-3.812 0-6.962 2.887-6.962 6.523h1c0-3.019 2.635-5.523 5.962-5.523v-1zm-6.962 6.523c0 3.639 3.15 6.525 6.962 6.525v-1c-3.327 0-5.962-2.504-5.962-5.525h-1zm6.962 9.526c-2.214 0-5.504.515-8.253 1.542-1.374.514-2.646 1.167-3.583 1.973-.938.808-1.586 1.812-1.586 3.011h1c0-.804.428-1.555 1.239-2.253.812-.699 1.963-1.302 3.28-1.794 2.634-.984 5.805-1.479 7.903-1.479v-1zm-13.422 6.526v3.012h1v-3.012h-1zm.5 3.512h25.846v-1H18.23v1zm26.346-.5v-3.012h-1v3.012h1zm0-3.012c0-1.199-.648-2.203-1.587-3.01-.937-.807-2.208-1.46-3.582-1.974-2.75-1.027-6.04-1.542-8.255-1.542v1c2.099 0 5.27.495 7.905 1.479 1.317.492 2.468 1.095 3.28 1.794.81.698 1.239 1.449 1.239 2.253h1z" fill="#726FC5"/><path clip-rule="evenodd" d="M1 89.778h56v-38.89H1v38.89zM100.268 47.778l-9-2.006-2.806-9 6.193-6.994 8.998 2.007 2.809 8.999-6.194 6.994z" stroke="#726FC5" stroke-linejoin="round"/><path clip-rule="evenodd" d="M57 70.111h88.615V1H57v69.111z" stroke="#726FC5" stroke-linejoin="round"/><path clip-rule="evenodd" d="M65 57.222h6v-34h-6v34zM120 31.556h16v-8.334h-16v8.334z" stroke="#726FC5" stroke-linejoin="round"/><path clip-rule="evenodd" d="M120 39.889h16v-8.334h-16v8.334zM120 51h16V39.889h-16V51zM57 12.111h88.615V1H57v11.111z" stroke="#726FC5" stroke-linejoin="round"/></g></svg>