<svg width="236" height="141" fill="none" xmlns="http://www.w3.org/2000/svg"><path clip-rule="evenodd" d="M154.219 60.88h-26.547A3.67 3.67 0 01124 57.213V13.667A3.67 3.67 0 01127.672 10H157.8a3.668 3.668 0 013.671 3.667v43.516a3.71 3.71 0 01-3.7 3.698h-3.552z" stroke="#565495" stroke-linecap="round" stroke-linejoin="round"/><path clip-rule="evenodd" d="M151.915 44.143a5.886 5.886 0 01-5.888 5.882 5.883 5.883 0 01-5.886-5.882 5.883 5.883 0 015.886-5.882 5.886 5.886 0 015.888 5.882z" stroke="#565495" stroke-linecap="round" stroke-linejoin="round"/><path clip-rule="evenodd" d="M144.563 47.19a5.886 5.886 0 01-5.888 5.881 5.884 5.884 0 01-5.886-5.881 5.884 5.884 0 015.886-5.882 5.886 5.886 0 015.888 5.882z" stroke="#565495" stroke-linecap="round" stroke-linejoin="round"/><path d="M132.004 19.085h21.473M132.004 24.608h16.606M132.004 30.128h19.927M100.471 100.633c0-5.233-3.762-7.782-10.342-7.782H66.672A3.67 3.67 0 0163 89.183V45.668A3.67 3.67 0 0166.672 42H96.8a3.67 3.67 0 013.672 3.669v54.246" stroke="#565495" stroke-linecap="round" stroke-linejoin="round"/><path clip-rule="evenodd" d="M77.372 51.393a5.793 5.793 0 015.796 5.79 5.792 5.792 0 01-5.796 5.79h-5.716V51.396l5.716-.003z" stroke="#565495" stroke-linecap="round" stroke-linejoin="round"/><path d="M71.137 70.39h16.606M71.137 75.912h19.927M71.137 81.48h9.667" stroke="#565495" stroke-linecap="round" stroke-linejoin="round"/><path d="M177 125.631h-.5a.5.5 0 00.5.5v-.5zm23.262 0v.5a.5.5 0 00.5-.5h-.5zm-11.631-12.466c3.49 0 6.317-2.834 6.317-6.334h-1c0 2.95-2.382 5.334-5.317 5.334v1zm6.317-6.334c0-3.497-2.827-6.331-6.317-6.331v1a5.324 5.324 0 015.317 5.331h1zm-6.317-6.331c-3.49 0-6.317 2.834-6.317 6.331h1a5.324 5.324 0 015.317-5.331v-1zm-6.317 6.331c0 3.5 2.827 6.334 6.317 6.334v-1c-2.935 0-5.317-2.384-5.317-5.334h-1zm6.317 9.55c-2.003 0-4.974.5-7.457 1.498-1.242.499-2.393 1.135-3.242 1.921-.852.789-1.432 1.762-1.432 2.915h1c0-.787.389-1.513 1.111-2.182.726-.672 1.755-1.252 2.936-1.726 2.362-.949 5.206-1.426 7.084-1.426v-1zm-12.131 6.334v2.916h1v-2.916h-1zm.5 3.416h23.262v-1H177v1zm23.762-.5v-2.916h-1v2.916h1zm0-2.916c0-1.153-.58-2.126-1.432-2.915-.848-.786-2-1.422-3.242-1.921-2.482-.998-5.454-1.498-7.457-1.498v1c1.878 0 4.722.477 7.085 1.426 1.18.474 2.209 1.054 2.935 1.726.722.669 1.111 1.395 1.111 2.182h1z" fill="#565495"/><path clip-rule="evenodd" d="M13.286 140.223a16.244 16.244 0 01-1.214-1.099c-6.446-6.439-6.446-16.882 0-23.321a16.472 16.472 0 015.437-3.613 14.179 14.179 0 00-12.354 3.96c-5.54 5.536-5.54 14.515 0 20.05a14.13 14.13 0 008.13 4.023z" stroke="#565495" stroke-linejoin="round"/><path clip-rule="evenodd" d="M12.073 139.125c.389.391.797.754 1.214 1.099 4.235.57 8.68-.768 11.937-4.023 5.54-5.538 5.54-14.515 0-20.05a14.124 14.124 0 00-7.714-3.96 16.45 16.45 0 00-5.437 3.611c-6.446 6.441-6.446 16.882 0 23.323z" stroke="#565495" stroke-linejoin="round"/><path clip-rule="evenodd" d="M222.727 38.607L210 25.88l18.243-5.515-5.516 18.243z" stroke="#565495" stroke-linecap="round" stroke-linejoin="round"/><path d="M8 25.63h-.5a.5.5 0 00.5.5v-.5zm23.262 0v.5a.5.5 0 00.5-.5h-.5zM19.631 13.167c3.49 0 6.317-2.835 6.317-6.335h-1c0 2.95-2.382 5.334-5.317 5.334v1zm6.317-6.335C25.948 3.334 23.12.5 19.63.5v1a5.323 5.323 0 015.317 5.331h1zM19.63.5c-3.49 0-6.317 2.834-6.317 6.331h1A5.323 5.323 0 0119.631 1.5v-1zm-6.317 6.331c0 3.5 2.827 6.334 6.317 6.334v-1c-2.935 0-5.317-2.384-5.317-5.334h-1zm6.317 9.55c-2.003 0-4.974.5-7.457 1.498-1.242.499-2.393 1.135-3.242 1.92-.852.79-1.432 1.763-1.432 2.916h1c0-.787.389-1.513 1.111-2.182.726-.672 1.755-1.252 2.935-1.726 2.363-.95 5.207-1.426 7.085-1.426v-1zM7.5 22.715v2.916h1v-2.916h-1zM8 26.13h23.262v-1H8v1zm23.762-.5v-2.916h-1v2.916h1zm0-2.916c0-1.153-.58-2.127-1.432-2.915-.848-.786-2-1.422-3.241-1.921-2.483-.998-5.455-1.498-7.458-1.498v1c1.878 0 4.722.477 7.085 1.426 1.18.474 2.21 1.055 2.935 1.726.722.669 1.111 1.395 1.111 2.182h1z" fill="#565495"/></svg>