<svg width="771" height="151" fill="none" xmlns="http://www.w3.org/2000/svg"><path d="M747.058 102a21.953 21.953 0 0115.516 6.427 21.939 21.939 0 016.427 15.516h-21.943V102z" stroke="#565495"/><path opacity=".5" d="M764.886 128.057a21.945 21.945 0 01-13.546 20.273 21.947 21.947 0 01-23.913-4.757 21.938 21.938 0 01-4.757-23.913 21.946 21.946 0 0120.273-13.546v21.943h21.943z" stroke="#565495"/><path clip-rule="evenodd" d="M13.286 29.223a16.263 16.263 0 01-1.214-1.099c-6.446-6.439-6.446-16.882 0-23.32a16.465 16.465 0 015.437-3.614c-4.36-.719-8.99.6-12.354 3.96-5.54 5.536-5.54 14.515 0 20.05a14.134 14.134 0 008.13 4.023z" stroke="#565495" stroke-linejoin="round"/><path clip-rule="evenodd" d="M12.073 28.125c.389.391.797.754 1.214 1.099A14.17 14.17 0 0025.224 25.2c5.54-5.538 5.54-14.514 0-20.05a14.122 14.122 0 00-7.714-3.96 16.456 16.456 0 00-5.437 3.61c-6.446 6.442-6.446 16.883 0 23.324z" stroke="#565495" stroke-linejoin="round"/><path clip-rule="evenodd" d="M694.219 53.88h-26.547A3.67 3.67 0 01664 50.213V6.667A3.67 3.67 0 01667.672 3H697.8a3.668 3.668 0 013.671 3.667v43.516a3.71 3.71 0 01-3.7 3.698h-3.552z" stroke="#565495" stroke-linecap="round" stroke-linejoin="round"/><path clip-rule="evenodd" d="M691.915 37.143a5.886 5.886 0 01-5.888 5.882 5.883 5.883 0 01-5.886-5.882 5.883 5.883 0 015.886-5.882 5.886 5.886 0 015.888 5.882z" stroke="#565495" stroke-linecap="round" stroke-linejoin="round"/><path clip-rule="evenodd" d="M684.561 40.19a5.885 5.885 0 01-5.888 5.881 5.884 5.884 0 01-5.886-5.881 5.884 5.884 0 015.886-5.882 5.885 5.885 0 015.888 5.882z" stroke="#565495" stroke-linecap="round" stroke-linejoin="round"/><path d="M672.004 12.085h21.473M672.004 17.608h16.606M672.004 23.128h19.927M51.471 129.633c0-5.232-3.762-7.782-10.342-7.782H17.673A3.67 3.67 0 0114 118.183V74.668A3.67 3.67 0 0117.672 71H47.8a3.67 3.67 0 013.672 3.668v54.247" stroke="#565495" stroke-linecap="round" stroke-linejoin="round"/><path clip-rule="evenodd" d="M28.374 80.393a5.793 5.793 0 015.796 5.79 5.792 5.792 0 01-5.796 5.79h-5.716V80.396l5.716-.003z" stroke="#565495" stroke-linecap="round" stroke-linejoin="round"/><path d="M22.137 99.39h16.606M22.137 104.912h19.927M22.137 110.48h9.667" stroke="#565495" stroke-linecap="round" stroke-linejoin="round"/><path clip-rule="evenodd" d="M649.703 113.295l15.589 9 9-15.589-15.589-9-9 15.589zM112.727 27.607L99.999 14.88l18.244-5.515-5.516 18.243z" stroke="#565495" stroke-linecap="round" stroke-linejoin="round"/><path d="M746.344 59.448h-.5a.5.5 0 00.5.5v-.5zm23.262 0v.5a.5.5 0 00.5-.5h-.5zm-11.631-12.466c3.489 0 6.316-2.834 6.316-6.334h-1c0 2.95-2.381 5.334-5.316 5.334v1zm6.316-6.334c0-3.497-2.827-6.331-6.316-6.331v1c2.935 0 5.316 2.384 5.316 5.331h1zm-6.316-6.331c-3.49 0-6.317 2.834-6.317 6.331h1a5.323 5.323 0 015.317-5.331v-1zm-6.317 6.331c0 3.5 2.827 6.334 6.317 6.334v-1c-2.935 0-5.317-2.384-5.317-5.334h-1zm6.317 9.55c-2.004 0-4.975.5-7.458 1.498-1.242.499-2.393 1.135-3.241 1.92-.853.79-1.432 1.763-1.432 2.916h1c0-.787.389-1.513 1.111-2.182.726-.672 1.755-1.252 2.935-1.726 2.363-.95 5.207-1.426 7.085-1.426v-1zm-12.131 6.334v2.916h1v-2.916h-1zm.5 3.416h23.262v-1h-23.262v1zm23.762-.5v-2.916h-1v2.916h1zm0-2.916c0-1.153-.58-2.127-1.432-2.915-.849-.786-2-1.422-3.242-1.921-2.483-.998-5.454-1.498-7.457-1.498v1c1.878 0 4.722.477 7.084 1.426 1.181.474 2.21 1.054 2.936 1.726.722.669 1.111 1.395 1.111 2.182h1zM98 92.63h-.5a.5.5 0 00.5.5v-.5zm23.262 0v.5a.5.5 0 00.5-.5h-.5zm-11.631-12.465c3.49 0 6.317-2.834 6.317-6.334h-1c0 2.95-2.382 5.334-5.317 5.334v1zm6.317-6.334c0-3.496-2.827-6.331-6.317-6.331v1a5.324 5.324 0 015.317 5.332h1zm-6.317-6.331c-3.49 0-6.317 2.835-6.317 6.332h1a5.324 5.324 0 015.317-5.332v-1zm-6.317 6.332c0 3.499 2.827 6.334 6.317 6.334v-1c-2.935 0-5.317-2.385-5.317-5.334h-1zm6.317 9.549c-2.003 0-4.974.5-7.457 1.498-1.242.499-2.394 1.135-3.242 1.92-.852.79-1.432 1.763-1.432 2.916h1c0-.787.389-1.513 1.111-2.182.726-.671 1.755-1.252 2.936-1.726 2.362-.95 5.206-1.426 7.084-1.426v-1zM97.5 89.715v2.916h1v-2.916h-1zm.5 3.416h23.262v-1H98v1zm23.762-.5v-2.916h-1v2.916h1zm0-2.916c0-1.153-.58-2.127-1.432-2.915-.848-.786-2-1.422-3.242-1.921-2.482-.998-5.454-1.498-7.457-1.498v1c1.878 0 4.722.477 7.085 1.426 1.18.474 2.209 1.055 2.935 1.726.722.669 1.111 1.395 1.111 2.182h1z" fill="#565495"/></svg>