<svg width="145" height="143" fill="none" xmlns="http://www.w3.org/2000/svg"><g opacity=".6" stroke="#726FC5" stroke-linejoin="round"><path clip-rule="evenodd" d="M35.142 136.062c-1.79 3.393-10.2 2.523-18.785-1.946-8.588-4.469-14.1-10.842-12.31-14.235 1.788-3.394 10.198-2.527 18.786 1.943 8.586 4.469 14.097 10.844 12.31 14.238zM55.442 97.533c-1.79 3.393-10.2 2.523-18.785-1.946-8.588-4.47-14.1-10.842-12.312-14.236 1.79-3.393 10.2-2.526 18.788 1.944 8.586 4.469 14.097 10.844 12.31 14.238z"/><path d="M55.442 97.533l-20.3 38.53M24.345 81.35L4.047 119.882"/></g><g opacity=".6" stroke="#726FC5" stroke-linejoin="round"><path clip-rule="evenodd" d="M36.991 33l-16-3.567L16 13.436 27.011 1 43.01 4.567l4.99 16L36.991 33z"/><path d="M36.992 33l-4.99-15.997L43.01 4.567M16 13.436l16.002 3.566L27.009 1"/></g><g opacity=".6" stroke="#726FC5" stroke-linejoin="round"><path clip-rule="evenodd" d="M99.052 55.436c-.83-2.883 8.41-8.029 20.639-11.494 12.23-3.465 22.82-3.938 23.649-1.054.83 2.884-8.41 8.03-20.639 11.494-12.229 3.465-22.82 3.938-23.65 1.054z"/><path d="M143.34 42.887c2.995 10.392-4.494 21.624-16.724 25.09-12.229 3.464-24.57-2.152-27.565-12.542"/></g></svg>