<svg width="617" height="357" fill="none" xmlns="http://www.w3.org/2000/svg"><path d="M3.732 354L2 355" stroke="#3BF2DC" stroke-width="2.761" stroke-linecap="round" stroke-linejoin="round"/><path d="M21.078 313L14 317.086" stroke="#fff" stroke-width="2.761" stroke-linecap="round" stroke-linejoin="round"/><path d="M104.321 319L87 329" stroke="#3BF2DC" stroke-width="2.761" stroke-linecap="round" stroke-linejoin="round"/><path d="M79.32 289L62 299" stroke="#FF9E99" stroke-width="2.761" stroke-linecap="round" stroke-linejoin="round"/><path d="M436.321 118L419 128" stroke="#3BF2DC" stroke-width="2.761" stroke-linecap="round" stroke-linejoin="round"/><path d="M67.033 317L22 343" stroke="#8A86FF" stroke-width="2.761" stroke-linecap="round" stroke-linejoin="round"/><path d="M390.445 167L361 184" stroke="#fff" stroke-width="2.761" stroke-linecap="round" stroke-linejoin="round"/><path d="M287.735 229.997l-20.732 13M155.732 301L154 302" stroke="#3BF2DC" stroke-width="2.761" stroke-linecap="round" stroke-linejoin="round"/><path d="M293.732 198L292 199M351.057 154.005L331 166" stroke="#8A86FF" stroke-width="2.761" stroke-linecap="round" stroke-linejoin="round"/><path d="M239.08 269.998l-27.078 15.086" stroke="#FF9E99" stroke-width="2.761" stroke-linecap="round" stroke-linejoin="round"/><path d="M208.934 251L188 263.086" stroke="#3BF2DC" stroke-width="2.761" stroke-linecap="round" stroke-linejoin="round"/><path d="M521.445 57.501l-29.445 17" stroke="#8A86FF" stroke-width="2.761" stroke-linecap="round" stroke-linejoin="round"/><path d="M525.732 78.501l-1.732 1M533.732 35.501l-1.732 1" stroke="#3BF2DC" stroke-width="2.761" stroke-linecap="round" stroke-linejoin="round"/><path d="M561.078 61.502L554 65.588" stroke="#fff" stroke-width="2.761" stroke-linecap="round" stroke-linejoin="round"/><path d="M466.934 69.501L446 81.588M504.934 107.502L484 119.588" stroke="#FF9E99" stroke-width="2.761" stroke-linecap="round" stroke-linejoin="round"/><path d="M574.497 23.47l-6.02 1.825 9.036 13.204 3.761-5.126" stroke="#FF9E99" stroke-width="2" stroke-linejoin="round"/><path d="M596.932 29.726c1.214-.858 2.887-.126 3.095 1.356l.627 4.456a2.039 2.039 0 01-.836 1.945l-7.779 5.503c-1.214.858-2.887.125-3.095-1.356l-.626-4.456a2.037 2.037 0 01.836-1.946l7.778-5.502zM583.223 10.326c1.214-.859 1.12-2.708-.174-3.422l-3.892-2.146a1.963 1.963 0 00-2.085.12l-7.778 5.503c-1.214.859-1.12 2.708.174 3.422l3.892 2.146a1.963 1.963 0 002.085-.12l7.778-5.503z" stroke="#3BF2DC" stroke-width="2" stroke-linejoin="round"/><path d="M599.232 3.14l3.998 5.746a2 2 0 01-.499 2.785l-6.531 4.544a2 2 0 01-2.808-.535l-5.295-7.968" stroke="#FF9E99" stroke-width="2"/><path d="M573.7 23.436c-6.682-10.02 37.1-26.833 41.739-20.155 4.639 6.677-27.939 40.677-34.394 30.425l-7.345-10.27z" stroke="#8A86FF" stroke-width="2"/></svg>