<svg width="160" height="36" fill="none" xmlns="http://www.w3.org/2000/svg"><path fill-rule="evenodd" clip-rule="evenodd" d="M92.653.363L79.115 35.258h-2.241L90.412.362h2.24zM0 .208h34.619v35.5H0V.207zM148.13 22.808l-3.84-12.276-3.882 12.276h7.722zm.086-21.85L160 34.947h-8.235l-2.027-6.372H138.8l-1.967 6.372h-8.236L140.322.958h7.894zM123.731 16.49v18.457h-5.918v-3.16a8.072 8.072 0 01-2.823 2.702 11.45 11.45 0 01-3.258 1.192c-.53.086-1.06.155-1.582.207-.522.052-1.018.069-1.497.069l-.419.043s-.051-.043-.068-.043h-.06c-.624 0-1.616-.07-3.002-.19a12.567 12.567 0 01-4.344-1.235 14.372 14.372 0 01-5.474-5.18c-1.642-2.497-2.463-6.307-2.463-11.43 0-5.312 1.329-9.628 3.986-12.95 2.657-3.32 6.83-4.978 12.52-4.972h.419c3.238 0 5.773.633 7.603 1.9a13.9 13.9 0 014.088 4.143 13.636 13.636 0 011.582 3.756c.265 1.165.419 1.899.444 2.201h-8.15a5.942 5.942 0 00-1.453-3.66c-.916-1.105-2.378-1.667-4.371-1.727-2.423.034-4.204.708-5.345 2.02a10.961 10.961 0 00-2.343 4.317 17.736 17.736 0 00-.487 2.84 31.495 31.495 0 00-.103 2.296c0 3.816.71 6.556 2.13 8.219a7.855 7.855 0 004.669 2.91c.207.055.419.093.633.112h.59a6.787 6.787 0 002.726-.507 6.837 6.837 0 002.302-1.557 7.347 7.347 0 001.985-4.627h-6.252v-6.147H123.731zM51.398 16.213h6.465a6.464 6.464 0 003.181-.915c.975-.576 1.463-1.69 1.463-3.341 0-1.727-.488-2.953-1.463-3.531a6.79 6.79 0 00-3.566-.864h-6.08v8.651zM43.615.958h16.437c3.809 0 6.483.97 8.022 2.91a10.535 10.535 0 012.326 6.76 9.351 9.351 0 01-1.266 5.24 8.11 8.11 0 01-2.787 2.727 3.277 3.277 0 01-.573.294l-.522.207v.138a5.031 5.031 0 011.943.883c.578.43 1.058.98 1.41 1.612a10.322 10.322 0 011.034 3.738c0 .337.051.674.069 1.002.017.328 0 .673 0 1.01 0 2.046.094 3.54.188 4.463.08.86.333 1.694.744 2.452.029.096.069.19.12.276.06.095.12.181.17.276h-7.919a6.384 6.384 0 01-.906-2.477 38.76 38.76 0 01-.317-4.757v-.51-.5a6.079 6.079 0 00-1.069-2.953c-.604-.903-1.95-1.355-4.036-1.355h-5.285v12.553h-7.783V.958z" fill="#1B212D"/></svg>