<svg width="160" height="85" fill="none" xmlns="http://www.w3.org/2000/svg"><path d="M155.982 80.805v.437h-1.24v3.25h-.51v-3.25h-1.24v-.437h2.99zM156.248 80.805h.794l1.09 3.022h.028l1.063-3.022h.776v3.687h-.523v-3.023h-.015l-1.121 3.023h-.476l-1.078-3.023h-.028v3.023h-.51v-3.687zM52.266 56.474h-7.018v28.018h7.018V56.474zM108.832 64.504a12.079 12.079 0 00-5.907-1.502c-4.526 0-7.678 3.185-7.678 7.476 0 4.165 3.018 7.48 7.678 7.48 2.061.009 4.09-.502 5.904-1.487v7.522a22.359 22.359 0 01-6.395.998c-7.89 0-14.804-5.485-14.804-14.513 0-8.369 6.258-14.5 14.804-14.5a21.23 21.23 0 016.395 1l.003 7.526zM35.611 64.504a12.078 12.078 0 00-5.9-1.502c-4.542 0-7.687 3.176-7.687 7.485 0 4.165 3.011 7.48 7.687 7.48a12.308 12.308 0 005.9-1.487v7.523c-2.078.642-4.239.978-6.413.997-7.88 0-14.798-5.485-14.798-14.513 0-8.368 6.268-14.5 14.798-14.5 2.175.006 4.338.343 6.413 1v7.517zM145.595 70.487c0 8.003-6.136 14.513-14.685 14.513-8.548 0-14.684-6.51-14.684-14.513 0-8.002 6.127-14.5 14.684-14.5 8.558 0 14.685 6.498 14.685 14.5zM130.91 63.1a7.305 7.305 0 00-4.874 2.32 7.417 7.417 0 00-1.983 5.052c0 1.877.709 3.683 1.983 5.052a7.305 7.305 0 004.874 2.32c4.154 0 7.248-3.3 7.248-7.387a7.298 7.298 0 00-.52-2.821 7.248 7.248 0 00-1.566-2.396 7.142 7.142 0 00-5.162-2.14zM78.877 62.84c-.104-.029-3.054-.85-5.483-.85-2.825 0-4.349.948-4.349 2.293 0 1.708 2.062 2.299 3.213 2.674l1.943.616c4.557 1.456 6.633 4.617 6.633 8.003 0 7.042-6.142 9.406-11.52 9.406a41.288 41.288 0 01-7.574-.767V77.78c.629.154 3.57 1.038 6.633 1.038 3.482 0 5.095-1.025 5.095-2.617 0-1.422-1.39-2.234-3.137-2.788-.418-.142-1.06-.342-1.493-.493-3.913-1.23-7.171-3.552-7.171-8.19 0-5.233 3.9-8.763 10.384-8.763 2.306.034 4.602.333 6.841.893l-.015 5.98zM6.963 26.36c0-.931-.366-1.824-1.02-2.482a3.468 3.468 0 00-2.461-1.028c-.924 0-1.81.37-2.462 1.028A3.523 3.523 0 000 26.36v7.356c0 .931.367 1.823 1.02 2.482a3.468 3.468 0 002.462 1.027c.923 0 1.809-.37 2.462-1.027a3.523 3.523 0 001.02-2.482V26.36zM26.095 16.704c0-.93-.367-1.823-1.02-2.481a3.468 3.468 0 00-2.462-1.028c-.924 0-1.81.37-2.462 1.028a3.522 3.522 0 00-1.02 2.48v17.013c0 .93.367 1.823 1.02 2.48a3.468 3.468 0 002.462 1.029c.923 0 1.809-.37 2.462-1.028a3.522 3.522 0 001.02-2.481V16.704zM45.235 3.499a3.531 3.531 0 00-1.058-2.42 3.477 3.477 0 00-2.431-.994c-.908 0-1.78.356-2.432.994a3.531 3.531 0 00-1.058 2.42v37.209a3.53 3.53 0 001.058 2.42 3.477 3.477 0 002.432.994c.908 0 1.78-.357 2.431-.994a3.53 3.53 0 001.058-2.42V3.498zM64.354 16.704A3.522 3.522 0 0063.3 14.29a3.468 3.468 0 00-2.425-.99c-.906 0-1.776.355-2.425.99a3.522 3.522 0 00-1.055 2.414v17.012a3.533 3.533 0 00.982 2.548 3.48 3.48 0 002.498 1.064 3.458 3.458 0 002.498-1.064 3.513 3.513 0 00.982-2.548V16.704zM83.476 26.36c0-.929-.365-1.819-1.017-2.475a3.459 3.459 0 00-2.455-1.025 3.46 3.46 0 00-2.456 1.025 3.514 3.514 0 00-1.017 2.474v7.357c0 .928.366 1.818 1.017 2.474a3.46 3.46 0 002.456 1.025c.92 0 1.804-.368 2.455-1.025a3.513 3.513 0 001.017-2.474v-7.357zM102.62 16.704a3.514 3.514 0 00-1.053-2.41 3.463 3.463 0 00-2.421-.99c-.904 0-1.772.356-2.42.99a3.516 3.516 0 00-1.054 2.41v17.011a3.529 3.529 0 00.98 2.544 3.477 3.477 0 002.494 1.063 3.453 3.453 0 002.494-1.063 3.53 3.53 0 00.98-2.544V16.704zM121.754 3.5a3.51 3.51 0 00-1.017-2.475 3.457 3.457 0 00-4.911 0 3.514 3.514 0 00-1.017 2.475v37.209c0 .928.366 1.818 1.017 2.474a3.457 3.457 0 004.911 0 3.51 3.51 0 001.017-2.474V3.499zM140.892 16.704a3.53 3.53 0 00-1.022-2.486 3.473 3.473 0 00-2.466-1.029c-.925 0-1.812.37-2.466 1.03a3.525 3.525 0 00-1.022 2.485v17.012c0 .932.367 1.826 1.022 2.485a3.474 3.474 0 002.466 1.03c.925 0 1.812-.37 2.466-1.03a3.53 3.53 0 001.022-2.485V16.704zM159.998 26.36a3.51 3.51 0 00-1.053-2.41 3.46 3.46 0 00-2.421-.99c-.904 0-1.772.355-2.421.99a3.519 3.519 0 00-1.053 2.41v7.356a3.53 3.53 0 00.98 2.543 3.456 3.456 0 004.988 0 3.53 3.53 0 00.98-2.544V26.36z" fill="#1B212D"/></svg>