<svg width="80" height="80" xmlns="http://www.w3.org/2000/svg"><g fill="none" fill-rule="evenodd"><circle fill="#2C326B" cx="40" cy="40" r="40"/><g fill-rule="nonzero"><path d="M33.75 60c3.726 0 6.75-2.987 6.75-6.667v-6.666h-6.75c-3.726 0-6.75 2.986-6.75 6.666S30.024 60 33.75 60z" fill="#0ACF83"/><path d="M27 40c0-3.68 3.024-6.667 6.75-6.667h6.75v13.334h-6.75C30.024 46.667 27 43.68 27 40z" fill="#A259FF"/><path d="M27 26.667C27 22.987 30.024 20 33.75 20h6.75v13.333h-6.75c-3.726 0-6.75-2.986-6.75-6.666z" fill="#F24E1E"/><path d="M40.5 20h6.75c3.726 0 6.75 2.987 6.75 6.667 0 3.68-3.024 6.666-6.75 6.666H40.5V20z" fill="#FF7262"/><path d="M54 40c0 3.68-3.024 6.667-6.75 6.667S40.5 43.68 40.5 40c0-3.68 3.024-6.667 6.75-6.667S54 36.32 54 40z" fill="#1ABCFE"/></g></g></svg>