<svg width="160" height="65" fill="none" xmlns="http://www.w3.org/2000/svg"><path d="M160 4.62h-26.644L135.012 0H160v4.62zM88.996 0h24.732l1.707 4.637H89.098L88.996 0zM69.366 0A17.715 17.715 0 0180 4.637H35.178V0h34.188zM31.133 0H0v4.62h31.133V0zM160 13.292h-29.682l1.604-4.603H160v4.603zM118.405 13.292h-29.41V8.689H116.8l1.605 4.603zM83.481 8.69a11.94 11.94 0 011.298 4.602H35.178V8.689H83.48zM31.133 8.69H0v4.602h31.133V8.689zM127.279 21.982l1.622-4.62h22.291v4.602l-23.913.018zM119.838 17.362l1.621 4.62h-23.69v-4.62h22.069zM85.172 17.362a15.11 15.11 0 01-.666 4.62h-13.57v-4.62h14.236zM22.07 17.38H8.686v4.602H22.07v-4.603zM57.555 17.362H44.19v4.62h13.365v-4.62zM110.945 26.962v3.52H97.768V25.88h25.125l1.553 4.276s1.502-4.293 1.519-4.276h25.227v4.602h-13.108v-3.52l-1.212 3.52H112.14l-1.195-3.52zM44.19 25.88h38.353a17.58 17.58 0 01-3.806 4.602H44.19V25.88zM22.07 25.88H8.686v4.602H22.07V25.88zM151.175 34.552h-13.092v4.603h13.092v-4.603zM110.945 34.552H97.768v4.586h13.177v-4.586zM135.439 34.552s-1.536 4.585-1.588 4.585h-18.655s-1.707-4.62-1.707-4.602l21.95.017zM44.19 34.535H78.67a22.277 22.277 0 014.113 4.602H44.19v-4.602zM22.07 39.137v-4.602H8.705v4.602H22.07zM151.175 43.208h-13.092v4.602h13.092v-4.602zM110.928 43.208h-13.16v4.602h13.16v-4.602zM130.779 47.827s1.621-4.62 1.706-4.62h-15.924l1.706 4.603 12.512.017zM44.19 47.81v-4.602h13.553v4.602H44.19zM84.694 43.208c.546 1.479.835 3.041.853 4.62H71.176v-4.62h13.518zM22.07 43.208H8.705v4.602H22.07v-4.602zM159.982 51.708h-21.899v4.603h21.899v-4.603zM110.929 51.708H88.996v4.603h21.933v-4.603zM127.843 56.294h-6.691l-1.605-4.586h9.832l-1.536 4.586zM0 51.708v4.586h31.116v-4.586H0zM84.966 51.708a9.843 9.843 0 01-1.706 4.603H35.178v-4.603h49.788zM124.804 64.983h-.614l-1.57-4.603h3.789l-1.605 4.603zM159.982 60.38h-21.899V65h21.899v-4.62zM35.178 64.983V60.38H80.22a17.012 17.012 0 01-11.623 4.603h-33.42zM110.929 60.38H88.996V65h21.933v-4.62zM31.116 60.398v4.585H0V60.38l31.116.017z" fill="#1B212D"/></svg>