<svg width="160" height="53" fill="none" xmlns="http://www.w3.org/2000/svg"><path fill-rule="evenodd" clip-rule="evenodd" d="M159.92 12.835C158.838 5.777 146.325 1.239 127.624.187 104.13-1.153 56.911 4.704 26.177 17.768a10.14 10.14 0 012.142-.206c2.356 0 5.626.581 5.626 4.232v1.18H29.79v-1.04a1.443 1.443 0 00-.428-1.12 1.424 1.424 0 00-1.124-.402c-1.05 0-1.41.594-1.525 1.13-.063.29-.063.59 0 .88.476 1.967 6.798 3.006 7.498 6.529.151.91.151 1.838 0 2.747-.41 2.81-2.868 3.84-5.887 3.84-3.135 0-6.065-1.125-6.065-4.88v-1.282h4.516v1.617c0 .916.623 1.526 1.667 1.526 1.115 0 1.492-.57 1.64-1.134.11-.407.1-.838-.034-1.238-.86-2.17-6.785-3.164-7.506-6.6a5.77 5.77 0 01-.033-2.26 3.896 3.896 0 011.45-2.55c-7.674 3.445-14.205 7.364-18.896 11.757-3.627 3.386-5.47 6.633-4.987 9.71.84 5.503 7.113 8.588 16.21 10.605 14.906 3.3 39.961 2.843 65.234-1.175 19.258-3.065 38.618-8.143 53.377-14.603-.635.12-1.28.178-1.926.174-2.946 0-5.584-1.081-5.855-4.125a9.797 9.797 0 01-.069-1.11V22.9c0-.31.053-.825.086-1.114.364-3.135 2.892-4.125 5.851-4.125 2.958 0 5.531.998 5.847 4.125.03.37.039.742.028 1.114v.548h-4.195v-.932c0-.216-.018-.43-.054-.643-.073-.368-.389-1.238-1.639-1.238-1.249 0-1.581.825-1.659 1.237-.059.26-.085.526-.078.793v7.668c-.002.214.013.428.045.64.074.453.492 1.237 1.701 1.237 1.208 0 1.639-.772 1.704-1.238.035-.21.049-.425.041-.64v-2.429h-1.709v-2.446h5.888v4.496c0 .306 0 .545-.057 1.11a4.059 4.059 0 01-1.36 2.805c6.256-2.916 11.567-6.097 15.529-9.488 4.302-3.679 7.494-7.787 6.916-11.55l-.012.005zm-55.844 5.263h-4.22v12.429c.01.212 0 .425-.033.635a1.652 1.652 0 01-.577.917 1.632 1.632 0 01-2.037 0 1.651 1.651 0 01-.578-.917 2.858 2.858 0 01-.04-.635V18.098h-4.237v12.016c0 .314.02.949.037 1.114.29 3.13 2.74 4.15 5.81 4.15 3.069 0 5.519-1.02 5.818-4.15.04-.37.059-.742.057-1.114V18.098zm-38.732 0l-2.106 13.114-2.098-13.114h-6.827l-.356 16.78h4.167l.11-15.538 2.869 15.539h4.228l2.868-15.54.115 15.54h4.171l-.368-16.78h-6.773zm-25.187 0l-3.102 16.78h4.507L43.89 19.34l2.27 15.539h4.47l-3.073-16.78h-7.4zm78.629 13.51l-3.921-13.51h-6.187v16.603h4.097l-.233-13.942 4.216 13.942h5.921V18.098h-4.122l.229 13.51zm-37.848-9.146a2.303 2.303 0 010-.866c.123-.536.48-1.122 1.512-1.122a1.394 1.394 0 011.11.4 1.413 1.413 0 01.415 1.11v1.023h4.097v-1.168c0-3.617-3.22-4.182-5.552-4.182-2.934 0-5.327.973-5.77 3.712-.138.74-.125 1.501.038 2.236.713 3.39 6.58 4.377 7.432 6.522.123.402.133.83.03 1.237-.128.557-.505 1.122-1.607 1.122-1.037 0-1.66-.602-1.66-1.51v-1.608h-4.425v1.278c0 3.713 2.868 4.83 5.995 4.83 2.975 0 5.433-1.022 5.83-3.802.14-.902.131-1.82-.028-2.719-.693-3.481-6.945-4.537-7.417-6.468v-.025z" fill="#1B212D"/></svg>