<svg width="160" height="30" fill="none" xmlns="http://www.w3.org/2000/svg"><path d="M37.744 12.594c2.59 0 3.386 2.392 3.386 3.71h-6.998a3.617 3.617 0 011.014-2.643 3.535 3.535 0 011.19-.805 3.503 3.503 0 011.408-.262zm7.44 11.075a19.52 19.52 0 01-2.259.64c-.916.187-1.848.282-2.782.285-3.065 0-5.464-1.034-5.854-3.488h13.056c.175-.936.263-1.886.265-2.838 0-5.583-2.743-10.704-9.748-10.704-6.818.023-10.43 5.418-10.43 11.47 0 6.97 4.82 10.96 11.548 10.96 1.343.015 2.684-.11 4.002-.37a16.02 16.02 0 003.257-1.034l-1.056-4.921zM139.229 12.594c2.591 0 3.386 2.392 3.386 3.71h-6.993a3.615 3.615 0 011.013-2.64 3.541 3.541 0 011.188-.806 3.503 3.503 0 011.406-.264zm7.445 11.075c-.74.258-1.494.472-2.258.64-.916.187-1.848.283-2.783.285-3.065 0-5.463-1.034-5.853-3.488h13.072c.174-.928.263-1.87.266-2.815 0-5.583-2.743-10.704-9.748-10.704-6.807 0-10.431 5.395-10.431 11.446 0 6.97 4.82 10.961 11.549 10.961 1.342.015 2.683-.11 4.001-.37a15.88 15.88 0 003.252-1.034l-1.067-4.921zM50.8.48v29.052h7.088V.48H50.8zM72.14 24.674c-2.303 0-3.815-2.284-3.815-5.863 0-2.855 1.016-5.863 3.838-5.863 2.726 0 3.697 3.134 3.697 5.834 0 3.574-1.473 5.892-3.72 5.892zm-.096 5.32c5.532 0 11.13-3.528 11.13-11.418 0-4.687-2.742-10.978-10.78-10.978-8.28 0-11.289 6.097-11.289 11.338-.005 6.594 4.505 11.058 10.94 11.058zM86.257 8.095v21.437h7.089V8.095h-7.09zM86.257.486v5.566h7.089V.486h-7.09zM98.962 2.284V8.09h-2.726v5.315h2.726v8.78c0 4.835 2.184 7.787 7.168 7.787a21.15 21.15 0 002.964-.24c.69-.092 1.372-.233 2.043-.423l-.051-5.617c-.796.183-1.606.302-2.421.354a2.701 2.701 0 01-2.021-.702 3.225 3.225 0 01-.745-2.358v-7.582h4.583V8.09h-4.583V1.467l-6.937.817zM115.365 2.284V8.09h-2.727v5.315h2.727v8.78c0 4.835 2.178 7.787 7.168 7.787.99-.01 1.978-.091 2.958-.24a14.795 14.795 0 002.048-.423l-.05-5.617c-.797.183-1.607.302-2.422.354a2.723 2.723 0 01-2.02-.702 3.258 3.258 0 01-.74-2.358v-7.582h4.583V8.09h-4.583V1.467l-6.942.817zM152.154 26.033a4 4 0 01.661-2.205 3.933 3.933 0 011.761-1.461 3.88 3.88 0 012.266-.226c.761.153 1.46.531 2.009 1.086a3.985 3.985 0 011.074 2.032c.151.77.073 1.567-.224 2.292a3.958 3.958 0 01-1.444 1.78 3.896 3.896 0 01-2.18.67 3.902 3.902 0 01-2.774-1.163 3.993 3.993 0 01-1.149-2.805zM0 29.566h8.02c.565 0 1.203 0 1.694-.04 11-.576 15.573-7.147 15.573-14.734C25.287 5.309 18.965 0 8.054 0 5.254 0 2.766.097 0 .331v29.235zm10.256-5.789c-.294 0-.74.035-1.022.035H6.976V5.954a31.006 31.006 0 012.422-.114c4.12 0 8.512 2.7 8.512 8.952.01 6.513-4.115 8.688-7.654 8.985z" fill="#1B212D"/></svg>