<svg width="160" height="43" fill="none" xmlns="http://www.w3.org/2000/svg"><path d="M107.967 0H95.522c-.413 0-.812.149-1.125.418-.314.27-.522.644-.587 1.055l-5.034 32.202a1.056 1.056 0 00.235.843 1.036 1.036 0 00.788.365h6.382c.29.002.57-.101.79-.291.22-.19.364-.453.407-.742l1.427-9.127c.065-.41.273-.785.587-1.055.313-.27.712-.418 1.124-.418h3.916c8.194 0 12.926-4.002 14.163-11.938.559-3.472 0-6.21-1.589-8.106C115.266 1.084 112.128 0 107.967 0zm1.437 11.758c-.682 4.515-4.094 4.515-7.394 4.515h-1.88l1.332-8.444a1.047 1.047 0 011.023-.886h.862c2.237 0 4.368 0 5.459 1.292.643.796.845 1.925.598 3.5v.023zM19.198 0H6.753c-.412 0-.81.147-1.124.418-.313.27-.52.644-.582 1.055L.013 33.675a1.053 1.053 0 00.235.843 1.036 1.036 0 00.788.365h5.946a1.72 1.72 0 001.105-.428c.307-.27.51-.64.573-1.045l1.36-8.687c.064-.41.27-.784.583-1.054a1.72 1.72 0 011.123-.42h3.915c8.2 0 12.932-4.001 14.168-11.937.56-3.472 0-6.21-1.588-8.106C26.509 1.084 23.366 0 19.198 0zm1.438 11.758c-.683 4.515-4.095 4.515-7.395 4.515h-1.873l1.314-8.416c.038-.246.163-.47.35-.633.188-.162.427-.252.674-.253h.861c2.237 0 4.369 0 5.465 1.293.654.767.85 1.896.604 3.471v.023zM56.4 11.594h-5.962a1.03 1.03 0 00-.655.259c-.182.16-.303.38-.34.622l-.263 1.693-.442-.621c-1.292-1.89-4.167-2.523-7.042-2.523-6.584 0-12.211 5.035-13.302 12.096-.56 3.528.24 6.892 2.238 9.24 1.823 2.162 4.418 3.06 7.506 3.06 1.534.016 3.055-.28 4.472-.871a11.404 11.404 0 003.779-2.567l-.263 1.694a1.053 1.053 0 00.235.842 1.036 1.036 0 00.788.365h5.364c.413 0 .811-.148 1.125-.418.314-.27.522-.644.587-1.055l3.222-20.585a1.058 1.058 0 00-.6-1.14 1.033 1.033 0 00-.446-.091zm-8.306 11.701a6.721 6.721 0 01-2.278 4.155 6.608 6.608 0 01-4.434 1.591 4.583 4.583 0 01-2.192-.31 4.623 4.623 0 01-1.797-1.305 4.703 4.703 0 01-.944-4.232 6.751 6.751 0 012.26-4.162 6.637 6.637 0 014.418-1.624c.741-.04 1.481.087 2.168.37a5.033 5.033 0 011.804 1.267 5.238 5.238 0 01.996 4.25zM145.164 11.594h-5.957a1.024 1.024 0 00-.674.248 1.044 1.044 0 00-.35.633l-.263 1.693-.419-.621c-1.292-1.89-4.167-2.523-7.037-2.523-6.583 0-12.21 5.035-13.307 12.096-.559 3.528.241 6.892 2.238 9.24 1.818 2.162 4.413 3.06 7.506 3.06 1.534.016 3.055-.28 4.472-.871a11.392 11.392 0 003.778-2.567l-.268 1.694a1.058 1.058 0 00.24.842 1.035 1.035 0 00.789.365h5.364c.412.001.811-.147 1.124-.417.313-.27.519-.645.582-1.056l3.228-20.608a1.05 1.05 0 00-.605-1.12 1.03 1.03 0 00-.441-.088zm-8.307 11.701a6.715 6.715 0 01-2.278 4.155 6.607 6.607 0 01-4.434 1.591 4.583 4.583 0 01-2.194-.309 4.619 4.619 0 01-1.799-1.304 4.707 4.707 0 01-.946-4.235 6.75 6.75 0 012.26-4.161 6.64 6.64 0 014.419-1.624 4.996 4.996 0 012.17.369 5.03 5.03 0 011.807 1.268 5.207 5.207 0 01.995 4.25zM88.139 11.594h-5.991a1.733 1.733 0 00-1.432.762l-8.261 12.282-3.502-11.803a1.738 1.738 0 00-.632-.905 1.712 1.712 0 00-1.046-.336h-5.868a1.027 1.027 0 00-.845.439 1.05 1.05 0 00-.133.95l6.594 19.53-6.203 8.833a1.056 1.056 0 00.307 1.499c.162.1.348.154.538.155h5.985a1.726 1.726 0 001.42-.75L88.99 13.235a1.05 1.05 0 00-.313-1.492 1.027 1.027 0 00-.537-.15zM152.189.858l-5.107 32.795a1.043 1.043 0 001.024 1.208h5.135c.412 0 .811-.149 1.124-.419.314-.27.522-.644.587-1.054l5.034-32.174a1.048 1.048 0 00-.588-1.118 1.024 1.024 0 00-.435-.096h-5.75a1.029 1.029 0 00-.667.241 1.045 1.045 0 00-.357.617z" fill="#1B212D"/></svg>