<svg width="160" height="32" fill="none" xmlns="http://www.w3.org/2000/svg"><path d="M82.31 15.368c-1.106 0-2.279.326-3.255.847v9.963c.781.065 1.563.13 2.344.065 3.19 0 3.582-1.433 3.582-3.451v-4.754c.065-1.498-.456-2.67-2.67-2.67zm-21.033-.586c-2.214 0-2.735 1.237-2.735 2.67v.846h5.405v-.846c0-1.433-.456-2.67-2.67-2.67zm-40.764 10.42c-.13.846.455 1.692 1.302 1.822h.456c1.107 0 2.149-.325 3.125-.846v-2.344h-2.93c-1.367-.066-1.953.195-1.953 1.367zm82.31-9.834c-2.214 0-2.995 1.172-2.995 2.67v5.47c0 1.498.781 2.67 2.995 2.67s2.996-1.172 2.996-2.67v-5.47c-.065-1.498-.782-2.67-2.996-2.67zM9.703 31.322H3.256V15.63H0v-5.34h3.256V7.033C3.256 2.605 5.079 0 10.289 0h4.298v5.405h-2.67c-2.019 0-2.15.716-2.15 2.149v2.67h4.885L14 15.629H9.703v15.693zm22.14 0h-5.405l-.195-1.367a12.589 12.589 0 01-6.121 1.563c-3.972 0-6.056-2.605-6.056-6.317 0-4.298 2.474-5.86 6.837-5.86h4.494v-.912c0-2.214-.261-2.865-3.647-2.865h-5.535l.52-5.405h6.057c7.423 0 9.051 2.344 9.051 8.27v12.893zM50.207 16.02c-3.386-.586-4.298-.716-5.926-.716-2.93 0-3.777.651-3.777 3.126v4.623c0 2.475.847 3.126 3.777 3.126 1.628 0 2.605-.13 5.926-.716v5.274c-2.149.521-4.298.782-6.512.847-6.968 0-9.703-3.647-9.703-8.921v-3.777c0-5.275 2.735-8.922 9.703-8.922 2.214 0 4.363.326 6.512.847v5.21zm20.252 6.643H58.607v.455c0 2.475.847 3.126 3.777 3.126 2.54 0 5.08-.195 7.554-.716V30.8c-2.67.587-5.34.847-8.075.847-6.968 0-9.768-3.647-9.768-8.921v-4.298c0-4.624 2.084-8.4 9.182-8.4 7.098 0 9.182 3.711 9.182 8.4v4.233zm21.034.13c0 5.079-1.433 8.79-10.29 8.79-2.865 0-5.73-.325-8.595-.846V1.628L79.12.521v10.224a15.34 15.34 0 014.884-.782c6.447 0 7.554 2.93 7.554 7.554l-.066 5.275zm20.773.065c0 4.428-1.824 8.66-9.443 8.66s-9.442-4.232-9.442-8.66v-4.233c0-4.428 1.823-8.66 9.442-8.66s9.443 4.232 9.443 8.66v4.233zm20.707 0c0 4.428-1.823 8.66-9.442 8.66s-9.442-4.232-9.442-8.66v-4.233c0-4.428 1.888-8.66 9.442-8.66s9.442 4.232 9.442 8.66v4.233zm21.294 8.465h-7.032l-5.926-9.898v9.898h-6.447V1.628l6.447-1.107v19.145l5.926-9.377h7.032l-6.446 10.224 6.446 10.81zm-30.736-15.954c-2.214 0-2.995 1.172-2.995 2.67v5.47c0 1.498.781 2.67 2.995 2.67s2.996-1.172 2.996-2.67v-5.47c0-1.498-.782-2.67-2.996-2.67zM157.981 27.61c1.107 0 2.019.847 2.019 1.954s-.847 2.019-1.954 2.019-2.019-.847-2.019-1.954.847-1.954 1.889-2.019h.065zm0 .326a1.69 1.69 0 00-1.563 1.823c.065.847.716 1.563 1.563 1.563.912 0 1.628-.781 1.628-1.628v-.065c0-.912-.716-1.693-1.628-1.693zm-.391 2.865h-.325v-2.214c.195-.065.455-.065.651-.065.26 0 .456.065.716.195.13.13.195.26.195.456 0 .26-.195.456-.455.521.195 0 .325.196.39.521 0 .195.065.39.131.521h-.391c-.065-.195-.13-.39-.13-.586 0-.26-.196-.39-.456-.39h-.326V30.8zm0-1.237h.261c.26 0 .521-.13.521-.39 0-.261-.131-.392-.521-.392h-.261v.782z" fill="#8D9096"/></svg>