<svg fill="none" height="32" viewBox="0 0 160 32" width="160" xmlns="http://www.w3.org/2000/svg"><g fill="#1b212d"><path d="m15.0109.00361769v4.95421231h-2.6904s-2.42907-.35388-2.42907 2.03241v3.88636h5.11947l-.615 5.3738h-4.50447v15.0317h-5.89427v-15.1006h-3.99716v-5.3049h4.16627v-4.50642c-.11664-.83156-.02693-1.67963.26095-2.46681.28789-.78717.76476-1.48836 1.38711-2.03958 2.17999-2.032411 5.03337-1.86017231 5.03337-1.86017231z"/><path d="m29.2376 10.9649v2.6963c-1.5067-2.0199-3.6098-3.2725-5.9404-3.2725-4.5752 0-8.2865 4.1086-8.2865 10.804s3.7113 10.8041 8.2865 10.8041c2.3521 0 4.4737-1.2777 5.9834-3.3289l-.04 2.6211h5.6852v-20.3241zm-.3075 12.2383c0 2.0512-1.7126 3.9772-3.8219 3.9772s-3.8311-1.9228-3.8311-3.974v-3.8895c0-2.0481 1.7126-3.9772 3.8219-3.9772 2.1092 0 3.8219 1.9291 3.8219 3.9772z"/><path d="m81.3513 31.4231v-2.6963c1.5036 2.0199 3.6098 3.2726 5.9374 3.2726 4.5783 0 8.2864-4.1087 8.2864-10.8041s-3.7081-10.8041-8.2864-10.8041c-2.3491 0-4.4738 1.2777-5.9804 3.3289l.0369-13.425178-5.9097.679559v30.345319zm.3075-12.2383c0-2.0512 1.7096-3.9771 3.8219-3.9771 2.1124 0 3.8188 1.9259 3.8188 3.9771v3.8895c0 2.048-1.7095 3.9771-3.8188 3.9771-2.1092 0-3.8219-1.9291-3.8219-3.9771z"/><path d="m47.7655 27.0707s-4.5536.2631-4.5536-5.7465v-.3382c0-6.0096 4.5536-5.7465 4.5536-5.7465 3.0748-.0439 4.1663 1.0616 4.1663 1.0616l1.4298-4.3843c-2.4598-1.857-9.9345-2.1639-13.2737.9708-2.8902 2.7151-2.8902 7.1151-2.838 8.2518-.0522 1.1368-.0522 5.5367 2.838 8.2518 3.3392 3.1316 10.8016 2.8185 13.2737.9708l-1.4298-4.3654s-1.0854 1.1179-4.1663 1.0741z"/><path d="m72.9729 23.3383s2.386-12.7237-9.0182-12.7926-9.7623 11.5118-9.7623 11.5118c.2614 7.0274 3.4284 9.0598 8.8522 9.708 3.248.3946 6.5403-.1083 9.5317-1.4562l-1.2422-4.0993s-4.3815 1.3717-7.8529 1.0616c-3.4714-.31-3.2162-3.9333-3.2162-3.9333zm-12.797-4.1086s-.3075-4.5064 3.6897-4.5064c3.9971 0 3.6896 4.5064 3.6896 4.5064z"/><path d="m107.332 10.6704c-7.425 0-9.9248 4.5628-9.9248 10.6631 0 6.4731 3.2188 10.6663 9.9248 10.6663 5.483 0 9.929-3.7579 9.929-10.6663 0-5.8905-2.835-10.6631-9.929-10.6631zm3.872 12.4294c0 1.0589-.413 2.0745-1.149 2.8233-.735.7488-1.732 1.1695-2.772 1.1695-1.039 0-2.037-.4207-2.772-1.1695s-1.148-1.7644-1.148-2.8233v-3.8895c0-1.0589.413-2.0745 1.148-2.8233s1.733-1.1695 2.772-1.1695c1.04 0 2.037.4207 2.772 1.1695.736.7488 1.149 1.7644 1.149 2.8233z"/><path d="m129.255 10.6704c-7.428 0-9.928 4.5628-9.928 10.6631 0 6.4731 3.222 10.6663 9.928 10.6663 5.483 0 9.929-3.7579 9.929-10.6663 0-5.8905-2.838-10.6631-9.929-10.6631zm3.881 12.4294c-.029 1.04-.455 2.0276-1.187 2.7529-.732.7254-1.714 1.1312-2.735 1.1312-1.022 0-2.003-.4058-2.735-1.1312-.733-.7253-1.158-1.7129-1.187-2.7529v-3.8895c.029-1.04.454-2.0276 1.187-2.753.732-.7253 1.713-1.1311 2.735-1.1311 1.021 0 2.003.4058 2.735 1.1311.732.7254 1.158 1.713 1.187 2.753z"/><path d="m160 31.3796-6.491-10.231 6.202-10.2341h-6.346l-6.057 9.16v-19.882605l-5.962.635717v30.551988h5.962v-10.4095l6.54 10.4095z"/></g></svg>