<svg width="104" height="104" fill="none" xmlns="http://www.w3.org/2000/svg"><path d="M0 0h103.742v56.142l-5.135 8.044 5.135 7.158V104H0V51.075l3.21-3.7L0 43.836V0z" fill="#1B212D"/><path d="M20.139 72.47V56.142h17.245l1.85 2.418 1.912-2.418h62.596v15.202s-1.637 1.11-3.53 1.126H65.551l-2.086-2.574v2.574h-6.836v-4.393s-.934.613-2.953.613H51.35v3.78H41L39.152 70l-1.876 2.47H20.139zM0 43.836l3.889-9.089h6.725l2.207 5.091v-5.09h8.36l1.314 3.679 1.274-3.68H61.3v1.85s1.972-1.85 5.214-1.85l12.177.043 2.17 5.024v-5.067h6.996l1.925 2.886v-2.886h7.06v16.328h-7.06l-1.845-2.896v2.896h-10.28l-1.033-2.574h-2.764l-1.016 2.574h-6.971c-2.79 0-4.574-1.812-4.574-1.812v1.812h-10.51l-2.086-2.574v2.574H9.618l-1.033-2.574H5.83l-1.025 2.574H0v-7.239z" fill="#fff"/><path d="M5.265 36.76L.02 48.986h3.415l.968-2.448h5.626l.963 2.448h3.49L9.242 36.76H5.265zm1.94 2.845l1.716 4.278H5.486l1.72-4.278zM14.843 48.984V36.758l4.853.018 2.823 7.882 2.755-7.9h4.814v12.226h-3.05v-9.009l-3.231 9.009h-2.674l-3.24-9.009v9.009h-3.05zM32.174 48.984V36.758h9.949v2.734h-6.868v2.092h6.707v2.574h-6.707v2.171h6.868v2.655h-9.95zM43.888 36.76v12.226h3.049v-4.344h1.283l3.656 4.344h3.726l-4.012-4.504a3.72 3.72 0 003.345-3.756c0-2.572-2.015-3.966-4.263-3.966h-6.784zm3.049 2.735h3.485c.836 0 1.444.655 1.444 1.287 0 .812-.788 1.287-1.4 1.287h-3.53v-2.574zM59.293 48.984H56.18V36.758h3.113v12.226zM66.674 48.984h-.672c-3.251 0-5.225-2.568-5.225-6.063 0-3.581 1.952-6.163 6.058-6.163h3.37v2.895H66.71c-1.666 0-2.845 1.304-2.845 3.298 0 2.368 1.348 3.362 3.29 3.362h.802l-1.284 2.67zM73.308 36.76l-5.245 12.226h3.415l.968-2.448h5.626l.963 2.448h3.49l-5.24-12.226h-3.977zm1.94 2.845l1.716 4.278h-3.435l1.72-4.278zM82.881 48.984V36.758h3.876l4.95 7.681v-7.681h3.049v12.226h-3.751L85.93 41.1v7.883h-3.049zM22.225 70.38V58.152h9.949v2.735h-6.868v2.091h6.707v2.574h-6.707v2.172h6.868v2.654h-9.95zM70.975 70.38V58.152h9.948v2.735h-6.868v2.091h6.676v2.574h-6.676v2.172h6.868v2.654h-9.948zM32.56 70.38l4.844-6.038-4.96-6.189h3.842l2.953 3.826 2.964-3.826h3.69L41 64.266l4.853 6.113h-3.84l-2.868-3.765-2.798 3.765H32.56zM46.215 58.156V70.38h3.129v-3.86h3.209c2.716 0 4.774-1.445 4.774-4.253 0-2.327-1.615-4.112-4.378-4.112h-6.734zm3.129 2.764h3.38c.877 0 1.504.54 1.504 1.408 0 .816-.624 1.408-1.515 1.408h-3.37V60.92zM58.65 58.153V70.38h3.05v-4.343h1.283l3.656 4.343h3.726l-4.012-4.504a3.72 3.72 0 003.345-3.755c0-2.573-2.015-3.967-4.263-3.967H58.65zm3.05 2.735h3.484c.837 0 1.445.656 1.445 1.287 0 .812-.788 1.287-1.4 1.287H61.7v-2.574zM82.336 70.38v-2.655h6.101c.903 0 1.294-.49 1.294-1.026 0-.514-.39-1.033-1.294-1.033H85.68c-2.397 0-3.732-1.464-3.732-3.662 0-1.96 1.223-3.85 4.784-3.85h5.938l-1.284 2.75H86.25c-.982 0-1.284.516-1.284 1.01 0 .506.374 1.065 1.124 1.065h2.888c2.672 0 3.831 1.52 3.831 3.51 0 2.138-1.292 3.89-3.977 3.89h-6.497zM93.526 70.38v-2.655h6.101c.903 0 1.294-.49 1.294-1.026 0-.514-.39-1.033-1.294-1.033H96.87c-2.397 0-3.732-1.464-3.732-3.662 0-1.96 1.223-3.85 4.784-3.85h5.938l-1.284 2.75h-5.135c-.982 0-1.284.516-1.284 1.01 0 .506.374 1.065 1.124 1.065h2.888c2.672 0 3.831 1.52 3.831 3.51 0 2.138-1.292 3.89-3.977 3.89h-6.497z" fill="#1B212D"/></svg>