<svg width="80" height="80" xmlns="http://www.w3.org/2000/svg"><g fill="none" fill-rule="evenodd"><circle fill="#2C326B" cx="40" cy="40" r="40"/><path d="M28.38 43.222v1.61h-6.96v-1.61h2.5v-6.444h-2.5v-1.61h6.96v1.61h-2.5v6.444h2.5zm-11.82-8.055h-1.92l-1.38 7.652h-.02l-1.6-7.096c-.1-.48-.26-.594-.74-.594H9.84c-.46 0-.64.115-.74.594L7.5 42.82h-.04L6.1 35.167H4.04l1.98 9.186c.08.403.24.5.7.5h1.36c.46 0 .62-.097.7-.519l1.5-6.655h.04l1.5 6.655c.1.422.24.518.7.518h1.34c.48 0 .62-.096.7-.499l2-9.186zM17.6 47H3V33h14.6v14zm24.08-4.641c.007.827.067 1.654.18 2.474h2c-.06-.518-.12-1.38-.16-2.608-.04-1.228-.52-1.65-1.56-1.841v-.039c1.16-.172 1.66-.71 1.66-2.416 0-1.42-.24-1.937-.64-2.32-.4-.384-.82-.423-1.6-.423h-6.14v9.647h2.08v-3.759h2.88c.6 0 .84.038 1 .192.16.153.28.326.3 1.093zM37.5 39.5v-2.685h3.3c.46 0 .6.039.68.116.08.076.28.345.28 1.189 0 .843-.14 1.112-.3 1.246-.16.134-.22.134-.68.134H37.5zM46.8 47H32.2V33h14.6v14zm17.82-11.833v9.666h4.96c1.42 0 2.2-.192 2.82-.71.62-.518 1.06-1.726 1.06-4.104s-.34-3.51-1.06-4.104c-.72-.594-1.38-.71-2.82-.71h-4.96v-.038zM71.4 40c0 2.071-.18 2.608-.56 2.896-.38.288-.66.288-1.4.288H66.7v-6.368h2.74c.76 0 1.08.039 1.4.288.32.25.56.825.56 2.915V40zm4.6 7H61.4V33H76v14zM49.48 36.778v-1.61h8.58v3.106h-1.8v-1.496h-3.48v2.301h2.76v1.554h-2.76v2.589h3.56v-1.688h1.82v3.299h-8.68v-1.611h1.36v-6.444h-1.36z" fill="#FFF" fill-rule="nonzero"/></g></svg>