<svg width="160" height="65" fill="none" xmlns="http://www.w3.org/2000/svg"><path d="M10.848 0H0v65h10.848V37.993h10.395V65H32.09V0H21.243v27.007H10.848V0zM53.333 0H42.938v54.93c0 5.492 4.745 9.612 8.587 9.612H65.99c3.615 0 8.587-4.12 8.587-9.613V.086H63.73v52.097c0 1.648-1.13 1.83-1.808 1.83h-6.78c-1.446 0-1.808-1.22-1.808-1.83V0zM117.063 9.841v6.637h-10.396V13.36c0-1.762-.678-2.375-1.808-2.375h-7.231c-1.266 0-1.808 1.145-1.808 2.375v38.822c0 1.374 1.356 1.831 2.26 1.831h6.327c1.356 0 2.26-.686 2.26-1.83v-14.19h-5.424V27.005h15.82v28.61c0 4.943-4.972 8.925-8.588 8.925H93.56c-4.52 0-8.136-4.348-8.136-9.383V9.84c0-5.035 5.65-9.384 9.04-9.384h13.559c4.068 0 9.04 3.891 9.04 9.384zM160 0v10.986h-21.243v16.02h10.848v10.987h-10.848v15.563H160V65h-32.09V0H160z" fill="#1B212D"/></svg>