<svg width="112" height="99" xmlns="http://www.w3.org/2000/svg"><g fill="#28282A" fill-rule="evenodd"><path d="M0 98.396h1.742V88.155H0zM16.656 88.086v6.183l-6.899-6.15v10.277h1.742v-6.152l6.83 6.15v-.031.015-10.292zM26.412 88.155v1.66h3.415v8.58h1.743v-8.58h3.414v-1.66zM48.234 89.816H44.81v3.433l3.439.014c.466 0 .86-.167 1.198-.501.338-.335.502-.74.502-1.213 0-.463-.17-.88-.507-1.215-.339-.333-.742-.518-1.208-.518zm1.458 8.58l-1.994-3.39H44.81v3.39h-1.742V88.155h5.166c.942 0 1.75.325 2.426.995.675.67 1.012 1.468 1.012 2.404 0 .71-.203 1.352-.61 1.935-.396.57-.904.98-1.52 1.226l2.13 3.681h-1.98zM66.553 88.155v1.66h-5.156v2.63h5.156v1.66h-5.156v2.56h5.156v1.731h-6.829v-10.24zM77.425 89.816v3.46h3.433c.467 0 .869-.173 1.205-.508.338-.336.507-.738.507-1.201 0-.473-.17-.896-.507-1.23-.336-.335-.738-.521-1.205-.521h-3.433zm0 5.19v3.39h-1.742V88.155h5.175c.943 0 1.752.325 2.426.995.675.67 1.013 1.472 1.013 2.419 0 .936-.338 1.756-1.013 2.434-.674.661-1.483 1.003-2.426 1.003h-3.433zM92.2 98.396h1.672V88.155h-1.673zM108.537 95.682c-.675.66-1.484.984-2.427.984h-1.715v-6.85h1.715c.943 0 1.752.35 2.427 1.02a3.306 3.306 0 011.012 2.424c0 .937-.337 1.742-1.012 2.422m1.221-6.029c-1.003-1.006-2.218-1.498-3.648-1.498h-3.457v10.24h3.457c1.43 0 2.645-.503 3.648-1.508 1.013-.996 1.52-2.204 1.52-3.624 0-1.408-.507-2.606-1.52-3.61M111.364 0h-52.45l-5.908 6.297h3.617c9.212 0 16.69 7.415 16.69 16.562v.036c0 1.112-.122 2.223-.332 3.261h14.262L111.349 0"/><path d="M59.621 31.138h-2.377l-4.114-4.032-7.455-7.356a9.205 9.205 0 018.081-4.752c5.084 0 9.206 4.069 9.206 9.117 0 2.835-1.3 5.432-3.34 7.023zm22.168 1.108H63.742c1.826-2.146 2.922-5.03 2.922-8.113 0-7.078-5.778-12.811-12.908-12.811-2.67 0-5.152.808-7.21 2.187l-1.842-1.817c.099-.232.153-.487.153-.756 0-1.078-.88-1.951-1.966-1.951a1.958 1.958 0 00-1.965 1.951c0 1.078.88 1.952 1.965 1.952.324 0 .63-.08.898-.217l1.675 1.651a12.883 12.883 0 00-3.18 3.943l-26.55.013-5.372 5.623 8.037 8.66 3.881-3.983h10.277l-3.525 3.737h6.795l-2.498 2.836h-6.826l-4.445 4.774h6.774l-2.582 2.77H19.53l-4.522 4.773h13.288L18.93 57.674H.289l8.393 8.914 16.858-.012 21.986-23.882h19.197l-8.966 9.724-3.497-3.755-6.4.086-8.311 8.913 9.352.015 2.165 2.343-13.558 14.33 2.565 2.814 13.492-14.498 7.662 8.407 6.996-7.277-7.607-8.305 21.173-23.245z"/></g></svg>