<svg width="160" height="46" fill="none" xmlns="http://www.w3.org/2000/svg"><path d="M11.638 36.26c0 2.654-1.09 6.288-4.328 6.288a2.276 2.276 0 01-1.9-.624 2.3 2.3 0 01-.686-1.887c0-3.149 4.6-3.777 6.914-3.777zm4.645 9.225V30.6c0-4.837-3.158-6.509-7.574-6.509S.792 25.94.792 30.733h4.724c0-2.07 1.09-3.21 3.193-3.21 2.402 0 2.93 1.768 2.93 3.82v2.079C6.913 33.553 0 34.209 0 40.505c0 3.555 2.806 5.483 6.158 5.483 2.278 0 4.398-.752 5.436-2.901h.08v2.405h4.644M30.684 31.75c0-2.158-.616-4.227-3.15-4.227-3.07 0-3.984 3.21-3.984 5.722 0 5.306 3.052 9.321 8.585 9.321a10.12 10.12 0 003.52-.548v3.007a20.056 20.056 0 01-6.115.964c-7.433 0-11.154-4.573-11.154-11.869 0-6.076 3.29-10.029 9.544-10.029 5.076 0 7.918 2.503 7.918 7.659h-5.164zM49.333 31.75c0-2.158-.607-4.228-3.14-4.228-3.088 0-3.968 3.21-3.968 5.722 0 5.307 3.08 9.322 8.586 9.322a10.059 10.059 0 003.52-.548v3.007c-1.983.638-4.051.963-6.132.964-7.434 0-11.155-4.582-11.155-11.878 0-6.076 3.29-10.029 9.536-10.029 5.085 0 7.917 2.503 7.917 7.659h-5.164M68.38 30.821H60.76a3.926 3.926 0 011.255-2.59 3.885 3.885 0 012.678-1.027 3.369 3.369 0 012.672.955 3.406 3.406 0 011.013 2.662zm4.635 2.954v-1.203c0-5.103-2.639-8.48-7.917-8.48-6.22 0-8.929 3.908-8.929 9.851-.044 6.907 3.062 12.046 10.451 12.046 1.97.032 3.933-.252 5.815-.84v-3.361c-1.273.47-2.612.733-3.968.778-4.732 0-7.838-4.342-7.838-8.79h12.386zM87.363 45.502V33.554c0-1.017.088-3.706-.739-4.493a1.954 1.954 0 00-1.399-.398c-3.518 0-4.908 4.97-4.908 7.792v9.047H75.46V24.57h4.856v3.918h.088a6.489 6.489 0 012.367-3.213 6.433 6.433 0 013.79-1.21c3.986 0 5.648 3.3 5.648 6.908v14.504h-4.847M102.336 27.956v9.905c0 2.468.255 4.705 3.281 4.705a9.4 9.4 0 002.234-.354v3.44c-1.317.22-2.649.336-3.985.346-4.257 0-6.377-1.415-6.377-5.758V27.956h-4.082v-3.387h4.082v-4.962l4.847-1.981v6.942h6.158v3.388h-6.158zM122.56 45.502v-3.935h-.079a6.608 6.608 0 01-2.384 3.19 6.556 6.556 0 01-3.774 1.232c-3.985 0-5.648-3.3-5.648-6.899V24.57h4.856v11.974c0 1.017-.079 3.697.739 4.484.403.306.906.445 1.408.39 3.519 0 4.9-4.962 4.9-7.783v-9.065h4.864v20.933h-4.864M135.342 36.331v9.171h-4.856V24.57h4.856v3.864h.079c1.628-2.883 3.246-4.342 6.747-4.342v5.094c-4.987 0-6.826 2.194-6.826 7.137M155.39 30.821h-7.6a3.927 3.927 0 011.258-2.593 3.886 3.886 0 012.683-1.024 3.36 3.36 0 012.664.958 3.4 3.4 0 011.004 2.66h-.009zm4.61 2.954v-1.203c0-5.103-2.639-8.48-7.917-8.48-6.211 0-8.938 3.908-8.938 9.851 0 6.907 3.114 12.055 10.504 12.055a18.535 18.535 0 005.823-.84v-3.37c-1.275.47-2.618.733-3.976.778-4.724 0-7.838-4.342-7.838-8.79h12.316M93.398 0v3.45L104.5 7.764l-11.102 4.298v3.44l15.113-6.19V6.19L93.398 0z" fill="#1B212D"/></svg>