<svg width="160" height="34" fill="none" xmlns="http://www.w3.org/2000/svg"><path d="M0 0h16.254v16.174H0V0zM17.913 0h16.254v16.174H17.914V0zM146.571 6.163c1.499-.972 3.435-1.061 5.123-.599.015 1 0 1.999.007 2.998-.802-.351-1.746-.583-2.591-.236-.669.264-1.068.948-1.171 1.632-.126.868-.044 1.749-.065 2.623h5.142c.013-1.107-.014-2.216.015-3.323 1.165-.33 2.318-.7 3.478-1.048.01 1.457-.014 2.919.013 4.379 1.158-.017 2.318 0 3.478-.008v2.84c-1.164-.047-2.328-.012-3.492-.016v4.9c.019.904-.049 1.814.058 2.715.064.531.258 1.12.759 1.395.839.467 1.903.263 2.673-.25v2.869c-1.005.434-2.127.566-3.214.486-1.031-.076-2.099-.45-2.771-1.263-.781-.922-.976-2.17-.993-3.338-.009-2.506 0-5.012 0-7.52h-5.145v11.8h-3.514V15.403c-.815-.016-1.631 0-2.446-.013 0-.933.007-1.868 0-2.802.811-.019 1.623-.01 2.44-.005.06-1.242-.131-2.519.242-3.728a4.776 4.776 0 011.983-2.693h-.009zM71.308 6.367c.709-.107 1.476.134 1.946.685a1.99 1.99 0 01.244 2.274c-.451.796-1.464 1.165-2.343.971-.913-.163-1.673-1.007-1.632-1.949-.026-.99.806-1.874 1.782-1.984l.003.003zM44.368 6.8h5.112a7771.32 7771.32 0 004.784 12.058c.407 1.006.788 2.023 1.214 3.02 2.05-5.024 4.124-10.035 6.15-15.066 1.64-.027 3.28-.006 4.92-.01-.005 6.8-.005 13.6 0 20.4-1.184 0-2.366.01-3.548-.007.013-5.017 0-10.035.006-15.057 0-.225-.006-.45-.022-.68-.069.104-.13.213-.184.326-2.032 5.136-4.1 10.258-6.122 15.399-.841.03-1.684 0-2.526.015-2.096-5.136-4.166-10.284-6.248-15.423a3.904 3.904 0 00-.177-.311c-.043 2.198-.007 4.399-.018 6.597v9.131h-3.347v-20.4l.006.008zM80.983 12.566a9.668 9.668 0 015.221.015c.351.095.688.235 1.003.416-.02 1.114 0 2.234-.011 3.345-1.133-.862-2.571-1.408-4.012-1.227a4.143 4.143 0 00-2.92 1.613c-.879 1.14-1.083 2.655-.931 4.05.113 1.092.567 2.183 1.42 2.907.886.784 2.13 1.061 3.289.971 1.146-.131 2.228-.614 3.154-1.288.01 1.056-.005 2.112.008 3.168-1.437.85-3.16 1.068-4.805.99-1.683-.089-3.361-.723-4.58-1.9-1.323-1.27-2.042-3.081-2.127-4.895-.085-1.885.3-3.852 1.39-5.427.914-1.344 2.344-2.295 3.905-2.741l-.004.003zM119.381 12.343c1.626-.285 3.327-.076 4.866.504v3.216a6.217 6.217 0 00-3.686-1.085c-.657.025-1.38.302-1.679.923-.239.615-.074 1.422.509 1.79.997.663 2.186.945 3.222 1.54.813.454 1.602 1.049 2.014 1.905.774 1.605.446 3.726-.915 4.923-1.3 1.208-3.171 1.542-4.892 1.478-1.222-.078-2.45-.319-3.574-.816 0-1.128-.007-2.255.006-3.381a7.706 7.706 0 003.189 1.37c.804.13 1.677.135 2.426-.222.717-.355.846-1.368.42-1.988-.398-.478-.983-.74-1.535-1-1.035-.463-2.124-.85-3.034-1.545a3.619 3.619 0 01-1.32-1.983c-.282-1.166-.196-2.474.488-3.49.781-1.184 2.124-1.894 3.497-2.137l-.002-.002zM95.067 12.803c.97-.582 2.203-.628 3.263-.273v3.497a3.751 3.751 0 00-2.376-.556c-.998.113-1.789.874-2.199 1.749-.445.925-.529 1.973-.5 2.985v6.994h-3.466V12.586c1.157-.015 2.313-.009 3.47 0v2.51c.376-.91.935-1.794 1.817-2.29l-.009-.002zM69.845 12.584c1.166 0 2.332-.017 3.498.006-.014 4.87 0 9.74-.006 14.61h-3.49V12.584h-.002zM112.901 15.993a6.198 6.198 0 00-3.07-3.088c-1.562-.71-3.345-.805-5.032-.591-1.772.222-3.497 1.052-4.621 2.458-1.027 1.255-1.527 2.867-1.623 4.468-.141 1.886.175 3.886 1.288 5.46.948 1.36 2.44 2.292 4.061 2.636 1.357.281 2.758.281 4.115 0 1.581-.323 3.057-1.194 4.036-2.478.957-1.21 1.437-2.735 1.545-4.257.111-1.556-.048-3.17-.699-4.608zm-3.395 6.71a3.203 3.203 0 01-1.727 1.689 4.761 4.761 0 01-2.865.125 3.517 3.517 0 01-2.203-1.809c-.566-1.125-.651-2.428-.534-3.66.106-1.121.499-2.275 1.358-3.05.623-.582 1.472-.861 2.312-.908 1.057-.069 2.181.229 2.941.993.812.795 1.126 1.948 1.213 3.047.063 1.204.017 2.458-.495 3.573zM141.054 16.417a6.251 6.251 0 00-3.019-3.4c-1.601-.804-3.464-.922-5.218-.705-1.415.18-2.805.715-3.884 1.658-1.318 1.13-2.091 2.79-2.319 4.49-.227 1.699-.143 3.488.553 5.078a6.5 6.5 0 003.571 3.448c1.561.613 3.304.68 4.951.417 1.684-.277 3.279-1.158 4.321-2.514 1.114-1.401 1.594-3.214 1.591-4.98.024-1.185-.124-2.384-.547-3.492zm-3.171 4.954c-.134.77-.402 1.537-.909 2.146-.506.61-1.269.985-2.05 1.1-.841.125-1.727.065-2.514-.272-.85-.358-1.507-1.09-1.855-1.93-.417-1.003-.5-2.113-.417-3.186.08-1.038.376-2.104 1.065-2.914.629-.754 1.593-1.166 2.566-1.225.992-.069 2.05.16 2.816.827.704.583 1.093 1.451 1.269 2.331a8.833 8.833 0 01.029 3.123zM0 17.825h16.254v16.173H0V17.825zM17.914 17.827h16.253V34H17.913V17.827h.001z" fill="#1B212D"/></svg>