<svg width="128" height="86" fill="none" xmlns="http://www.w3.org/2000/svg"><path d="M127.37 69.879h-5.601c-.176-.938-.443-1.596-.814-1.966-.597-.603-1.617-.912-3.025-.912s-2.352.232-2.881.697a1.816 1.816 0 00-.619 1.454c0 .857 1.177 1.537 3.507 2.064a54.08 54.08 0 015.745 1.497c.31.116.58.214.774.308 2.37 1.13 3.544 2.842 3.544 5.138 0 2.798-1.156 4.843-3.45 6.126-.288.156-.558.29-.868.429a12.992 12.992 0 01-5.165.97c-2.91 0-5.262-.527-7.055-1.555a6.686 6.686 0 01-2.521-2.496 7.07 7.07 0 01-.843-3.514h5.86a2.816 2.816 0 001.08 2.355c.72.563 1.927.857 3.641.857 1.293 0 2.258-.276 2.881-.818a1.81 1.81 0 00.721-1.453c0-.912-1.156-1.631-3.45-2.136-3.433-.727-5.59-1.345-6.483-1.773-2.348-1.09-3.508-2.816-3.508-5.193a6.805 6.805 0 011.833-4.84c1.542-1.656 3.854-2.474 6.922-2.474 2.521 0 4.549.364 6.069 1.09.126.054.246.12.36.197a6.138 6.138 0 012.481 2.394 7.178 7.178 0 01.865 3.553zM124.369 56.108a.466.466 0 00-.075-.29.416.416 0 00-.252-.193 2.666 2.666 0 00-.36-.062h-.886v1.09h.886c.186.009.37-.046.522-.156a.489.489 0 00.165-.39zm.465-.585a.875.875 0 01.173.527.95.95 0 01-.292.697 1.106 1.106 0 01-.749.335.89.89 0 01.306.192l.54.727.425.727h-.695l-.327-.582a3.202 3.202 0 00-.541-.777.217.217 0 00-.075-.058l-.461-.139h-.36v1.556h-.58v-3.67h1.253c.079 0 .155.018.213.018.235-.008.47.026.695.098.2.053.374.176.489.349h-.014z" fill="#1B212D"/><path d="M126.473 56.85a2.855 2.855 0 00-.36-1.422 2.718 2.718 0 00-1.041-1.05 2.97 2.97 0 00-1.372-.363h-.018a2.948 2.948 0 00-1.365.363c-.439.245-.8.609-1.045 1.05a2.77 2.77 0 000 2.82c.239.433.594.789 1.023 1.028.423.242.901.368 1.387.364h.018c.487.005.967-.12 1.39-.364.43-.238.785-.595 1.023-1.028.238-.427.362-.909.36-1.399zm.558 0a3.332 3.332 0 01-.446 1.67 2.895 2.895 0 01-1.232 1.243 3.22 3.22 0 01-1.661.45h-.018a3.218 3.218 0 01-1.656-.45 2.951 2.951 0 01-1.236-1.242 3.374 3.374 0 01-.443-1.672 3.43 3.43 0 01.443-1.715 3.169 3.169 0 011.254-1.242 3.605 3.605 0 011.638-.447h.018a3.402 3.402 0 011.639.447c.533.276.97.71 1.254 1.242.298.521.452 1.114.446 1.715zM94.24 29.366l15.828 26.607h-25.43l-15.112-25.42-11.45-19.235 11.45-6.943L76.736 0 94.24 29.366zM105.728 74.445v10.9h-5.262V84.15a11.179 11.179 0 01-6.17 1.85h-.06a11.405 11.405 0 01-7.967-3.455 11.608 11.608 0 01-3.283-8.098c0-3.029 1.179-5.936 3.283-8.097a11.405 11.405 0 017.966-3.455h.058c2.19 0 4.334.64 6.17 1.846V63.48h5.261l.004 10.965zm-5.262 1.21v-2.412a6.375 6.375 0 00-2.174-3.681 6.276 6.276 0 00-3.995-1.457h-.061c-1.672 0-3.275.67-4.457 1.862a6.387 6.387 0 00-1.846 4.497c0 1.686.664 3.303 1.846 4.496a6.274 6.274 0 004.457 1.862h.057a6.295 6.295 0 004.002-1.47 6.396 6.396 0 002.171-3.697zM81.015 74.446v10.9h-5.262V84.15a11.216 11.216 0 01-6.17 1.85h-.057a11.405 11.405 0 01-7.967-3.455 11.608 11.608 0 01-3.283-8.098c0-3.029 1.179-5.936 3.283-8.097a11.405 11.405 0 017.967-3.455h.057a11.27 11.27 0 016.17 1.846v-8.768h5.262v18.473zm-5.262 1.21v-2.413a6.377 6.377 0 00-2.175-3.681 6.277 6.277 0 00-3.995-1.457h-.057c-1.672 0-3.275.67-4.457 1.863a6.387 6.387 0 00-1.846 4.496c0 1.686.664 3.303 1.846 4.496a6.275 6.275 0 004.457 1.862h.057a6.294 6.294 0 004-1.472 6.395 6.395 0 002.17-3.694zM69.526 45.509l6.205 10.464H50.323L36.215 32.287l-.616-1.032.616-.37 18.062-10.97 15.249 25.594zM56.07 62.895h-5.726v22.462h5.727V62.895zM56.07 56.09h-5.726v5.075h5.727V56.09zM47.722 74.446v10.9H42.46V84.15A11.283 11.283 0 0136.273 86h-.058a11.405 11.405 0 01-7.967-3.455 11.608 11.608 0 01-3.282-8.098c0-3.029 1.178-5.936 3.282-8.097a11.405 11.405 0 017.967-3.455h.058c2.195.002 4.344.643 6.187 1.846v-8.768h5.262v18.473zm-5.262 1.21v-2.413a6.38 6.38 0 00-2.182-3.686 6.28 6.28 0 00-4.005-1.452h-.058c-1.671 0-3.274.67-4.456 1.863a6.387 6.387 0 00-1.846 4.496c0 1.686.664 3.303 1.846 4.496a6.275 6.275 0 004.456 1.862h.058a6.294 6.294 0 004.01-1.466 6.395 6.395 0 002.177-3.7zM36.215 47.22l5.205 8.753H15.993l-2.852-4.803 18.677-11.322 4.397 7.372zM22.756 74.445v10.9h-5.261V84.15A11.283 11.283 0 0111.307 86h-.057a11.404 11.404 0 01-7.967-3.455A11.608 11.608 0 010 74.447c0-3.029 1.179-5.936 3.283-8.097a11.404 11.404 0 017.967-3.455h.057a11.34 11.34 0 016.188 1.846V63.48h5.261v10.965zm-5.261 1.21v-2.412a6.38 6.38 0 00-2.182-3.686 6.28 6.28 0 00-4.006-1.452h-.057c-1.672 0-3.275.67-4.457 1.862a6.387 6.387 0 00-1.846 4.497c0 1.686.664 3.303 1.846 4.496a6.275 6.275 0 004.457 1.862h.057a6.294 6.294 0 004.01-1.466 6.394 6.394 0 002.178-3.7z" fill="#1B212D"/></svg>