<svg fill="none" height="80" viewBox="0 0 80 80" width="80" xmlns="http://www.w3.org/2000/svg"><path clip-rule="evenodd" d="m40 80c22.0914 0 40-17.9086 40-40s-17.9086-40-40-40-40 17.9086-40 40 17.9086 40 40 40z" fill="#8a86ff" fill-rule="evenodd" opacity=".2"/><path d="m22 55.0001h-1c0 .5523.4477 1 1 1zm28.7235 0v1c.5522 0 1-.4477 1-1zm-14.3636-15.6389c4.519 0 8.1813-3.6597 8.1813-8.1806h-2c0 3.4158-2.7664 6.1806-6.1813 6.1806zm8.1813-8.1806c0-4.519-3.6621-8.1806-8.1813-8.1806v2c3.4148 0 6.1813 2.7664 6.1813 6.1806zm-8.1813-8.1806c-4.5192 0-8.1813 3.6616-8.1813 8.1806h2c0-3.4142 2.7665-6.1806 6.1813-6.1806zm-8.1813 8.1806c0 4.5209 3.6623 8.1806 8.1813 8.1806v-2c-3.415 0-6.1813-2.7648-6.1813-6.1806zm8.1822 12.0495c-2.5212 0-6.2378.6251-9.3494 1.8717-1.5566.6237-3.0247 1.4275-4.1196 2.438-1.1018 1.0167-1.8918 2.31-1.8918 3.8709h2c0-.8262.406-1.624 1.2482-2.4012.8489-.7834 2.0725-1.4764 3.507-2.0511 2.8708-1.1502 6.3346-1.7283 8.6056-1.7283zm-15.3608 8.1806v3.5894h2v-3.5894zm30.7235 3.5894v-3.5894h-2v3.5894zm0-3.5894c0-1.5609-.7901-2.8542-1.8919-3.8709-1.0949-1.0105-2.5631-1.8143-4.1198-2.438-3.1118-1.2466-6.8289-1.8717-9.351-1.8717v2c2.272 0 5.7363.5782 8.6072 1.7283 1.4347.5747 2.6584 1.2677 3.5073 2.0511.8421.7772 1.2482 1.575 1.2482 2.4012zm-29.7235 4.5894h14.3617v-2h-14.3617zm14.3617 0h14.3618v-2h-14.3618z" fill="#3bf2dc"/><g stroke="#3bf2dc" stroke-linecap="round" stroke-linejoin="round" stroke-width="2"><path d="m50.5714 38.816h11.4286"/><path d="m56.2857 44.5144v-11.3969"/></g></svg>