<svg width="168" height="32" xmlns="http://www.w3.org/2000/svg"><g fill="none" fill-rule="evenodd"><path d="M1.134 3.114l7.894 11.772a2 2 0 010 2.228L1.134 28.886A2 2 0 002.795 32h114.23a2 2 0 001.648-.868l9.612-14a2 2 0 000-2.264l-9.612-14A2 2 0 00117.024 0H2.795a2 2 0 00-1.66 3.114z" fill="#38C0B8"/><path d="M130.036 3.114l7.894 11.772a2 2 0 010 2.228l-7.894 11.772a2 2 0 001.66 3.114h24.23a2 2 0 001.649-.868l9.612-14a2 2 0 000-2.264l-9.612-14a2 2 0 00-1.65-.868h-24.228a2 2 0 00-1.661 3.114z" fill="#38C0B8" opacity=".4"/><path d="M27.528 22h-5.392V11.328h5.248c1.968 0 3.04 1.216 3.04 2.72 0 1.328-.864 2.24-1.856 2.448 1.152.176 2.064 1.312 2.064 2.608 0 1.664-1.088 2.896-3.104 2.896zm-.512-6.272c.944 0 1.488-.56 1.488-1.376 0-.784-.544-1.376-1.488-1.376h-3.008v2.752h3.008zm.08 4.624c1.008 0 1.616-.56 1.616-1.488 0-.8-.56-1.488-1.616-1.488h-3.088v2.976h3.088zM41.232 22H33.92V11.328h7.312v1.648h-5.44v2.752h5.328v1.648h-5.328v2.976h5.44V22zm8.456.208c-3.104 0-5.6-2.192-5.6-5.536 0-3.36 2.496-5.52 5.6-5.52 2.08 0 3.44.992 4.288 2.208l-1.52.88a3.444 3.444 0 00-2.768-1.424c-2.112 0-3.68 1.6-3.68 3.856 0 2.224 1.568 3.856 3.68 3.856 1.088 0 2.048-.496 2.528-.96V17.92h-3.2v-1.648h5.056v3.984c-1.04 1.168-2.544 1.952-4.384 1.952zM59.296 22h-1.872V11.328h1.872V22zm12.92 0h-1.808l-5.568-7.632V22h-1.872V11.328h1.92l5.456 7.392v-7.392h1.872V22zm12.92 0h-1.808l-5.568-7.632V22h-1.872V11.328h1.92l5.456 7.392v-7.392h1.872V22zm10.984 0h-7.312V11.328h7.312v1.648h-5.44v2.752h5.328v1.648H90.68v2.976h5.44V22zm11.592 0h-2.176l-2.352-3.984h-1.872V22H99.44V11.328h4.688c2.112 0 3.504 1.36 3.504 3.344 0 1.888-1.248 2.928-2.544 3.136L107.712 22zm-3.824-5.632c1.056 0 1.824-.672 1.824-1.712 0-1.024-.768-1.68-1.824-1.68h-2.576v3.392h2.576z" fill="#FFF"/></g></svg>