<svg width="212" height="28" xmlns="http://www.w3.org/2000/svg"><g fill="none" fill-rule="evenodd"><path d="M25.511 3.217l7.332 9.566a2 2 0 010 2.434l-7.332 9.566A2 2 0 0027.1 28h148.005a2 2 0 001.574-.765l9.416-12a2 2 0 000-2.47l-9.416-12A2 2 0 00175.104 0H27.1a2 2 0 00-1.588 3.217z" fill="#4C5EFF"/><path d="M.413 3.217l7.332 9.566a2 2 0 010 2.434L.413 24.783A2 2 0 002 28h8.006a2 2 0 001.573-.765l9.416-12a2 2 0 000-2.47l-9.416-12A2 2 0 0010.006 0H2A2 2 0 00.413 3.217zM190.413 3.217l7.332 9.566a2 2 0 010 2.434l-7.332 9.566A2 2 0 00192 28h8.006a2 2 0 001.573-.765l9.416-12a2 2 0 000-2.47l-9.416-12A2 2 0 00200.006 0H192a2 2 0 00-1.587 3.217z" fill="#4C5EFF" opacity=".3"/><path d="M44.008 20h-1.872V9.328h1.872V20zm12.92 0H55.12l-5.568-7.632V20H47.68V9.328h1.92l5.456 7.392V9.328h1.872V20zm8.088 0h-1.872v-9.024h-3.232V9.328h8.336v1.648h-3.232V20zm13.528 0h-7.312V9.328h7.312v1.648h-5.44v2.752h5.328v1.648h-5.328v2.976h5.44V20zm11.592 0H87.96l-2.352-3.984h-1.872V20h-1.872V9.328h4.688c2.112 0 3.504 1.36 3.504 3.344 0 1.888-1.248 2.928-2.544 3.136L90.136 20zm-3.824-5.632c1.056 0 1.824-.672 1.824-1.712 0-1.024-.768-1.68-1.824-1.68h-2.576v3.392h2.576zM104.416 20h-1.872v-8.24L99.28 20h-.8l-3.28-8.24V20h-1.872V9.328h2.64l2.912 7.328 2.896-7.328h2.64V20zm10.984 0h-7.312V9.328h7.312v1.648h-5.44v2.752h5.328v1.648h-5.328v2.976h5.44V20zm7.304 0h-3.984V9.328h3.968c3.344 0 5.584 2.208 5.584 5.328 0 3.152-2.24 5.344-5.568 5.344zm-.016-1.648c2.32 0 3.664-1.664 3.664-3.696 0-2.048-1.28-3.68-3.648-3.68h-2.112v7.376h2.096zM133.352 20h-1.872V9.328h1.872V20zm13.288 0h-2.128l-.784-2.064h-4.896L138.048 20h-2.128l4.192-10.672h2.336L146.64 20zm-3.44-3.712l-1.92-5.088-1.92 5.088h3.84zM152.568 20h-1.872v-9.024h-3.232V9.328h8.336v1.648h-3.232V20zm13.528 0h-7.312V9.328h7.312v1.648h-5.44v2.752h5.328v1.648h-5.328v2.976h5.44V20z" fill="#FFF"/></g></svg>