<svg width="104" height="58" viewBox="0 0 104 58" fill="none" xmlns="http://www.w3.org/2000/svg">
<mask id="mask0" mask-type="alpha" maskUnits="userSpaceOnUse" x="0" y="8" width="104" height="45">
<path fill-rule="evenodd" clip-rule="evenodd" d="M41.9057 17.6628C40.8692 17.8014 40.1717 15.8567 39.4907 13.9118C38.7242 11.7212 37.9781 9.5309 36.7921 10.3169C33.0589 12.7876 29.2763 14.2436 26.3019 14.6039C29.7849 11.2329 30.327 9.71893 30.7997 8.47217C28.7749 10.5894 26.4787 12.1501 26.4787 12.1501C21.3686 15.6924 15.5599 18.6555 12.073 19.384C4.5463 28.4778 0 40.1665 0 52.938H104C104 37.4 97.2924 23.4461 86.6449 13.8439C86.46 13.6769 86.2665 13.5199 86.0793 13.3558C83.0564 14.7659 74.9141 16.7264 63.889 16.7264C57.7552 16.7264 53.6194 14.8766 50.9807 12.2343L47.4063 8.30545C47.3312 8.26837 47.2553 8.25049 47.1797 8.25049C45.4546 8.25023 43.5893 17.4377 41.9057 17.6628Z" fill="white"/>
</mask>
<g mask="url(#mask0)">
<path fill-rule="evenodd" clip-rule="evenodd" d="M41.9057 17.6628C40.8692 17.8014 40.1717 15.8567 39.4907 13.9118C38.7242 11.7212 37.9781 9.5309 36.7921 10.3169C33.0589 12.7876 29.2763 14.2436 26.3019 14.6039C29.7849 11.2329 30.327 9.71893 30.7997 8.47217C28.7749 10.5894 26.4787 12.1501 26.4787 12.1501C21.3686 15.6924 15.5599 18.6555 12.073 19.384C4.5463 28.4778 0 40.1665 0 52.938H104C104 37.4 97.2924 23.4461 86.6449 13.8439C86.46 13.6769 86.2665 13.5199 86.0793 13.3558C83.0564 14.7659 74.9141 16.7264 63.889 16.7264C57.7552 16.7264 53.6194 14.8766 50.9807 12.2343L47.4063 8.30545C47.3312 8.26837 47.2553 8.25049 47.1797 8.25049C45.4546 8.25023 43.5893 17.4377 41.9057 17.6628Z" fill="url(#paint0_linear)"/>
</g>
<path fill-rule="evenodd" clip-rule="evenodd" d="M30.8026 8.47255C30.3299 9.71956 29.7879 11.2332 26.3049 14.6043C29.2795 14.244 33.0621 12.7879 36.7954 10.3173C39.0346 8.83335 39.7048 17.958 41.9089 17.6632C43.6663 17.4283 45.6222 7.42539 47.4095 8.30556L50.9839 12.2346C53.6226 14.877 57.7584 16.7267 63.8922 16.7267C74.9171 16.7267 83.0593 14.7663 86.0825 13.356C76.9544 5.35658 65.0459 0.5 52.0031 0.5C37.1402 0.5 23.7437 6.79872 14.2671 16.8811C13.5082 17.689 12.7836 18.5294 12.0762 19.3843C15.5628 18.6559 21.3718 15.6927 26.4819 12.1505C26.4819 12.1505 28.7781 10.5895 30.8026 8.47255Z" fill="#221F1F"/>
<path fill-rule="evenodd" clip-rule="evenodd" d="M77.1431 26.5133C84.3481 26.5133 90.2135 32.3484 90.2875 39.5465H98.4169V37.3585H94.7663C93.6232 28.631 86.1651 21.8652 77.1431 21.8652C70.2601 21.8652 64.2894 25.8075 61.3317 31.5484H52.2094H42.6709C39.7131 25.8075 33.7424 21.8652 26.8597 21.8652C17.8375 21.8652 10.3796 28.631 9.23621 37.3585H5.58594V39.5465H13.7153C13.7893 32.3484 19.6545 26.5133 26.8597 26.5133C34.0646 26.5133 39.9298 32.3484 40.0038 39.5465H44.6454C44.6363 38.4015 44.5212 37.2812 44.3054 36.1965H52.2094H59.6969C59.4816 37.2812 59.3663 38.4015 59.3571 39.5465H63.9987C64.0728 32.3484 69.9379 26.5133 77.1431 26.5133Z" fill="#E6BF1F"/>
<path fill-rule="evenodd" clip-rule="evenodd" d="M79.5974 40.4161C79.5974 42.644 77.794 44.4498 75.5692 44.4498C73.3444 44.4498 71.541 42.644 71.541 40.4161C71.541 38.1882 73.3444 36.3823 75.5692 36.3823C77.794 36.3823 79.5974 38.1882 79.5974 40.4161Z" fill="#221F1F"/>
<path fill-rule="evenodd" clip-rule="evenodd" d="M32.1735 40.4161C32.1735 42.644 30.3702 44.4498 28.1454 44.4498C25.9205 44.4498 24.1172 42.644 24.1172 40.4161C24.1172 38.1882 25.9205 36.3823 28.1454 36.3823C30.3702 36.3823 32.1735 38.1882 32.1735 40.4161Z" fill="#221F1F"/>
<path fill-rule="evenodd" clip-rule="evenodd" d="M90.2849 39.5469C90.2852 39.5926 90.2915 39.6371 90.2915 39.6831C90.2915 46.944 84.3914 52.8522 77.1405 52.8522C69.8896 52.8522 63.9895 46.944 63.9895 39.6831C63.9895 39.6371 63.9958 39.5926 63.9964 39.5469H59.3547C59.3545 39.5926 59.3477 39.6371 59.3477 39.6831C59.3477 49.507 67.3302 57.5003 77.1405 57.5003C86.1627 57.5003 93.6206 50.7345 94.764 42.007H98.4143V39.5469H90.2849Z" fill="#D8B030"/>
<path fill-rule="evenodd" clip-rule="evenodd" d="M40.0107 39.6831C40.0107 46.944 34.1106 52.8522 26.8597 52.8522C19.6088 52.8522 13.7085 46.944 13.7085 39.6831C13.7085 39.6371 13.715 39.5926 13.7153 39.5469H5.58594V42.0072H9.23621C10.3796 50.7345 17.8375 57.5003 26.8597 57.5003C36.67 57.5003 44.652 49.507 44.652 39.6831C44.652 39.6371 44.6457 39.5926 44.6455 39.5469H40.0038C40.0044 39.5926 40.0107 39.6371 40.0107 39.6831Z" fill="#D8B030"/>
<defs>
<linearGradient id="paint0_linear" x1="95.3994" y1="55.7884" x2="95.3994" y2="18.4921" gradientUnits="userSpaceOnUse">
<stop stop-color="#DF7E67"/>
<stop offset="1" stop-color="#F77E67"/>
</linearGradient>
</defs>
</svg>
