<svg width="964" height="775" viewBox="0 0 964 775" fill="none" xmlns="http://www.w3.org/2000/svg">
<g opacity="0.05">
<path fill-rule="evenodd" clip-rule="evenodd" d="M56.878 813.999L242.527 721.657L149.703 535.217L56.878 813.999Z" stroke="#8A86FF" stroke-width="3.6861" stroke-linecap="round" stroke-linejoin="round"/>
<path fill-rule="evenodd" clip-rule="evenodd" d="M2.0004 606.385L99.5029 685.983L56.8774 814L2.0004 606.385Z" stroke="#8A86FF" stroke-width="3.6861" stroke-linecap="round" stroke-linejoin="round"/>
<path fill-rule="evenodd" clip-rule="evenodd" d="M290.874 582.847L378.445 622.253L241.57 722.117L290.874 582.847Z" stroke="#8A86FF" stroke-width="3.6861" stroke-linecap="round" stroke-linejoin="round"/>
<path fill-rule="evenodd" clip-rule="evenodd" d="M150.591 535.03L289.538 580.318L245.752 462.686L150.591 535.03Z" stroke="#8A86FF" stroke-width="3.6861" stroke-linecap="round" stroke-linejoin="round"/>
<path fill-rule="evenodd" clip-rule="evenodd" d="M125.481 418.416L246.268 462.183L152.921 531.964L125.481 418.416Z" stroke="#8A86FF" stroke-width="3.6861" stroke-linecap="round" stroke-linejoin="round"/>
<path fill-rule="evenodd" clip-rule="evenodd" d="M288.648 577.09L412.998 514.747L244.862 459.463L288.648 577.09Z" stroke="#8A86FF" stroke-width="3.6861" stroke-linecap="round" stroke-linejoin="round"/>
<path fill-rule="evenodd" clip-rule="evenodd" d="M354.618 403.001L244.864 459.463L413 514.747L354.618 403.001Z" stroke="#8A86FF" stroke-width="3.6861" stroke-linecap="round" stroke-linejoin="round"/>
<path fill-rule="evenodd" clip-rule="evenodd" d="M125.182 417.116L354.618 403L243.949 460.242L125.182 417.116Z" stroke="#8A86FF" stroke-width="3.6861" stroke-linecap="round" stroke-linejoin="round"/>
<path fill-rule="evenodd" clip-rule="evenodd" d="M149.702 531.804L2 602.971L125.182 417.115L149.702 531.804Z" stroke="#8A86FF" stroke-width="3.6861" stroke-linecap="round" stroke-linejoin="round"/>
<path fill-rule="evenodd" clip-rule="evenodd" d="M378.154 621.922L284.674 579.317L412.997 514.747L378.154 621.922Z" stroke="#8A86FF" stroke-width="3.6861" stroke-linecap="round" stroke-linejoin="round"/>
</g>
<g opacity="0.05">
<path fill-rule="evenodd" clip-rule="evenodd" d="M581.043 123.905L687.738 244.733L809.062 137.516L581.043 123.905Z" stroke="#8A86FF" stroke-width="2.8656" stroke-linecap="round" stroke-linejoin="round"/>
<path fill-rule="evenodd" clip-rule="evenodd" d="M725.902 40.9229L685.748 130.155L581.042 123.905L725.902 40.9229Z" stroke="#8A86FF" stroke-width="2.8656" stroke-linecap="round" stroke-linejoin="round"/>
<path fill-rule="evenodd" clip-rule="evenodd" d="M801.701 253.107L789.73 326.795L687.2 244.107L801.701 253.107Z" stroke="#8A86FF" stroke-width="2.8656" stroke-linecap="round" stroke-linejoin="round"/>
<path fill-rule="evenodd" clip-rule="evenodd" d="M809.382 138.145L803.331 251.596L882.853 195.048L809.382 138.145Z" stroke="#8A86FF" stroke-width="2.8656" stroke-linecap="round" stroke-linejoin="round"/>
<path fill-rule="evenodd" clip-rule="evenodd" d="M891.896 95.8261L883.335 195.333L812.153 139.278L891.896 95.8261Z" stroke="#8A86FF" stroke-width="2.8656" stroke-linecap="round" stroke-linejoin="round"/>
<path fill-rule="evenodd" clip-rule="evenodd" d="M805.576 250.277L877.41 331.111L885.094 193.73L805.576 250.277Z" stroke="#8A86FF" stroke-width="2.8656" stroke-linecap="round" stroke-linejoin="round"/>
<path fill-rule="evenodd" clip-rule="evenodd" d="M949.576 264.787L885.095 193.732L877.411 331.112L949.576 264.787Z" stroke="#8A86FF" stroke-width="2.8656" stroke-linecap="round" stroke-linejoin="round"/>
<path fill-rule="evenodd" clip-rule="evenodd" d="M892.812 95.3405L949.577 264.787L884.325 193.202L892.812 95.3405Z" stroke="#8A86FF" stroke-width="2.8656" stroke-linecap="round" stroke-linejoin="round"/>
<path fill-rule="evenodd" clip-rule="evenodd" d="M811.625 136.828L728.466 40.2356L892.814 95.3397L811.625 136.828Z" stroke="#8A86FF" stroke-width="2.8656" stroke-linecap="round" stroke-linejoin="round"/>
<path fill-rule="evenodd" clip-rule="evenodd" d="M789.92 326.51L803.104 247.741L877.411 331.109L789.92 326.51Z" stroke="#8A86FF" stroke-width="2.8656" stroke-linecap="round" stroke-linejoin="round"/>
</g>
</svg>
