<svg width="1577" height="346" viewBox="0 0 1577 346" fill="none" xmlns="http://www.w3.org/2000/svg">
<rect x="1189.6" y="59.0546" width="35.4979" height="140.531" rx="1.59005" transform="rotate(-60.25 1189.6 59.0546)" stroke="#3A3862" stroke-width="2.20619"/>
<path d="M1220.34 37.6875L1209.65 56.3929" stroke="#3A3862" stroke-width="2.20619" stroke-linecap="square"/>
<path d="M1230.36 41.8638L1225.02 51.2166" stroke="#3A3862" stroke-width="2.20619" stroke-linecap="square"/>
<path d="M1249.07 52.5551L1243.72 61.9079" stroke="#3A3862" stroke-width="2.20619" stroke-linecap="square"/>
<path d="M1267.77 63.2461L1262.43 72.5988" stroke="#3A3862" stroke-width="2.20619" stroke-linecap="square"/>
<path d="M1287.65 74.6054L1282.3 83.9582" stroke="#3A3862" stroke-width="2.20619" stroke-linecap="square"/>
<path d="M1306.35 85.2962L1301.01 94.649" stroke="#3A3862" stroke-width="2.20619" stroke-linecap="square"/>
<path d="M1239.05 48.3786L1228.36 67.0841" stroke="#3A3862" stroke-width="2.20619" stroke-linecap="square"/>
<path d="M1257.75 59.0695L1247.06 77.775" stroke="#3A3862" stroke-width="2.20619" stroke-linecap="square"/>
<path d="M1276.46 69.7609L1265.77 88.4664" stroke="#3A3862" stroke-width="2.20619" stroke-linecap="square"/>
<path d="M1295.16 80.4516L1284.47 99.1571" stroke="#3A3862" stroke-width="2.20619" stroke-linecap="square"/>
<path d="M1313.87 91.143L1303.18 109.849" stroke="#3A3862" stroke-width="2.20619" stroke-linecap="square"/>
<path d="M1285.02 12.0105L1312.18 29.4763C1314.17 30.756 1314.74 33.4063 1313.46 35.3958L1253.07 129.288C1252.58 130.041 1251.58 130.259 1250.83 129.774L1219.2 109.43C1218.44 108.945 1218.23 107.941 1218.71 107.188L1279.1 13.2958C1280.38 11.3063 1283.03 10.7308 1285.02 12.0105Z" fill="#1B212D" stroke="#3A3862" stroke-width="2.20619"/>
<path d="M1291.74 16.2055L1312.23 29.3887C1314.22 30.6684 1314.8 33.3186 1313.52 35.3082L1253.12 129.2C1252.64 129.954 1251.63 130.172 1250.88 129.687L1228.15 115.064L1291.74 16.2055Z" fill="#1B212D" stroke="#3A3862" stroke-width="2.20619"/>
<path fill-rule="evenodd" clip-rule="evenodd" d="M1219.28 144.806L1251.52 131.231C1252.03 131.018 1252.09 130.327 1251.62 130.03L1219.31 109.248C1218.85 108.951 1218.25 109.293 1218.26 109.841L1219.28 144.806Z" fill="#1B212D" stroke="#3A3862" stroke-width="2.20619"/>
<path fill-rule="evenodd" clip-rule="evenodd" d="M1219.28 144.806L1231.63 139.814L1218.7 131.496L1219.28 144.806Z" fill="#1B212D" stroke="#3A3862" stroke-width="2.20619"/>
<path d="M1558.54 147.35L1472.17 173.144C1469.27 174.011 1466.19 172.346 1465.32 169.445L1432.85 60.7181C1431.98 57.8166 1433.65 54.7337 1436.55 53.8669L1522.91 28.0725C1525.81 27.2057 1528.9 28.8715 1529.76 31.772L1562.24 140.498C1563.1 143.4 1561.44 146.483 1558.54 147.35" stroke="#3A3862" stroke-width="2.20619"/>
<path fill-rule="evenodd" clip-rule="evenodd" d="M1569.39 155.761L1482.1 178.204C1479.16 178.958 1476.15 177.175 1475.39 174.242L1447.14 64.3445C1446.39 61.4116 1448.17 58.3952 1451.1 57.6422L1538.4 35.1981C1541.33 34.4441 1544.34 36.2264 1545.1 39.1594L1573.35 149.057C1574.11 151.99 1572.33 155.007 1569.39 155.761" fill="#1B212D"/>
<path d="M1569.39 155.761L1482.1 178.204C1479.16 178.958 1476.15 177.175 1475.39 174.242L1447.14 64.3445C1446.39 61.4116 1448.17 58.3952 1451.1 57.6422L1538.4 35.1981C1541.33 34.4441 1544.34 36.2264 1545.1 39.1594L1573.35 149.057C1574.11 151.99 1572.33 155.007 1569.39 155.761" stroke="#3A3862" stroke-width="2.20619"/>
<path d="M1470.13 76.0835L1477.97 80.662" stroke="#3A3862" stroke-width="2.20619"/>
<path d="M1476.34 74.4532L1471.76 82.292" stroke="#3A3862" stroke-width="2.20619"/>
<path fill-rule="evenodd" clip-rule="evenodd" d="M1536.29 60.5343L1489.54 73.2485L1489.01 71.9959L1535.76 59.2814L1536.29 60.5343Z" fill="#3A3862"/>
<path d="M1475.45 98.0107L1483.29 102.589" stroke="#3A3862" stroke-width="2.20619"/>
<path d="M1481.66 96.3809L1477.08 104.22" stroke="#3A3862" stroke-width="2.20619"/>
<path fill-rule="evenodd" clip-rule="evenodd" d="M1541.59 82.4664L1494.84 95.1808L1494.31 93.928L1541.06 81.2136L1541.59 82.4664Z" fill="#3A3862"/>
<path d="M1481.14 121.781L1488.98 126.36" stroke="#3A3862" stroke-width="2.20619"/>
<path d="M1487.35 120.151L1482.77 127.99" stroke="#3A3862" stroke-width="2.20619"/>
<path fill-rule="evenodd" clip-rule="evenodd" d="M1547.25 106.243L1500.5 118.957L1499.97 117.705L1546.73 104.99L1547.25 106.243Z" fill="#3A3862"/>
<path d="M1494.81 142.932L1491.2 150.278L1486.48 147.51" stroke="#3A3862" stroke-width="2.20619"/>
<path fill-rule="evenodd" clip-rule="evenodd" d="M1553.92 129.815L1507.16 142.53L1506.64 141.277L1553.39 128.563L1553.92 129.815Z" fill="#3A3862"/>
<path fill-rule="evenodd" clip-rule="evenodd" d="M1434.84 295.635L1447.72 313.863L1440.79 318.768L1427.85 300.462L1419.83 311.324L1411.63 270.088L1447.56 291.824L1434.84 295.635Z" stroke="#3A3862" stroke-width="2.21"/>
<rect x="1308.15" y="223.684" width="49.1256" height="49.1256" transform="rotate(-56.25 1308.15 223.684)" stroke="#3A3862" stroke-width="2.21"/>
<path d="M1318.59 318.673L1327.63 259.769L1375.67 295.028L1318.59 318.673Z" stroke="#3A3862" stroke-width="2.21"/>
<path d="M1435.03 249.846C1438.44 267.005 1427.81 283.508 1411.38 286.775C1394.96 290.042 1378.82 278.865 1375.41 261.706C1371.99 244.546 1382.62 228.044 1399.05 224.777C1415.48 221.509 1431.61 232.687 1435.03 249.846Z" stroke="#3A3862" stroke-width="2.21"/>
<path d="M93.8663 60.3864L73.1606 164.481" stroke="#3A3862" stroke-width="2.20619"/>
<path d="M110.601 105.228L61.2457 95.4106" stroke="#3A3862" stroke-width="2.20619"/>
<path fill-rule="evenodd" clip-rule="evenodd" d="M117.659 80.4231L63.7673 69.7035C61.2996 69.2126 59.6821 66.7919 60.173 64.3241L65.4604 37.7423C65.9513 35.2746 68.372 33.6571 70.8397 34.148L124.731 44.8676C127.199 45.3585 128.816 47.7792 128.325 50.247L123.038 76.8288C122.547 79.2965 120.126 80.914 117.659 80.4231" fill="#1B212D"/>
<path d="M117.659 80.4231L63.7673 69.7035C61.2996 69.2126 59.6821 66.7919 60.173 64.3241L65.4604 37.7423C65.9513 35.2746 68.372 33.6571 70.8397 34.148L124.731 44.8676C127.199 45.3585 128.816 47.7792 128.325 50.247L123.038 76.8288C122.547 79.2965 120.126 80.914 117.659 80.4231" stroke="#3A3862" stroke-width="2.20619"/>
<path fill-rule="evenodd" clip-rule="evenodd" d="M68.0393 112.971L14.1479 102.251C11.6801 101.76 10.0627 99.3393 10.5536 96.8715L14.8375 75.3347C15.3284 72.867 17.7491 71.2495 20.2168 71.7404L74.1082 82.46C76.5759 82.9509 78.1934 85.3716 77.7025 87.8394L73.4186 109.376C72.9277 111.844 70.507 113.461 68.0393 112.971" fill="#1B212D"/>
<path d="M68.0393 112.971L14.1479 102.251C11.6801 101.76 10.0627 99.3393 10.5536 96.8715L14.8375 75.3347C15.3284 72.867 17.7491 71.2495 20.2168 71.7404L74.1082 82.46C76.5759 82.9509 78.1934 85.3716 77.7025 87.8394L73.4186 109.376C72.9277 111.844 70.507 113.461 68.0393 112.971" stroke="#3A3862" stroke-width="2.20619"/>
<path fill-rule="evenodd" clip-rule="evenodd" d="M150.149 129.303L98.3501 119C95.8823 118.509 94.2648 116.088 94.7557 113.62L99.0396 92.0835C99.5305 89.6158 101.951 87.9983 104.419 88.4892L156.218 98.7926C158.685 99.2834 160.303 101.704 159.812 104.172L155.528 125.709C155.037 128.176 152.617 129.794 150.149 129.303" fill="#1B212D"/>
<path d="M150.149 129.303L98.3501 119C95.8823 118.509 94.2648 116.088 94.7557 113.62L99.0396 92.0835C99.5305 89.6158 101.951 87.9983 104.419 88.4892L156.218 98.7926C158.685 99.2834 160.303 101.704 159.812 104.172L155.528 125.709C155.037 128.176 152.617 129.794 150.149 129.303" stroke="#3A3862" stroke-width="2.20619"/>
<path fill-rule="evenodd" clip-rule="evenodd" d="M64.9801 97.2736L23.6537 89.0532L24.0487 87.0673L65.3752 95.2876L64.9801 97.2736Z" fill="#3A3862"/>
<path fill-rule="evenodd" clip-rule="evenodd" d="M114.563 61.9796L73.2368 53.7593L73.6318 51.7733L114.958 59.9937L114.563 61.9796Z" fill="#3A3862"/>
<path fill-rule="evenodd" clip-rule="evenodd" d="M147.845 113.523L106.519 105.303L106.914 103.317L148.24 111.537L147.845 113.523Z" fill="#3A3862"/>
<path d="M397.263 41.0346C399.913 45.7046 401.935 50.5732 403.123 54.6996" stroke="#3A3862" stroke-width="2.20619" stroke-linecap="round" stroke-linejoin="round"/>
<path d="M403.123 54.702C405.307 62.2954 405.662 70.1194 404.465 77.7232C403.272 85.3235 400.526 92.7079 396.532 99.4094C394.523 102.776 391.955 105.986 389.055 108.878C386.161 111.766 382.939 114.341 379.632 116.425C378.228 117.307 376.64 117.976 375.068 118.657C373.499 119.339 371.951 120.033 370.626 120.963C369.974 122.053 369.621 123.761 369.361 125.515C369.104 127.273 368.944 129.082 368.684 130.37C368.426 132.315 368.093 137.039 367.112 141.261C366.13 145.484 364.495 149.199 361.637 149.114C360.574 149.621 358.907 149.796 357.215 149.894C355.53 149.984 353.815 149.998 352.659 150.167C352.425 150.205 350.203 150.739 348.493 150.953L336.893 152.988C332.826 153.523 328.587 153.691 325.371 154.049C323.354 154.269 321.351 154.527 319.35 154.799C317.348 155.075 315.347 155.364 313.341 155.662C313.277 155.671 311.21 156.094 309.662 156.163C309.662 156.163 306.307 155.522 305.821 152.729C305.468 150.689 306.129 147.88 306.368 146.632C306.781 144.488 307.228 142.355 307.684 140.219C308.14 138.083 308.604 135.948 309.039 133.808C309.131 133.144 309.763 131.083 310.213 129.087C310.659 127.087 310.934 125.15 310.301 124.74C310.054 124.58 308.533 124.264 307.157 123.911L297.918 122.552C294.839 121.864 291.675 120.911 290.474 120.619C287.298 120.395 285.963 118.901 285.546 116.893" stroke="#3A3862" stroke-width="2.20619" stroke-linecap="round" stroke-linejoin="round"/>
<path d="M397.264 41.0351C396.583 39.8397 391.102 32.5663 390.125 31.5913C390.125 31.5913 385.92 27.3973 384.271 26.0578C383.217 25.2007 379.308 22.7997 379.308 22.7997" stroke="#3A3862" stroke-width="2.20619" stroke-linecap="round" stroke-linejoin="round"/>
<path d="M379.308 22.8008C378.331 22.2516 377.288 21.7868 376.744 21.5545C375.173 20.7098 373.844 19.7446 372.531 19.2349L368.883 17.68C368.044 17.2824 366.603 17.0579 365.699 16.7849C364.329 16.3615 362.856 15.9621 361.364 15.6343C359.871 15.3108 358.366 15.0513 356.94 14.9095C355.136 14.7237 352.258 14.2489 349.527 14.1579L338.54 15.9423C335.939 16.3963 333.023 17.0316 332.19 17.314C329.708 18.1552 327.303 19.2071 324.981 20.4219C322.659 21.6367 320.412 23.0083 318.253 24.4772C314.245 27.2106 310.76 30.4162 307.725 34.0129C304.688 37.6138 302.112 41.6034 299.928 45.915C299.098 47.5462 298.517 49.2182 297.879 50.8654C297.241 52.5084 296.549 54.1182 295.497 55.6345C294.055 57.7118 292.329 59.5684 290.601 61.4292C288.879 63.2866 287.158 65.1398 285.728 67.2196C284.597 68.6447 283.044 70.0122 281.604 71.4513C280.169 72.8912 278.844 74.4019 278.168 76.1038C277.628 77.4822 278.046 79.5481 278.932 81.0061L284.383 86.069C286.021 87.5791 288.088 89.0725 288.844 89.7773C289.84 92.4373 289.521 95.381 288.872 98.3524C288.22 101.319 287.233 104.32 286.894 107.092C286.382 109.509 285.33 112.751 285.38 115.462C285.387 115.96 285.453 116.434 285.548 116.893" stroke="#3A3862" stroke-width="2.20619" stroke-linecap="round" stroke-linejoin="round"/>
<mask id="path-50-inside-1" fill="white">
<path fill-rule="evenodd" clip-rule="evenodd" d="M374.387 40.6908L362.073 34.8835L359.75 39.8091C358.406 39.5493 357.026 39.3876 355.616 39.3322C354.177 39.2757 352.759 39.3319 351.371 39.4931L349.437 34.3871L336.706 39.2105L338.677 44.4132C336.559 45.9343 334.666 47.7532 333.061 49.8114L327.905 47.4891L322.314 59.9019L327.648 62.3046C327.486 63.3408 327.382 64.3972 327.34 65.4705C327.281 66.9624 327.344 68.4309 327.519 69.8666L321.944 71.9786L326.768 84.7096L332.51 82.5339C333.866 84.3987 335.453 86.087 337.232 87.5548L334.585 93.1668L346.899 98.9741L349.569 93.3124C350.842 93.5474 352.147 93.6944 353.478 93.7468C354.78 93.7979 356.063 93.7568 357.323 93.6293L359.536 99.4708L372.267 94.6474L370.089 88.8982C372.125 87.4806 373.961 85.7909 375.542 83.8795L381.068 86.3687L386.659 73.9559L381.314 71.5481C381.553 70.2657 381.702 68.9503 381.754 67.6085C381.803 66.3594 381.768 65.1266 381.652 63.9158L387.028 61.879L382.205 49.148L376.992 51.1227C375.594 49.0908 373.926 47.2556 372.038 45.6706L374.387 40.6908Z"/>
</mask>
<path d="M362.073 34.8835L360.078 33.9424L361.019 31.947L363.015 32.8881L362.073 34.8835ZM374.387 40.6908L375.328 38.6954L377.323 39.6365L376.382 41.6319L374.387 40.6908ZM359.75 39.8091L361.746 40.7502L361.014 42.3006L359.331 41.9752L359.75 39.8091ZM351.371 39.4931L351.626 41.6846L349.917 41.8831L349.308 40.2748L351.371 39.4931ZM349.437 34.3871L348.655 32.3241L350.718 31.5424L351.5 33.6055L349.437 34.3871ZM336.706 39.2105L334.642 39.9921L333.861 37.9291L335.924 37.1474L336.706 39.2105ZM338.677 44.4132L340.74 43.6315L341.34 45.2163L339.964 46.205L338.677 44.4132ZM333.061 49.8114L334.8 51.1682L333.735 52.5347L332.155 51.823L333.061 49.8114ZM327.905 47.4891L325.894 46.5829L326.8 44.5714L328.811 45.4775L327.905 47.4891ZM322.314 59.9019L321.408 61.9134L319.396 61.0073L320.302 58.9958L322.314 59.9019ZM327.648 62.3046L328.554 60.2931L330.087 60.9837L329.827 62.645L327.648 62.3046ZM327.519 69.8666L329.709 69.5997L329.918 71.3168L328.3 71.9297L327.519 69.8666ZM321.944 71.9786L319.881 72.7602L319.099 70.6971L321.163 69.9155L321.944 71.9786ZM326.768 84.7096L327.549 86.7727L325.486 87.5543L324.704 85.4913L326.768 84.7096ZM332.51 82.5339L331.729 80.4708L333.304 79.8739L334.295 81.2368L332.51 82.5339ZM337.232 87.5548L338.636 85.8532L339.959 86.9447L339.227 88.4959L337.232 87.5548ZM334.585 93.1668L333.644 95.1622L331.649 94.2211L332.59 92.2257L334.585 93.1668ZM346.899 98.9741L348.894 99.9152L347.953 101.911L345.958 100.97L346.899 98.9741ZM349.569 93.3124L347.573 92.3713L348.298 90.8343L349.969 91.1429L349.569 93.3124ZM357.323 93.6293L357.101 91.4343L358.786 91.2638L359.386 92.8477L357.323 93.6293ZM359.536 99.4708L360.318 101.534L358.255 102.316L357.473 100.252L359.536 99.4708ZM372.267 94.6474L374.33 93.8658L375.112 95.9289L373.049 96.7105L372.267 94.6474ZM370.089 88.8982L368.026 89.6798L367.416 88.0708L368.828 87.0876L370.089 88.8982ZM375.542 83.8795L373.842 82.4733L374.914 81.177L376.448 81.8679L375.542 83.8795ZM381.068 86.3687L383.079 87.2748L382.173 89.2864L380.162 88.3802L381.068 86.3687ZM386.659 73.9559L387.566 71.9444L389.577 72.8505L388.671 74.862L386.659 73.9559ZM381.314 71.5481L380.408 73.5596L378.829 72.8482L379.145 71.145L381.314 71.5481ZM381.652 63.9158L379.456 64.1256L379.296 62.4493L380.87 61.8527L381.652 63.9158ZM387.028 61.879L389.091 61.0974L389.873 63.1605L387.81 63.9421L387.028 61.879ZM382.205 49.148L381.423 47.0849L383.486 46.3033L384.268 48.3664L382.205 49.148ZM376.992 51.1227L377.774 53.1858L376.156 53.7989L375.175 52.3732L376.992 51.1227ZM372.038 45.6706L370.62 47.3604L369.317 46.2673L370.043 44.7295L372.038 45.6706ZM363.015 32.8881L375.328 38.6954L373.446 42.6862L361.132 36.8789L363.015 32.8881ZM357.755 38.868L360.078 33.9424L364.069 35.8246L361.746 40.7502L357.755 38.868ZM355.703 37.1277C357.224 37.1875 358.716 37.3621 360.169 37.6431L359.331 41.9752C358.097 41.7364 356.827 41.5877 355.529 41.5367L355.703 37.1277ZM351.116 37.3017C352.617 37.1274 354.149 37.0667 355.703 37.1277L355.529 41.5367C354.204 41.4847 352.9 41.5365 351.626 41.6846L351.116 37.3017ZM351.5 33.6055L353.434 38.7115L349.308 40.2748L347.374 35.1688L351.5 33.6055ZM335.924 37.1474L348.655 32.3241L350.218 36.4502L337.487 41.2736L335.924 37.1474ZM336.614 45.1948L334.642 39.9921L338.769 38.4289L340.74 43.6315L336.614 45.1948ZM331.321 48.4547C333.056 46.2304 335.101 44.265 337.39 42.6213L339.964 46.205C338.017 47.6036 336.276 49.276 334.8 51.1682L331.321 48.4547ZM328.811 45.4775L333.967 47.7999L332.155 51.823L326.999 49.5006L328.811 45.4775ZM320.302 58.9958L325.894 46.5829L329.917 48.3952L324.325 60.808L320.302 58.9958ZM326.741 64.3162L321.408 61.9134L323.22 57.8904L328.554 60.2931L326.741 64.3162ZM325.135 65.3839C325.181 64.2254 325.293 63.0843 325.468 61.9643L329.827 62.645C329.679 63.5973 329.583 64.569 329.544 65.5571L325.135 65.3839ZM325.329 70.1335C325.14 68.581 325.072 66.9942 325.135 65.3839L329.544 65.5571C329.49 66.9305 329.548 68.2808 329.709 69.5997L325.329 70.1335ZM321.163 69.9155L326.737 67.8035L328.3 71.9297L322.726 74.0417L321.163 69.9155ZM324.704 85.4913L319.881 72.7602L324.007 71.1969L328.831 83.928L324.704 85.4913ZM333.292 84.597L327.549 86.7727L325.986 82.6465L331.729 80.4708L333.292 84.597ZM335.828 89.2565C333.906 87.6703 332.19 85.8461 330.726 83.831L334.295 81.2368C335.541 82.9514 337.001 84.5036 338.636 85.8532L335.828 89.2565ZM332.59 92.2257L335.237 86.6137L339.227 88.4959L336.581 94.1078L332.59 92.2257ZM345.958 100.97L333.644 95.1622L335.526 91.1714L347.84 96.9787L345.958 100.97ZM351.564 94.2535L348.894 99.9152L344.903 98.033L347.573 92.3713L351.564 94.2535ZM353.391 95.9512C351.955 95.8948 350.544 95.736 349.168 95.4819L349.969 91.1429C351.139 91.3588 352.339 91.4941 353.565 91.5423L353.391 95.9512ZM357.545 95.8243C356.183 95.9621 354.796 96.0064 353.391 95.9512L353.565 91.5423C354.763 91.5893 355.943 91.5515 357.101 91.4343L357.545 95.8243ZM357.473 100.252L355.26 94.411L359.386 92.8477L361.599 98.6892L357.473 100.252ZM373.049 96.7105L360.318 101.534L358.755 97.4077L371.486 92.5844L373.049 96.7105ZM372.152 88.1165L374.33 93.8658L370.204 95.4291L368.026 89.6798L372.152 88.1165ZM377.242 85.2856C375.533 87.3512 373.55 89.1769 371.35 90.7087L368.828 87.0876C370.7 85.7843 372.388 84.2307 373.842 82.4733L377.242 85.2856ZM380.162 88.3802L374.636 85.891L376.448 81.8679L381.974 84.3572L380.162 88.3802ZM388.671 74.862L383.079 87.2748L379.056 85.4626L384.648 73.0497L388.671 74.862ZM382.22 69.5366L387.566 71.9444L385.753 75.9674L380.408 73.5596L382.22 69.5366ZM383.959 67.6951C383.902 69.1435 383.741 70.5646 383.483 71.9512L379.145 71.145C379.364 69.9668 379.501 68.7572 379.55 67.5219L383.959 67.6951ZM383.848 63.706C383.973 65.0151 384.012 66.3468 383.959 67.6951L379.55 67.5219C379.595 66.3719 379.562 65.2382 379.456 64.1256L383.848 63.706ZM387.81 63.9421L382.434 65.9789L380.87 61.8527L386.246 59.816L387.81 63.9421ZM384.268 48.3664L389.091 61.0974L384.965 62.6607L380.141 49.9296L384.268 48.3664ZM376.211 49.0596L381.423 47.0849L382.986 51.2111L377.774 53.1858L376.211 49.0596ZM373.457 43.9808C375.497 45.6935 377.299 47.6764 378.81 49.8722L375.175 52.3732C373.89 50.5051 372.356 48.8177 370.62 47.3604L373.457 43.9808ZM376.382 41.6319L374.034 46.6117L370.043 44.7295L372.391 39.7498L376.382 41.6319Z" fill="#3A3862" mask="url(#path-50-inside-1)"/>
<circle r="13.8724" transform="matrix(-0.999229 -0.0392598 -0.0392598 0.999229 354.341 66.9615)" stroke="#3A3862" stroke-width="2.20619"/>
<path d="M247.568 199.653L129.31 223.176C124.721 224.089 121.738 228.541 122.649 233.119L137.277 306.657C138.187 311.236 142.646 314.207 147.236 313.294L167.277 309.308L183.837 317.844L195.621 303.67L265.493 289.771C270.083 288.859 273.064 284.407 272.154 279.828L257.526 206.291C256.615 201.712 252.157 198.74 247.568 199.653" stroke="#3A3862" stroke-width="2.20619"/>
<path fill-rule="evenodd" clip-rule="evenodd" d="M195.736 257.914L248.234 247.472Z" fill="#EFB2B2"/>
<path d="M195.736 257.914L248.234 247.472" stroke="#3A3862" stroke-width="2.20619" stroke-linecap="round" stroke-linejoin="round"/>
<path fill-rule="evenodd" clip-rule="evenodd" d="M198.008 269.337L235.629 261.853Z" fill="#EFB2B2"/>
<path d="M198.008 269.337L235.629 261.853" stroke="#3A3862" stroke-width="2.20619" stroke-linecap="round" stroke-linejoin="round"/>
<path d="M193.61 247.221L198.698 241.425L205.248 244.906L210.224 239.133L216.886 242.591L221.751 236.84L228.525 240.276L233.277 234.547L240.163 237.961" stroke="#3A3862" stroke-width="2.20619" stroke-linecap="round" stroke-linejoin="round"/>
<path d="M171.017 250.493C171.958 255.223 168.886 259.821 164.157 260.761C159.427 261.702 154.829 258.63 153.888 253.9C152.948 249.17 156.019 244.573 160.749 243.632C165.479 242.691 170.076 245.763 171.017 250.493" stroke="#3A3862" stroke-width="2.20619"/>
<mask id="path-60-inside-2" fill="white">
<path d="M152.318 282.81C150.603 274.191 156.201 265.814 164.82 264.099V264.099C173.439 262.385 181.816 267.982 183.531 276.601L183.796 277.934L152.583 284.142L152.318 282.81Z"/>
</mask>
<path d="M152.318 282.81C150.603 274.191 156.201 265.814 164.82 264.099V264.099C173.439 262.385 181.816 267.982 183.531 276.601L183.796 277.934L152.583 284.142L152.318 282.81Z" stroke="#3A3862" stroke-width="4.41238" mask="url(#path-60-inside-2)"/>
</svg>
