<svg width="936" height="882" xmlns="http://www.w3.org/2000/svg"><g transform="translate(0 -234)" fill="#222759" fill-rule="evenodd"><rect transform="rotate(45 650.47 305.47)" x="434.47" y="89.47" width="432" height="432" rx="48"/><path d="M329.01 568.543L547.457 786.99c15.13 15.13 19.04 22.19 21.613 30.68 2.573 8.49 2.573 17.17 0 25.66-2.573 8.49-6.484 15.55-21.613 30.68L329.01 1092.457c-15.13 15.13-22.19 19.04-30.68 21.613-8.49 2.573-17.17 2.573-25.66 0-8.49-2.573-15.55-6.484-30.68-21.613L23.543 874.01c-15.13-15.13-19.04-22.19-21.613-30.68-2.573-8.49-2.573-17.17 0-25.66 2.573-8.49 6.484-15.55 21.613-30.68L241.99 568.543c15.13-15.13 22.19-19.04 30.68-21.613 8.49-2.573 17.17-2.573 25.66 0 8.49 2.573 15.55 6.484 30.68 21.613z"/></g></svg>