<svg width="1135" height="578" fill="none" xmlns="http://www.w3.org/2000/svg"><path fill-rule="evenodd" clip-rule="evenodd" d="M206.853 30.597l-9.04 1.66c-1.531.28-2.723-1.314-2.019-2.703l4.092-8.077-4.418-7.926c-.764-1.371.387-3.02 1.937-2.777l9.196 1.447 6.345-6.557c1.085-1.12 2.984-.512 3.215 1.031l1.322 8.853 8.406 3.947c1.4.658 1.454 2.628.093 3.362l-7.815 4.209-1.096 9.06c-.186 1.535-2.04 2.204-3.163 1.142l-7.055-6.671z" fill="#FF9E99"/><path fill-rule="evenodd" clip-rule="evenodd" d="M875.029 476.048l-9.04 1.659c-1.532.282-2.723-1.313-2.019-2.702l4.092-8.077-4.418-7.926c-.764-1.371.386-3.02 1.937-2.776l9.195 1.446 6.346-6.557c1.085-1.121 2.984-.512 3.215 1.031l1.322 8.853 8.406 3.948c1.4.657 1.454 2.628.092 3.361l-7.815 4.209-1.096 9.061c-.185 1.534-2.039 2.203-3.162 1.141l-7.055-6.671z" fill="#F8B100"/><path fill-rule="evenodd" clip-rule="evenodd" d="M32.081 539.536l-6.894 6.079c-1.168 1.03-3.01.277-3.123-1.276l-.652-9.031-7.87-4.519c-1.36-.782-1.224-2.788.231-3.377l8.627-3.497 2.062-8.888c.353-1.52 2.295-1.976 3.287-.772l5.693 6.907 9.238-.945c1.538-.158 2.6 1.503 1.81 2.833l-4.53 7.633 3.727 8.331c.631 1.411-.613 2.939-2.123 2.608l-9.483-2.086z" fill="#6EBBF0"/><path fill-rule="evenodd" clip-rule="evenodd" d="M989.742 380.028c5.348 0 9.684-4.336 9.684-9.684 0-5.348-4.336-9.684-9.684-9.684-5.348 0-9.683 4.336-9.683 9.684 0 5.348 4.335 9.684 9.683 9.684z" fill="#38C0B8"/><path fill-rule="evenodd" clip-rule="evenodd" d="M422.277 573.701c5.349 0 9.684-4.335 9.684-9.683s-4.335-9.684-9.684-9.684c-5.348 0-9.683 4.336-9.683 9.684a9.683 9.683 0 009.683 9.683z" fill="#8A86FF"/><path fill-rule="evenodd" clip-rule="evenodd" d="M17.496 46.907c5.348 0 9.684-4.335 9.684-9.683s-4.336-9.684-9.684-9.684c-5.348 0-9.683 4.336-9.683 9.684 0 5.348 4.335 9.684 9.683 9.684zM199.551 577.575c5.348 0 9.684-4.335 9.684-9.683s-4.336-9.684-9.684-9.684c-5.348 0-9.684 4.336-9.684 9.684 0 5.348 4.336 9.683 9.684 9.683z" fill="#F8B100"/><path fill-rule="evenodd" clip-rule="evenodd" d="M319.629 118.567c5.348 0 9.684-4.336 9.684-9.684 0-5.348-4.336-9.684-9.684-9.684-5.348 0-9.684 4.336-9.684 9.684 0 5.348 4.336 9.684 9.684 9.684z" fill="#F15B2A"/><path fill-rule="evenodd" clip-rule="evenodd" d="M8.782 223.151a8.715 8.715 0 100-17.43 8.715 8.715 0 000 17.43zM1069.15 287.064c4.28 0 7.75-3.468 7.75-7.747a7.749 7.749 0 00-7.75-7.747 7.749 7.749 0 00-7.75 7.747 7.748 7.748 0 007.75 7.747z" fill="#6EBBF0"/><path fill-rule="evenodd" clip-rule="evenodd" d="M96.903 354.85c5.348 0 9.683-4.336 9.683-9.684 0-5.348-4.335-9.684-9.683-9.684-5.349 0-9.684 4.336-9.684 9.684 0 5.348 4.335 9.684 9.684 9.684z" fill="#F15B2A"/><path fill-rule="evenodd" clip-rule="evenodd" d="M622.834 519.905l3.218 27.965-23.659-8.611 20.441-19.354z" fill="#FF9E99"/><path fill-rule="evenodd" clip-rule="evenodd" d="M150.315 136.761l-3.466 30.116 25.479-9.274-22.013-20.842z" fill="#38C0B8"/><path fill-rule="evenodd" clip-rule="evenodd" d="M790.463 47.758l-3.218-27.965 23.659 8.611-20.441 19.354z" fill="#6EBBF0"/><path fill-rule="evenodd" clip-rule="evenodd" d="M933.845 230.589l-4.028 3.552c-1.168 1.03-3.011.277-3.123-1.276l-.38-5.261-4.569-2.623c-1.361-.782-1.224-2.788.231-3.377l5.036-2.041 1.202-5.182c.352-1.52 2.294-1.976 3.286-.772l3.306 4.01 5.427-.555c1.539-.158 2.6 1.504 1.811 2.833l-2.637 4.443 2.182 4.878c.631 1.411-.613 2.939-2.123 2.607l-5.621-1.236z" fill="#8A86FF"/><path fill-rule="evenodd" clip-rule="evenodd" d="M276.154 248.761l3.218 27.965-23.659-8.612 20.441-19.353z" fill="#F8B100"/><path fill-rule="evenodd" clip-rule="evenodd" d="M205.63 432.011l-4.028 3.552c-1.168 1.03-3.011.277-3.123-1.276l-.38-5.261-4.569-2.623c-1.361-.782-1.224-2.788.231-3.377l5.036-2.041 1.202-5.182c.353-1.52 2.294-1.976 3.286-.772l3.306 4.01 5.427-.555c1.539-.158 2.6 1.504 1.811 2.833l-2.637 4.443 2.182 4.878c.631 1.411-.613 2.939-2.123 2.607l-5.621-1.236z" fill="#8A86FF"/><path fill-rule="evenodd" clip-rule="evenodd" d="M999.426 558.208c5.344 0 9.684-4.335 9.684-9.683 0-5.349-4.34-9.684-9.684-9.684-5.348 0-9.684 4.335-9.684 9.684 0 5.348 4.336 9.683 9.684 9.683z" fill="#FAFAFA"/><path fill-rule="evenodd" clip-rule="evenodd" d="M1006.31 82.201l3.21 27.965-23.655-8.611 20.445-19.354z" fill="#FF9E99"/><path fill-rule="evenodd" clip-rule="evenodd" d="M1126.28 151.492a8.715 8.715 0 100-17.43c-4.81 0-8.71 3.902-8.71 8.715s3.9 8.715 8.71 8.715zM1115.9 478.493l-4.03 3.552c-1.17 1.03-3.01.277-3.12-1.277l-.38-5.26-4.57-2.624c-1.36-.781-1.22-2.788.23-3.377l5.04-2.041 1.2-5.182c.35-1.519 2.29-1.975 3.28-.772l3.31 4.011 5.43-.556c1.54-.157 2.6 1.504 1.81 2.834l-2.64 4.442 2.18 4.878c.63 1.411-.61 2.94-2.12 2.608l-5.62-1.236z" fill="#F15B2A"/></svg>