<?xml version="1.0" encoding="UTF-8"?>
<svg width="1840px" height="1473px" viewBox="0 0 1840 1473" version="1.1" xmlns="http://www.w3.org/2000/svg" xmlns:xlink="http://www.w3.org/1999/xlink">
    <!-- Generator: Sketch 50.2 (55047) - http://www.bohemiancoding.com/sketch -->
    <title>Group 9</title>
    <desc>Created with Sketch.</desc>
    <defs></defs>
    <g id="Page-1" stroke="none" stroke-width="1" fill="none" fill-rule="evenodd" opacity="0.200000003">
        <g id="web/student-stories-final-web" transform="translate(-524.000000, -18260.000000)" stroke="#2EADCA" stroke-width="2.835">
            <g id="Group-9" transform="translate(519.000000, 18212.000000)">
                <g id="web/assests/polygon-4" transform="translate(1479.566057, 1282.004440) scale(-1, 1) rotate(-89.000000) translate(-1479.566057, -1282.004440) translate(1244.566057, 1050.504440)">
                    <polygon id="Stroke-125" points="63.082 462.6081 275.082 357.9411 169.082 146.6081"></polygon>
                    <polygon id="Stroke-127" points="0.4155 227.2748 111.7575 317.5008 63.0825 462.6078"></polygon>
                    <polygon id="Stroke-129" points="327.749 197.9415 427.749 242.6085 275.082 357.9415"></polygon>
                    <polygon id="Stroke-131" points="169.082 146.6081 327.749 197.9411 277.749 64.6081"></polygon>
                    <polygon id="Stroke-133" points="141.082 16.6081 277.749 64.6081 169.082 146.6081"></polygon>
                    <polygon id="Stroke-135" points="327.749 197.9415 469.749 127.2745 277.749 64.6085"></polygon>
                    <polygon id="Stroke-137" points="403.082 0.6081 277.749 64.6081 469.749 127.2751"></polygon>
                    <polygon id="Stroke-139" points="141.082 16.6081 403.082 0.6081 277.749 64.6081"></polygon>
                    <polygon id="Stroke-141" points="169.082 146.6081 0.415 227.2751 141.082 16.6081"></polygon>
                    <polygon id="Stroke-143" points="427.749 242.6081 327.749 197.9411 469.749 127.2751"></polygon>
                </g>
                <g id="web/assests/polygon-3" transform="translate(235.566057, 1148.004440) rotate(-89.000000) translate(-235.566057, -1148.004440) translate(0.566057, 916.504440)">
                    <polygon id="Stroke-125" points="63.082 462.6081 275.082 357.9411 169.082 146.6081"></polygon>
                    <polygon id="Stroke-127" points="0.4155 227.2748 111.7575 317.5008 63.0825 462.6078"></polygon>
                    <polygon id="Stroke-129" points="327.749 197.9415 427.749 242.6085 275.082 357.9415"></polygon>
                    <polygon id="Stroke-131" points="169.082 146.6081 327.749 197.9411 277.749 64.6081"></polygon>
                    <polygon id="Stroke-133" points="141.082 16.6081 277.749 64.6081 169.082 146.6081"></polygon>
                    <polygon id="Stroke-135" points="327.749 197.9415 469.749 127.2745 277.749 64.6085"></polygon>
                    <polygon id="Stroke-137" points="403.082 0.6081 277.749 64.6081 469.749 127.2751"></polygon>
                    <polygon id="Stroke-139" points="141.082 16.6081 403.082 0.6081 277.749 64.6081"></polygon>
                    <polygon id="Stroke-141" points="169.082 146.6081 0.415 227.2751 141.082 16.6081"></polygon>
                    <polygon id="Stroke-143" points="427.749 242.6081 327.749 197.9411 469.749 127.2751"></polygon>
                </g>
                <g id="web/assests/polygon-2" transform="translate(1373.000000, 253.000000)">
                    <polygon id="Stroke-125" points="63.082 462.6081 275.082 357.9411 169.082 146.6081"></polygon>
                    <polygon id="Stroke-127" points="0.4155 227.2748 111.7575 317.5008 63.0825 462.6078"></polygon>
                    <polygon id="Stroke-129" points="327.749 197.9415 427.749 242.6085 275.082 357.9415"></polygon>
                    <polygon id="Stroke-131" points="169.082 146.6081 327.749 197.9411 277.749 64.6081"></polygon>
                    <polygon id="Stroke-133" points="141.082 16.6081 277.749 64.6081 169.082 146.6081"></polygon>
                    <polygon id="Stroke-135" points="327.749 197.9415 469.749 127.2745 277.749 64.6085"></polygon>
                    <polygon id="Stroke-137" points="403.082 0.6081 277.749 64.6081 469.749 127.2751"></polygon>
                    <polygon id="Stroke-139" points="141.082 16.6081 403.082 0.6081 277.749 64.6081"></polygon>
                    <polygon id="Stroke-141" points="169.082 146.6081 0.415 227.2751 141.082 16.6081"></polygon>
                    <polygon id="Stroke-143" points="427.749 242.6081 327.749 197.9411 469.749 127.2751"></polygon>
                </g>
                <g id="web/assests/polygon" transform="translate(555.430168, 281.053134) scale(-1, 1) rotate(103.000000) translate(-555.430168, -281.053134) translate(320.430168, 49.553134)">
                    <polygon id="Stroke-125" points="63.082 462.6081 275.082 357.9411 169.082 146.6081"></polygon>
                    <polygon id="Stroke-127" points="0.4155 227.2748 111.7575 317.5008 63.0825 462.6078"></polygon>
                    <polygon id="Stroke-129" points="327.749 197.9415 427.749 242.6085 275.082 357.9415"></polygon>
                    <polygon id="Stroke-131" points="169.082 146.6081 327.749 197.9411 277.749 64.6081"></polygon>
                    <polygon id="Stroke-133" points="141.082 16.6081 277.749 64.6081 169.082 146.6081"></polygon>
                    <polygon id="Stroke-135" points="327.749 197.9415 469.749 127.2745 277.749 64.6085"></polygon>
                    <polygon id="Stroke-137" points="403.082 0.6081 277.749 64.6081 469.749 127.2751"></polygon>
                    <polygon id="Stroke-139" points="141.082 16.6081 403.082 0.6081 277.749 64.6081"></polygon>
                    <polygon id="Stroke-141" points="169.082 146.6081 0.415 227.2751 141.082 16.6081"></polygon>
                    <polygon id="Stroke-143" points="427.749 242.6081 327.749 197.9411 469.749 127.2751"></polygon>
                </g>
            </g>
        </g>
    </g>
</svg>