<svg width="946" height="260" xmlns="http://www.w3.org/2000/svg"><g fill="none" fill-rule="evenodd"><path d="M866 208c3.314 0 6 11.193 6 25s-2.686 25-6 25-6-11.193-6-25 2.686-25 6-25z" stroke="#3255D6" stroke-width="2.361" stroke-linejoin="round"/><path d="M891 233c0 3.313-11.193 6-25 6s-25-2.687-25-6 11.193-6 25-6 25 2.687 25 6z" stroke="#BF8EFF" stroke-width="2.361" stroke-linejoin="round"/><g stroke-linejoin="round" stroke-width="2.361"><path d="M82.035 59.264L21.85 119.45" stroke="#3255D6"/><path d="M62.236 39.465L2.05 99.65M1.787 99.914c1.706-1.706 7.58 1.401 13.12 6.941 5.54 5.54 8.647 11.414 6.941 13.12-1.707 1.707-7.581-1.4-13.12-6.939-5.541-5.54-8.648-11.415-6.941-13.122z" stroke="#2C2B4C"/><path d="M61.973 39.728c1.707-1.707 7.582 1.4 13.122 6.94 5.54 5.54 8.647 11.414 6.94 13.12-1.707 1.708-7.581-1.4-13.121-6.94-5.54-5.54-8.647-11.414-6.94-13.12z" stroke="#BF8EFF"/><path d="M69.307 52.193l-54.99 54.99" stroke="#3BF2DC"/></g><g stroke-width="2.631"><path d="M144.852 196.632c-.888 7.814-7.974 13.432-15.826 12.549-7.854-.884-13.499-7.935-12.61-15.75.888-7.812 7.972-13.432 15.825-12.548 7.853.884 13.499 7.935 12.61 15.749z" stroke="#3BF2DC"/><path d="M127.357 194.663c-.888 7.814-7.974 13.433-15.826 12.549-7.854-.883-13.499-7.934-12.612-15.749.888-7.813 7.974-13.431 15.827-12.548 7.852.884 13.499 7.934 12.61 15.748z" stroke="#BF8EFF"/></g><path d="M902.38 79.88l-8.16 5.689.849-9.91 41.386-71.684a4.22 4.22 0 017.312 4.222L902.38 79.88z" stroke="#BF8EFF" stroke-width="2.361"/></g></svg>