<svg width="484" height="214" fill="none" xmlns="http://www.w3.org/2000/svg"><path fill-rule="evenodd" clip-rule="evenodd" d="M336.424 212.856h-42.9c-1.393 0-2.524-1.167-2.524-2.603v-41.65c0-1.437 1.131-2.603 2.524-2.603h42.9c1.396 0 2.524 1.166 2.524 2.603v41.65c0 1.436-1.128 2.603-2.524 2.603z" stroke="#565495" stroke-linecap="round" stroke-linejoin="round"/><path d="M303.344 200.448h-.5a.5.5 0 00.5.5v-.5zm23.262 0v.5a.5.5 0 00.5-.5h-.5zm-11.631-12.466c3.489 0 6.316-2.834 6.316-6.334h-1c0 2.95-2.381 5.334-5.316 5.334v1zm6.316-6.334c0-3.497-2.827-6.331-6.316-6.331v1a5.322 5.322 0 015.316 5.331h1zm-6.316-6.331c-3.49 0-6.317 2.834-6.317 6.331h1a5.323 5.323 0 015.317-5.331v-1zm-6.317 6.331c0 3.5 2.827 6.334 6.317 6.334v-1c-2.935 0-5.317-2.384-5.317-5.334h-1zm6.317 9.55c-2.004 0-4.975.5-7.458 1.498-1.242.499-2.393 1.135-3.241 1.92-.853.789-1.432 1.763-1.432 2.916h1c0-.787.389-1.513 1.111-2.182.726-.672 1.755-1.252 2.935-1.726 2.363-.95 5.207-1.426 7.085-1.426v-1zm-12.131 6.334v2.916h1v-2.916h-1zm.5 3.416h23.262v-1h-23.262v1zm23.762-.5v-2.916h-1v2.916h1zm0-2.916c0-1.153-.58-2.127-1.432-2.916-.849-.785-2-1.421-3.242-1.92-2.483-.998-5.454-1.498-7.457-1.498v1c1.878 0 4.722.476 7.084 1.426 1.181.474 2.21 1.054 2.936 1.726.722.669 1.111 1.395 1.111 2.182h1zM113 66.63h-.5a.5.5 0 00.5.5v-.5zm23.262 0v.5a.5.5 0 00.5-.5h-.5zm-11.631-12.464c3.49 0 6.317-2.835 6.317-6.334h-1c0 2.95-2.382 5.334-5.317 5.334v1zm6.317-6.334c0-3.498-2.827-6.332-6.317-6.332v1a5.324 5.324 0 015.317 5.331h1zm-6.317-6.332c-3.49 0-6.317 2.834-6.317 6.331h1a5.324 5.324 0 015.317-5.331v-1zm-6.317 6.331c0 3.5 2.827 6.334 6.317 6.334v-1c-2.935 0-5.317-2.384-5.317-5.334h-1zm6.317 9.55c-2.003 0-4.974.5-7.457 1.498-1.242.499-2.393 1.135-3.242 1.92-.852.79-1.432 1.763-1.432 2.916h1c0-.787.389-1.513 1.111-2.182.726-.672 1.755-1.252 2.936-1.726 2.362-.95 5.206-1.426 7.084-1.426v-1zM112.5 63.715v2.916h1v-2.916h-1zm.5 3.416h23.262v-1H113v1zm23.762-.5v-2.916h-1v2.916h1zm0-2.916c0-1.153-.58-2.127-1.432-2.915-.848-.786-2-1.422-3.242-1.921-2.482-.998-5.454-1.498-7.457-1.498v1c1.878 0 4.722.477 7.085 1.426 1.18.474 2.209 1.054 2.935 1.726.722.669 1.111 1.395 1.111 2.182h1z" fill="#565495"/><path stroke="#565495" d="M1 101h48v96H1z"/><path fill="#565495" d="M9 111h32v1H9zM9 118h24v1H9zM9 131h32v1H9zM9 138h24v1H9z"/><path stroke="#565495" d="M9 151h32v24H9z"/><rect x="25" y="183" width="16" height="6" rx="3" stroke="#565495"/><rect x="419" y="1" width="64" height="64" rx="4" stroke="#565495"/><path d="M461 27l-13.765 14L441 34.658" stroke="#565495" stroke-linecap="round" stroke-linejoin="round"/><path fill-rule="evenodd" clip-rule="evenodd" d="M451 53c11.046 0 20-8.954 20-20s-8.954-20-20-20-20 8.954-20 20 8.954 20 20 20z" stroke="#565495"/></svg>