<svg width="248" height="82" fill="none" xmlns="http://www.w3.org/2000/svg"><path fill-rule="evenodd" clip-rule="evenodd" d="M19 33.8H1L10 17l9 16.8z" stroke="#565495" stroke-linecap="round" stroke-linejoin="round"/><path d="M63 1h122v80H63V1zM185 62.538H63" stroke="#565495" stroke-linecap="round" stroke-linejoin="round"/><path d="M124 62.538V81" stroke="#565495"/><path d="M108.751 48.692h-.5a.5.5 0 00.5.5v-.5zm30.5 0v.5a.5.5 0 00.5-.5h-.5zm-15.25-16.424c4.493 0 8.126-3.67 8.126-8.193h-1c0 3.98-3.193 7.193-7.126 7.193v1zm8.126-8.193c0-4.521-3.633-8.19-8.126-8.19v1c3.933 0 7.126 3.213 7.126 7.19h1zm-8.126-8.19c-4.492 0-8.125 3.668-8.125 8.19h1c0-3.977 3.193-7.19 7.125-7.19v-1zm-8.125 8.19c0 4.524 3.633 8.193 8.125 8.193v-1c-3.932 0-7.125-3.213-7.125-7.193h-1zM124 36.652c-2.607 0-6.483.657-9.72 1.965-1.619.655-3.109 1.485-4.203 2.503-1.097 1.022-1.826 2.266-1.826 3.727h1c0-1.097.541-2.094 1.508-2.995.97-.904 2.338-1.678 3.896-2.307 3.115-1.26 6.864-1.893 9.345-1.893v-1zm-15.749 8.195v3.845h1v-3.845h-1zm.5 4.345h30.5v-1h-30.5v1zm31-.5v-3.845h-1v3.845h1zm0-3.845c0-1.461-.729-2.705-1.826-3.727-1.094-1.018-2.584-1.848-4.203-2.503-3.237-1.308-7.114-1.965-9.722-1.965v1c2.482 0 6.231.633 9.347 1.892 1.557.63 2.925 1.404 3.896 2.308.967.9 1.508 1.898 1.508 2.995h1z" fill="#565495"/><path d="M235.092 42.969a1 1 0 011.816 0l2.243 4.863a1 1 0 00.791.574l5.318.63c.847.101 1.187 1.148.561 1.728l-3.932 3.636a1 1 0 00-.302.929l1.044 5.253c.166.837-.725 1.484-1.469 1.067l-4.674-2.616a.998.998 0 00-.976 0l-4.674 2.616c-.744.417-1.635-.23-1.469-1.067l1.044-5.253a1 1 0 00-.302-.93l-3.932-3.635c-.626-.58-.286-1.627.561-1.728l5.318-.63a1 1 0 00.791-.574l2.243-4.863z" stroke="#565495"/></svg>