<svg width="1301" height="276" fill="none" xmlns="http://www.w3.org/2000/svg"><g opacity=".6" fill-rule="evenodd" clip-rule="evenodd" fill="#726FC5"><path d="M1225 202c0 1.104.9 2 2 2s2-.896 2-2-.9-2-2-2-2 .896-2 2zM1249 202c0 1.104.9 2 2 2s2-.896 2-2-.9-2-2-2-2 .896-2 2zM1273 202c0 1.104.9 2 2 2s2-.896 2-2-.9-2-2-2-2 .896-2 2zM1225 226c0 1.104.9 2 2 2s2-.896 2-2-.9-2-2-2-2 .896-2 2zM1249 226c0 1.104.9 2 2 2s2-.896 2-2-.9-2-2-2-2 .896-2 2zM1273 226c0 1.104.9 2 2 2s2-.896 2-2-.9-2-2-2-2 .896-2 2zM1225 250c0 1.104.9 2 2 2s2-.896 2-2-.9-2-2-2-2 .896-2 2zM1249 250c0 1.104.9 2 2 2s2-.896 2-2-.9-2-2-2-2 .896-2 2zM1273 250c0 1.104.9 2 2 2s2-.896 2-2-.9-2-2-2-2 .896-2 2zM1225 274c0 1.104.9 2 2 2s2-.896 2-2-.9-2-2-2-2 .896-2 2zM1249 274c0 1.104.9 2 2 2s2-.896 2-2-.9-2-2-2-2 .896-2 2zM1273 274c0 1.104.9 2 2 2s2-.896 2-2-.9-2-2-2-2 .896-2 2zM1297 202c0 1.104.9 2 2 2s2-.896 2-2-.9-2-2-2-2 .896-2 2zM1297 226c0 1.104.9 2 2 2s2-.896 2-2-.9-2-2-2-2 .896-2 2zM1297 250c0 1.104.9 2 2 2s2-.896 2-2-.9-2-2-2-2 .896-2 2zM1297 274c0 1.104.9 2 2 2s2-.896 2-2-.9-2-2-2-2 .896-2 2z"/></g><g opacity=".6" fill-rule="evenodd" clip-rule="evenodd" fill="#726FC5"><path d="M0 2a2 2 0 104.001-.001A2 2 0 000 2zM24 2a2 2 0 104.001-.001A2 2 0 0024 2zM48 2a2 2 0 104.001-.001A2 2 0 0048 2zM72 2a2 2 0 104.001-.001A2 2 0 0072 2zM96 2a2 2 0 104.001-.001A2 2 0 0096 2zM0 26a2 2 0 104.001-.001A2 2 0 000 26zM24 26a2 2 0 104.001-.001A2 2 0 0024 26zM48 26a2 2 0 104.001-.001A2 2 0 0048 26zM72 26a2 2 0 104.001-.001A2 2 0 0072 26zM96 26a2 2 0 104.001-.001A2 2 0 0096 26zM0 50a2 2 0 104.001-.001A2 2 0 000 50zM24 50a2 2 0 104.001-.001A2 2 0 0024 50zM48 50a2 2 0 104.001-.001A2 2 0 0048 50zM72 50a2 2 0 104.001-.001A2 2 0 0072 50zM96 50a2 2 0 104.001-.001A2 2 0 0096 50zM0 74a2 2 0 104.001-.001A2 2 0 000 74zM24 74a2 2 0 104.001-.001A2 2 0 0024 74zM48 74a2 2 0 104.001-.001A2 2 0 0048 74zM72 74a2 2 0 104.001-.001A2 2 0 0072 74zM96 74a2 2 0 104.001-.001A2 2 0 0096 74zM0 98a2 2 0 104.001-.001A2 2 0 000 98zM24 98a2 2 0 104.001-.001A2 2 0 0024 98zM48 98a2 2 0 104.001-.001A2 2 0 0048 98zM72 98a2 2 0 104.001-.001A2 2 0 0072 98zM96 98a2 2 0 104.001-.001A2 2 0 0096 98z"/></g><path fill-rule="evenodd" clip-rule="evenodd" d="M999.259 95.197s12.031 9.714 26.711 9.714c0 0 .41 35.619-26.711 49.381a4.757 4.757 0 01-2.65 0c-27.12-13.762-26.71-49.381-26.71-49.381 14.68 0 26.71-9.714 26.71-9.714.895-.383 1.782-.404 2.65 0z" stroke="#565495" stroke-linecap="round" stroke-linejoin="round"/><path d="M1008.45 115.929l-14.473 14.019-6.556-6.351" stroke="#565495" stroke-linecap="round" stroke-linejoin="round"/><path stroke="#565495" d="M949.5 75.5h97v97h-97zM886.5 172.5h63v63h-63zM226.5 154.5h97v97h-97z"/><path d="M266.712 199.169v30.057M274.604 199.169v30.057M282.498 199.169v30.057M292.362 198.959v29.391M256.847 198.959v29.391" stroke="#565495" stroke-linecap="round" stroke-linejoin="round"/><path d="M260.086 179.584h28.913M262.766 191.335h23.68M289.142 179.597c10.875 0 12.903 5.4 12.852 9.813-.05 4.412-2.966 8.831-8.897 8.831-3.955 0-6.159-3.289-6.12-6.694.031-2.724 2.281-4.957 5.025-4.987 2.195-.025 3.955 1.721 3.93 3.9M259.941 179.597c-10.875 0-12.903 5.4-12.852 9.813.05 4.412 2.966 8.831 8.897 8.831 3.955 0 6.159-3.289 6.12-6.694-.031-2.724-2.281-4.957-5.025-4.987-2.195-.025-3.955 1.721-3.93 3.9" stroke="#565495" stroke-linecap="round"/><path d="M372 107.056h-.5a.5.5 0 00.5.5v-.5zm42.056 0v.5a.5.5 0 00.5-.5h-.5zm-21.031-20.53c6.084 0 11.015-4.927 11.015-11.014h-1a10.012 10.012 0 01-10.015 10.014v1zm11.015-11.014c0-6.085-4.931-11.012-11.015-11.012v1c5.532 0 10.015 4.48 10.015 10.012h1zM393.025 64.5c-6.084 0-11.015 4.927-11.015 11.012h1c0-5.532 4.483-10.012 10.015-10.012v-1zM382.01 75.512c0 6.087 4.931 11.014 11.015 11.014v-1a10.012 10.012 0 01-10.015-10.014h-1zm11.016 15.27c-3.57 0-8.89.893-13.33 2.673-2.22.89-4.252 2.013-5.736 3.384-1.488 1.374-2.46 3.029-2.46 4.961h1c0-1.565.78-2.973 2.138-4.227 1.361-1.256 3.271-2.325 5.43-3.19 4.319-1.731 9.513-2.6 12.958-2.6v-1zM371.5 101.8v5.256h1V101.8h-1zm.5 5.756h42.056v-1H372v1zm42.556-.5V101.8h-1v5.256h1zm0-5.256c0-1.932-.972-3.587-2.46-4.961-1.485-1.37-3.516-2.495-5.737-3.385-4.44-1.779-9.76-2.671-13.333-2.671v1c3.448 0 8.642.869 12.961 2.6 2.16.865 4.069 1.934 5.431 3.19 1.358 1.254 2.138 2.662 2.138 4.227h1zM902 220h-.5a.5.5 0 00.5.5v-.5zm32 0v.5a.5.5 0 00.5-.5h-.5zm-16.002-15.501a8.498 8.498 0 008.501-8.5h-1c0 4.145-3.357 7.5-7.501 7.5v1zm8.501-8.5a8.498 8.498 0 00-8.501-8.499v1a7.498 7.498 0 017.501 7.499h1zm-8.501-8.499a8.498 8.498 0 00-8.5 8.499h1a7.497 7.497 0 017.5-7.499v-1zm-8.5 8.499c0 4.697 3.805 8.5 8.5 8.5v-1a7.498 7.498 0 01-7.5-7.5h-1zm8.501 11.499c-2.732 0-6.795.683-10.188 2.042-1.696.68-3.257 1.542-4.401 2.598-1.148 1.06-1.91 2.349-1.91 3.863h1c0-1.147.57-2.188 1.588-3.128 1.022-.943 2.46-1.749 4.095-2.405 3.273-1.311 7.209-1.97 9.816-1.97v-1zm-16.499 8.503V220h1v-3.999h-1zm.5 4.499h32v-1h-32v1zm32.5-.5v-3.999h-1V220h1zm0-3.999c0-1.514-.762-2.803-1.91-3.863-1.144-1.056-2.705-1.918-4.402-2.598-3.393-1.359-7.456-2.042-10.189-2.042v1c2.608 0 6.545.659 9.817 1.97 1.636.656 3.074 1.462 4.096 2.405 1.018.94 1.588 1.981 1.588 3.128h1z" fill="#565495"/><path fill-rule="evenodd" clip-rule="evenodd" d="M852 46h18V28h-18v18zM723 252v0c-4.969 0-9-4.031-9-9s4.031-9 9-9 9 4.031 9 9-4.031 9-9 9zM292 57.8h-18l9-16.8 9 16.8z" stroke="#565495" stroke-linecap="round" stroke-linejoin="round"/><path d="M430.463 195.032c.369-.8 1.505-.8 1.874 0l2.037 4.416c.151.326.46.551.816.593l4.83.573c.874.103 1.226 1.185.579 1.783l-3.571 3.302a1.033 1.033 0 00-.311.959l.948 4.77c.171.864-.748 1.532-1.517 1.102l-4.244-2.376a1.033 1.033 0 00-1.008 0l-4.244 2.376c-.769.43-1.688-.238-1.517-1.102l.948-4.77a1.033 1.033 0 00-.311-.959l-3.571-3.302c-.647-.598-.295-1.68.579-1.783l4.83-.573c.356-.042.665-.267.816-.593l2.037-4.416z" stroke="#565495"/></svg>