<svg width="326" height="277" fill="none" xmlns="http://www.w3.org/2000/svg"><path fill-rule="evenodd" clip-rule="evenodd" d="M213.5 210s11.5 11.264 11.5 19.948c0 6.656-5.149 12.052-11.5 12.052s-11.5-5.396-11.5-12.052c0-8.769 11.5-19.948 11.5-19.948z" stroke="#FF3050" stroke-width="2.9"/><path fill-rule="evenodd" clip-rule="evenodd" d="M150 258s6 5.632 6 9.974c0 3.328-2.686 6.026-6 6.026s-6-2.698-6-6.026c0-4.384 6-9.974 6-9.974z" stroke="#42A6DD" stroke-width="2.9"/><path fill-rule="evenodd" clip-rule="evenodd" d="M215.925 12c0 5.523-4.461 10-9.963 10-5.501 0-9.962-4.477-9.962-10 0-5.522 4.461-10 9.962-10 5.502 0 9.963 4.478 9.963 10z" stroke="#FF3050" stroke-width="2.898" stroke-linejoin="round"/><path d="M157 85.358L172.3 60l15.297 25.358" stroke="#96DAFF" stroke-width="2.898" stroke-linecap="round" stroke-linejoin="round"/><path d="M120 66.667L224.604 40" stroke="#42A6DD" stroke-width="2.898" stroke-linecap="round" stroke-linejoin="round"/><path fill-rule="evenodd" clip-rule="evenodd" d="M102.962 70c0 2.76-2.231 5-4.98 5C95.231 75 93 72.76 93 70s2.231-5 4.981-5 4.981 2.24 4.981 5zM145.962 51c0 2.76-2.231 5-4.981 5-2.749 0-4.981-2.24-4.981-5s2.232-5 4.981-5c2.75 0 4.981 2.24 4.981 5zM130.962 54c0 2.76-2.231 5-4.981 5-2.749 0-4.981-2.24-4.981-5s2.232-5 4.981-5c2.75 0 4.981 2.24 4.981 5z" stroke="#96DAFF" stroke-width="2.898" stroke-linejoin="round"/><path d="M27.878 269.542l22.881-24.63-9.854-.333-.58-8.506-7.873-.041-1.945-9.87L7.131 251.43" stroke="#42A6DD" stroke-width="2.898" stroke-linejoin="round"/><path fill-rule="evenodd" clip-rule="evenodd" d="M27.51 270.309c-2.06 2.225-8.3-.158-13.936-5.323-5.638-5.167-8.539-11.159-6.478-13.383 2.058-2.226 8.298.154 13.936 5.321 5.636 5.166 8.536 11.159 6.478 13.385z" stroke="#FF3050" stroke-width="2.898" stroke-linejoin="round"/><path d="M299.308 171.02l-25.33 22.102 9.765 1.362-.312 8.52 7.825.864.903 10.019 25.889-22.686" stroke="#42A6DD" stroke-width="2.898" stroke-linejoin="round"/><path fill-rule="evenodd" clip-rule="evenodd" d="M299.755 170.295c2.281-1.997 8.237 1.024 13.302 6.751 5.067 5.728 7.326 11.99 5.044 13.987-2.28 1.998-8.237-1.021-13.304-6.749-5.065-5.727-7.323-11.99-5.042-13.989z" stroke="#96DAFF" stroke-width="2.898" stroke-linejoin="round"/><path fill-rule="evenodd" clip-rule="evenodd" d="M105.557 236.944l-3.287.462-.941-6.695-12.557 1.765-.384-2.733 8.94-18.585 4.516-.635 2.366 16.835 3.724-.524.406 2.892-3.723.523.94 6.695zm-4.634-9.124l-1.938-13.785-7.331 15.088 9.269-1.303z" fill="#FF3050"/><path fill-rule="evenodd" clip-rule="evenodd" d="M37.195 80.188c-7.037 2.018-11.823-4.225-13.609-10.454-1.797-6.267-1.024-14.02 6.012-16.038 6.998-2.007 11.8 4.148 13.598 10.416 1.786 6.229.997 14.07-6.001 16.076zm-.816-2.845c4.883-1.4 5.015-7.18 3.549-12.294-1.467-5.114-4.63-9.908-9.514-8.508-4.883 1.4-5.026 7.143-3.56 12.256 1.467 5.114 4.642 9.946 9.525 8.546z" fill="#96DAFF"/><path fill-rule="evenodd" clip-rule="evenodd" d="M275.757 81.053l-3.27-.576 1.174-6.658-12.487-2.202.479-2.718 14.246-14.913 4.491.792-2.952 16.742 3.703.653-.507 2.876-3.703-.653-1.174 6.657zm-1.589-10.11l2.417-13.708-11.635 12.083 9.218 1.626z" fill="#FF3050"/><path fill-rule="evenodd" clip-rule="evenodd" d="M21.31 173.829a14.555 14.555 0 01-1.426-.158c-7.888-1.278-13.257-8.768-11.991-16.73a14.645 14.645 0 012.003-5.412 12.526 12.526 0 00-6.737 9.247c-1.088 6.846 3.528 13.285 10.31 14.384a12.28 12.28 0 007.841-1.331z" stroke="#96DAFF" stroke-width="2.981" stroke-linecap="round" stroke-linejoin="round"/><path fill-rule="evenodd" clip-rule="evenodd" d="M19.721 173.462c.478.077.954.128 1.427.157a12.525 12.525 0 006.408-9.075c1.088-6.846-3.528-13.286-10.31-14.384a12.27 12.27 0 00-7.512 1.16 14.634 14.634 0 00-2.004 5.411c-1.265 7.962 4.103 15.453 11.991 16.731z" stroke="#FF3050" stroke-width="2.981" stroke-linecap="round" stroke-linejoin="round"/></svg>