<svg width="1121" height="281" fill="none" xmlns="http://www.w3.org/2000/svg"><g opacity=".6" fill-rule="evenodd" clip-rule="evenodd" fill="#726FC5"><path d="M0 183a2 2 0 104.001-.001A2 2 0 000 183zM24 183a2 2 0 104.001-.001A2 2 0 0024 183zM48 183a2 2 0 104.001-.001A2 2 0 0048 183zM72 183a2 2 0 104.001-.001A2 2 0 0072 183zM96 183a2 2 0 104.001-.001A2 2 0 0096 183zM0 207a2 2 0 104.001-.001A2 2 0 000 207zM24 207a2 2 0 104.001-.001A2 2 0 0024 207zM48 207a2 2 0 104.001-.001A2 2 0 0048 207zM72 207a2 2 0 104.001-.001A2 2 0 0072 207zM96 207a2 2 0 104.001-.001A2 2 0 0096 207zM0 231a2 2 0 104.001-.001A2 2 0 000 231zM24 231a2 2 0 104.001-.001A2 2 0 0024 231zM48 231a2 2 0 104.001-.001A2 2 0 0048 231zM72 231a2 2 0 104.001-.001A2 2 0 0072 231zM96 231a2 2 0 104.001-.001A2 2 0 0096 231zM0 255a2 2 0 104.001-.001A2 2 0 000 255zM24 255a2 2 0 104.001-.001A2 2 0 0024 255zM48 255a2 2 0 104.001-.001A2 2 0 0048 255zM72 255a2 2 0 104.001-.001A2 2 0 0072 255zM96 255a2 2 0 104.001-.001A2 2 0 0096 255zM0 279a2 2 0 104.001-.001A2 2 0 000 279zM24 279a2 2 0 104.001-.001A2 2 0 0024 279zM48 279a2 2 0 104.001-.001A2 2 0 0048 279zM72 279a2 2 0 104.001-.001A2 2 0 0072 279zM96 279a2 2 0 104.001-.001A2 2 0 0096 279z"/></g><g opacity=".6" fill-rule="evenodd" clip-rule="evenodd" fill="#726FC5"><path d="M913 159a2 2 0 104.001-.001A2 2 0 00913 159zM937 159a2 2 0 104.001-.001A2 2 0 00937 159zM961 159a2 2 0 104.001-.001A2 2 0 00961 159zM985 159a2 2 0 104.001-.001A2 2 0 00985 159zM1009 159c0 1.104.9 2 2 2s2-.896 2-2-.9-2-2-2-2 .896-2 2zM913 183a2 2 0 104.001-.001A2 2 0 00913 183zM937 183a2 2 0 104.001-.001A2 2 0 00937 183zM961 183a2 2 0 104.001-.001A2 2 0 00961 183zM985 183a2 2 0 104.001-.001A2 2 0 00985 183zM1009 183c0 1.104.9 2 2 2s2-.896 2-2-.9-2-2-2-2 .896-2 2zM913 207a2 2 0 104.001-.001A2 2 0 00913 207zM937 207a2 2 0 104.001-.001A2 2 0 00937 207zM961 207a2 2 0 104.001-.001A2 2 0 00961 207zM985 207a2 2 0 104.001-.001A2 2 0 00985 207zM1009 207c0 1.104.9 2 2 2s2-.896 2-2-.9-2-2-2-2 .896-2 2zM913 231a2 2 0 104.001-.001A2 2 0 00913 231zM937 231a2 2 0 104.001-.001A2 2 0 00937 231zM961 231a2 2 0 104.001-.001A2 2 0 00961 231zM985 231a2 2 0 104.001-.001A2 2 0 00985 231zM1009 231c0 1.104.9 2 2 2s2-.896 2-2-.9-2-2-2-2 .896-2 2zM913 255a2 2 0 104.001-.001A2 2 0 00913 255zM937 255a2 2 0 104.001-.001A2 2 0 00937 255zM961 255a2 2 0 104.001-.001A2 2 0 00961 255zM985 255a2 2 0 104.001-.001A2 2 0 00985 255zM1009 255c0 1.104.9 2 2 2s2-.896 2-2-.9-2-2-2-2 .896-2 2z"/></g><path d="M144 101.631h-.5a.5.5 0 00.5.5v-.5zm23.262 0v.5a.5.5 0 00.5-.5h-.5zm-11.631-12.466c3.49 0 6.317-2.834 6.317-6.334h-1c0 2.95-2.382 5.334-5.317 5.334v1zm6.317-6.334c0-3.496-2.827-6.331-6.317-6.331v1a5.324 5.324 0 015.317 5.332h1zm-6.317-6.331c-3.49 0-6.317 2.835-6.317 6.332h1a5.324 5.324 0 015.317-5.332v-1zm-6.317 6.332c0 3.499 2.827 6.334 6.317 6.334v-1c-2.935 0-5.317-2.385-5.317-5.334h-1zm6.317 9.549c-2.003 0-4.974.5-7.457 1.498-1.242.499-2.393 1.135-3.242 1.92-.852.79-1.432 1.763-1.432 2.916h1c0-.787.389-1.513 1.111-2.182.726-.671 1.755-1.252 2.936-1.726 2.362-.95 5.206-1.426 7.084-1.426v-1zM143.5 98.715v2.916h1v-2.916h-1zm.5 3.416h23.262v-1H144v1zm23.762-.5v-2.916h-1v2.916h1zm0-2.916c0-1.153-.58-2.127-1.432-2.915-.848-.786-2-1.422-3.242-1.921-2.482-.998-5.454-1.498-7.457-1.498v1c1.878 0 4.722.477 7.085 1.426 1.18.474 2.209 1.055 2.935 1.726.722.669 1.111 1.395 1.111 2.182h1zM830 56.63h-.5a.5.5 0 00.5.5v-.5zm23.262 0v.5a.5.5 0 00.5-.5h-.5zm-11.631-12.465c3.49 0 6.317-2.834 6.317-6.334h-1c0 2.95-2.382 5.334-5.317 5.334v1zm6.317-6.334c0-3.497-2.827-6.331-6.317-6.331v1a5.324 5.324 0 015.317 5.331h1zm-6.317-6.331c-3.49 0-6.317 2.834-6.317 6.331h1a5.324 5.324 0 015.317-5.331v-1zm-6.317 6.331c0 3.5 2.827 6.334 6.317 6.334v-1c-2.935 0-5.317-2.384-5.317-5.334h-1zm6.317 9.55c-2.003 0-4.974.5-7.457 1.498-1.242.499-2.393 1.135-3.242 1.92-.852.79-1.432 1.763-1.432 2.916h1c0-.787.389-1.513 1.111-2.182.726-.672 1.755-1.252 2.936-1.726 2.362-.95 5.206-1.426 7.084-1.426v-1zM829.5 53.715v2.916h1v-2.916h-1zm.5 3.416h23.262v-1H830v1zm23.762-.5v-2.916h-1v2.916h1zm0-2.916c0-1.153-.58-2.127-1.432-2.915-.848-.786-2-1.422-3.242-1.921-2.482-.998-5.454-1.498-7.457-1.498v1c1.878 0 4.722.477 7.085 1.426 1.18.474 2.209 1.054 2.935 1.726.722.669 1.111 1.395 1.111 2.182h1z" fill="#565495"/><path fill-rule="evenodd" clip-rule="evenodd" d="M1081.37 212.288c-.08-.81-.12-1.63-.12-2.461 0-13.716 11.13-24.839 24.85-24.839 3.42 0 6.68.692 9.64 1.94-3.87-5.404-10.21-8.928-17.37-8.928-11.8 0-21.37 9.558-21.37 21.352 0 4.865 1.63 9.346 4.37 12.936z" stroke="#565495" stroke-linejoin="round"/><path fill-rule="evenodd" clip-rule="evenodd" d="M1081.25 209.828c0 .829.04 1.651.12 2.461 3.91 5.114 10.06 8.418 17 8.418 11.8 0 21.37-9.561 21.37-21.354 0-4.635-1.48-8.923-3.99-12.425a24.87 24.87 0 00-9.65-1.939c-13.73 0-24.85 11.121-24.85 24.839z" stroke="#565495" stroke-linejoin="round"/><path d="M222 239l-13.765 14-6.235-6.342" stroke="#565495" stroke-linecap="round" stroke-linejoin="round"/><path fill-rule="evenodd" clip-rule="evenodd" d="M212 265c11.046 0 20-8.954 20-20s-8.954-20-20-20-20 8.954-20 20 8.954 20 20 20z" stroke="#565495"/><path d="M785 238a4 4 0 014-4h35a4 4 0 014 4v22.4a4 4 0 01-4 4h-28.048a4 4 0 00-2.49.869l-6.84 5.441a1 1 0 01-1.622-.783V238z" stroke="#565495"/><rect x="795" y="243" width="14" height="12" rx="2" stroke="#565495"/><path d="M811.413 250.429l3.657 3.657c1.26 1.26 3.414.367 3.414-1.414v-7.314c0-1.782-2.154-2.674-3.414-1.414l-3.657 3.657a2 2 0 000 2.828z" stroke="#565495"/><path fill-rule="evenodd" clip-rule="evenodd" d="M1019.22 58.88h-26.548A3.67 3.67 0 01989 55.213V11.667A3.67 3.67 0 01992.672 8h30.128c2.03 0 3.67 1.642 3.67 3.667v43.516a3.708 3.708 0 01-3.7 3.698h-3.55z" stroke="#565495" stroke-linecap="round" stroke-linejoin="round"/><path fill-rule="evenodd" clip-rule="evenodd" d="M1016.91 42.143a5.88 5.88 0 01-5.88 5.882 5.888 5.888 0 01-5.89-5.882 5.888 5.888 0 015.89-5.882 5.88 5.88 0 015.88 5.882z" stroke="#565495" stroke-linecap="round" stroke-linejoin="round"/><path fill-rule="evenodd" clip-rule="evenodd" d="M1009.56 45.19a5.888 5.888 0 01-5.89 5.881 5.882 5.882 0 110-11.763c3.25 0 5.89 2.633 5.89 5.882z" stroke="#565495" stroke-linecap="round" stroke-linejoin="round"/><path d="M997.004 17.085h21.476M997.004 22.608h16.606M997.004 28.128h19.926M93.471 59.633c0-5.233-3.762-7.782-10.342-7.782H59.672A3.67 3.67 0 0156 48.183V4.669A3.67 3.67 0 0159.672 1H89.8a3.67 3.67 0 013.672 3.669v54.246" stroke="#565495" stroke-linecap="round" stroke-linejoin="round"/><path fill-rule="evenodd" clip-rule="evenodd" d="M70.374 10.393a5.793 5.793 0 015.796 5.79 5.792 5.792 0 01-5.796 5.79h-5.716V10.396l5.716-.003z" stroke="#565495" stroke-linecap="round" stroke-linejoin="round"/><path d="M64.137 29.39h16.606M64.137 34.912h19.927M64.137 40.48h9.667" stroke="#565495" stroke-linecap="round" stroke-linejoin="round"/><path fill-rule="evenodd" clip-rule="evenodd" d="M266.425 69.704l-12.728-12.728 18.243-5.516-5.515 18.244z" stroke="#565495" stroke-linecap="round" stroke-linejoin="round"/></svg>