<svg width="1661" height="226" viewBox="0 0 1661 226" fill="none" xmlns="http://www.w3.org/2000/svg">
<rect x="428.603" y="103.055" width="35.4979" height="140.531" rx="1.59005" transform="rotate(-60.25 428.603 103.055)" stroke="#3A3862" stroke-width="2.20619"/>
<path d="M459.342 81.6874L448.651 100.393" stroke="#3A3862" stroke-width="2.20619" stroke-linecap="square"/>
<path d="M469.363 85.8639L464.017 95.2167" stroke="#3A3862" stroke-width="2.20619" stroke-linecap="square"/>
<path d="M488.068 96.5552L482.723 105.908" stroke="#3A3862" stroke-width="2.20619" stroke-linecap="square"/>
<path d="M506.773 107.246L501.428 116.599" stroke="#3A3862" stroke-width="2.20619" stroke-linecap="square"/>
<path d="M526.648 118.605L521.303 127.958" stroke="#3A3862" stroke-width="2.20619" stroke-linecap="square"/>
<path d="M545.354 129.296L540.008 138.649" stroke="#3A3862" stroke-width="2.20619" stroke-linecap="square"/>
<path d="M478.047 92.3787L467.356 111.084" stroke="#3A3862" stroke-width="2.20619" stroke-linecap="square"/>
<path d="M496.753 103.07L486.062 121.775" stroke="#3A3862" stroke-width="2.20619" stroke-linecap="square"/>
<path d="M515.458 113.761L504.767 132.466" stroke="#3A3862" stroke-width="2.20619" stroke-linecap="square"/>
<path d="M534.163 124.452L523.472 143.157" stroke="#3A3862" stroke-width="2.20619" stroke-linecap="square"/>
<path d="M552.869 135.143L542.178 153.849" stroke="#3A3862" stroke-width="2.20619" stroke-linecap="square"/>
<path d="M524.023 56.0105L551.177 73.4763C553.166 74.756 553.742 77.4062 552.462 79.3957L492.069 173.288C491.584 174.041 490.58 174.259 489.827 173.774L458.197 153.43C457.444 152.945 457.226 151.941 457.71 151.188L518.104 57.2957C519.383 55.3062 522.034 54.7308 524.023 56.0105Z" fill="#1B212D" stroke="#3A3862" stroke-width="2.20619"/>
<path d="M530.735 60.2055L551.231 73.3887C553.22 74.6684 553.796 77.3186 552.516 79.3082L492.123 173.2C491.638 173.954 490.634 174.172 489.881 173.687L467.147 159.064L530.735 60.2055Z" fill="#1B212D" stroke="#3A3862" stroke-width="2.20619"/>
<path fill-rule="evenodd" clip-rule="evenodd" d="M458.281 188.806L490.52 175.231C491.025 175.018 491.085 174.326 490.624 174.03L458.315 153.248C457.854 152.951 457.249 153.293 457.265 153.841L458.281 188.806Z" fill="#1B212D" stroke="#3A3862" stroke-width="2.20619"/>
<path fill-rule="evenodd" clip-rule="evenodd" d="M458.281 188.806L470.634 183.813L457.702 175.496L458.281 188.806Z" fill="#1B212D" stroke="#3A3862" stroke-width="2.20619"/>
<path d="M349.536 127.35L263.172 153.144C260.27 154.011 257.187 152.346 256.321 149.445L223.847 40.7181C222.98 37.8166 224.645 34.7337 227.547 33.8669L313.911 8.07254C316.812 7.20574 319.895 8.87154 320.762 11.772L353.235 120.498C354.102 123.4 352.437 126.483 349.536 127.35" stroke="#3A3862" stroke-width="2.20619"/>
<path fill-rule="evenodd" clip-rule="evenodd" d="M360.392 135.761L273.098 158.204C270.165 158.958 267.148 157.175 266.394 154.242L238.139 44.3445C237.385 41.4116 239.168 38.3951 242.101 37.6422L329.395 15.1981C332.328 14.444 335.344 16.2264 336.099 19.1593L364.353 129.057C365.107 131.99 363.325 135.007 360.392 135.761" fill="#1B212D"/>
<path d="M360.392 135.761L273.098 158.204C270.165 158.958 267.148 157.175 266.394 154.242L238.139 44.3445C237.385 41.4116 239.168 38.3951 242.101 37.6422L329.395 15.1981C332.328 14.444 335.344 16.2264 336.099 19.1593L364.353 129.057C365.107 131.99 363.325 135.007 360.392 135.761" stroke="#3A3862" stroke-width="2.20619"/>
<path d="M261.132 56.0835L268.97 60.662" stroke="#3A3862" stroke-width="2.20619"/>
<path d="M267.34 54.4532L262.761 62.2921" stroke="#3A3862" stroke-width="2.20619"/>
<path fill-rule="evenodd" clip-rule="evenodd" d="M327.289 40.5343L280.536 53.2485L280.009 51.9959L326.762 39.2814L327.289 40.5343Z" fill="#3A3862"/>
<path d="M266.451 78.0108L274.29 82.5893" stroke="#3A3862" stroke-width="2.20619"/>
<path d="M272.66 76.3809L268.081 84.2197" stroke="#3A3862" stroke-width="2.20619"/>
<path fill-rule="evenodd" clip-rule="evenodd" d="M332.591 62.4664L285.839 75.1808L285.311 73.9281L332.064 61.2136L332.591 62.4664Z" fill="#3A3862"/>
<path d="M272.137 101.781L279.976 106.36" stroke="#3A3862" stroke-width="2.20619"/>
<path d="M278.345 100.151L273.767 107.99" stroke="#3A3862" stroke-width="2.20619"/>
<path fill-rule="evenodd" clip-rule="evenodd" d="M338.252 86.2429L291.5 98.9574L290.973 97.7046L337.725 84.9902L338.252 86.2429Z" fill="#3A3862"/>
<path d="M285.806 122.932L282.198 130.278L277.48 127.51" stroke="#3A3862" stroke-width="2.20619"/>
<path fill-rule="evenodd" clip-rule="evenodd" d="M344.916 109.815L298.163 122.53L297.636 121.277L344.389 108.563L344.916 109.815Z" fill="#3A3862"/>
<path d="M1380.87 101.386L1360.16 205.481" stroke="#3A3862" stroke-width="2.20619"/>
<path d="M1397.6 146.228L1348.25 136.411" stroke="#3A3862" stroke-width="2.20619"/>
<path fill-rule="evenodd" clip-rule="evenodd" d="M1404.66 121.423L1350.77 110.703C1348.3 110.213 1346.68 107.792 1347.17 105.324L1352.46 78.7423C1352.95 76.2746 1355.37 74.6571 1357.84 75.148L1411.73 85.8676C1414.2 86.3585 1415.82 88.7792 1415.33 91.247L1410.04 117.829C1409.55 120.297 1407.13 121.914 1404.66 121.423" fill="#1B212D"/>
<path d="M1404.66 121.423L1350.77 110.703C1348.3 110.213 1346.68 107.792 1347.17 105.324L1352.46 78.7423C1352.95 76.2746 1355.37 74.6571 1357.84 75.148L1411.73 85.8676C1414.2 86.3585 1415.82 88.7792 1415.33 91.247L1410.04 117.829C1409.55 120.297 1407.13 121.914 1404.66 121.423" stroke="#3A3862" stroke-width="2.20619"/>
<path fill-rule="evenodd" clip-rule="evenodd" d="M1355.04 153.97L1301.15 143.251C1298.68 142.76 1297.06 140.339 1297.55 137.871L1301.84 116.335C1302.33 113.867 1304.75 112.249 1307.22 112.74L1361.11 123.46C1363.58 123.951 1365.19 126.372 1364.7 128.839L1360.42 150.376C1359.93 152.844 1357.51 154.461 1355.04 153.97" fill="#1B212D"/>
<path d="M1355.04 153.97L1301.15 143.251C1298.68 142.76 1297.06 140.339 1297.55 137.871L1301.84 116.335C1302.33 113.867 1304.75 112.249 1307.22 112.74L1361.11 123.46C1363.58 123.951 1365.19 126.372 1364.7 128.839L1360.42 150.376C1359.93 152.844 1357.51 154.461 1355.04 153.97" stroke="#3A3862" stroke-width="2.20619"/>
<path fill-rule="evenodd" clip-rule="evenodd" d="M1437.15 170.303L1385.35 160C1382.88 159.509 1381.26 157.088 1381.76 154.62L1386.04 133.084C1386.53 130.616 1388.95 128.998 1391.42 129.489L1443.22 139.793C1445.69 140.283 1447.3 142.704 1446.81 145.172L1442.53 166.709C1442.04 169.176 1439.62 170.794 1437.15 170.303" fill="#1B212D"/>
<path d="M1437.15 170.303L1385.35 160C1382.88 159.509 1381.26 157.088 1381.76 154.62L1386.04 133.084C1386.53 130.616 1388.95 128.998 1391.42 129.489L1443.22 139.793C1445.69 140.283 1447.3 142.704 1446.81 145.172L1442.53 166.709C1442.04 169.176 1439.62 170.794 1437.15 170.303" stroke="#3A3862" stroke-width="2.20619"/>
<path fill-rule="evenodd" clip-rule="evenodd" d="M1351.98 138.274L1310.65 130.053L1311.05 128.067L1352.38 136.288L1351.98 138.274Z" fill="#3A3862"/>
<path fill-rule="evenodd" clip-rule="evenodd" d="M1401.56 102.98L1360.24 94.7593L1360.63 92.7733L1401.96 100.994L1401.56 102.98Z" fill="#3A3862"/>
<path fill-rule="evenodd" clip-rule="evenodd" d="M1434.85 154.523L1393.52 146.303L1393.91 144.317L1435.24 152.537L1434.85 154.523Z" fill="#3A3862"/>
<path d="M1230.26 41.0347C1232.91 45.7046 1234.93 50.5732 1236.12 54.6996" stroke="#3A3862" stroke-width="2.20619" stroke-linecap="round" stroke-linejoin="round"/>
<path d="M1236.12 54.7021C1238.31 62.2955 1238.66 70.1195 1237.46 77.7232C1236.27 85.3236 1233.53 92.708 1229.53 99.4095C1227.52 102.776 1224.95 105.986 1222.06 108.878C1219.16 111.766 1215.94 114.341 1212.63 116.425C1211.23 117.307 1209.64 117.976 1208.07 118.657C1206.5 119.339 1204.95 120.033 1203.63 120.963C1202.97 122.053 1202.62 123.761 1202.36 125.515C1202.1 127.273 1201.94 129.082 1201.68 130.37C1201.43 132.315 1201.09 137.039 1200.11 141.261C1199.13 145.484 1197.49 149.199 1194.64 149.114C1193.57 149.621 1191.91 149.796 1190.22 149.894C1188.53 149.984 1186.81 149.998 1185.66 150.167C1185.43 150.205 1183.2 150.739 1181.49 150.953L1169.89 152.988C1165.83 153.523 1161.59 153.691 1158.37 154.05C1156.35 154.269 1154.35 154.527 1152.35 154.799C1150.35 155.075 1148.35 155.365 1146.34 155.662C1146.28 155.671 1144.21 156.094 1142.66 156.163C1142.66 156.163 1139.31 155.522 1138.82 152.729C1138.47 150.689 1139.13 147.88 1139.37 146.632C1139.78 144.488 1140.23 142.355 1140.68 140.219C1141.14 138.083 1141.6 135.949 1142.04 133.808C1142.13 133.144 1142.76 131.083 1143.21 129.087C1143.66 127.087 1143.93 125.15 1143.3 124.74C1143.05 124.58 1141.53 124.265 1140.16 123.911L1130.92 122.552C1127.84 121.864 1124.68 120.911 1123.47 120.619C1120.3 120.395 1118.96 118.901 1118.55 116.893" stroke="#3A3862" stroke-width="2.20619" stroke-linecap="round" stroke-linejoin="round"/>
<path d="M1230.26 41.0351C1229.58 39.8397 1224.1 32.5662 1223.12 31.5912C1223.12 31.5912 1218.92 27.3972 1217.27 26.0578C1216.22 25.2006 1212.31 22.7996 1212.31 22.7996" stroke="#3A3862" stroke-width="2.20619" stroke-linecap="round" stroke-linejoin="round"/>
<path d="M1212.31 22.8009C1211.33 22.2516 1210.29 21.7869 1209.74 21.5545C1208.17 20.7099 1206.84 19.7446 1205.53 19.2349L1201.88 17.68C1201.04 17.2825 1199.6 17.0579 1198.7 16.785C1197.33 16.3615 1195.86 15.9621 1194.36 15.6343C1192.87 15.3108 1191.37 15.0514 1189.94 14.9095C1188.14 14.7237 1185.26 14.2489 1182.53 14.158L1171.54 15.9423C1168.94 16.3964 1166.02 17.0316 1165.19 17.314C1162.71 18.1553 1160.3 19.2072 1157.98 20.4219C1155.66 21.6367 1153.41 23.0084 1151.25 24.4772C1147.24 27.2107 1143.76 30.4162 1140.72 34.0129C1137.69 37.6139 1135.11 41.6034 1132.93 45.915C1132.1 47.5463 1131.52 49.2182 1130.88 50.8655C1130.24 52.5085 1129.55 54.1183 1128.5 55.6346C1127.06 57.7118 1125.33 59.5684 1123.6 61.4293C1121.88 63.2867 1120.16 65.1398 1118.73 67.2196C1117.6 68.6447 1116.04 70.0123 1114.6 71.4514C1113.17 72.8913 1111.84 74.4019 1111.17 76.1038C1110.63 77.4822 1111.05 79.5482 1111.93 81.0061L1117.38 86.0691C1119.02 87.5792 1121.09 89.0726 1121.84 89.7774C1122.84 92.4373 1122.52 95.3811 1121.87 98.3525C1121.22 101.319 1120.23 104.32 1119.89 107.092C1119.38 109.509 1118.33 112.751 1118.38 115.462C1118.39 115.96 1118.45 116.435 1118.55 116.893" stroke="#3A3862" stroke-width="2.20619" stroke-linecap="round" stroke-linejoin="round"/>
<mask id="path-46-inside-1" fill="white">
<path fill-rule="evenodd" clip-rule="evenodd" d="M1207.39 40.6909L1195.07 34.8835L1192.75 39.8091C1191.41 39.5493 1190.03 39.3876 1188.62 39.3322C1187.18 39.2757 1185.76 39.332 1184.37 39.4932L1182.44 34.3872L1169.71 39.2105L1171.68 44.4132C1169.56 45.9343 1167.67 47.7532 1166.06 49.8115L1160.91 47.4891L1155.31 59.9019L1160.65 62.3047C1160.49 63.3408 1160.38 64.3972 1160.34 65.4705C1160.28 66.9624 1160.34 68.4309 1160.52 69.8666L1154.94 71.9786L1159.77 84.7096L1165.51 82.5339C1166.87 84.3987 1168.45 86.087 1170.23 87.5549L1167.59 93.1668L1179.9 98.9741L1182.57 93.3124C1183.84 93.5474 1185.15 93.6945 1186.48 93.7468C1187.78 93.7979 1189.06 93.7568 1190.32 93.6293L1192.54 99.4708L1205.27 94.6475L1203.09 88.8982C1205.13 87.4806 1206.96 85.7909 1208.54 83.8795L1214.07 86.3687L1219.66 73.9559L1214.31 71.5481C1214.55 70.2657 1214.7 68.9503 1214.75 67.6085C1214.8 66.3594 1214.77 65.1266 1214.65 63.9158L1220.03 61.8791L1215.2 49.148L1209.99 51.1227C1208.59 49.0908 1206.93 47.2556 1205.04 45.6706L1207.39 40.6909Z"/>
</mask>
<path d="M1195.07 34.8835L1193.08 33.9424L1194.02 31.947L1196.01 32.8881L1195.07 34.8835ZM1207.39 40.6909L1208.33 38.6955L1210.32 39.6365L1209.38 41.632L1207.39 40.6909ZM1192.75 39.8091L1194.75 40.7502L1194.01 42.3007L1192.33 41.9752L1192.75 39.8091ZM1184.37 39.4932L1184.63 41.6846L1182.92 41.8831L1182.31 40.2748L1184.37 39.4932ZM1182.44 34.3872L1181.65 32.3241L1183.72 31.5424L1184.5 33.6055L1182.44 34.3872ZM1169.71 39.2105L1167.64 39.9922L1166.86 37.9291L1168.92 37.1474L1169.71 39.2105ZM1171.68 44.4132L1173.74 43.6315L1174.34 45.2163L1172.96 46.205L1171.68 44.4132ZM1166.06 49.8115L1167.8 51.1682L1166.73 52.5347L1165.15 51.823L1166.06 49.8115ZM1160.91 47.4891L1158.89 46.583L1159.8 44.5714L1161.81 45.4776L1160.91 47.4891ZM1155.31 59.9019L1154.41 61.9134L1152.4 61.0073L1153.3 58.9958L1155.31 59.9019ZM1160.65 62.3047L1161.55 60.2931L1163.09 60.9837L1162.83 62.645L1160.65 62.3047ZM1160.52 69.8666L1162.71 69.5997L1162.92 71.3168L1161.3 71.9297L1160.52 69.8666ZM1154.94 71.9786L1152.88 72.7602L1152.1 70.6971L1154.16 69.9155L1154.94 71.9786ZM1159.77 84.7096L1160.55 86.7727L1158.49 87.5544L1157.7 85.4913L1159.77 84.7096ZM1165.51 82.5339L1164.73 80.4708L1166.3 79.8739L1167.29 81.2368L1165.51 82.5339ZM1170.23 87.5549L1171.64 85.8532L1172.96 86.9448L1172.23 88.4959L1170.23 87.5549ZM1167.59 93.1668L1166.64 95.1622L1164.65 94.2211L1165.59 92.2257L1167.59 93.1668ZM1179.9 98.9741L1181.89 99.9152L1180.95 101.911L1178.96 100.97L1179.9 98.9741ZM1182.57 93.3124L1180.57 92.3713L1181.3 90.8343L1182.97 91.1429L1182.57 93.3124ZM1190.32 93.6293L1190.1 91.4344L1191.79 91.2638L1192.39 92.8477L1190.32 93.6293ZM1192.54 99.4708L1193.32 101.534L1191.25 102.316L1190.47 100.252L1192.54 99.4708ZM1205.27 94.6475L1207.33 93.8658L1208.11 95.9289L1206.05 96.7105L1205.27 94.6475ZM1203.09 88.8982L1201.03 89.6798L1200.42 88.0708L1201.83 87.0876L1203.09 88.8982ZM1208.54 83.8795L1206.84 82.4733L1207.91 81.177L1209.45 81.868L1208.54 83.8795ZM1214.07 86.3687L1216.08 87.2749L1215.17 89.2864L1213.16 88.3803L1214.07 86.3687ZM1219.66 73.9559L1220.57 71.9444L1222.58 72.8505L1221.67 74.862L1219.66 73.9559ZM1214.31 71.5481L1213.41 73.5596L1211.83 72.8482L1212.15 71.1451L1214.31 71.5481ZM1214.65 63.9158L1212.46 64.1256L1212.3 62.4493L1213.87 61.8527L1214.65 63.9158ZM1220.03 61.8791L1222.09 61.0974L1222.87 63.1605L1220.81 63.9421L1220.03 61.8791ZM1215.2 49.148L1214.42 47.0849L1216.49 46.3033L1217.27 48.3664L1215.2 49.148ZM1209.99 51.1227L1210.77 53.1858L1209.16 53.7989L1208.17 52.3732L1209.99 51.1227ZM1205.04 45.6706L1203.62 47.3605L1202.32 46.2674L1203.04 44.7295L1205.04 45.6706ZM1196.01 32.8881L1208.33 38.6955L1206.45 42.6863L1194.13 36.8789L1196.01 32.8881ZM1190.75 38.8681L1193.08 33.9424L1197.07 35.8246L1194.75 40.7502L1190.75 38.8681ZM1188.7 37.1278C1190.22 37.1875 1191.72 37.3621 1193.17 37.6431L1192.33 41.9752C1191.1 41.7365 1189.83 41.5877 1188.53 41.5367L1188.7 37.1278ZM1184.12 37.3017C1185.62 37.1274 1187.15 37.0667 1188.7 37.1278L1188.53 41.5367C1187.2 41.4847 1185.9 41.5365 1184.63 41.6846L1184.12 37.3017ZM1184.5 33.6055L1186.43 38.7115L1182.31 40.2748L1180.37 35.1688L1184.5 33.6055ZM1168.92 37.1474L1181.65 32.3241L1183.22 36.4502L1170.49 41.2736L1168.92 37.1474ZM1169.61 45.1948L1167.64 39.9922L1171.77 38.4289L1173.74 43.6315L1169.61 45.1948ZM1164.32 48.4547C1166.06 46.2304 1168.1 44.265 1170.39 42.6213L1172.96 46.205C1171.02 47.6036 1169.28 49.2761 1167.8 51.1682L1164.32 48.4547ZM1161.81 45.4776L1166.97 47.7999L1165.15 51.823L1160 49.5006L1161.81 45.4776ZM1153.3 58.9958L1158.89 46.583L1162.92 48.3952L1157.33 60.808L1153.3 58.9958ZM1159.74 64.3162L1154.41 61.9134L1156.22 57.8904L1161.55 60.2931L1159.74 64.3162ZM1158.14 65.3839C1158.18 64.2254 1158.29 63.0843 1158.47 61.9643L1162.83 62.645C1162.68 63.5973 1162.58 64.569 1162.54 65.5571L1158.14 65.3839ZM1158.33 70.1335C1158.14 68.581 1158.07 66.9942 1158.14 65.3839L1162.54 65.5571C1162.49 66.9305 1162.55 68.2808 1162.71 69.5997L1158.33 70.1335ZM1154.16 69.9155L1159.74 67.8035L1161.3 71.9297L1155.73 74.0417L1154.16 69.9155ZM1157.7 85.4913L1152.88 72.7602L1157.01 71.197L1161.83 83.928L1157.7 85.4913ZM1166.29 84.597L1160.55 86.7727L1158.99 82.6466L1164.73 80.4708L1166.29 84.597ZM1168.83 89.2565C1166.91 87.6703 1165.19 85.8461 1163.73 83.831L1167.29 81.2368C1168.54 82.9514 1170 84.5037 1171.64 85.8532L1168.83 89.2565ZM1165.59 92.2257L1168.24 86.6138L1172.23 88.4959L1169.58 94.1079L1165.59 92.2257ZM1178.96 100.97L1166.64 95.1622L1168.53 91.1714L1180.84 96.9787L1178.96 100.97ZM1184.56 94.2535L1181.89 99.9152L1177.9 98.033L1180.57 92.3713L1184.56 94.2535ZM1186.39 95.9513C1184.95 95.8948 1183.54 95.736 1182.17 95.4819L1182.97 91.1429C1184.14 91.3588 1185.34 91.4941 1186.56 91.5423L1186.39 95.9513ZM1190.55 95.8243C1189.18 95.9621 1187.8 96.0065 1186.39 95.9513L1186.56 91.5423C1187.76 91.5894 1188.94 91.5515 1190.1 91.4344L1190.55 95.8243ZM1190.47 100.252L1188.26 94.411L1192.39 92.8477L1194.6 98.6892L1190.47 100.252ZM1206.05 96.7105L1193.32 101.534L1191.75 97.4077L1204.49 92.5844L1206.05 96.7105ZM1205.15 88.1165L1207.33 93.8658L1203.2 95.4291L1201.03 89.6798L1205.15 88.1165ZM1210.24 85.2856C1208.53 87.3512 1206.55 89.1769 1204.35 90.7088L1201.83 87.0876C1203.7 85.7843 1205.39 84.2307 1206.84 82.4733L1210.24 85.2856ZM1213.16 88.3803L1207.64 85.891L1209.45 81.868L1214.97 84.3572L1213.16 88.3803ZM1221.67 74.862L1216.08 87.2749L1212.06 85.4626L1217.65 73.0498L1221.67 74.862ZM1215.22 69.5366L1220.57 71.9444L1218.75 75.9674L1213.41 73.5596L1215.22 69.5366ZM1216.96 67.6951C1216.9 69.1435 1216.74 70.5646 1216.48 71.9512L1212.15 71.1451C1212.36 69.9668 1212.5 68.7572 1212.55 67.5219L1216.96 67.6951ZM1216.85 63.706C1216.97 65.0151 1217.01 66.3469 1216.96 67.6951L1212.55 67.5219C1212.6 66.3719 1212.56 65.2382 1212.46 64.1256L1216.85 63.706ZM1220.81 63.9421L1215.43 65.9789L1213.87 61.8527L1219.25 59.816L1220.81 63.9421ZM1217.27 48.3664L1222.09 61.0974L1217.96 62.6607L1213.14 49.9296L1217.27 48.3664ZM1209.21 49.0596L1214.42 47.0849L1215.99 51.2111L1210.77 53.1858L1209.21 49.0596ZM1206.46 43.9808C1208.5 45.6935 1210.3 47.6764 1211.81 49.8722L1208.17 52.3732C1206.89 50.5051 1205.36 48.8177 1203.62 47.3605L1206.46 43.9808ZM1209.38 41.632L1207.03 46.6117L1203.04 44.7295L1205.39 39.7498L1209.38 41.632Z" fill="#3A3862" mask="url(#path-46-inside-1)"/>
<circle r="13.8724" transform="matrix(-0.999229 -0.0392598 -0.0392598 0.999229 1187.34 66.9615)" stroke="#3A3862" stroke-width="2.20619"/>
<path d="M1630.57 22.6528L1512.31 46.1757C1507.72 47.0886 1504.74 51.5406 1505.65 56.1194L1520.28 129.657C1521.19 134.236 1525.65 137.207 1530.24 136.294L1550.28 132.308L1566.84 140.844L1578.62 126.67L1648.49 112.771C1653.08 111.859 1656.06 107.407 1655.15 102.828L1640.53 29.2907C1639.62 24.7119 1635.16 21.7399 1630.57 22.6528" stroke="#3A3862" stroke-width="2.20619"/>
<path fill-rule="evenodd" clip-rule="evenodd" d="M1578.74 80.9144L1631.23 70.472Z" fill="#EFB2B2"/>
<path d="M1578.74 80.9144L1631.23 70.472" stroke="#3A3862" stroke-width="2.20619" stroke-linecap="round" stroke-linejoin="round"/>
<path fill-rule="evenodd" clip-rule="evenodd" d="M1581.01 92.3366L1618.63 84.8534Z" fill="#EFB2B2"/>
<path d="M1581.01 92.3366L1618.63 84.8534" stroke="#3A3862" stroke-width="2.20619" stroke-linecap="round" stroke-linejoin="round"/>
<path d="M1576.61 70.2211L1581.7 64.4254L1588.25 67.906L1593.22 62.1326L1599.89 65.5911L1604.75 59.8398L1611.52 63.276L1616.28 57.5471L1623.16 60.961" stroke="#3A3862" stroke-width="2.20619" stroke-linecap="round" stroke-linejoin="round"/>
<path d="M1554.02 73.4931C1554.96 78.2232 1551.89 82.8206 1547.16 83.7614C1542.43 84.7023 1537.83 81.6304 1536.89 76.9003C1535.95 72.1701 1539.02 67.5728 1543.75 66.632C1548.48 65.6911 1553.08 68.763 1554.02 73.4931" stroke="#3A3862" stroke-width="2.20619"/>
<path d="M1565.45 99.8166L1565.5 100.067L1536.45 105.845L1536.4 105.595C1534.8 97.5732 1540.01 89.7769 1548.04 88.1813C1556.06 86.5857 1563.85 91.795 1565.45 99.8166Z" stroke="#3A3862" stroke-width="2.20619"/>
<path fill-rule="evenodd" clip-rule="evenodd" d="M159.111 175.595L171.991 193.822L165.057 198.727L152.121 180.421L144.104 191.283L135.901 150.047L171.832 171.784L159.111 175.595Z" stroke="#3A3862" stroke-width="2.21"/>
<rect x="32.4228" y="103.643" width="49.1256" height="49.1256" transform="rotate(-56.25 32.4228 103.643)" stroke="#3A3862" stroke-width="2.21"/>
<path d="M42.8591 198.632L51.8989 139.729L99.9419 174.988L42.8591 198.632Z" stroke="#3A3862" stroke-width="2.21"/>
<path d="M159.297 129.805C162.71 146.965 152.078 163.467 135.652 166.734C119.226 170.002 103.088 158.824 99.6751 141.665C96.2619 124.506 106.894 108.003 123.32 104.736C139.746 101.469 155.884 112.646 159.297 129.805Z" stroke="#3A3862" stroke-width="2.21"/>
</svg>
