<svg width="241" height="68" fill="none" xmlns="http://www.w3.org/2000/svg"><path fill-rule="evenodd" clip-rule="evenodd" d="M126.361 1.295s12.03 9.714 26.713 9.714c0 0 .407 35.619-26.713 49.381a4.754 4.754 0 01-2.65 0c-27.12-13.762-26.71-49.38-26.71-49.38 14.68 0 26.71-9.715 26.71-9.715.894-.383 1.781-.404 2.65 0z" stroke="#565495" stroke-linecap="round" stroke-linejoin="round"/><path d="M135.55 22.028l-14.472 14.018-6.556-6.35" stroke="#565495" stroke-linecap="round" stroke-linejoin="round"/><path d="M1 41H.5a.5.5 0 00.5.5V41zm32 0v.5a.5.5 0 00.5-.5H33zM16.998 25.5c4.696 0 8.5-3.803 8.5-8.5h-1c0 4.145-3.356 7.5-7.5 7.5v1zm8.5-8.5a8.498 8.498 0 00-8.5-8.499v1c4.144 0 7.5 3.355 7.5 7.498h1zm-8.5-8.499a8.498 8.498 0 00-8.5 8.498h1a7.498 7.498 0 017.5-7.498v-1zm-8.5 8.498c0 4.698 3.805 8.501 8.5 8.501v-1a7.498 7.498 0 01-7.5-7.5h-1zm8.501 11.5c-2.732 0-6.795.682-10.188 2.042-1.696.68-3.257 1.542-4.401 2.598C1.262 34.198.5 35.487.5 37.001h1c0-1.147.57-2.188 1.588-3.128 1.022-.943 2.46-1.75 4.095-2.405 3.273-1.311 7.21-1.97 9.816-1.97v-1zM.5 37.001v4h1v-4h-1zm.5 4.5h32v-1H1v1zm32.5-.5v-4h-1v4h1zm0-4c0-1.514-.762-2.803-1.91-3.863-1.144-1.056-2.705-1.918-4.402-2.598-3.392-1.36-7.456-2.042-10.189-2.042v1c2.608 0 6.545.659 9.817 1.97 1.636.656 3.074 1.462 4.096 2.405 1.018.94 1.588 1.981 1.588 3.128h1z" fill="#565495"/><path fill-rule="evenodd" clip-rule="evenodd" d="M222 67h18V49h-18v18z" stroke="#565495" stroke-linecap="round" stroke-linejoin="round"/></svg>