<svg width="742" height="249" fill="none" xmlns="http://www.w3.org/2000/svg"><path d="M121 78.63h-.5a.5.5 0 00.5.5v-.5zm23.262 0v.5a.5.5 0 00.5-.5h-.5zm-11.631-12.465c3.49 0 6.317-2.834 6.317-6.334h-1c0 2.95-2.382 5.334-5.317 5.334v1zm6.317-6.334c0-3.497-2.827-6.331-6.317-6.331v1a5.324 5.324 0 015.317 5.331h1zm-6.317-6.331c-3.49 0-6.317 2.834-6.317 6.331h1a5.324 5.324 0 015.317-5.331v-1zm-6.317 6.331c0 3.5 2.827 6.334 6.317 6.334v-1c-2.935 0-5.317-2.384-5.317-5.334h-1zm6.317 9.55c-2.003 0-4.974.5-7.457 1.498-1.242.499-2.393 1.135-3.242 1.92-.852.79-1.432 1.763-1.432 2.916h1c0-.787.389-1.513 1.111-2.182.726-.671 1.755-1.252 2.936-1.726 2.362-.95 5.206-1.426 7.084-1.426v-1zM120.5 75.715v2.916h1v-2.916h-1zm.5 3.416h23.262v-1H121v1zm23.762-.5v-2.916h-1v2.916h1zm0-2.916c0-1.153-.58-2.127-1.432-2.915-.848-.786-2-1.422-3.242-1.921-2.482-.998-5.454-1.498-7.457-1.498v1c1.878 0 4.722.477 7.085 1.426 1.18.474 2.209 1.055 2.935 1.726.722.669 1.111 1.395 1.111 2.182h1zM571 65.63h-.5a.5.5 0 00.5.5v-.5zm23.262 0v.5a.5.5 0 00.5-.5h-.5zm-11.631-12.464c3.49 0 6.317-2.835 6.317-6.334h-1c0 2.95-2.382 5.334-5.317 5.334v1zm6.317-6.334c0-3.498-2.827-6.332-6.317-6.332v1a5.324 5.324 0 015.317 5.331h1zm-6.317-6.332c-3.49 0-6.317 2.834-6.317 6.331h1a5.324 5.324 0 015.317-5.331v-1zm-6.317 6.331c0 3.5 2.827 6.334 6.317 6.334v-1c-2.935 0-5.317-2.384-5.317-5.334h-1zm6.317 9.55c-2.003 0-4.974.5-7.457 1.498-1.242.499-2.393 1.135-3.242 1.92-.852.79-1.432 1.763-1.432 2.916h1c0-.787.389-1.513 1.111-2.182.726-.672 1.755-1.252 2.936-1.726 2.362-.95 5.206-1.426 7.084-1.426v-1zM570.5 62.715v2.916h1v-2.916h-1zm.5 3.416h23.262v-1H571v1zm23.762-.5v-2.916h-1v2.916h1zm0-2.916c0-1.153-.58-2.127-1.432-2.915-.848-.786-2-1.422-3.242-1.921-2.482-.998-5.454-1.498-7.457-1.498v1c1.878 0 4.722.477 7.085 1.426 1.18.474 2.209 1.054 2.935 1.726.722.669 1.111 1.395 1.111 2.182h1z" fill="#565495"/><path fill-rule="evenodd" clip-rule="evenodd" d="M702.37 205.288c-.079-.81-.123-1.63-.123-2.461 0-13.716 11.129-24.839 24.855-24.839 3.42 0 6.677.692 9.643 1.94-3.879-5.404-10.213-8.928-17.377-8.928-11.802 0-21.368 9.558-21.368 21.352 0 4.865 1.628 9.346 4.37 12.936z" stroke="#565495" stroke-linejoin="round"/><path fill-rule="evenodd" clip-rule="evenodd" d="M702.248 202.828c0 .829.044 1.651.124 2.461 3.904 5.114 10.061 8.418 16.997 8.418 11.802 0 21.37-9.561 21.37-21.354 0-4.635-1.482-8.923-3.993-12.425a24.82 24.82 0 00-9.643-1.939c-13.728 0-24.855 11.121-24.855 24.839z" stroke="#565495" stroke-linejoin="round"/><path d="M39 200l-13.765 14L19 207.658" stroke="#565495" stroke-linecap="round" stroke-linejoin="round"/><path fill-rule="evenodd" clip-rule="evenodd" d="M29 226c11.046 0 20-8.954 20-20s-8.954-20-20-20-20 8.954-20 20 8.954 20 20 20z" stroke="#565495"/><path d="M574 215a4 4 0 014-4h35a4 4 0 014 4v22.4a4 4 0 01-4 4h-28.048a4 4 0 00-2.49.869l-6.84 5.441a1 1 0 01-1.622-.783V215z" stroke="#565495"/><rect x="584" y="220" width="14" height="12" rx="2" stroke="#565495"/><path d="M600.413 227.429l3.657 3.657c1.26 1.26 3.414.367 3.414-1.414v-7.314c0-1.782-2.154-2.674-3.414-1.414l-3.657 3.657a2 2 0 000 2.828z" stroke="#565495"/><path fill-rule="evenodd" clip-rule="evenodd" d="M704.219 51.88h-26.547A3.67 3.67 0 01674 48.213V4.667A3.67 3.67 0 01677.672 1H707.8a3.668 3.668 0 013.671 3.667v43.516a3.71 3.71 0 01-3.7 3.698h-3.552z" stroke="#565495" stroke-linecap="round" stroke-linejoin="round"/><path fill-rule="evenodd" clip-rule="evenodd" d="M701.915 35.143a5.886 5.886 0 01-5.888 5.882 5.883 5.883 0 01-5.886-5.882 5.883 5.883 0 015.886-5.882 5.886 5.886 0 015.888 5.882z" stroke="#565495" stroke-linecap="round" stroke-linejoin="round"/><path fill-rule="evenodd" clip-rule="evenodd" d="M694.561 38.19a5.885 5.885 0 01-5.888 5.881 5.884 5.884 0 01-5.886-5.881 5.884 5.884 0 015.886-5.882 5.885 5.885 0 015.888 5.882z" stroke="#565495" stroke-linecap="round" stroke-linejoin="round"/><path d="M682.004 10.085h21.473M682.004 15.608h16.606M682.004 21.128h19.927M38.471 84.633c0-5.233-3.762-7.782-10.342-7.782H4.672A3.67 3.67 0 011 73.183V29.668A3.67 3.67 0 014.672 26H34.8a3.67 3.67 0 013.672 3.669v54.246" stroke="#565495" stroke-linecap="round" stroke-linejoin="round"/><path fill-rule="evenodd" clip-rule="evenodd" d="M15.374 35.393a5.793 5.793 0 015.796 5.79 5.792 5.792 0 01-5.796 5.79H9.658V35.396l5.716-.003z" stroke="#565495" stroke-linecap="round" stroke-linejoin="round"/><path d="M9.137 54.39h16.606M9.137 59.912h19.927M9.137 65.48h9.667" stroke="#565495" stroke-linecap="round" stroke-linejoin="round"/></svg>