<svg width="843" height="354" fill="none" xmlns="http://www.w3.org/2000/svg"><path d="M746 193h96v64h-96v-64zM842 225h-96" stroke="#565495" stroke-linecap="round" stroke-linejoin="round"/><path d="M794 193v64" stroke="#565495"/><path d="M766.093 241l2.361 2.857 6.569-5.714M814.093 207.857l2.361 2.857 6.569-5.714M815.209 244.428l6.698-6.857M815.209 237.571l6.698 6.857M767.209 212.428l6.698-6.857M767.209 205.571l6.698 6.857M73.597 305.273V253H1v100h72.597v-38.636M46.373 323.457H19.15M55.448 316.637H19.15M46.373 337.093H19.15M55.448 330.273H19.15" stroke="#565495" stroke-linecap="round" stroke-linejoin="round"/><path fill-rule="evenodd" clip-rule="evenodd" d="M60.746 327.774l-5.779 2.459 1.831-6.039 34.967-39.04a2.65 2.65 0 013.757-.202 2.69 2.69 0 01.19 3.782l-34.966 39.04z" stroke="#565495" stroke-linejoin="round"/><path d="M25.955 301.863h-.5a.5.5 0 00.5.5v-.5zm22.687 0v.5a.5.5 0 00.5-.5h-.5zm-11.343-12.001a6.175 6.175 0 006.172-6.182h-1a5.175 5.175 0 01-5.172 5.182v1zm6.172-6.182a6.175 6.175 0 00-6.172-6.18v1a5.175 5.175 0 015.172 5.18h1zm-6.172-6.18a6.175 6.175 0 00-6.172 6.18h1a5.175 5.175 0 015.172-5.18v-1zm-6.172 6.18a6.175 6.175 0 006.172 6.182v-1a5.175 5.175 0 01-5.172-5.182h-1zm6.17 9.159c-1.954 0-4.853.488-7.276 1.461-1.212.486-2.336 1.106-3.165 1.873-.833.77-1.4 1.722-1.4 2.85h1c0-.762.376-1.466 1.079-2.116.706-.653 1.708-1.217 2.858-1.679 2.303-.925 5.075-1.389 6.905-1.389v-1zm-11.842 6.184v2.84h1v-2.84h-1zm.5 3.34h22.687v-1H25.955v1zm23.187-.5v-2.84h-1v2.84h1zm0-2.84c0-1.128-.568-2.08-1.4-2.85-.83-.767-1.954-1.387-3.166-1.873-2.423-.973-5.322-1.461-7.278-1.461v1c1.83 0 4.603.464 6.905 1.389 1.151.462 2.153 1.026 2.86 1.679.702.65 1.079 1.354 1.079 2.116h1z" fill="#565495"/><path d="M624.143 257h121.999v80H624.143v-80zM746.142 318.538H624.143" stroke="#565495" stroke-linecap="round" stroke-linejoin="round"/><path d="M685.143 318.538V337" stroke="#565495"/><path d="M669.894 304.692h-.5c0 .277.223.5.5.5v-.5zm30.5 0v.5a.5.5 0 00.5-.5h-.5zm-15.25-16.424c4.492 0 8.125-3.669 8.125-8.193h-1c0 3.98-3.193 7.193-7.125 7.193v1zm8.125-8.193c0-4.522-3.633-8.191-8.125-8.191v1c3.932 0 7.125 3.214 7.125 7.191h1zm-8.125-8.191c-4.493 0-8.126 3.669-8.126 8.191h1c0-3.977 3.194-7.191 7.126-7.191v-1zm-8.126 8.191c0 4.524 3.633 8.193 8.126 8.193v-1c-3.932 0-7.126-3.213-7.126-7.193h-1zm8.125 12.577c-2.608 0-6.484.657-9.721 1.965-1.618.655-3.109 1.485-4.202 2.503-1.097 1.022-1.826 2.266-1.826 3.727h1c0-1.097.54-2.094 1.507-2.995.971-.904 2.339-1.678 3.896-2.308 3.116-1.259 6.864-1.892 9.346-1.892v-1zm-15.749 8.195v3.845h1v-3.845h-1zm.5 4.345h30.5v-1h-30.5v1zm31-.5v-3.845h-1v3.845h1zm0-3.845c0-1.461-.73-2.705-1.827-3.727-1.093-1.018-2.584-1.848-4.203-2.503-3.237-1.308-7.113-1.965-9.721-1.965v1c2.482 0 6.231.633 9.347 1.892 1.557.63 2.925 1.404 3.896 2.308.967.901 1.508 1.898 1.508 2.995h1z" fill="#565495"/><path fill-rule="evenodd" clip-rule="evenodd" d="M187.265 296.885a7.735 7.735 0 010-10.938L218.212 255l10.938 10.938-30.947 30.947a7.733 7.733 0 01-10.938 0z" fill="#2C2B4C"/><path fill-rule="evenodd" clip-rule="evenodd" d="M187.265 296.885v0a7.735 7.735 0 010-10.938L218.212 255l10.938 10.938-30.947 30.947a7.733 7.733 0 01-10.938 0z" stroke="#565495"/><path fill-rule="evenodd" clip-rule="evenodd" d="M200.557 272.685l10.938 10.938-10.938-10.938z" fill="#fff"/><path d="M200.557 272.685l10.938 10.938" stroke="#565495"/><path fill-rule="evenodd" clip-rule="evenodd" d="M185.201 293.159a7.734 7.734 0 015.791-9.278l42.64-9.867 3.487 15.07-42.64 9.867a7.734 7.734 0 01-9.278-5.792z" fill="#2C2B4C"/><path fill-rule="evenodd" clip-rule="evenodd" d="M185.201 293.159v0a7.734 7.734 0 015.791-9.278l42.64-9.867 3.487 15.07-42.64 9.867a7.734 7.734 0 01-9.278-5.792z" stroke="#565495"/><path fill-rule="evenodd" clip-rule="evenodd" d="M216.479 278.037l3.487 15.07-3.487-15.07z" fill="#fff"/><path d="M216.479 278.037l3.487 15.07" stroke="#565495"/><path fill-rule="evenodd" clip-rule="evenodd" d="M208.01 280.037l3.487 15.07-3.487-15.07z" fill="#fff"/><path d="M208.01 280.037l3.487 15.07" stroke="#565495"/><path fill-rule="evenodd" clip-rule="evenodd" d="M185.472 288.829a7.735 7.735 0 019.852-4.752l41.319 14.427-5.099 14.603-41.319-14.426a7.735 7.735 0 01-4.753-9.852z" fill="#2C2B4C"/><path fill-rule="evenodd" clip-rule="evenodd" d="M185.472 288.829v0a7.735 7.735 0 019.852-4.752l41.319 14.427-5.099 14.603-41.319-14.426a7.735 7.735 0 01-4.753-9.852z" stroke="#565495"/><path fill-rule="evenodd" clip-rule="evenodd" d="M194.207 293.572a2.566 2.566 0 11-3.629-3.63 2.566 2.566 0 013.629 3.63z" fill="#2C2B4C"/><path fill-rule="evenodd" clip-rule="evenodd" d="M194.207 293.572a2.566 2.566 0 11-3.629-3.63 2.566 2.566 0 013.629 3.63z" stroke="#565495"/><path fill-rule="evenodd" clip-rule="evenodd" d="M227.963 295.108l-5.099 14.604 5.099-14.604z" fill="#fff"/><path d="M227.963 295.108l-5.099 14.604" stroke="#565495"/><path fill-rule="evenodd" clip-rule="evenodd" d="M218.494 292.537l-5.1 14.604 5.1-14.604z" fill="#fff"/><path d="M218.494 292.537l-5.1 14.604" stroke="#565495"/><path fill-rule="evenodd" clip-rule="evenodd" d="M209.273 288.866l-5.1 14.604 5.1-14.604z" fill="#fff"/><path d="M209.273 288.866l-5.1 14.604" stroke="#565495"/><path fill-rule="evenodd" clip-rule="evenodd" d="M224.946 276.108l3.487 15.07-3.487-15.07z" fill="#fff"/><path d="M224.946 276.108l3.487 15.07" stroke="#565495"/><path fill-rule="evenodd" clip-rule="evenodd" d="M212.362 260.817l10.938 10.938-10.938-10.938z" fill="#fff"/><path d="M212.362 260.817l10.938 10.938" stroke="#565495"/><path fill-rule="evenodd" clip-rule="evenodd" d="M206.025 266.634l10.938 10.938-10.938-10.938z" fill="#fff"/><path d="M206.025 266.634l10.938 10.938" stroke="#565495"/><path fill-rule="evenodd" clip-rule="evenodd" d="M22 98h18V80H22v18zM793 107v0c-4.969 0-9-4.031-9-9 0-4.97 4.031-9 9-9s9 4.03 9 9c0 4.969-4.031 9-9 9zM162 17.8h-18L153 1l9 16.8z" stroke="#565495" stroke-linecap="round" stroke-linejoin="round"/><path d="M699.463 19.032c.369-.8 1.505-.8 1.874 0l2.037 4.416c.151.326.46.55.816.593l4.83.573c.874.103 1.226 1.185.579 1.783l-3.571 3.302a1.033 1.033 0 00-.311.959l.948 4.77c.171.864-.748 1.532-1.517 1.102l-4.244-2.376a1.032 1.032 0 00-1.008 0l-4.244 2.376c-.769.43-1.688-.238-1.517-1.102l.948-4.77a1.033 1.033 0 00-.311-.96l-3.571-3.301c-.647-.598-.295-1.68.579-1.783l4.83-.573c.356-.042.665-.267.816-.593l2.037-4.416z" stroke="#565495"/></svg>