<svg width="849" height="301" fill="none" xmlns="http://www.w3.org/2000/svg"><path fill-rule="evenodd" clip-rule="evenodd" d="M768.757 43.053l-3.27-.576 1.174-6.658-12.487-2.202.479-2.718 14.246-14.913 4.491.792-2.952 16.742 3.703.653-.507 2.876-3.703-.653-1.174 6.657zm-1.589-10.11l2.417-13.708-11.635 12.083 9.218 1.626zM191.557 70.944l-3.287.462-.941-6.695-12.557 1.765-.384-2.733 8.941-18.585 4.515-.635 2.366 16.835 3.724-.523.406 2.891-3.723.523.94 6.695zm-4.634-9.124l-1.938-13.785-7.331 15.088 9.269-1.303z" fill="#FF3050"/><path fill-rule="evenodd" clip-rule="evenodd" d="M544.401 62.304c-7.036 2.018-11.822-4.225-13.608-10.454-1.797-6.267-1.025-14.02 6.012-16.038 6.998-2.007 11.8 4.148 13.598 10.415 1.786 6.229.996 14.07-6.002 16.077zm-.815-2.845c4.883-1.4 5.015-7.18 3.548-12.295-1.466-5.114-4.63-9.907-9.513-8.507-4.883 1.4-5.026 7.142-3.56 12.256 1.467 5.114 4.641 9.946 9.525 8.546z" fill="#96DAFF"/><path fill-rule="evenodd" clip-rule="evenodd" d="M68.179 59.052a21.703 21.703 0 01-1.34-1.658c-6.981-9.588-4.818-22.984 4.833-29.921a21.574 21.574 0 017.764-3.517c-5.477-1.818-11.725-1.081-16.76 2.538-8.298 5.965-10.158 17.482-4.155 25.725a18.454 18.454 0 009.658 6.833z" stroke="#FF3050" stroke-width="2.981" stroke-linecap="round" stroke-linejoin="round"/><path fill-rule="evenodd" clip-rule="evenodd" d="M68.096 57.928c.422.58.87 1.133 1.339 1.658 5.348 1.602 11.36.799 16.235-2.706 8.298-5.964 10.158-17.48 4.154-25.724a18.443 18.443 0 00-9.132-6.666 21.567 21.567 0 00-7.765 3.517c-9.65 6.937-11.814 20.333-4.832 29.921zM20.31 142.829a14.555 14.555 0 01-1.426-.158c-7.888-1.278-13.257-8.768-11.991-16.73a14.645 14.645 0 012.003-5.412 12.526 12.526 0 00-6.737 9.247c-1.088 6.846 3.528 13.285 10.31 14.384a12.28 12.28 0 007.841-1.331z" stroke="#96DAFF" stroke-width="2.981" stroke-linecap="round" stroke-linejoin="round"/><path fill-rule="evenodd" clip-rule="evenodd" d="M18.721 142.462c.478.077.954.128 1.427.157a12.525 12.525 0 006.408-9.075c1.088-6.846-3.528-13.286-10.31-14.384a12.27 12.27 0 00-7.512 1.16 14.634 14.634 0 00-2.004 5.411c-1.265 7.962 4.103 15.453 11.991 16.731z" stroke="#FF3050" stroke-width="2.981" stroke-linecap="round" stroke-linejoin="round"/><path fill-rule="evenodd" clip-rule="evenodd" d="M832.512 122.335a14.855 14.855 0 01-1.226-.746c-6.609-4.492-8.309-13.549-3.797-20.231a14.64 14.64 0 014.103-4.058 12.525 12.525 0 00-10.014 5.533c-3.879 5.745-2.417 13.532 3.265 17.394a12.286 12.286 0 007.669 2.108z" stroke="#96DAFF" stroke-width="2.981" stroke-linecap="round" stroke-linejoin="round"/><path fill-rule="evenodd" clip-rule="evenodd" d="M831.228 121.33c.4.272.81.52 1.226.746a12.523 12.523 0 009.643-5.517c3.879-5.745 2.418-13.532-3.264-17.393a12.28 12.28 0 00-7.3-2.124 14.635 14.635 0 00-4.102 4.058c-4.512 6.681-2.812 15.738 3.797 20.23z" stroke="#FF3050" stroke-width="2.981" stroke-linecap="round" stroke-linejoin="round"/><path fill-rule="evenodd" clip-rule="evenodd" d="M655.937 50.937H620L637.969 15l17.968 35.937z" stroke="#96DAFF" stroke-width="2.981" stroke-linecap="round" stroke-linejoin="round"/><path fill-rule="evenodd" clip-rule="evenodd" d="M664.931 37.535l-8.962 13.402L638 15l26.931 22.535z" stroke="#FF3050" stroke-width="2.981" stroke-linecap="round" stroke-linejoin="round"/><path fill-rule="evenodd" clip-rule="evenodd" d="M811 196l24 8.123L815.917 218 811 196z" stroke="#96DAFF" stroke-width="2.981" stroke-linecap="round" stroke-linejoin="round"/><path fill-rule="evenodd" clip-rule="evenodd" d="M395.796 50.557l22.095-12.4-2.456 23.467-19.639-11.067z" stroke="#FF3050" stroke-width="2.981" stroke-linecap="round" stroke-linejoin="round"/><path fill-rule="evenodd" clip-rule="evenodd" d="M68.575 238.204s-15.973 8.864-26.254 2.928c-7.881-4.55-10.764-14.312-6.438-21.803 4.325-7.492 14.22-9.876 22.101-5.326 10.383 5.994 10.591 24.201 10.591 24.201z" stroke="#42A6DD" stroke-width="2.981"/><path fill-rule="evenodd" clip-rule="evenodd" d="M68.683 238.585s15.972-8.865 26.254-2.929c7.881 4.551 10.764 14.312 6.438 21.804-4.325 7.492-14.22 9.876-22.101 5.326-10.383-5.994-10.591-24.201-10.591-24.201z" stroke="#FF3050" stroke-width="2.981"/><path fill-rule="evenodd" clip-rule="evenodd" d="M348.5 267s11.5 11.264 11.5 19.948c0 6.656-5.149 12.052-11.5 12.052s-11.5-5.396-11.5-12.052c0-8.769 11.5-19.948 11.5-19.948z" stroke="#FF3050" stroke-width="2.9"/><path fill-rule="evenodd" clip-rule="evenodd" d="M502 247s6 5.632 6 9.974c0 3.328-2.686 6.026-6 6.026s-6-2.698-6-6.026c0-4.384 6-9.974 6-9.974z" stroke="#42A6DD" stroke-width="2.9"/><path fill-rule="evenodd" clip-rule="evenodd" d="M711.686 129.866L706 112.497 718.545 99l18.231 3.871 5.686 17.368-30.776 9.627z" stroke="#96DAFF" stroke-width="2.981" stroke-linecap="round" stroke-linejoin="round"/><path d="M712.041 129.194l12.545-15.432" stroke="#42A6DD" stroke-width="2.981" stroke-linecap="round" stroke-linejoin="round"/><path d="M719.592 99l5.686 15.433 16.72 5.806" stroke="#FF3050" stroke-width="2.981" stroke-linecap="round" stroke-linejoin="round"/><path fill-rule="evenodd" clip-rule="evenodd" d="M236.374 241.455l-19.342-4.173L211 218.554 224.309 204l19.342 4.174 6.032 18.728-13.309 14.553z" stroke="#96DAFF" stroke-width="2.981" stroke-linecap="round" stroke-linejoin="round"/><path d="M211 218.554l19.341 4.174L224.309 204" stroke="#42A6DD" stroke-width="2.981" stroke-linecap="round" stroke-linejoin="round"/><path d="M236.532 240.262l-6.032-18.728 11.809-13.063" stroke="#FF3050" stroke-width="2.981" stroke-linecap="round" stroke-linejoin="round"/><path fill-rule="evenodd" clip-rule="evenodd" d="M737.585 223.417c0 5.522-4.461 10-9.963 10-5.501 0-9.962-4.478-9.962-10 0-5.523 4.461-10 9.962-10 5.502 0 9.963 4.477 9.963 10z" stroke="#FF3050" stroke-width="2.898" stroke-linejoin="round"/><path d="M677.984 297.583l15.3-25.357 15.297 25.357" stroke="#96DAFF" stroke-width="2.898" stroke-linecap="round" stroke-linejoin="round"/><path d="M640.981 278.417l104.604-26.667" stroke="#42A6DD" stroke-width="2.898" stroke-linecap="round" stroke-linejoin="round"/><path fill-rule="evenodd" clip-rule="evenodd" d="M623.962 282c0 2.76-2.231 5-4.981 5-2.749 0-4.981-2.24-4.981-5s2.232-5 4.981-5c2.75 0 4.981 2.24 4.981 5zM433.962 252c0 2.76-2.231 5-4.981 5-2.749 0-4.981-2.24-4.981-5s2.232-5 4.981-5c2.75 0 4.981 2.24 4.981 5zM667.547 262.583c0 2.76-2.231 5-4.981 5-2.749 0-4.981-2.24-4.981-5s2.232-5 4.981-5c2.75 0 4.981 2.24 4.981 5z" stroke="#96DAFF" stroke-width="2.898" stroke-linejoin="round"/><path fill-rule="evenodd" clip-rule="evenodd" d="M475.547 6.583c0 2.76-2.231 5-4.981 5-2.749 0-4.981-2.24-4.981-5s2.232-5 4.981-5c2.75 0 4.981 2.24 4.981 5z" stroke="#42A6DD" stroke-width="2.898" stroke-linejoin="round"/><path fill-rule="evenodd" clip-rule="evenodd" d="M651.774 265.917c0 2.76-2.232 5-4.981 5-2.75 0-4.981-2.24-4.981-5s2.231-5 4.981-5c2.749 0 4.981 2.24 4.981 5z" stroke="#96DAFF" stroke-width="2.898" stroke-linejoin="round"/><path d="M640.552 163.697c2.376 8.049-3.566 16.749-13.269 19.433-9.703 2.684-19.494-1.666-21.87-9.713" stroke="#FF3050" stroke-width="2.898" stroke-linejoin="round"/><path fill-rule="evenodd" clip-rule="evenodd" d="M605.412 173.417c-.658-2.233 6.673-6.219 16.376-8.903 9.703-2.683 18.105-3.05 18.764-.816.658 2.233-6.673 6.219-16.376 8.903-9.703 2.683-18.105 3.05-18.764.816z" stroke="#42A6DD" stroke-width="2.898" stroke-linejoin="round"/><path d="M158.511 161.039l11.989-31.408-9.261 3.383-3.724-7.669-7.316 2.911-5.5-8.423-12.209 32.185" stroke="#42A6DD" stroke-width="2.898" stroke-linejoin="round"/><path fill-rule="evenodd" clip-rule="evenodd" d="M158.457 161.888c-1.077 2.835-7.754 2.963-14.915.285-7.163-2.679-12.097-7.147-11.02-9.982 1.075-2.835 7.752-2.965 14.915-.286 7.161 2.678 12.095 7.148 11.02 9.983z" stroke="#FF3050" stroke-width="2.898" stroke-linejoin="round"/><path d="M285.308 31.02l-25.33 22.102 9.765 1.362-.312 8.52 7.825.864.903 10.02L304.048 51.2" stroke="#42A6DD" stroke-width="2.898" stroke-linejoin="round"/><path fill-rule="evenodd" clip-rule="evenodd" d="M285.755 30.295c2.281-1.997 8.237 1.024 13.302 6.751 5.067 5.728 7.326 11.99 5.044 13.987-2.28 1.998-8.236-1.022-13.303-6.75-5.066-5.726-7.323-11.99-5.043-13.988z" stroke="#96DAFF" stroke-width="2.898" stroke-linejoin="round"/></svg>