<svg width="436" height="180" fill="none" xmlns="http://www.w3.org/2000/svg"><path fill-rule="evenodd" clip-rule="evenodd" d="M408.361 1.295s12.03 9.714 26.713 9.714c0 0 .407 35.619-26.713 49.381a4.754 4.754 0 01-2.65 0C378.591 46.628 379 11.01 379 11.01c14.681 0 26.711-9.715 26.711-9.715.894-.383 1.781-.404 2.65 0z" stroke="#565495" stroke-linecap="round" stroke-linejoin="round"/><path d="M417.55 22.028l-14.472 14.018-6.556-6.35" stroke="#565495" stroke-linecap="round" stroke-linejoin="round"/><path d="M1 169H.5a.5.5 0 00.5.5v-.5zm32 0v.5a.5.5 0 00.5-.5H33zm-16.002-15.501c4.696 0 8.5-3.803 8.5-8.5h-1c0 4.145-3.356 7.5-7.5 7.5v1zm8.5-8.5a8.498 8.498 0 00-8.5-8.499v1c4.144 0 7.5 3.355 7.5 7.499h1zm-8.5-8.499a8.498 8.498 0 00-8.5 8.499h1a7.497 7.497 0 017.5-7.499v-1zm-8.5 8.499c0 4.697 3.805 8.5 8.5 8.5v-1a7.498 7.498 0 01-7.5-7.5h-1zm8.501 11.499c-2.732 0-6.795.683-10.188 2.042-1.696.68-3.257 1.542-4.401 2.598-1.148 1.06-1.91 2.349-1.91 3.863h1c0-1.147.57-2.188 1.588-3.128 1.022-.943 2.46-1.749 4.095-2.405 3.273-1.311 7.21-1.97 9.816-1.97v-1zM.5 165.001V169h1v-3.999h-1zM1 169.5h32v-1H1v1zm32.5-.5v-3.999h-1V169h1zm0-3.999c0-1.514-.762-2.803-1.91-3.863-1.144-1.056-2.705-1.918-4.402-2.598-3.392-1.359-7.456-2.042-10.189-2.042v1c2.608 0 6.545.659 9.817 1.97 1.636.656 3.074 1.462 4.096 2.405 1.018.94 1.588 1.981 1.588 3.128h1z" fill="#565495"/><path fill-rule="evenodd" clip-rule="evenodd" d="M49 19h18V1H49v18zM298 179v0c-4.969 0-9-4.031-9-9s4.031-9 9-9 9 4.031 9 9-4.031 9-9 9z" stroke="#565495" stroke-linecap="round" stroke-linejoin="round"/></svg>