<svg width="1280" height="313" fill="none" xmlns="http://www.w3.org/2000/svg"><path stroke="#565495" d="M130 87h144v96H130z"/><path stroke="#565495" d="M130 87h48v96h-48zm64 16h64v64h-64z"/><path fill="#565495" d="M138 97h32v1h-32zm0 7h24v1h-24zm0 13h32v1h-32zm0 7h24v1h-24z"/><path stroke="#565495" d="M138 137h32v24h-32z"/><rect x="154" y="169" width="16" height="6" rx="3" stroke="#565495"/><path d="M0 215a2 2 0 104.001-.001A2 2 0 000 215zm24 0a2 2 0 104.001-.001A2 2 0 0024 215zm24 0a2 2 0 104.001-.001A2 2 0 0048 215zm24 0a2 2 0 104.001-.001A2 2 0 0072 215zm24 0a2 2 0 104.001-.001A2 2 0 0096 215zM0 239a2 2 0 104.001-.001A2 2 0 000 239zm24 0a2 2 0 104.001-.001A2 2 0 0024 239zm24 0a2 2 0 104.001-.001A2 2 0 0048 239zm24 0a2 2 0 104.001-.001A2 2 0 0072 239zm24 0a2 2 0 104.001-.001A2 2 0 0096 239zM0 263a2 2 0 104.001-.001A2 2 0 000 263zm24 0a2 2 0 104.001-.001A2 2 0 0024 263zm24 0a2 2 0 104.001-.001A2 2 0 0048 263zm24 0a2 2 0 104.001-.001A2 2 0 0072 263zm24 0a2 2 0 104.001-.001A2 2 0 0096 263zM0 287a2 2 0 104.001-.001A2 2 0 000 287zm24 0a2 2 0 104.001-.001A2 2 0 0024 287zm24 0a2 2 0 104.001-.001A2 2 0 0048 287zm24 0a2 2 0 104.001-.001A2 2 0 0072 287zm24 0a2 2 0 104.001-.001A2 2 0 0096 287zM0 311a2 2 0 104.001-.001A2 2 0 000 311zm24 0a2 2 0 104.001-.001A2 2 0 0024 311zm24 0a2 2 0 104.001-.001A2 2 0 0048 311zm24 0a2 2 0 104.001-.001A2 2 0 0072 311zm24 0a2 2 0 104.001-.001A2 2 0 0096 311z" opacity=".6" fill-rule="evenodd" clip-rule="evenodd" fill="#565495"/><path d="M82 15L68.235 29 62 22.658" stroke="#565495" stroke-linecap="round" stroke-linejoin="round"/><path clip-rule="evenodd" d="M72 41c11.046 0 20-8.954 20-20S83.046 1 72 1 52 9.954 52 21s8.954 20 20 20z" stroke="#565495"/><path clip-rule="evenodd" d="M1054 152h96V86h-96v66z" stroke="#565495" stroke-linecap="round" stroke-linejoin="round"/><path d="M1093.17 130.531h9.34m9.85.181h10.8m-47.55-.181h8.29m4.64-4.803v-8.287m19.19 8.287v-8.287m0-6.314v-8.287m-19.19 8.286V98.812h15.22m25.63 35.289v8.287h-57.38v-8.073" stroke="#565495" stroke-linecap="round" stroke-linejoin="round"/><path clip-rule="evenodd" d="M1075.61 130.531a3.602 3.602 0 01-3.6 3.606 3.61 3.61 0 01-3.61-3.606 3.611 3.611 0 013.61-3.608c1.99 0 3.6 1.615 3.6 3.608zm35.72-31.72a3.602 3.602 0 01-3.6 3.607c-2 0-3.61-1.614-3.61-3.607a3.605 3.605 0 117.21 0zm-22.8 27.084l4.64 4.636-4.64 4.635-4.64-4.635 4.64-4.636zm19.2 0l4.63 4.636-4.63 4.635-4.64-4.635 4.64-4.636zm15.43 7.377h12.44v-5.486h-12.44v5.486zm-40.84-16.659h12.44v-5.486h-12.44v5.486zm19.19 0h12.43v-5.486h-12.43v5.486zm125.91-62.757h-42.9c-1.39 0-2.52-1.167-2.52-2.604V9.603c0-1.437 1.13-2.603 2.52-2.603h42.9c1.4 0 2.53 1.166 2.53 2.603v41.65c0 1.436-1.13 2.603-2.53 2.603z" stroke="#565495" stroke-linecap="round" stroke-linejoin="round"/><path d="M1194.34 41.448h-.5c0 .276.23.5.5.5v-.5zm23.27 0v.5c.27 0 .5-.224.5-.5h-.5zm-11.64-12.466c3.49 0 6.32-2.834 6.32-6.334h-1c0 2.95-2.38 5.334-5.32 5.334v1zm6.32-6.334c0-3.497-2.83-6.331-6.32-6.331v1c2.94 0 5.32 2.384 5.32 5.331h1zm-6.32-6.331c-3.49 0-6.31 2.834-6.31 6.331h1c0-2.947 2.38-5.331 5.31-5.331v-1zm-6.31 6.331c0 3.5 2.82 6.334 6.31 6.334v-1c-2.93 0-5.31-2.384-5.31-5.334h-1zm6.31 9.55c-2 0-4.97.5-7.45 1.498-1.24.499-2.4 1.135-3.24 1.92-.86.79-1.44 1.763-1.44 2.916h1c0-.787.39-1.513 1.11-2.182.73-.672 1.76-1.252 2.94-1.726 2.36-.95 5.21-1.426 7.08-1.426v-1zm-12.13 6.334v2.916h1v-2.916h-1zm.5 3.416h23.27v-1h-23.27v1zm23.77-.5v-2.916h-1v2.916h1zm0-2.916c0-1.153-.58-2.127-1.44-2.915-.84-.786-2-1.422-3.24-1.921-2.48-.998-5.45-1.498-7.46-1.498v1c1.88 0 4.73.477 7.09 1.426 1.18.474 2.21 1.054 2.93 1.726.73.669 1.12 1.395 1.12 2.182h1z" fill="#565495"/><path d="M1180 184c0 1.104.9 2 2 2s2-.896 2-2-.9-2-2-2-2 .896-2 2zm24 0c0 1.104.9 2 2 2s2-.896 2-2-.9-2-2-2-2 .896-2 2zm24 0c0 1.104.9 2 2 2s2-.896 2-2-.9-2-2-2-2 .896-2 2zm24 0c0 1.104.9 2 2 2s2-.896 2-2-.9-2-2-2-2 .896-2 2zm24 0c0 1.104.9 2 2 2s2-.896 2-2-.9-2-2-2-2 .896-2 2zm-96 24c0 1.104.9 2 2 2s2-.896 2-2-.9-2-2-2-2 .896-2 2zm24 0c0 1.104.9 2 2 2s2-.896 2-2-.9-2-2-2-2 .896-2 2zm24 0c0 1.104.9 2 2 2s2-.896 2-2-.9-2-2-2-2 .896-2 2zm24 0c0 1.104.9 2 2 2s2-.896 2-2-.9-2-2-2-2 .896-2 2zm24 0c0 1.104.9 2 2 2s2-.896 2-2-.9-2-2-2-2 .896-2 2zm-96 24c0 1.104.9 2 2 2s2-.896 2-2-.9-2-2-2-2 .896-2 2zm24 0c0 1.104.9 2 2 2s2-.896 2-2-.9-2-2-2-2 .896-2 2zm24 0c0 1.104.9 2 2 2s2-.896 2-2-.9-2-2-2-2 .896-2 2zm24 0c0 1.104.9 2 2 2s2-.896 2-2-.9-2-2-2-2 .896-2 2zm24 0c0 1.104.9 2 2 2s2-.896 2-2-.9-2-2-2-2 .896-2 2zm-96 24c0 1.104.9 2 2 2s2-.896 2-2-.9-2-2-2-2 .896-2 2zm24 0c0 1.104.9 2 2 2s2-.896 2-2-.9-2-2-2-2 .896-2 2zm24 0c0 1.104.9 2 2 2s2-.896 2-2-.9-2-2-2-2 .896-2 2zm24 0c0 1.104.9 2 2 2s2-.896 2-2-.9-2-2-2-2 .896-2 2zm24 0c0 1.104.9 2 2 2s2-.896 2-2-.9-2-2-2-2 .896-2 2zm-96 24c0 1.104.9 2 2 2s2-.896 2-2-.9-2-2-2-2 .896-2 2zm24 0c0 1.104.9 2 2 2s2-.896 2-2-.9-2-2-2-2 .896-2 2zm24 0c0 1.104.9 2 2 2s2-.896 2-2-.9-2-2-2-2 .896-2 2zm24 0c0 1.104.9 2 2 2s2-.896 2-2-.9-2-2-2-2 .896-2 2zm24 0c0 1.104.9 2 2 2s2-.896 2-2-.9-2-2-2-2 .896-2 2z" opacity=".6" fill-rule="evenodd" clip-rule="evenodd" fill="#565495"/></svg>