<svg width="1301" height="276" fill="none" xmlns="http://www.w3.org/2000/svg"><g opacity=".6" fill-rule="evenodd" clip-rule="evenodd" fill="#726FC5"><path d="M1225 202c0 1.104.9 2 2 2s2-.896 2-2-.9-2-2-2-2 .896-2 2zM1249 202c0 1.104.9 2 2 2s2-.896 2-2-.9-2-2-2-2 .896-2 2zM1273 202c0 1.104.9 2 2 2s2-.896 2-2-.9-2-2-2-2 .896-2 2zM1225 226c0 1.104.9 2 2 2s2-.896 2-2-.9-2-2-2-2 .896-2 2zM1249 226c0 1.104.9 2 2 2s2-.896 2-2-.9-2-2-2-2 .896-2 2zM1273 226c0 1.104.9 2 2 2s2-.896 2-2-.9-2-2-2-2 .896-2 2zM1225 250c0 1.104.9 2 2 2s2-.896 2-2-.9-2-2-2-2 .896-2 2zM1249 250c0 1.104.9 2 2 2s2-.896 2-2-.9-2-2-2-2 .896-2 2zM1273 250c0 1.104.9 2 2 2s2-.896 2-2-.9-2-2-2-2 .896-2 2zM1225 274c0 1.104.9 2 2 2s2-.896 2-2-.9-2-2-2-2 .896-2 2zM1249 274c0 1.104.9 2 2 2s2-.896 2-2-.9-2-2-2-2 .896-2 2zM1273 274c0 1.104.9 2 2 2s2-.896 2-2-.9-2-2-2-2 .896-2 2zM1297 202c0 1.104.9 2 2 2s2-.896 2-2-.9-2-2-2-2 .896-2 2zM1297 226c0 1.104.9 2 2 2s2-.896 2-2-.9-2-2-2-2 .896-2 2zM1297 250c0 1.104.9 2 2 2s2-.896 2-2-.9-2-2-2-2 .896-2 2zM1297 274c0 1.104.9 2 2 2s2-.896 2-2-.9-2-2-2-2 .896-2 2z"/></g><g opacity=".6" fill-rule="evenodd" clip-rule="evenodd" fill="#726FC5"><path d="M0 2a2 2 0 104.001-.001A2 2 0 000 2zM24 2a2 2 0 104.001-.001A2 2 0 0024 2zM48 2a2 2 0 104.001-.001A2 2 0 0048 2zM72 2a2 2 0 104.001-.001A2 2 0 0072 2zM96 2a2 2 0 104.001-.001A2 2 0 0096 2zM0 26a2 2 0 104.001-.001A2 2 0 000 26zM24 26a2 2 0 104.001-.001A2 2 0 0024 26zM48 26a2 2 0 104.001-.001A2 2 0 0048 26zM72 26a2 2 0 104.001-.001A2 2 0 0072 26zM96 26a2 2 0 104.001-.001A2 2 0 0096 26zM0 50a2 2 0 104.001-.001A2 2 0 000 50zM24 50a2 2 0 104.001-.001A2 2 0 0024 50zM48 50a2 2 0 104.001-.001A2 2 0 0048 50zM72 50a2 2 0 104.001-.001A2 2 0 0072 50zM96 50a2 2 0 104.001-.001A2 2 0 0096 50zM0 74a2 2 0 104.001-.001A2 2 0 000 74zM24 74a2 2 0 104.001-.001A2 2 0 0024 74zM48 74a2 2 0 104.001-.001A2 2 0 0048 74zM72 74a2 2 0 104.001-.001A2 2 0 0072 74zM96 74a2 2 0 104.001-.001A2 2 0 0096 74zM0 98a2 2 0 104.001-.001A2 2 0 000 98zM24 98a2 2 0 104.001-.001A2 2 0 0024 98zM48 98a2 2 0 104.001-.001A2 2 0 0048 98zM72 98a2 2 0 104.001-.001A2 2 0 0072 98zM96 98a2 2 0 104.001-.001A2 2 0 0096 98z"/></g><path d="M343.283 76.744h-.5a.5.5 0 00.5.5v-.5zm23.262 0v.5a.5.5 0 00.5-.5h-.5zM354.914 64.28c3.49 0 6.317-2.834 6.317-6.334h-1c0 2.95-2.382 5.334-5.317 5.334v1zm6.317-6.334c0-3.497-2.827-6.331-6.317-6.331v1a5.324 5.324 0 015.317 5.331h1zm-6.317-6.331c-3.49 0-6.317 2.834-6.317 6.331h1a5.324 5.324 0 015.317-5.331v-1zm-6.317 6.331c0 3.5 2.827 6.334 6.317 6.334v-1c-2.935 0-5.317-2.384-5.317-5.334h-1zm6.317 9.55c-2.003 0-4.974.5-7.457 1.498-1.242.499-2.393 1.135-3.242 1.92-.852.79-1.432 1.763-1.432 2.916h1c0-.787.389-1.513 1.111-2.182.726-.672 1.755-1.252 2.936-1.726 2.362-.95 5.206-1.426 7.084-1.426v-1zm-12.131 6.334v2.915h1V73.83h-1zm.5 3.415h23.262v-1h-23.262v1zm23.762-.5V73.83h-1v2.915h1zm0-2.915c0-1.153-.579-2.127-1.432-2.916-.848-.785-1.999-1.421-3.241-1.92-2.483-.998-5.454-1.498-7.458-1.498v1c1.878 0 4.723.476 7.085 1.426 1.181.474 2.209 1.054 2.935 1.726.722.669 1.111 1.395 1.111 2.182h1z" fill="#565495"/><path fill-rule="evenodd" clip-rule="evenodd" d="M295.424 163.742h-42.9c-1.393 0-2.524-1.166-2.524-2.603v-41.65c0-1.437 1.131-2.603 2.524-2.603h42.9c1.396 0 2.524 1.166 2.524 2.603v41.65c0 1.437-1.128 2.603-2.524 2.603z" stroke="#565495" stroke-linecap="round" stroke-linejoin="round"/><path d="M262.344 152.63h-.5a.5.5 0 00.5.5v-.5zm23.262 0v.5a.5.5 0 00.5-.5h-.5zm-11.631-12.465c3.489 0 6.316-2.835 6.316-6.334h-1c0 2.95-2.381 5.334-5.316 5.334v1zm6.316-6.334c0-3.497-2.827-6.331-6.316-6.331v1a5.322 5.322 0 015.316 5.331h1zm-6.316-6.331c-3.49 0-6.317 2.834-6.317 6.331h1a5.323 5.323 0 015.317-5.331v-1zm-6.317 6.331c0 3.499 2.827 6.334 6.317 6.334v-1c-2.935 0-5.317-2.384-5.317-5.334h-1zm6.317 9.549c-2.004 0-4.975.501-7.458 1.498-1.242.5-2.393 1.135-3.241 1.921-.853.789-1.432 1.762-1.432 2.915h1c0-.787.389-1.512 1.111-2.181.726-.672 1.755-1.252 2.935-1.727 2.363-.949 5.207-1.426 7.085-1.426v-1zm-12.131 6.334v2.916h1v-2.916h-1zm.5 3.416h23.262v-1h-23.262v1zm23.762-.5v-2.916h-1v2.916h1zm0-2.916c0-1.153-.58-2.126-1.432-2.915-.849-.786-2-1.421-3.242-1.921-2.483-.997-5.454-1.498-7.457-1.498v1c1.878 0 4.722.477 7.084 1.426 1.181.475 2.21 1.055 2.936 1.727.722.669 1.111 1.394 1.111 2.181h1z" fill="#565495"/><path fill-rule="evenodd" clip-rule="evenodd" d="M352.536 267.801h75.658c2.919 0 5.288-2.285 5.288-5.104v-93.274c0-2.819-2.369-5.103-5.288-5.103h-75.658c-2.918 0-5.288 2.284-5.288 5.103v93.274c0 2.819 2.37 5.104 5.288 5.104z" stroke="#565495" stroke-linecap="round" stroke-linejoin="round"/><path fill-rule="evenodd" clip-rule="evenodd" d="M361.398 197.941h57.931v-20.998h-57.931v20.998z" stroke="#565495" stroke-linecap="round" stroke-linejoin="round"/><path d="M361.398 208.713h22.079M361.398 215.855h16.936M396.377 208.713h22.078M396.377 215.855h22.118M396.377 222.912h22.078M396.377 230.054h22.118M396.377 237.111h22.078M396.377 244.253h16.936" stroke="#565495" stroke-linecap="round" stroke-linejoin="round"/><path fill-rule="evenodd" clip-rule="evenodd" d="M361.398 252.008h25.05v-25.946h-25.05v25.946zM1024.15 97.856h-42.898c-1.393 0-2.523-1.167-2.523-2.603v-41.65c0-1.437 1.13-2.603 2.523-2.603h42.898c1.4 0 2.53 1.166 2.53 2.603v41.65c0 1.436-1.13 2.603-2.53 2.603z" stroke="#565495" stroke-linecap="round" stroke-linejoin="round"/><path d="M991.072 85.448h-.5a.5.5 0 00.5.5v-.5zm23.258 0v.5c.28 0 .5-.224.5-.5h-.5zm-11.63-12.466c3.49 0 6.32-2.834 6.32-6.334h-1c0 2.95-2.38 5.334-5.32 5.334v1zm6.32-6.334c0-3.497-2.83-6.331-6.32-6.331v1c2.94 0 5.32 2.384 5.32 5.331h1zm-6.32-6.331c-3.487 0-6.314 2.834-6.314 6.331h1c0-2.947 2.382-5.331 5.314-5.331v-1zm-6.314 6.331c0 3.5 2.827 6.334 6.314 6.334v-1c-2.932 0-5.314-2.384-5.314-5.334h-1zm6.314 9.55c-2 0-4.971.5-7.454 1.498-1.242.499-2.393 1.135-3.242 1.92-.852.79-1.432 1.763-1.432 2.916h1c0-.787.389-1.513 1.112-2.182.725-.672 1.754-1.252 2.935-1.726 2.362-.95 5.211-1.426 7.081-1.426v-1zm-12.128 6.334v2.916h1v-2.916h-1zm.5 3.416h23.258v-1h-23.258v1zm23.758-.5v-2.916h-1v2.916h1zm0-2.916c0-1.153-.58-2.127-1.43-2.915-.85-.786-2-1.422-3.24-1.921-2.48-.998-5.45-1.498-7.46-1.498v1c1.88 0 4.73.477 7.09 1.426 1.18.474 2.21 1.054 2.93 1.726.73.669 1.11 1.395 1.11 2.182h1zM1071.58 174.269h-.5c0 .276.22.5.5.5v-.5zm23.26 0v.5c.27 0 .5-.224.5-.5h-.5zm-11.63-12.465c3.49 0 6.31-2.835 6.31-6.334h-1c0 2.949-2.38 5.334-5.31 5.334v1zm6.31-6.334c0-3.497-2.82-6.332-6.31-6.332v1c2.93 0 5.31 2.385 5.31 5.332h1zm-6.31-6.332c-3.49 0-6.32 2.835-6.32 6.332h1a5.323 5.323 0 015.32-5.332v-1zm-6.32 6.332c0 3.499 2.83 6.334 6.32 6.334v-1a5.324 5.324 0 01-5.32-5.334h-1zm6.32 9.549c-2.01 0-4.98.5-7.46 1.498-1.24.499-2.39 1.135-3.24 1.921-.85.789-1.43 1.762-1.43 2.915h1c0-.787.39-1.513 1.11-2.181.72-.672 1.75-1.253 2.93-1.727 2.36-.949 5.21-1.426 7.09-1.426v-1zm-12.13 6.334v2.916h1v-2.916h-1zm.5 3.416h23.26v-1h-23.26v1zm23.76-.5v-2.916h-1v2.916h1zm0-2.916c0-1.153-.58-2.126-1.43-2.915-.85-.786-2-1.422-3.25-1.921-2.48-.998-5.45-1.498-7.45-1.498v1c1.88 0 4.72.477 7.08 1.426 1.18.474 2.21 1.055 2.94 1.727.72.668 1.11 1.394 1.11 2.181h1z" fill="#565495"/><g opacity=".6"><path stroke="#726FC5" d="M851 171.938h144v96H851z"/><path stroke="#726FC5" d="M851 171.938h48v96h-48zM915 187.938h64v64h-64z"/><path fill="#726FC5" d="M859 181.938h32v1h-32zM859 188.938h24v1h-24zM859 201.938h32v1h-32zM859 208.938h24v1h-24z"/><path stroke="#726FC5" d="M859 221.938h32v24h-32z"/><rect x="875" y="253.938" width="16" height="6" rx="3" stroke="#726FC5"/><path d="M957 213.938l-13.765 13.999-6.235-6.342" stroke="#726FC5" stroke-linecap="round" stroke-linejoin="round"/><path fill-rule="evenodd" clip-rule="evenodd" d="M947 239.937c11.046 0 20-8.954 20-20 0-11.045-8.954-19.999-20-19.999s-20 8.954-20 19.999c0 11.046 8.954 20 20 20z" stroke="#726FC5"/></g><path fill-rule="evenodd" clip-rule="evenodd" d="M705 52h18V34h-18v18zM551 26v0c-4.969 0-9-4.03-9-9s4.031-9 9-9 9 4.03 9 9-4.031 9-9 9zM606 222.8h-18l9-16.8 9 16.8z" stroke="#565495" stroke-linecap="round" stroke-linejoin="round"/></svg>