<svg width="673" height="355" xmlns="http://www.w3.org/2000/svg" xmlns:xlink="http://www.w3.org/1999/xlink"><defs><path id="a" d="M0 0h734v372H0z"/></defs><g transform="translate(-24 -17)" fill="none" fill-rule="evenodd"><mask id="b" fill="#fff"><use xlink:href="#a"/></mask><g mask="url(#b)"><path d="M366.957 183c2.914 0 5.299 2.384 5.299 5.298s-2.385 5.298-5.299 5.298c-2.914 0-5.299-2.384-5.299-5.298s2.385-5.298 5.3-5.298zm23.845 18.544h-15.897v34.438h-5.298v-15.895h-5.3v15.895h-5.298v-34.438h-15.897v-5.299h47.69v5.299zm122.969 52.13c1.834 2.265 1.482 5.618-.783 7.452-2.265 1.834-5.618 1.481-7.452-.783-1.834-2.265-1.482-5.619.783-7.453 2.264-1.834 5.618-1.48 7.452.784zm36.288 158.916c-.656 2.84-3.515 4.627-6.355 3.972-2.839-.656-4.625-3.516-3.97-6.355.656-2.84 3.515-4.627 6.354-3.971 2.84.655 4.626 3.515 3.97 6.354zM448.47 539.972c-2.62 1.277-5.808.18-7.085-2.44-1.277-2.618-.18-5.806 2.44-7.084 2.62-1.278 5.808-.18 7.085 2.439 1.278 2.62.18 5.807-2.44 7.085zm-163.026 0c-2.62-1.278-3.717-4.466-2.44-7.085 1.278-2.619 4.466-3.717 7.085-2.439 2.62 1.278 3.718 4.466 2.44 7.085-1.277 2.619-4.465 3.716-7.085 2.439zM183.855 412.59c-.655-2.84 1.131-5.699 3.97-6.354 2.84-.656 5.7 1.131 6.355 3.97.656 2.84-1.131 5.7-3.97 6.356-2.84.655-5.699-1.132-6.355-3.972zm36.288-158.916c1.834-2.265 5.188-2.618 7.453-.784 2.264 1.834 2.616 5.188.782 7.453-1.834 2.264-5.187 2.617-7.452.783-2.264-1.834-2.617-5.187-.783-7.452zm294.09 30.039l-10.004-12.354-26.764 21.672-3.334-4.118 12.352-10.002-3.335-4.118-12.352 10.002-3.335-4.118 26.764-21.672-10.004-12.354 4.117-3.334 30.012 37.061-4.117 3.335zm12.375 148.007l3.576-15.489-33.556-7.747 1.192-5.163 15.487 3.576 1.192-5.163-15.487-3.576 1.192-5.163 33.556 7.747 3.575-15.489 5.163 1.192-10.728 46.467-5.162-1.192zM419.033 533.697l14.288-6.968-15.097-30.953 4.763-2.323 6.967 14.286 4.763-2.323-6.968-14.286 4.763-2.322 15.096 30.952 14.288-6.968 2.323 4.762-42.864 20.905-2.322-4.762zm-147.015-20.905l14.288 6.968 15.097-30.952 4.762 2.322-6.968 14.286 4.763 2.323 6.968-14.286 4.762 2.323-15.096 30.953 14.287 6.968-2.322 4.762-42.863-20.905 2.322-4.762zm-75.44-127.539l3.577 15.489 33.555-7.747 1.192 5.163-15.487 3.576 1.192 5.163 15.487-3.576 1.192 5.163-33.555 7.747 3.576 15.49-5.163 1.191-10.728-46.467 5.163-1.192zm53.116-138.602l-10.004 12.354 26.763 21.672-3.335 4.118-12.352-10.002-3.335 4.118 12.353 10.002-3.335 4.118-26.763-21.672-10.004 12.354-4.118-3.335 30.012-37.061 4.118 3.334z" fill="#9A66FF"/><path d="M353.548 29.59a3.199 3.199 0 013.413 2.967 3.199 3.199 0 01-2.967 3.412l-1.913.134.356 5.103a2.565 2.565 0 01-2.373 2.73l-4.849.34-.133-1.914a3.455 3.455 0 00-3.686-3.204 3.455 3.455 0 00-3.205 3.685l.134 1.914-4.848.34a2.565 2.565 0 01-2.73-2.374l-.34-4.848 1.914-.134a3.455 3.455 0 003.204-3.685 3.455 3.455 0 00-3.685-3.204l-1.902.133-.339-4.848a2.555 2.555 0 012.361-2.73l5.104-.356-.134-1.914a3.199 3.199 0 016.38-.446l.134 1.914 5.103-.357a2.565 2.565 0 012.73 2.373l.357 5.103 1.914-.134zm145.616 27.347a3.199 3.199 0 011.767 4.163 3.199 3.199 0 01-4.162 1.766l-1.78-.719-1.916 4.744a2.565 2.565 0 01-3.33 1.413l-4.506-1.82.718-1.78a3.455 3.455 0 00-1.908-4.495 3.455 3.455 0 00-4.496 1.908l-.718 1.779-4.507-1.821a2.565 2.565 0 01-1.413-3.33l1.82-4.506 1.78.719a3.455 3.455 0 004.495-1.908 3.455 3.455 0 00-1.909-4.495l-1.767-.714 1.82-4.506a2.555 2.555 0 013.319-1.418l4.743 1.916.72-1.778a3.199 3.199 0 015.929 2.395l-.719 1.78 4.744 1.916a2.565 2.565 0 011.413 3.33l-1.916 4.743 1.779.718zm119.432 87.67a3.199 3.199 0 01-.158 4.52 3.199 3.199 0 01-4.519-.158l-1.308-1.403-3.742 3.488a2.565 2.565 0 01-3.615-.126l-3.315-3.555 1.403-1.308a3.455 3.455 0 00.17-4.88 3.455 3.455 0 00-4.88-.172l-1.403 1.309-3.315-3.555a2.565 2.565 0 01.126-3.615l3.554-3.315 1.309 1.404a3.455 3.455 0 004.88.17 3.455 3.455 0 00.17-4.88l-1.3-1.394 3.555-3.315a2.555 2.555 0 013.607.118l3.489 3.741 1.403-1.308a3.199 3.199 0 014.361 4.677l-1.403 1.309 3.49 3.741a2.565 2.565 0 01-.126 3.616l-3.742 3.488 1.309 1.404zM688.02 275.52a3.199 3.199 0 01-2.123 3.992 3.199 3.199 0 01-3.992-2.123l-.561-1.834-4.892 1.495a2.565 2.565 0 01-3.194-1.698l-1.421-4.648 1.834-.561a3.455 3.455 0 002.293-4.312 3.455 3.455 0 00-4.312-2.293l-1.835.56-1.42-4.648a2.565 2.565 0 011.697-3.194l4.648-1.42.56 1.834a3.455 3.455 0 004.312 2.293 3.455 3.455 0 002.293-4.312l-.557-1.822 4.647-1.421a2.555 2.555 0 013.19 1.686l1.496 4.893 1.835-.561a3.199 3.199 0 011.87 6.116l-1.835.56 1.496 4.893a2.565 2.565 0 01-1.698 3.194l-4.892 1.496.56 1.835zm5.737 148.043a3.199 3.199 0 01-3.658 2.659 3.199 3.199 0 01-2.658-3.659l.3-1.895-5.052-.8a2.565 2.565 0 01-2.126-2.927l.76-4.8 1.895.3a3.455 3.455 0 003.95-2.871 3.455 3.455 0 00-2.87-3.951l-1.895-.3.76-4.8a2.565 2.565 0 012.927-2.127l4.8.76-.3 1.895a3.455 3.455 0 002.87 3.951 3.455 3.455 0 003.951-2.87l.298-1.883 4.8.76a2.555 2.555 0 012.128 2.914l-.8 5.053 1.895.3a3.199 3.199 0 01-1 6.317l-1.895-.3-.8 5.053a2.565 2.565 0 01-2.927 2.127l-5.053-.8-.3 1.894zm-59.066 135.851a3.199 3.199 0 01-4.453.786 3.199 3.199 0 01-.785-4.453l1.1-1.572-4.19-2.934a2.565 2.565 0 01-.628-3.563l2.788-3.981 1.572 1.1a3.455 3.455 0 004.81-.848 3.455 3.455 0 00-.849-4.81l-1.571-1.1 2.788-3.981a2.565 2.565 0 013.562-.629l3.981 2.788-1.1 1.571a3.455 3.455 0 00.847 4.81 3.455 3.455 0 004.81-.849l1.093-1.56 3.98 2.787a2.555 2.555 0 01.636 3.552l-2.934 4.19 1.571 1.101a3.199 3.199 0 01-3.668 5.239l-1.572-1.1-2.934 4.19a2.565 2.565 0 01-3.563.629l-4.19-2.934-1.1 1.571zm-112.053 96.908a3.199 3.199 0 01-4.368-1.17 3.199 3.199 0 011.171-4.368l1.662-.96-2.558-4.43a2.565 2.565 0 01.936-3.494l4.21-2.43.959 1.661a3.455 3.455 0 004.717 1.264 3.455 3.455 0 001.264-4.717l-.959-1.661 4.21-2.43a2.565 2.565 0 013.494.935l2.43 4.21-1.662.958a3.455 3.455 0 00-1.264 4.718 3.455 3.455 0 004.717 1.263l1.65-.953 2.43 4.21a2.555 2.555 0 01-.925 3.487l-4.43 2.558.958 1.661a3.199 3.199 0 01-5.538 3.198l-.96-1.661-4.43 2.558a2.565 2.565 0 01-3.494-.936l-2.558-4.43-1.662.959zm-143.084 38.541a3.199 3.199 0 01-3.413-2.966 3.199 3.199 0 012.967-3.412l1.914-.134-.357-5.103a2.565 2.565 0 012.373-2.73l4.849-.34.134 1.914a3.455 3.455 0 003.686 3.204 3.455 3.455 0 003.204-3.686l-.134-1.913 4.849-.34a2.565 2.565 0 012.73 2.374l.339 4.848-1.914.134a3.455 3.455 0 00-3.204 3.685 3.455 3.455 0 003.686 3.204l1.9-.133.34 4.848a2.555 2.555 0 01-2.36 2.729l-5.105.357.134 1.913a3.199 3.199 0 01-6.38.447l-.133-1.914-5.104.357a2.565 2.565 0 01-2.73-2.373l-.357-5.103-1.914.133zm-145.616-27.347a3.199 3.199 0 01-1.767-4.162 3.199 3.199 0 014.163-1.766l1.779.718 1.916-4.743a2.565 2.565 0 013.33-1.413l4.506 1.82-.718 1.78a3.455 3.455 0 001.908 4.495 3.455 3.455 0 004.496-1.908l.718-1.779 4.507 1.82a2.565 2.565 0 011.414 3.33l-1.82 4.507-1.78-.72a3.455 3.455 0 00-4.495 1.909 3.455 3.455 0 001.908 4.495l1.767.714-1.82 4.506a2.555 2.555 0 01-3.318 1.418l-4.744-1.917-.719 1.78a3.199 3.199 0 01-5.93-2.397l.72-1.778-4.744-1.917a2.565 2.565 0 01-1.414-3.33l1.916-4.743-1.779-.719zm-119.431-87.67a3.199 3.199 0 01.157-4.519 3.199 3.199 0 014.52.158l1.308 1.403 3.74-3.489a2.565 2.565 0 013.616.127l3.315 3.555-1.403 1.308a3.455 3.455 0 00-.17 4.88 3.455 3.455 0 004.88.171l1.403-1.308 3.315 3.555a2.565 2.565 0 01-.126 3.615l-3.554 3.314-1.308-1.403a3.455 3.455 0 00-4.881-.17 3.455 3.455 0 00-.17 4.88l1.3 1.394-3.555 3.314a2.555 2.555 0 01-3.606-.117l-3.49-3.742-1.402 1.309a3.199 3.199 0 01-4.362-4.677l1.403-1.309-3.49-3.742a2.565 2.565 0 01.127-3.615l3.741-3.489-1.308-1.403zM45.083 448.934a3.199 3.199 0 012.122-3.993 3.199 3.199 0 013.993 2.124l.56 1.834 4.893-1.495a2.565 2.565 0 013.194 1.698l1.42 4.648-1.834.561a3.455 3.455 0 00-2.292 4.312 3.455 3.455 0 004.312 2.293l1.834-.56 1.421 4.647a2.565 2.565 0 01-1.698 3.195l-4.647 1.42-.561-1.834a3.455 3.455 0 00-4.312-2.293 3.455 3.455 0 00-2.293 4.312l.558 1.822-4.648 1.421a2.555 2.555 0 01-3.19-1.686l-1.496-4.893-1.834.561a3.199 3.199 0 01-1.87-6.116l1.834-.56-1.496-4.893a2.565 2.565 0 011.699-3.195l4.892-1.495-.561-1.835zM39.345 300.89a3.199 3.199 0 013.658-2.658 3.199 3.199 0 012.658 3.659l-.3 1.895 5.053.8a2.565 2.565 0 012.126 2.927l-.76 4.8-1.895-.3a3.455 3.455 0 00-3.951 2.87 3.455 3.455 0 002.87 3.952l1.895.3-.76 4.8a2.565 2.565 0 01-2.927 2.127l-4.8-.76.3-1.895a3.455 3.455 0 00-2.87-3.951 3.455 3.455 0 00-3.95 2.87l-.299 1.883-4.8-.76a2.555 2.555 0 01-2.128-2.914l.8-5.054-1.894-.3a3.199 3.199 0 011-6.316l1.895.3.8-5.053a2.565 2.565 0 012.927-2.127l5.052.8.3-1.895zm59.066-135.85a3.199 3.199 0 014.453-.786 3.199 3.199 0 01.785 4.453l-1.1 1.572 4.19 2.934a2.565 2.565 0 01.628 3.563l-2.788 3.981-1.571-1.1a3.455 3.455 0 00-4.81.848 3.455 3.455 0 00.848 4.81l1.571 1.1-2.787 3.981a2.565 2.565 0 01-3.563.629l-3.98-2.788 1.1-1.571a3.455 3.455 0 00-.848-4.81 3.455 3.455 0 00-4.81.848l-1.093 1.562-3.98-2.788a2.555 2.555 0 01-.636-3.552l2.935-4.191-1.572-1.1a3.199 3.199 0 013.668-5.24l1.572 1.101 2.934-4.19a2.565 2.565 0 013.563-.63l4.19 2.935 1.1-1.572zm112.053-96.908a3.199 3.199 0 014.368 1.17 3.199 3.199 0 01-1.17 4.368l-1.662.96 2.557 4.43a2.565 2.565 0 01-.936 3.494l-4.21 2.43-.958-1.662a3.455 3.455 0 00-4.718-1.263 3.455 3.455 0 00-1.264 4.717l.96 1.661-4.21 2.43a2.565 2.565 0 01-3.494-.936l-2.43-4.208 1.661-.96a3.455 3.455 0 001.265-4.717 3.455 3.455 0 00-4.718-1.263l-1.65.952-2.43-4.208a2.555 2.555 0 01.925-3.488l4.431-2.558-.96-1.661a3.199 3.199 0 015.54-3.198l.959 1.661 4.43-2.558a2.565 2.565 0 013.495.936l2.557 4.43 1.662-.959z" fill="#3BF2DC"/><path d="M417.096 126.873l8.384-6.091-3.152 19.903-6.092-8.384-1.003 6.333a1.837 1.837 0 01-2.096 1.523l-21.716-3.44a1.837 1.837 0 01-1.523-2.096l2.866-18.094a1.837 1.837 0 012.096-1.522l21.716 3.439c.995.158 1.68 1.1 1.523 2.096l-1.003 6.333zm129.01 74.21h10.363l-14.25 14.25v-10.365l-4.534 4.534a1.837 1.837 0 01-2.59 0l-15.547-15.546a1.837 1.837 0 010-2.591L532.5 178.41a1.837 1.837 0 012.591 0l15.547 15.547a1.837 1.837 0 010 2.59l-4.534 4.534zm60.749 135.855l8.384 6.092-19.903 3.153 6.09-8.385-6.332 1.003a1.837 1.837 0 01-2.096-1.523l-3.44-21.716a1.837 1.837 0 011.523-2.096l18.094-2.866a1.837 1.837 0 012.096 1.523l3.44 21.716a1.837 1.837 0 01-1.523 2.096l-6.333 1.003zm-30.714 145.61l3.201 9.856-17.955-9.148 9.857-3.203-5.713-2.911a1.837 1.837 0 01-.8-2.464l9.98-19.59a1.837 1.837 0 012.465-.801l16.323 8.317a1.837 1.837 0 01.8 2.464l-9.981 19.59a1.837 1.837 0 01-2.464.8l-5.713-2.91zm-110.447 99.745l-3.203 9.857-9.149-17.955 9.857 3.202-2.911-5.713a1.837 1.837 0 01.8-2.464l19.59-9.982a1.837 1.837 0 012.465.8l8.317 16.323a1.837 1.837 0 01-.801 2.464l-19.59 9.982a1.837 1.837 0 01-2.464-.8l-2.911-5.714zm-147.992 15.783l-8.385 6.09 3.153-19.902 6.092 8.384 1.003-6.333a1.837 1.837 0 012.096-1.523l21.715 3.44c.996.157 1.681 1.1 1.524 2.095l-2.866 18.094a1.837 1.837 0 01-2.096 1.523l-21.716-3.44a1.837 1.837 0 01-1.523-2.095l1.003-6.333zm-129.01-74.21H178.33l14.249-14.25v10.364l4.534-4.534a1.837 1.837 0 012.591 0l15.547 15.547a1.837 1.837 0 010 2.591l-12.954 12.954a1.837 1.837 0 01-2.59 0l-15.547-15.547a1.837 1.837 0 010-2.59l4.534-4.535zm-60.75-135.855l-8.383-6.093 19.903-3.152-6.091 8.385 6.333-1.003a1.837 1.837 0 012.096 1.523l3.44 21.715a1.837 1.837 0 01-1.524 2.097l-18.094 2.865a1.837 1.837 0 01-2.096-1.523l-3.439-21.715a1.837 1.837 0 011.523-2.096l6.333-1.003zm30.715-145.61l-3.202-9.857 17.955 9.149-9.856 3.203 5.713 2.91a1.837 1.837 0 01.8 2.465l-9.981 19.59a1.837 1.837 0 01-2.464.8l-16.323-8.316a1.837 1.837 0 01-.8-2.464l9.981-19.59a1.837 1.837 0 012.464-.801l5.713 2.91zm110.447-99.746l3.203-9.856 9.148 17.955-9.856-3.202 2.91 5.713a1.837 1.837 0 01-.8 2.464l-19.59 9.982a1.837 1.837 0 01-2.464-.801l-8.317-16.323a1.837 1.837 0 01.8-2.464l19.59-9.981a1.837 1.837 0 012.465.8l2.91 5.713z" fill="#EFE3FF"/><path d="M356.122 91.423h11.214v-3.737h-11.214v3.737zm0-22.423v3.737h33.64V69h-33.64zm0 13.08v-3.737h22.427v3.737h-22.427zm150.122 46.682l2.036-3.134 9.404 6.107-2.035 3.134-9.405-6.107zm106.04 112.641l3.387-1.58 4.739 10.163-3.387 1.58-4.74-10.163zm28.382 152.026l3.7.52-1.56 11.104-3.7-.52 1.56-11.104zm-58.327 143.25l2.82 2.452-7.356 8.463-2.82-2.452 7.356-8.463zm-126.535 88.993l1.03 3.592-10.778 3.091-1.03-3.592 10.778-3.091zm-154.585 6.366l-1.03 3.593-10.78-3.09 1.03-3.593 10.78 3.09zm-133.5-78.11l-2.82 2.453-7.357-8.463 2.82-2.452 7.357 8.463zM97.636 416.042l-3.7.52-1.561-11.104 3.7-.52 1.561 11.104zm15.597-153.899l-3.387-1.58 4.739-10.162 3.387 1.58-4.739 10.162zm96.422-120.987l-2.035-3.134 9.404-6.107 2.036 3.134-9.405 6.107zm308.758-31.293l28.212 18.321-2.035 3.135-28.213-18.322 2.036-3.134zM632.59 232.097l14.217 30.488-3.387 1.58-14.217-30.488 3.387-1.58zm30.24 164.505l-4.682 33.312-3.7-.52 4.681-33.313 3.7.52zm-63.533 154.776l-22.07 25.389-2.82-2.452 22.07-25.388 2.82 2.451zm-137.178 95.884l-32.336 9.272-1.03-3.592 32.336-9.273 1.03 3.593zm-167.176 6.23l-32.336-9.272 1.03-3.592 32.336 9.272-1.03 3.592zm-144.155-84.885l-22.07-25.388 2.821-2.452 22.07 25.388-2.821 2.452zm-75.386-149.38l-4.682-33.312 3.7-.52 4.682 33.312-3.7.52zm17.363-166.463l14.217-30.488 3.387 1.58-14.216 30.487-3.388-1.579zm104.78-130.418l28.213-18.32 2.035 3.133-28.212 18.322-2.036-3.135zm313.766-1.467l2.035-3.134 18.809 12.214-2.036 3.134-18.808-12.214zm109.432 116.66l3.387-1.579 9.478 20.326-3.387 1.579-9.478-20.325zm29.154 157.216l3.701.52-3.12 22.208-3.702-.52 3.121-22.208zm-60.49 148.048l2.821 2.452-14.713 16.925-2.82-2.452 14.713-16.925zm-130.96 91.868l1.03 3.592-21.558 6.182-1.03-3.593 21.558-6.181zm-159.851 6.298l-1.03 3.593-21.558-6.182 1.03-3.592 21.558 6.181zm-137.932-80.927l-2.82 2.452-14.714-16.925 2.82-2.452 14.714 16.925zM88.369 417.374l-3.7.52-3.122-22.208 3.701-.52 3.121 22.208zm16.324-159.131l-3.387-1.58 9.478-20.325 3.387 1.58-9.478 20.325zm99.925-124.925l-2.035-3.134 18.808-12.215 2.035 3.135-18.808 12.214z" fill="#3255D6"/><path fill="#3BF2DC" d="M334.72 356v30.123h12.93V356zM360.72 356v30.123h12.93V356zM386.72 356v30.123h12.93V356zM366.666 317l-40.946 21.516v8.607h81.892v-8.607z"/></g></g></svg>