<svg width="517" height="51" viewBox="0 0 517 51" fill="none" xmlns="http://www.w3.org/2000/svg">
<path fill-rule="evenodd" clip-rule="evenodd" d="M98.8486 50H116.821V32H98.8486V50Z" stroke="#565495" stroke-linecap="round" stroke-linejoin="round"/>
<path fill-rule="evenodd" clip-rule="evenodd" d="M18.9721 17.8H1L9.98607 1L18.9721 17.8Z" stroke="#565495" stroke-linecap="round" stroke-linejoin="round"/>
<path fill-rule="evenodd" clip-rule="evenodd" d="M405.373 22V22C400.411 22 396.387 17.9695 396.387 13C396.387 8.0305 400.411 4 405.373 4C410.335 4 414.359 8.0305 414.359 13C414.359 17.9695 410.335 22 405.373 22Z" stroke="#565495" stroke-linecap="round" stroke-linejoin="round"/>
<path d="M504.68 27.0359C505.049 26.2353 506.187 26.2353 506.555 27.0359L508.587 31.448C508.738 31.7742 509.046 31.9989 509.403 32.0412L514.223 32.6136C515.098 32.7175 515.449 33.7978 514.803 34.396L511.237 37.6988C510.974 37.9425 510.856 38.3052 510.926 38.657L511.872 43.4266C512.044 44.2908 511.124 44.9587 510.355 44.5279L506.122 42.155C505.809 41.9792 505.426 41.9792 505.113 42.155L500.88 44.5279C500.112 44.9587 499.192 44.2908 499.363 43.4266L500.309 38.657C500.379 38.3052 500.261 37.9425 499.998 37.6988L496.432 34.396C495.786 33.7978 496.138 32.7175 497.012 32.6136L501.832 32.0412C502.189 31.9989 502.498 31.7742 502.648 31.448L504.68 27.0359Z" stroke="#565495"/>
<path fill-rule="evenodd" clip-rule="evenodd" d="M260.597 1L244.622 28.6916H252.608V49L268.585 21.3084H260.597V1Z" stroke="#565495" stroke-linecap="round" stroke-linejoin="round"/>
</svg>
