<svg width="271" height="108" fill="none" xmlns="http://www.w3.org/2000/svg"><path fill-rule="evenodd" clip-rule="evenodd" d="M181.219 51.88h-26.547A3.67 3.67 0 01151 48.213V4.667A3.67 3.67 0 01154.672 1H184.8a3.668 3.668 0 013.671 3.667v43.516a3.71 3.71 0 01-3.7 3.698h-3.552z" stroke="#565495" stroke-linecap="round" stroke-linejoin="round"/><path fill-rule="evenodd" clip-rule="evenodd" d="M178.915 35.143a5.886 5.886 0 01-5.888 5.882 5.883 5.883 0 01-5.886-5.882 5.883 5.883 0 015.886-5.882 5.886 5.886 0 015.888 5.882z" stroke="#565495" stroke-linecap="round" stroke-linejoin="round"/><path fill-rule="evenodd" clip-rule="evenodd" d="M171.561 38.19a5.885 5.885 0 01-5.888 5.881 5.884 5.884 0 01-5.886-5.881 5.884 5.884 0 015.886-5.882 5.885 5.885 0 015.888 5.882z" stroke="#565495" stroke-linecap="round" stroke-linejoin="round"/><path d="M159.004 10.085h21.473M159.004 15.608h16.606M159.004 21.128h19.927M127.471 88.633c0-5.233-3.762-7.782-10.342-7.782H93.672A3.67 3.67 0 0190 77.183V33.668A3.67 3.67 0 0193.672 30H123.8a3.67 3.67 0 013.672 3.669v54.246" stroke="#565495" stroke-linecap="round" stroke-linejoin="round"/><path fill-rule="evenodd" clip-rule="evenodd" d="M104.374 39.393a5.793 5.793 0 015.796 5.79 5.792 5.792 0 01-5.796 5.79h-5.716V39.396l5.716-.003z" stroke="#565495" stroke-linecap="round" stroke-linejoin="round"/><path d="M98.137 58.39h16.606M98.137 63.912h19.927M98.137 69.48h9.667" stroke="#565495" stroke-linecap="round" stroke-linejoin="round"/><rect x=".639" y="59.661" width="14" height="12" rx="2" transform="rotate(-15 .639 59.661)" stroke="#565495"/><path d="M18.418 62.589l4.479 2.585c1.543.891 3.393-.528 2.931-2.25l-1.892-7.064c-.462-1.72-2.773-2.025-3.664-.482l-2.586 4.479a2 2 0 00.732 2.732z" stroke="#565495"/><rect x="260.354" y="105.86" width="14" height="12" rx="2" transform="rotate(-135 260.354 105.86)" stroke="#565495"/><path d="M254 89v-5.172c0-1.781-2.154-2.674-3.414-1.414l-5.172 5.172c-1.26 1.26-.367 3.414 1.414 3.414H252a2 2 0 002-2z" stroke="#565495"/></svg>