<svg width="540" height="337" fill="none" xmlns="http://www.w3.org/2000/svg"><path d="M443 256h96v64h-96v-64zM539 288h-96" stroke="#565495" stroke-linecap="round" stroke-linejoin="round"/><path d="M491 256v64" stroke="#565495"/><path d="M463.093 304l2.361 2.857 6.569-5.714M511.093 270.857l2.361 2.857 6.569-5.714M512.209 307.428l6.698-6.857M512.209 300.571l6.698 6.857M464.209 275.428l6.698-6.857M464.209 268.571l6.698 6.857M1.143 256h121.999v80h-122v-80zM123.142 317.538h-122" stroke="#565495" stroke-linecap="round" stroke-linejoin="round"/><path d="M62.143 317.538V336" stroke="#565495"/><path d="M46.894 303.692h-.5a.5.5 0 00.5.5v-.5zm30.5 0v.5a.5.5 0 00.5-.5h-.5zm-15.25-16.424c4.492 0 8.125-3.669 8.125-8.193h-1c0 3.98-3.193 7.193-7.125 7.193v1zm8.125-8.193c0-4.522-3.633-8.191-8.125-8.191v1c3.932 0 7.125 3.214 7.125 7.191h1zm-8.125-8.191c-4.492 0-8.125 3.669-8.125 8.191h1c0-3.977 3.193-7.191 7.125-7.191v-1zm-8.125 8.191c0 4.524 3.632 8.193 8.125 8.193v-1c-3.932 0-7.125-3.213-7.125-7.193h-1zm8.124 12.577c-2.608 0-6.484.657-9.72 1.965-1.62.655-3.11 1.485-4.203 2.503-1.097 1.022-1.826 2.266-1.826 3.727h1c0-1.097.54-2.094 1.507-2.995.971-.904 2.339-1.678 3.896-2.308 3.116-1.259 6.864-1.892 9.346-1.892v-1zm-15.75 8.195v3.845h1v-3.845h-1zm.5 4.345h30.5v-1h-30.5v1zm31-.5v-3.845h-1v3.845h1zm0-3.845c0-1.461-.729-2.705-1.826-3.727-1.093-1.018-2.584-1.848-4.203-2.503-3.237-1.308-7.113-1.965-9.721-1.965v1c2.482 0 6.23.633 9.347 1.892 1.557.63 2.925 1.404 3.896 2.308.967.901 1.508 1.898 1.508 2.995h1z" fill="#565495"/><path fill-rule="evenodd" clip-rule="evenodd" d="M59 64.8H41L50 48l9 16.8z" stroke="#565495" stroke-linecap="round" stroke-linejoin="round"/><path d="M510.463 2.032c.369-.8 1.505-.8 1.874 0l2.037 4.416c.151.326.46.55.816.593l4.83.573c.874.103 1.226 1.185.579 1.783l-3.571 3.302a1.033 1.033 0 00-.311.959l.948 4.77c.171.864-.748 1.532-1.517 1.102l-4.244-2.376a1.032 1.032 0 00-1.008 0l-4.244 2.376c-.769.43-1.688-.238-1.517-1.102l.948-4.77a1.033 1.033 0 00-.311-.96l-3.571-3.301c-.647-.598-.295-1.68.579-1.783l4.83-.573c.356-.042.665-.267.816-.593l2.037-4.416z" stroke="#565495"/></svg>