<svg width="580" height="345" fill="none" xmlns="http://www.w3.org/2000/svg"><path fill-rule="evenodd" clip-rule="evenodd" d="M519 26.728L531.728 14 519 1.272 506.272 14 519 26.728z" stroke="#565495" stroke-linecap="round" stroke-linejoin="round"/><path fill-rule="evenodd" clip-rule="evenodd" d="M451 310.666h22.433v-65.871H451v65.871z" stroke="#565495" stroke-linejoin="round"/><path fill-rule="evenodd" clip-rule="evenodd" d="M451.002 244.796H579V230H451.002v14.796z" stroke="#565495" stroke-linejoin="round"/><path fill-rule="evenodd" clip-rule="evenodd" d="M556.566 310.666h22.433v-65.871h-22.433v65.871z" stroke="#565495" stroke-linejoin="round"/><path d="M579.001 310.667H451.003M462.216 233.568v7.659M458.38 237.398h7.671" stroke="#565495" stroke-linejoin="round"/><path fill-rule="evenodd" clip-rule="evenodd" d="M515.001 294.404l-18.315-22.36 6.961-8.746h22.706l6.963 8.746-18.315 22.36zM42.144 53.573c0 11.362-9.211 20.572-20.573 20.572C10.211 74.145 1 64.935 1 53.573 1 42.213 10.21 33 21.571 33c11.362 0 20.573 9.212 20.573 20.573z" stroke="#565495" stroke-linejoin="round"/><path d="M21.572 42.981v21.193M10.976 53.573h21.192" stroke="#565495" stroke-linejoin="round"/><path fill-rule="evenodd" clip-rule="evenodd" d="M65 342.835h11.375v-61.109H65v61.109zM65.002 281.726h107.052V268H65.002v13.726z" stroke="#565495" stroke-width="1.32" stroke-linejoin="round"/><path d="M172.052 291.682v-9.956H76.224v61.109h95.828v-8.626" stroke="#565495" stroke-width="1.32" stroke-linejoin="round"/><path fill-rule="evenodd" clip-rule="evenodd" d="M150.773 334.511H193v-42.567h-42.227v42.567z" stroke="#565495" stroke-width="1.32" stroke-linejoin="round"/><path d="M172.054 342.835H65.003" stroke="#565495" stroke-width="1.32" stroke-linejoin="round"/><path d="M92.71 297.265h29.692M92.71 303.916h23.094M92.71 318.548h29.692M92.71 325.199h23.094" stroke="#565495" stroke-width="1.32"/><circle cx="171.969" cy="313.247" r="8" stroke="#565495" stroke-width="1.32"/></svg>