<svg width="1327" height="489" fill="none" xmlns="http://www.w3.org/2000/svg"><circle opacity=".3" cx="1271" cy="200" r="24" stroke="#726FC5"/><path opacity=".5" stroke="#726FC5" d="M1263 192h16v16h-16z"/><path opacity=".3" d="M1190.06 0c0 25.99-21.07 47.059-47.06 47.059-25.99 0-47.06-21.07-47.06-47.059" stroke="#726FC5"/><path opacity=".2" d="M1246.53 0c0 57.178-46.35 103.53-103.53 103.53S1039.47 57.178 1039.47 0" stroke="#726FC5"/><path opacity=".1" d="M1303 0c0 88.366-71.63 160-160 160S983 88.366 983 0" stroke="#726FC5"/><g opacity=".6"><path stroke="#726FC5" d="M1182 280h144v96h-144z"/><path stroke="#726FC5" d="M1182 280h48v96h-48z"/><path stroke="#726FC5" d="M1190 330h32v24h-32z"/><rect x="1206" y="362" width="16" height="6" rx="3" stroke="#726FC5"/><path fill="#726FC5" d="M1190 290h32v1h-32zm0 7h24v1h-24zm0 13h32v1h-32zm0 7h24v1h-24z"/><path d="M1269.59 338.691h8.89m9.39.174h10.29m-45.29-.174h7.89m4.42-4.58v-7.903m18.27 7.903v-7.903m0-6.023v-7.903m-18.27 7.903v-11.744h14.5m24.4 33.656V350h-54.65v-7.7" stroke="#726FC5" stroke-linecap="round" stroke-linejoin="round"/><path clip-rule="evenodd" d="M1252.87 338.691c0 1.9-1.54 3.44-3.44 3.44-1.89 0-3.43-1.54-3.43-3.44s1.54-3.44 3.43-3.44c1.9 0 3.44 1.54 3.44 3.44zm34.02-30.25c0 1.9-1.54 3.439-3.44 3.439a3.437 3.437 0 01-3.43-3.439c0-1.9 1.54-3.441 3.43-3.441a3.44 3.44 0 013.44 3.441zm-21.71 25.829l4.41 4.422-4.41 4.42-4.42-4.42 4.42-4.422zm18.27 0l4.42 4.422-4.42 4.42-4.41-4.42 4.41-4.422zm14.71 7.036H1310v-5.232h-11.84v5.232zm-38.91-15.888h11.85v-5.232h-11.85v5.232zm18.28 0h11.84v-5.232h-11.84v5.232z" stroke="#726FC5" stroke-linecap="round" stroke-linejoin="round"/></g><path d="M1235 414c0 1.104.9 2 2 2s2-.896 2-2-.9-2-2-2-2 .896-2 2zm24 0c0 1.104.9 2 2 2s2-.896 2-2-.9-2-2-2-2 .896-2 2zm24 0c0 1.104.9 2 2 2s2-.896 2-2-.9-2-2-2-2 .896-2 2zm-48 24c0 1.104.9 2 2 2s2-.896 2-2-.9-2-2-2-2 .896-2 2zm24 0c0 1.104.9 2 2 2s2-.896 2-2-.9-2-2-2-2 .896-2 2zm24 0c0 1.104.9 2 2 2s2-.896 2-2-.9-2-2-2-2 .896-2 2zm-48 24c0 1.104.9 2 2 2s2-.896 2-2-.9-2-2-2-2 .896-2 2zm24 0c0 1.104.9 2 2 2s2-.896 2-2-.9-2-2-2-2 .896-2 2zm24 0c0 1.104.9 2 2 2s2-.896 2-2-.9-2-2-2-2 .896-2 2zm-48 24c0 1.104.9 2 2 2s2-.896 2-2-.9-2-2-2-2 .896-2 2zm24 0c0 1.104.9 2 2 2s2-.896 2-2-.9-2-2-2-2 .896-2 2zm24 0c0 1.104.9 2 2 2s2-.896 2-2-.9-2-2-2-2 .896-2 2zm24-72c0 1.104.9 2 2 2s2-.896 2-2-.9-2-2-2-2 .896-2 2zm0 24c0 1.104.9 2 2 2s2-.896 2-2-.9-2-2-2-2 .896-2 2zm0 24c0 1.104.9 2 2 2s2-.896 2-2-.9-2-2-2-2 .896-2 2zm0 24c0 1.104.9 2 2 2s2-.896 2-2-.9-2-2-2-2 .896-2 2z" opacity=".6" fill-rule="evenodd" clip-rule="evenodd" fill="#726FC5"/><g opacity=".6"><path stroke="#726FC5" d="M1038 376h144v96h-144z"/><path stroke="#726FC5" d="M1038 376h48v96h-48zm64 16h64v64h-64z"/><path fill="#726FC5" d="M1046 386h32v1h-32zm0 7h24v1h-24zm0 13h32v1h-32zm0 7h24v1h-24z"/><path stroke="#726FC5" d="M1046 426h32v24h-32z"/><rect x="1062" y="458" width="16" height="6" rx="3" stroke="#726FC5"/><path d="M1144 418l-13.76 14-6.24-6.342" stroke="#726FC5" stroke-linecap="round" stroke-linejoin="round"/><path clip-rule="evenodd" d="M1134 444c11.05 0 20-8.954 20-20s-8.95-20-20-20-20 8.954-20 20 8.95 20 20 20z" stroke="#726FC5"/></g><path opacity=".6" d="M1086 344h-.5c0 .276.22.5.5.5v-.5zm32 0v.5c.28 0 .5-.224.5-.5h-.5zm-16-16.499c4.69 0 8.5-3.803 8.5-8.501h-1a7.5 7.5 0 01-7.5 7.501v1zm8.5-8.501c0-4.695-3.81-8.5-8.5-8.5v1a7.5 7.5 0 017.5 7.5h1zm-8.5-8.5c-4.7 0-8.5 3.805-8.5 8.5h1a7.5 7.5 0 017.5-7.5v-1zm-8.5 8.5c0 4.698 3.8 8.501 8.5 8.501v-1a7.5 7.5 0 01-7.5-7.501h-1zm8.5 12.5c-2.73 0-6.8.682-10.19 2.042-1.7.679-3.26 1.541-4.4 2.597-1.15 1.059-1.91 2.348-1.91 3.862h1c0-1.146.57-2.188 1.59-3.127 1.02-.943 2.46-1.749 4.09-2.404 3.28-1.311 7.21-1.97 9.82-1.97v-1zm-16.5 8.501V344h1v-3.999h-1zm.5 4.499h32v-1h-32v1zm32.5-.5v-3.999h-1V344h1zm0-3.999c0-1.514-.76-2.803-1.91-3.862-1.14-1.056-2.7-1.918-4.4-2.597-3.39-1.36-7.46-2.042-10.19-2.042v1c2.61 0 6.54.659 9.82 1.97 1.63.655 3.07 1.461 4.09 2.404 1.02.94 1.59 1.981 1.59 3.127h1z" fill="#8A86FF"/><circle opacity=".3" cx="186" cy="206" r="24" stroke="#726FC5"/><path opacity=".5" stroke="#726FC5" d="M174.686 206L186 194.686 197.313 206 186 217.314z"/><g opacity=".6"><path stroke="#726FC5" d="M1 392h144v96H1z"/><path stroke="#726FC5" d="M1 392h16v96H1z"/><circle cx="50" cy="416" r="5" stroke="#726FC5"/><path stroke="#726FC5" d="M33 402h80v28H33z"/><path fill="#726FC5" d="M63 412h32v1H63zm0 7h24v1H63z"/><circle cx="50" cy="454" r="5" stroke="#726FC5"/><path stroke="#726FC5" d="M33 440h80v28H33z"/><path fill="#726FC5" d="M63 450h32v1H63zm0 7h24v1H63z"/><path d="M113 488v-10H33v10" stroke="#726FC5"/></g><path d="M10 150a2 2 0 104.001-.001A2 2 0 0010 150zm24 0a2 2 0 104.001-.001A2 2 0 0034 150zm24 0a2 2 0 104.001-.001A2 2 0 0058 150zm24 0a2 2 0 104.001-.001A2 2 0 0082 150zm24 0a2 2 0 104.001-.001A2 2 0 00106 150zm-96 24a2 2 0 104.001-.001A2 2 0 0010 174zm24 0a2 2 0 104.001-.001A2 2 0 0034 174zm24 0a2 2 0 104.001-.001A2 2 0 0058 174zm24 0a2 2 0 104.001-.001A2 2 0 0082 174zm24 0a2 2 0 104.001-.001A2 2 0 00106 174zm-96 24a2 2 0 104.001-.001A2 2 0 0010 198zm24 0a2 2 0 104.001-.001A2 2 0 0034 198zm24 0a2 2 0 104.001-.001A2 2 0 0058 198zm24 0a2 2 0 104.001-.001A2 2 0 0082 198zm24 0a2 2 0 104.001-.001A2 2 0 00106 198zm-96 24a2 2 0 104.001-.001A2 2 0 0010 222zm24 0a2 2 0 104.001-.001A2 2 0 0034 222zm24 0a2 2 0 104.001-.001A2 2 0 0058 222zm24 0a2 2 0 104.001-.001A2 2 0 0082 222zm24 0a2 2 0 104.001-.001A2 2 0 00106 222zm-96 24a2 2 0 104.001-.001A2 2 0 0010 246zm24 0a2 2 0 104.001-.001A2 2 0 0034 246zm24 0a2 2 0 104.001-.001A2 2 0 0058 246zm24 0a2 2 0 104.001-.001A2 2 0 0082 246zm24 0a2 2 0 104.001-.001A2 2 0 00106 246z" opacity=".6" fill-rule="evenodd" clip-rule="evenodd" fill="#726FC5"/><g opacity=".6"><path stroke="#726FC5" d="M145 296h144v96H145z"/><path stroke="#726FC5" d="M145 296h16v96h-16zm16 0h128v42H161zm96 96v-10h-64v10"/><path fill="#726FC5" d="M193 357h48v1h-48zm0 7h40v1h-40zm0 7h48v1h-48z"/><path d="M193 350.565l3.34-2.565 3.135 2.565 3.277-2.565 3.197 2.565 3.216-2.565 3.259 2.565 3.153-2.565 3.321 2.565" stroke="#726FC5" stroke-linejoin="round"/><path clip-rule="evenodd" d="M205 321a2 2 0 11-4.001-.001A2 2 0 01205 321zm18 5a4 4 0 11-8 0 4 4 0 018 0zm24-13a8 8 0 11-16 0 8 8 0 0116 0z" stroke="#726FC5" stroke-linejoin="round"/></g><path clip-rule="evenodd" d="M64.324 320.517l4.761 10.693-4.069 1.812-4.781-10.737L55 327.053V305l16.257 14.859-6.933.658z" stroke="#726FC5" stroke-linejoin="round" opacity=".6"/><path opacity=".6" d="M193 456h-.5a.5.5 0 00.5.5v-.5zm32 0v.5a.5.5 0 00.5-.5h-.5zm-16.001-15.907c4.683 0 8.5-3.699 8.5-8.296h-1c0 4.02-3.344 7.296-7.5 7.296v1zm8.5-8.296c0-4.596-3.817-8.297-8.5-8.297v1c4.156 0 7.5 3.278 7.5 7.297h1zm-8.5-8.297c-4.683 0-8.501 3.701-8.501 8.297h1c0-4.019 3.345-7.297 7.501-7.297v-1zm-8.501 8.297c0 4.597 3.818 8.296 8.501 8.296v-1c-4.156 0-7.501-3.276-7.501-7.296h-1zm8.501 12.009c-2.73 0-6.792.665-10.183 1.989-1.696.662-3.257 1.501-4.401 2.531-1.148 1.032-1.915 2.292-1.915 3.777h1c0-1.108.565-2.118 1.583-3.034 1.021-.918 2.46-1.704 4.096-2.343 3.273-1.278 7.211-1.92 9.82-1.92v-1zm-16.499 8.297V456h1v-3.897h-1zm.5 4.397h32v-1h-32v1zm32.5-.5v-3.897h-1V456h1zm0-3.897c0-1.485-.767-2.745-1.915-3.777-1.144-1.03-2.705-1.869-4.401-2.531-3.392-1.324-7.454-1.989-10.185-1.989v1c2.61 0 6.548.642 9.821 1.92 1.637.639 3.076 1.425 4.097 2.343 1.018.916 1.583 1.926 1.583 3.034h1z" fill="#8A86FF"/></svg>