<svg width="883" height="353" fill="none" xmlns="http://www.w3.org/2000/svg"><path fill-rule="evenodd" clip-rule="evenodd" d="M743 26.728L755.728 14 743 1.272 730.272 14 743 26.728z" stroke="#565495" stroke-linecap="round" stroke-linejoin="round"/><path fill-rule="evenodd" clip-rule="evenodd" d="M478.239 314.999l-20.001-4.458L452 290.545 465.764 275l19.998 4.458 6.238 20-13.761 15.541z" stroke="#565495" stroke-linejoin="round"/><path d="M478.239 315l-6.238-19.996 13.761-15.545" stroke="#565495" stroke-linejoin="round"/><path d="M452 290.545l20.002 4.458L465.761 275" stroke="#565495" stroke-linejoin="round"/><path fill-rule="evenodd" clip-rule="evenodd" d="M644 318.666h22.433v-65.871H644v65.871z" stroke="#565495" stroke-linejoin="round"/><path fill-rule="evenodd" clip-rule="evenodd" d="M644.002 252.796H772V238H644.002v14.796z" stroke="#565495" stroke-linejoin="round"/><path fill-rule="evenodd" clip-rule="evenodd" d="M749.566 318.666h22.433v-65.871h-22.433v65.871z" stroke="#565495" stroke-linejoin="round"/><path d="M772.001 318.667H644.003M655.216 241.568v7.659M651.38 245.398h7.671" stroke="#565495" stroke-linejoin="round"/><path fill-rule="evenodd" clip-rule="evenodd" d="M708.001 302.404l-18.315-22.36 6.961-8.746h22.706l6.963 8.746-18.315 22.36zM104.144 45.573c0 11.362-9.211 20.572-20.573 20.572-11.36 0-20.571-9.21-20.571-20.572C63 34.213 72.21 25 83.571 25c11.362 0 20.573 9.212 20.573 20.573z" stroke="#565495" stroke-linejoin="round"/><path d="M83.572 34.981v21.193M72.976 45.573h21.192" stroke="#565495" stroke-linejoin="round"/><path fill-rule="evenodd" clip-rule="evenodd" d="M841.613 133.418c0-2.994 9.045-5.418 20.202-5.418 11.155 0 20.202 2.424 20.202 5.418 0 2.992-9.047 5.418-20.202 5.418-11.157 0-20.202-2.426-20.202-5.418z" stroke="#565495" stroke-linejoin="round"/><path d="M841.613 133.418v24.555c0 9.201 9.045 16.661 20.202 16.661 11.157 0 20.202-7.46 20.202-16.661v-24.408" stroke="#565495" stroke-linejoin="round"/><path fill-rule="evenodd" clip-rule="evenodd" d="M851.226 151.419a9.613 9.613 0 11-19.226 0 9.613 9.613 0 0119.226 0z" stroke="#565495" stroke-linejoin="round"/><path d="M24.179 235.654h41.047M24.179 222.846h41.047M24.179 210.039h41.047M24.179 197.231h41.047M24.179 184.423h41.047M24.179 171.615h41.047M24.179 158.808h41.047M24.179 146v110.177M64.737 256.177V146" stroke="#565495" stroke-linejoin="round"/><path fill-rule="evenodd" clip-rule="evenodd" d="M86.083 251.664c0 2.948-19.114 5.336-42.692 5.336-23.58 0-42.693-2.388-42.693-5.336 0-2.948 19.114-5.337 42.693-5.337 23.578 0 42.692 2.389 42.692 5.337z" stroke="#565495" stroke-linejoin="round"/><path fill-rule="evenodd" clip-rule="evenodd" d="M177 350.835h11.375v-61.109H177v61.109zM177.002 289.726h107.052V276H177.002v13.726z" stroke="#565495" stroke-width="1.32" stroke-linejoin="round"/><path d="M284.052 299.682v-9.956h-95.828v61.109h95.828v-8.626" stroke="#565495" stroke-width="1.32" stroke-linejoin="round"/><path fill-rule="evenodd" clip-rule="evenodd" d="M262.773 342.511H305v-42.567h-42.227v42.567z" stroke="#565495" stroke-width="1.32" stroke-linejoin="round"/><path d="M284.054 350.835H177.003" stroke="#565495" stroke-width="1.32" stroke-linejoin="round"/><path d="M204.711 305.265h29.691M204.711 311.916h23.093M204.711 326.548h29.691M204.711 333.199h23.093" stroke="#565495" stroke-width="1.32"/><circle cx="283.969" cy="321.247" r="8" stroke="#565495" stroke-width="1.32"/></svg>