<svg width="341" height="51" viewBox="0 0 341 51" fill="none" xmlns="http://www.w3.org/2000/svg">
<path fill-rule="evenodd" clip-rule="evenodd" d="M66.8486 50H84.8208V32H66.8486V50Z" stroke="#565495" stroke-linecap="round" stroke-linejoin="round"/>
<path fill-rule="evenodd" clip-rule="evenodd" d="M18.9721 17.8H1L9.98607 1L18.9721 17.8Z" stroke="#565495" stroke-linecap="round" stroke-linejoin="round"/>
<path fill-rule="evenodd" clip-rule="evenodd" d="M261.373 22V22C256.411 22 252.387 17.9695 252.387 13C252.387 8.0305 256.411 4 261.373 4C266.335 4 270.359 8.0305 270.359 13C270.359 17.9695 266.335 22 261.373 22Z" stroke="#565495" stroke-linecap="round" stroke-linejoin="round"/>
<path d="M328.68 27.0359C329.049 26.2353 330.187 26.2353 330.555 27.0359L332.587 31.448C332.738 31.7742 333.046 31.9989 333.403 32.0412L338.223 32.6136C339.098 32.7175 339.449 33.7978 338.803 34.396L335.237 37.6988C334.974 37.9425 334.856 38.3052 334.926 38.657L335.872 43.4266C336.044 44.2908 335.124 44.9587 334.355 44.5279L330.122 42.155C329.809 41.9792 329.426 41.9792 329.113 42.155L324.88 44.5279C324.112 44.9587 323.192 44.2908 323.363 43.4266L324.309 38.657C324.379 38.3052 324.261 37.9425 323.998 37.6988L320.432 34.396C319.786 33.7978 320.138 32.7175 321.012 32.6136L325.832 32.0412C326.189 31.9989 326.498 31.7742 326.648 31.448L328.68 27.0359Z" stroke="#565495"/>
<path fill-rule="evenodd" clip-rule="evenodd" d="M180.597 1L164.622 28.6916H172.608V49L188.585 21.3084H180.597V1Z" stroke="#565495" stroke-linecap="round" stroke-linejoin="round"/>
</svg>
