<?xml version="1.0" encoding="UTF-8"?>
<svg width="85px" height="62px" viewBox="0 0 85 62" version="1.1" xmlns="http://www.w3.org/2000/svg" xmlns:xlink="http://www.w3.org/1999/xlink">
    <!-- Generator: Sketch 49.3 (51167) - http://www.bohemiancoding.com/sketch -->
    <title>learn-the-design-process</title>
    <desc>Created with Sketch.</desc>
    <defs></defs>
    <g id="Page-1" stroke="none" stroke-width="1" fill="none" fill-rule="evenodd" stroke-linecap="round" stroke-linejoin="round">
        <g id="1-Best-+-Value-Prop:-Your-Creativity-Copy-4" transform="translate(-326.000000, -1144.000000)" stroke-width="2.5">
            <g id="learn-the-design-process" transform="translate(327.000000, 1145.000000)">
                <path d="M30.19928,14.0295652 L66.96888,14.0295652" id="Stroke-1" stroke="#9A66FE"></path>
                <path d="M30.19928,23.4345043 L58.63328,23.4345043" id="Stroke-2" stroke="#9A66FE"></path>
                <path d="M30.19928,32.8408348 L64.32008,32.8408348" id="Stroke-3" stroke="#9A66FE"></path>
                <g id="Group-10" transform="translate(0.000000, 0.583930)">
                    <path d="M79.3824,45.1114435 L17.7824,45.1114435 C16.2368,45.1114435 14.9824,43.8648348 14.9824,42.3288348 L14.9824,3.37231304 C14.9824,1.83631304 16.2368,0.589704348 17.7824,0.589704348 L79.3824,0.589704348 C80.9308,0.589704348 82.1824,1.83631304 82.1824,3.37231304 L82.1824,42.3288348 C82.1824,43.8648348 80.9308,45.1114435 79.3824,45.1114435 Z" id="Stroke-4" stroke="#4C5EFF"></path>
                    <path d="M74.6,46.072 L74.6,49.0855652 C74.6,50.6243478 73.3484,51.8681739 71.8,51.8681739 L10.2,51.8681739 C8.6516,51.8681739 7.4,50.6243478 7.4,49.0855652 L7.4,10.1290435 C7.4,8.59304348 8.6516,7.34643478 10.2,7.34643478 L13.658,7.34643478" id="Stroke-6" stroke="#9A66FE"></path>
                    <path d="M67.6,53.0285217 L67.6,56.042087 C67.6,57.5808696 66.3484,58.8246957 64.8,58.8246957 L3.2,58.8246957 C1.6516,58.8246957 0.4,57.5808696 0.4,56.042087 L0.4,17.0855652 C0.4,15.5495652 1.6516,14.3029565 3.2,14.3029565 L6.658,14.3029565" id="Stroke-8" stroke="#9A66FE"></path>
                </g>
            </g>
        </g>
    </g>
</svg>